<?xml version="1.0" encoding="UTF-8" standalone="no"?>
<svg
   version="1.1"
   viewBox="0 0 1000 1000"
   id="svg1"
   sodipodi:docname="janTok-177.svg"
   inkscape:version="1.4.2 (ebf0e940d0, 2025-05-08)"
   width="1000"
   height="1000"
   xmlns:inkscape="http://www.inkscape.org/namespaces/inkscape"
   xmlns:sodipodi="http://sodipodi.sourceforge.net/DTD/sodipodi-0.dtd"
   xmlns="http://www.w3.org/2000/svg"
   xmlns:svg="http://www.w3.org/2000/svg">
  <defs
     id="defs1">
    <inkscape:path-effect
       effect="offset"
       id="path-effect1"
       is_visible="true"
       lpeversion="1.3"
       linejoin_type="miter"
       unit="pc"
       offset="0.4"
       miter_limit="4"
       attempt_force_join="false"
       update_on_knot_move="true" />
  </defs>
  <sodipodi:namedview
     id="namedview1"
     pagecolor="#ffffff"
     bordercolor="#000000"
     borderopacity="0.25"
     inkscape:showpageshadow="2"
     inkscape:pageopacity="0.0"
     inkscape:pagecheckerboard="0"
     inkscape:deskcolor="#d1d1d1"
     inkscape:zoom="0.6363961"
     inkscape:cx="527.18739"
     inkscape:cy="502.83149"
     inkscape:window-width="1920"
     inkscape:window-height="1145"
     inkscape:window-x="0"
     inkscape:window-y="0"
     inkscape:window-maximized="1"
     inkscape:current-layer="svg1"
     showgrid="true" />
  <path
     fill="currentColor"
     d="M 499.5,43.599609 C 274.98939,43.599609 93.099609,225.48939 93.099609,450 c 0,110.23056 43.687491,210.78988 114.986331,283.61914 l -144.816409,123.57813 -0.07422,0.0664 C 50.87659,868.46251 44.099609,884.20234 44.099609,900 c 0,31.56629 25.864323,56.40039 56.400391,56.40039 13.52708,0 25.93717,-4.55364 36.99805,-13.40234 l 0.0898,-0.0723 161.66797,-139.13281 c 59.05017,33.16778 127.69896,52.60742 200.24414,52.60742 72.55536,0 141.21377,-19.44481 200.26953,-52.62109 l 163.52734,139.04882 c 0,0 0.002,0.002 0.002,0.002 0,0 0.002,0 0.002,0 0,0 0.002,0.002 0.002,0.002 0.006,0.005 0.012,0.009 0.0176,0.0137 10.23056,9.05904 23.75506,13.55469 36.17969,13.55469 29.54175,0 56.40039,-25.84836 56.40039,-56.40039 0,-15.87543 -6.78762,-31.63407 -20.26562,-42.88477 l -0.006,-0.006 -0.002,-0.002 c -0.01,-0.008 -0.0194,-0.0152 -0.0293,-0.0234 L 790.91406,733.61914 C 862.2129,660.78988 905.90039,560.23056 905.90039,450 905.90039,225.48939 724.01061,43.599609 499.5,43.599609 Z m 0,112.800781 c 162.55582,0 293.59961,131.04379 293.59961,293.59961 0,162.55582 -131.04379,293.59961 -293.59961,293.59961 -162.55582,0 -293.59961,-131.04379 -293.59961,-293.59961 0,-162.55582 131.04379,-293.59961 293.59961,-293.59961 z"
     id="path1"
     inkscape:path-effect="#path-effect1"
     inkscape:original-d="m 199.5,450 c 0,166 134,300 300,300 166,0 300,-134 300,-300 0,-166 -134,-300 -300,-300 -166,0 -300,134 -300,300 z m -99,500 c -27,0 -50,-22 -50,-50 0,-14 6,-28 17,-38 l 150,-128 c -73,-72 -118,-173 -118,-284 0,-221 179,-400 400,-400 221,0 400,179 400,400 0,111 -45,212 -118,284 l 150,128 c 12,10 18,24 18,38 0,27 -24,50 -50,50 -11,0 -23,-4 -32,-12 l -167,-142 c -59,34 -128,54 -201,54 -73,0 -142,-20 -201,-54 l -165,142 c -10,8 -21,12 -33,12 z" />
</svg>
