<?xml version="1.0" encoding="UTF-8" standalone="no"?>
<svg
   version="1.1"
   viewBox="0 0 901 900"
   id="svg1"
   sodipodi:docname="jasimaTok-287.svg"
   inkscape:version="1.4.2 (ebf0e940d0, 2025-05-08)"
   width="901"
   height="900"
   xmlns:inkscape="http://www.inkscape.org/namespaces/inkscape"
   xmlns:sodipodi="http://sodipodi.sourceforge.net/DTD/sodipodi-0.dtd"
   xmlns="http://www.w3.org/2000/svg"
   xmlns:svg="http://www.w3.org/2000/svg">
  <defs
     id="defs1" />
  <sodipodi:namedview
     id="namedview1"
     pagecolor="#ffffff"
     bordercolor="#000000"
     borderopacity="0.25"
     inkscape:showpageshadow="2"
     inkscape:pageopacity="0.0"
     inkscape:pagecheckerboard="false"
     inkscape:deskcolor="#d1d1d1"
     inkscape:zoom="0.31819805"
     inkscape:cx="699.25004"
     inkscape:cy="458.83374"
     inkscape:window-width="1920"
     inkscape:window-height="1145"
     inkscape:window-x="0"
     inkscape:window-y="0"
     inkscape:window-maximized="1"
     inkscape:current-layer="svg1" />
  <path
     fill="currentColor"
     d="M 51,397 C 21,397 0,370 0,346 c 0,-4 1,-8 2,-12 9,-38 22,-81 49,-119 35,-50 108,-95 199,-95 58,0 107,21 151,50 V 50 c 0,-28 22,-50 50,-50 28,0 50,22 50,50 v 196 c 59,46 101,74 151,74 13,0 26,-2 41,-6 42,-11 62,-28 75,-46 15,-21 24,-48 35,-88 7,-22 25,-36 47,-36 31,0 51,24 51,49 0,5 -1,10 -2,15 0,1 -1,3 -1,4 -10,36 -23,77 -48,113 -35,50 -106,95 -198,95 -58,0 -107,-21 -151,-50 v 236 c 59,46 101,74 151,74 13,0 26,-2 41,-6 42,-11 62,-28 75,-46 15,-21 24,-48 35,-88 7,-22 25,-36 47,-36 31,0 51,24 51,49 0,5 -1,10 -2,15 0,1 -1,3 -1,4 -10,36 -23,77 -48,113 -35,50 -106,95 -198,95 -58,0 -107,-21 -151,-50 v 120 c 0,28 -22,50 -50,50 -28,0 -50,-22 -50,-50 V 654 c -59,-47 -100,-74 -150,-74 -13,0 -27,2 -42,6 -43,11 -64,29 -77,47 -15,21 -22,47 -32,85 -6,23 -27,39 -49,39 -30,0 -51,-27 -51,-51 0,-4 1,-8 2,-12 9,-38 22,-81 49,-119 35,-50 108,-95 199,-95 58,0 107,21 151,50 V 294 c -59,-47 -100,-74 -150,-74 -13,0 -27,2 -42,6 -43,11 -64,29 -77,47 -15,21 -22,47 -32,85 -6,23 -27,39 -49,39 z"
     id="path1" />
</svg>
