<?xml version="1.0" encoding="UTF-8" standalone="no"?>
<svg
   version="1.1"
   viewBox="-10 0 1010 1000"
   id="svg1"
   sodipodi:docname="kulupuTok-191.svg"
   inkscape:version="1.4.2 (ebf0e940d0, 2025-05-08)"
   xmlns:inkscape="http://www.inkscape.org/namespaces/inkscape"
   xmlns:sodipodi="http://sodipodi.sourceforge.net/DTD/sodipodi-0.dtd"
   xmlns="http://www.w3.org/2000/svg"
   xmlns:svg="http://www.w3.org/2000/svg">
  <defs
     id="defs1" />
  <sodipodi:namedview
     id="namedview1"
     pagecolor="#ffffff"
     bordercolor="#000000"
     borderopacity="0.25"
     inkscape:showpageshadow="2"
     inkscape:pageopacity="0.0"
     inkscape:pagecheckerboard="0"
     inkscape:deskcolor="#d1d1d1"
     inkscape:zoom="0.45"
     inkscape:cx="487.77778"
     inkscape:cy="466.66667"
     inkscape:window-width="1920"
     inkscape:window-height="1145"
     inkscape:window-x="0"
     inkscape:window-y="0"
     inkscape:window-maximized="1"
     inkscape:current-layer="svg1" />
  <path
     fill="currentColor"
     d="M 257,906 C 147,906 57,816 57,706 57,596 147,506 257,506 c 110,0 200,90 200,200 0,110 -90,200 -200,200 z m 0,-100 c 55,0 100,-45 100,-100 0,-55 -45,-100 -100,-100 -55,0 -100,45 -100,100 0,55 45,100 100,100 z m 476,100 c -110,0 -200,-90 -200,-200 0,-110 90,-200 200,-200 110,0 200,90 200,200 0,110 -90,200 -200,200 z m 0,-100 c 55,0 100,-45 100,-100 0,-55 -45,-100 -100,-100 -55,0 -100,45 -100,100 0,55 45,100 100,100 z M 495,494 C 385,494 295,404 295,294 295,184 385,94 495,94 c 110,0 200,90 200,200 0,110 -90,200 -200,200 z m 0,-100 c 55,0 100,-45 100,-100 0,-55 -45,-100 -100,-100 -55,0 -100,45 -100,100 0,55 45,100 100,100 z"
     id="path1" />
</svg>
