<?xml version="1.0" encoding="UTF-8" standalone="no"?>
<svg
   version="1.1"
   viewBox="0 0 876 812"
   id="svg1"
   sodipodi:docname="kulupuTok-191.svg"
   inkscape:version="1.4.2 (ebf0e940d0, 2025-05-08)"
   width="876"
   height="812"
   xmlns:inkscape="http://www.inkscape.org/namespaces/inkscape"
   xmlns:sodipodi="http://sodipodi.sourceforge.net/DTD/sodipodi-0.dtd"
   xmlns="http://www.w3.org/2000/svg"
   xmlns:svg="http://www.w3.org/2000/svg">
  <defs
     id="defs1" />
  <sodipodi:namedview
     id="namedview1"
     pagecolor="#ffffff"
     bordercolor="#000000"
     borderopacity="0.25"
     inkscape:showpageshadow="2"
     inkscape:pageopacity="0.0"
     inkscape:pagecheckerboard="0"
     inkscape:deskcolor="#d1d1d1"
     inkscape:zoom="0.45"
     inkscape:cx="430"
     inkscape:cy="375.55556"
     inkscape:window-width="1920"
     inkscape:window-height="1145"
     inkscape:window-x="0"
     inkscape:window-y="0"
     inkscape:window-maximized="1"
     inkscape:current-layer="svg1" />
  <path
     fill="currentColor"
     d="M 200,812 C 90,812 0,722 0,612 0,502 90,412 200,412 c 110,0 200,90 200,200 0,110 -90,200 -200,200 z m 0,-100 c 55,0 100,-45 100,-100 0,-55 -45,-100 -100,-100 -55,0 -100,45 -100,100 0,55 45,100 100,100 z m 476,100 c -110,0 -200,-90 -200,-200 0,-110 90,-200 200,-200 110,0 200,90 200,200 0,110 -90,200 -200,200 z m 0,-100 c 55,0 100,-45 100,-100 0,-55 -45,-100 -100,-100 -55,0 -100,45 -100,100 0,55 45,100 100,100 z M 438,400 C 328,400 238,310 238,200 238,90 328,0 438,0 548,0 638,90 638,200 638,310 548,400 438,400 Z m 0,-100 c 55,0 100,-45 100,-100 0,-55 -45,-100 -100,-100 -55,0 -100,45 -100,100 0,55 45,100 100,100 z"
     id="path1" />
</svg>
