<?xml version="1.0" encoding="UTF-8" standalone="no"?>
<svg
   version="1.1"
   viewBox="0 0 1000 1000"
   id="svg1"
   sodipodi:docname="kulupuTok-191.svg"
   inkscape:version="1.4.2 (ebf0e940d0, 2025-05-08)"
   width="1000"
   height="1000"
   xmlns:inkscape="http://www.inkscape.org/namespaces/inkscape"
   xmlns:sodipodi="http://sodipodi.sourceforge.net/DTD/sodipodi-0.dtd"
   xmlns="http://www.w3.org/2000/svg"
   xmlns:svg="http://www.w3.org/2000/svg">
  <defs
     id="defs1">
    <inkscape:path-effect
       effect="offset"
       id="path-effect1"
       is_visible="true"
       lpeversion="1.3"
       linejoin_type="miter"
       unit="pc"
       offset="0.4"
       miter_limit="4"
       attempt_force_join="false"
       update_on_knot_move="true" />
  </defs>
  <sodipodi:namedview
     id="namedview1"
     pagecolor="#ffffff"
     bordercolor="#000000"
     borderopacity="0.25"
     inkscape:showpageshadow="2"
     inkscape:pageopacity="0.0"
     inkscape:pagecheckerboard="0"
     inkscape:deskcolor="#d1d1d1"
     inkscape:zoom="0.45"
     inkscape:cx="430"
     inkscape:cy="380"
     inkscape:window-width="1920"
     inkscape:window-height="1145"
     inkscape:window-x="0"
     inkscape:window-y="0"
     inkscape:window-maximized="1"
     inkscape:current-layer="svg1" />
  <path
     fill="currentColor"
     d="M 500,87.599609 C 386.45368,87.599609 293.59961,180.45368 293.59961,294 293.59961,407.54632 386.45368,500.40039 500,500.40039 613.54632,500.40039 706.40039,407.54632 706.40039,294 706.40039,180.45368 613.54632,87.599609 500,87.599609 Z m 0,112.800781 c 51.50909,0 93.59961,42.09052 93.59961,93.59961 0,51.50909 -42.09052,93.59961 -93.59961,93.59961 -51.50909,0 -93.59961,-42.09052 -93.59961,-93.59961 0,-51.50909 42.09052,-93.59961 93.59961,-93.59961 z M 262,499.59961 C 148.45368,499.59961 55.599609,592.45368 55.599609,706 55.599609,819.54632 148.45368,912.40039 262,912.40039 375.54632,912.40039 468.40039,819.54632 468.40039,706 468.40039,592.45368 375.54632,499.59961 262,499.59961 Z m 476,0 c -113.54632,0 -206.40039,92.85407 -206.40039,206.40039 0,113.54632 92.85407,206.40039 206.40039,206.40039 113.54632,0 206.40039,-92.85407 206.40039,-206.40039 C 944.40039,592.45368 851.54632,499.59961 738,499.59961 Z M 262,612.40039 c 51.50909,0 93.59961,42.09052 93.59961,93.59961 0,51.50909 -42.09052,93.59961 -93.59961,93.59961 -51.50909,0 -93.59961,-42.09052 -93.59961,-93.59961 0,-51.50909 42.09052,-93.59961 93.59961,-93.59961 z m 476,0 c 51.50909,0 93.59961,42.09052 93.59961,93.59961 0,51.50909 -42.09052,93.59961 -93.59961,93.59961 -51.50909,0 -93.59961,-42.09052 -93.59961,-93.59961 0,-51.50909 42.09052,-93.59961 93.59961,-93.59961 z"
     id="path1"
     inkscape:path-effect="#path-effect1"
     inkscape:original-d="M 262,906 C 152,906 62,816 62,706 62,596 152,506 262,506 c 110,0 200,90 200,200 0,110 -90,200 -200,200 z m 0,-100 c 55,0 100,-45 100,-100 0,-55 -45,-100 -100,-100 -55,0 -100,45 -100,100 0,55 45,100 100,100 z m 476,100 c -110,0 -200,-90 -200,-200 0,-110 90,-200 200,-200 110,0 200,90 200,200 0,110 -90,200 -200,200 z m 0,-100 c 55,0 100,-45 100,-100 0,-55 -45,-100 -100,-100 -55,0 -100,45 -100,100 0,55 45,100 100,100 z M 500,494 C 390,494 300,404 300,294 300,184 390,94 500,94 c 110,0 200,90 200,200 0,110 -90,200 -200,200 z m 0,-100 c 55,0 100,-45 100,-100 0,-55 -45,-100 -100,-100 -55,0 -100,45 -100,100 0,55 45,100 100,100 z" />
</svg>
