<?xml version="1.0" encoding="UTF-8" standalone="no"?>
<svg
   version="1.1"
   viewBox="0 0 800 800"
   id="svg1"
   sodipodi:docname="lekoTok-284.svg"
   inkscape:version="1.4.2 (ebf0e940d0, 2025-05-08)"
   width="800"
   height="800"
   xmlns:inkscape="http://www.inkscape.org/namespaces/inkscape"
   xmlns:sodipodi="http://sodipodi.sourceforge.net/DTD/sodipodi-0.dtd"
   xmlns="http://www.w3.org/2000/svg"
   xmlns:svg="http://www.w3.org/2000/svg">
  <defs
     id="defs1" />
  <sodipodi:namedview
     id="namedview1"
     pagecolor="#ffffff"
     bordercolor="#000000"
     borderopacity="0.25"
     inkscape:showpageshadow="2"
     inkscape:pageopacity="0.0"
     inkscape:pagecheckerboard="0"
     inkscape:deskcolor="#d1d1d1"
     inkscape:zoom="0.45"
     inkscape:cx="85.555556"
     inkscape:cy="577.77778"
     inkscape:window-width="1920"
     inkscape:window-height="1145"
     inkscape:window-x="0"
     inkscape:window-y="0"
     inkscape:window-maximized="1"
     inkscape:current-layer="svg1" />
  <path
     fill="currentColor"
     d="M 300,300 V 500 H 500 V 300 Z M 200,250 c 0,-28 22,-50 50,-50 h 300 c 28,0 50,22 50,50 v 300 c 0,28 -22,50 -50,50 H 250 c -28,0 -50,-22 -50,-50 z M 100,100 V 700 H 700 V 100 Z M 0,50 C 0,22 22,0 50,0 h 700 c 28,0 50,22 50,50 v 700 c 0,28 -22,50 -50,50 H 50 C 22,800 0,778 0,750 Z"
     id="path1" />
</svg>
