<?xml version="1.0" encoding="UTF-8" standalone="no"?>
<svg
   version="1.1"
   viewBox="0 0 1000 1000"
   id="svg1"
   sodipodi:docname="musiTok-219.svg"
   inkscape:version="1.4.2 (ebf0e940d0, 2025-05-08)"
   width="1000"
   height="1000"
   xmlns:inkscape="http://www.inkscape.org/namespaces/inkscape"
   xmlns:sodipodi="http://sodipodi.sourceforge.net/DTD/sodipodi-0.dtd"
   xmlns="http://www.w3.org/2000/svg"
   xmlns:svg="http://www.w3.org/2000/svg">
  <defs
     id="defs1">
    <inkscape:path-effect
       effect="offset"
       id="path-effect1"
       is_visible="true"
       lpeversion="1.3"
       linejoin_type="miter"
       unit="pc"
       offset="0.4"
       miter_limit="4"
       attempt_force_join="false"
       update_on_knot_move="true" />
  </defs>
  <sodipodi:namedview
     id="namedview1"
     pagecolor="#ffffff"
     bordercolor="#000000"
     borderopacity="0.25"
     inkscape:showpageshadow="2"
     inkscape:pageopacity="0.0"
     inkscape:pagecheckerboard="0"
     inkscape:deskcolor="#d1d1d1"
     inkscape:zoom="0.31819805"
     inkscape:cx="-325.26912"
     inkscape:cy="263.98653"
     inkscape:window-width="1920"
     inkscape:window-height="1145"
     inkscape:window-x="0"
     inkscape:window-y="0"
     inkscape:window-maximized="1"
     inkscape:current-layer="svg1" />
  <path
     fill="currentColor"
     d="M 250,56.099609 C 149.471,56.099609 68.599609,136.971 68.599609,237.5 c 0,80.20718 52.677201,148.48376 125.000001,172.67187 V 592.5 c 0,100.52697 36.5553,185.99877 86.51172,245.13086 l 0.0117,0.0137 0.0117,0.0137 C 328.09395,893.78065 403.7289,943.90039 500,943.90039 c 96.2711,0 171.90605,-50.11974 219.86523,-106.24219 l 0.0117,-0.0137 0.0117,-0.0137 C 769.84509,778.49877 806.40039,693.02697 806.40039,592.5 V 410.17187 c 72.3228,-24.18811 125,-92.46469 125,-172.67187 C 931.40039,136.971 850.529,56.099609 750,56.099609 649.471,56.099609 568.59961,136.971 568.59961,237.5 c 0,80.20718 52.6772,148.48376 125,172.67187 V 592.5 c 0,71.48037 -25.46876,131.0461 -59.51563,171.90234 l -0.0215,0.0254 -0.0215,0.0273 C 603.92359,801.37321 559.86667,831.09961 500,831.09961 c -24.14667,0 -48.09273,-4.80125 -71.13867,-16.32422 C 359.27827,779.98386 306.40039,698.36667 306.40039,592.5 V 410.17187 c 72.3228,-24.18811 125,-92.46469 125,-172.67187 C 431.40039,136.971 350.529,56.099609 250,56.099609 Z m 0,112.800781 c 37.46179,0 68.59961,31.13782 68.59961,68.59961 0,37.46179 -31.13782,68.59961 -68.59961,68.59961 -37.46179,0 -68.59961,-31.13782 -68.59961,-68.59961 0,-37.46179 31.13782,-68.59961 68.59961,-68.59961 z m 500,0 c 37.46179,0 68.59961,31.13782 68.59961,68.59961 0,37.46179 -31.13782,68.59961 -68.59961,68.59961 -37.46179,0 -68.59961,-31.13782 -68.59961,-68.59961 0,-37.46179 31.13782,-68.59961 68.59961,-68.59961 z"
     id="path1"
     inkscape:path-effect="#path-effect1"
     inkscape:original-d="m 750,312.5 c 41,0 75,-34 75,-75 0,-41 -34,-75 -75,-75 -41,0 -75,34 -75,75 0,41 34,75 75,75 z m -500,0 c 41,0 75,-34 75,-75 0,-41 -34,-75 -75,-75 -41,0 -75,34 -75,75 0,41 34,75 75,75 z m 50,93 v 187 c 0,108 54,192 126,228 24,12 49,17 74,17 62,0 108,-31 139,-69 35,-42 61,-103 61,-176 v -187 c -72,-22 -125,-89 -125,-168 0,-97 78,-175 175,-175 97,0 175,78 175,175 0,79 -53,146 -125,168 v 187 c 0,99 -36,183 -85,241 -47,55 -121,104 -215,104 -94,0 -168,-49 -215,-104 -49,-58 -85,-142 -85,-241 v -187 c -72,-22 -125,-89 -125,-168 0,-97 78,-175 175,-175 97,0 175,78 175,175 0,79 -53,146 -125,168 z" />
</svg>
