<?xml version="1.0" encoding="UTF-8" standalone="no"?>
<svg
   version="1.1"
   viewBox="0 0 850 875"
   id="svg1"
   sodipodi:docname="musiTok-219.svg"
   inkscape:version="1.4.2 (ebf0e940d0, 2025-05-08)"
   width="850"
   height="875"
   xmlns:inkscape="http://www.inkscape.org/namespaces/inkscape"
   xmlns:sodipodi="http://sodipodi.sourceforge.net/DTD/sodipodi-0.dtd"
   xmlns="http://www.w3.org/2000/svg"
   xmlns:svg="http://www.w3.org/2000/svg">
  <defs
     id="defs1" />
  <sodipodi:namedview
     id="namedview1"
     pagecolor="#ffffff"
     bordercolor="#000000"
     borderopacity="0.25"
     inkscape:showpageshadow="2"
     inkscape:pageopacity="0.0"
     inkscape:pagecheckerboard="0"
     inkscape:deskcolor="#d1d1d1"
     inkscape:zoom="0.31819805"
     inkscape:cx="-325.26912"
     inkscape:cy="257.70114"
     inkscape:window-width="1920"
     inkscape:window-height="1145"
     inkscape:window-x="0"
     inkscape:window-y="0"
     inkscape:window-maximized="1"
     inkscape:current-layer="svg1" />
  <path
     fill="currentColor"
     d="m 675,250 c 41,0 75,-34 75,-75 0,-41 -34,-75 -75,-75 -41,0 -75,34 -75,75 0,41 34,75 75,75 z m -500,0 c 41,0 75,-34 75,-75 0,-41 -34,-75 -75,-75 -41,0 -75,34 -75,75 0,41 34,75 75,75 z m 50,93 v 187 c 0,108 54,192 126,228 24,12 49,17 74,17 62,0 108,-31 139,-69 35,-42 61,-103 61,-176 V 343 C 553,321 500,254 500,175 500,78 578,0 675,0 c 97,0 175,78 175,175 0,79 -53,146 -125,168 v 187 c 0,99 -36,183 -85,241 C 593,826 519,875 425,875 331,875 257,826 210,771 161,713 125,629 125,530 V 343 C 53,321 0,254 0,175 0,78 78,0 175,0 c 97,0 175,78 175,175 0,79 -53,146 -125,168 z"
     id="path1" />
</svg>
