<?xml version="1.0" encoding="UTF-8" standalone="no"?>
<svg
   version="1.1"
   viewBox="-10 0 1010 1000"
   id="svg1"
   sodipodi:docname="nanpaTok-221.svg"
   inkscape:version="1.4.2 (ebf0e940d0, 2025-05-08)"
   xmlns:inkscape="http://www.inkscape.org/namespaces/inkscape"
   xmlns:sodipodi="http://sodipodi.sourceforge.net/DTD/sodipodi-0.dtd"
   xmlns="http://www.w3.org/2000/svg"
   xmlns:svg="http://www.w3.org/2000/svg">
  <defs
     id="defs1" />
  <sodipodi:namedview
     id="namedview1"
     pagecolor="#ffffff"
     bordercolor="#000000"
     borderopacity="0.25"
     inkscape:showpageshadow="2"
     inkscape:pageopacity="0.0"
     inkscape:pagecheckerboard="0"
     inkscape:deskcolor="#d1d1d1"
     inkscape:zoom="0.45"
     inkscape:cx="161.11111"
     inkscape:cy="571.11111"
     inkscape:window-width="1920"
     inkscape:window-height="1145"
     inkscape:window-x="0"
     inkscape:window-y="0"
     inkscape:window-maximized="1"
     inkscape:current-layer="svg1" />
  <path
     fill="currentColor"
     d="M 393,400 V 600 H 593 V 400 Z M 293,900 V 700 H 95 C 67,700 45,678 45,650 45,622 67,600 95,600 H 293 V 400 H 95 C 67,400 45,378 45,350 45,322 67,300 95,300 H 293 V 100 c 0,-28 22,-50 50,-50 28,0 50,22 50,50 V 300 H 593 V 100 c 0,-28 22,-50 50,-50 28,0 50,22 50,50 v 200 h 202 c 28,0 50,22 50,50 0,28 -22,50 -50,50 H 693 v 200 h 202 c 28,0 50,22 50,50 0,28 -22,50 -50,50 H 693 v 200 c 0,28 -22,50 -50,50 -28,0 -50,-22 -50,-50 V 700 H 393 v 200 c 0,28 -22,50 -50,50 -28,0 -50,-22 -50,-50 z"
     id="path1" />
</svg>
