<?xml version="1.0" encoding="UTF-8" standalone="no"?>
<svg
   version="1.1"
   viewBox="-10 0 1010 1000"
   id="svg1"
   sodipodi:docname="olinTok-229.svg"
   inkscape:version="1.4.2 (ebf0e940d0, 2025-05-08)"
   xmlns:inkscape="http://www.inkscape.org/namespaces/inkscape"
   xmlns:sodipodi="http://sodipodi.sourceforge.net/DTD/sodipodi-0.dtd"
   xmlns="http://www.w3.org/2000/svg"
   xmlns:svg="http://www.w3.org/2000/svg">
  <defs
     id="defs1" />
  <sodipodi:namedview
     id="namedview1"
     pagecolor="#ffffff"
     bordercolor="#000000"
     borderopacity="0.25"
     inkscape:showpageshadow="2"
     inkscape:pageopacity="0.0"
     inkscape:pagecheckerboard="0"
     inkscape:deskcolor="#d1d1d1"
     inkscape:zoom="0.45"
     inkscape:cx="247.77778"
     inkscape:cy="726.66667"
     inkscape:window-width="1920"
     inkscape:window-height="1145"
     inkscape:window-x="0"
     inkscape:window-y="0"
     inkscape:window-maximized="1"
     inkscape:current-layer="svg1" />
  <path
     fill="currentColor"
     d="m 395,600 c -28,0 -50,22 -50,50 0,10 6,28 23,54 30,44 88,99 127,132 39,-33 98,-88 127,-132 17,-26 23,-44 23,-54 0,-28 -22,-50 -50,-50 -24,0 -42,27 -53,44 l -6,9 c -9,14 -24,22 -41,22 -17,0 -32,-8 -41,-22 l -6,-9 c -11,-17 -29,-44 -53,-44 z m 130,340 c -9,6 -20,10 -30,10 -10,0 -21,-4 -30,-10 l -1,-1 c -3,-2 -4,-3 -8,-6 C 400,886 329,826 285,759 265,728 245,690 245,650 c 0,-83 67,-150 150,-150 46,0 78,21 100,43 22,-22 54,-43 100,-43 83,0 150,67 150,150 0,40 -20,78 -40,109 -44,68 -114,126 -171,174 -4,3 -5,4 -8,6 z M 395,150 c -28,0 -50,22 -50,50 0,10 6,28 23,54 30,44 88,99 127,132 39,-33 98,-88 127,-132 17,-26 23,-44 23,-54 0,-28 -22,-50 -50,-50 -24,0 -42,27 -53,44 l -6,9 c -9,14 -24,22 -41,22 -17,0 -32,-8 -41,-22 l -6,-9 c -11,-17 -29,-44 -53,-44 z m 130,340 c -9,6 -20,10 -30,10 -10,0 -21,-4 -30,-10 l -1,-1 c -3,-2 -4,-3 -8,-6 C 400,436 329,376 285,309 265,278 245,240 245,200 245,117 312,50 395,50 c 46,0 78,21 100,43 22,-22 54,-43 100,-43 83,0 150,67 150,150 0,40 -20,78 -40,109 -44,68 -114,126 -171,174 -4,3 -5,4 -8,6 z"
     id="path1" />
</svg>
