<?xml version="1.0" encoding="UTF-8" standalone="no"?>
<svg
   version="1.1"
   viewBox="0 0 1000 1000"
   id="svg1"
   sodipodi:docname="sikeTok-252.svg"
   inkscape:version="1.4.2 (ebf0e940d0, 2025-05-08)"
   width="1000"
   height="1000"
   xmlns:inkscape="http://www.inkscape.org/namespaces/inkscape"
   xmlns:sodipodi="http://sodipodi.sourceforge.net/DTD/sodipodi-0.dtd"
   xmlns="http://www.w3.org/2000/svg"
   xmlns:svg="http://www.w3.org/2000/svg">
  <defs
     id="defs1">
    <inkscape:path-effect
       effect="offset"
       id="path-effect1"
       is_visible="true"
       lpeversion="1.3"
       linejoin_type="miter"
       unit="pc"
       offset="0.4"
       miter_limit="4"
       attempt_force_join="false"
       update_on_knot_move="true" />
  </defs>
  <sodipodi:namedview
     id="namedview1"
     pagecolor="#ffffff"
     bordercolor="#000000"
     borderopacity="0.25"
     inkscape:showpageshadow="2"
     inkscape:pageopacity="0.0"
     inkscape:pagecheckerboard="0"
     inkscape:deskcolor="#d1d1d1"
     inkscape:zoom="0.45"
     inkscape:cx="745.55556"
     inkscape:cy="404.44444"
     inkscape:window-width="1920"
     inkscape:window-height="1145"
     inkscape:window-x="0"
     inkscape:window-y="0"
     inkscape:window-maximized="1"
     inkscape:current-layer="svg1" />
  <path
     fill="currentColor"
     d="M 500,43.599609 C 247.49419,43.599609 43.599609,247.49419 43.599609,500 43.599609,752.50581 247.49419,956.40039 500,956.40039 752.50581,956.40039 956.40039,752.50581 956.40039,500 956.40039,247.49419 752.50581,43.599609 500,43.599609 Z m 0,112.800781 C 689.52919,156.40039 843.59961,310.47081 843.59961,500 843.59961,689.52919 689.52919,843.59961 500,843.59961 310.47081,843.59961 156.40039,689.52919 156.40039,500 156.40039,310.47081 310.47081,156.40039 500,156.40039 Z m 0,87.19922 C 358.46812,243.59961 243.59961,358.46812 243.59961,500 243.59961,641.53188 358.46812,756.40039 500,756.40039 641.53188,756.40039 756.40039,641.53188 756.40039,500 756.40039,358.46812 641.53188,243.59961 500,243.59961 Z m 0,112.80078 c 79.55582,0 143.59961,64.04379 143.59961,143.59961 0,79.55582 -64.04379,143.59961 -143.59961,143.59961 -79.55582,0 -143.59961,-64.04379 -143.59961,-143.59961 0,-79.55582 64.04379,-143.59961 143.59961,-143.59961 z"
     id="path1"
     inkscape:path-effect="#path-effect1"
     inkscape:original-d="M 500,750 C 362,750 250,638 250,500 250,362 362,250 500,250 638,250 750,362 750,500 750,638 638,750 500,750 Z M 650,500 c 0,-83 -67,-150 -150,-150 -83,0 -150,67 -150,150 0,83 67,150 150,150 83,0 150,-67 150,-150 z M 500,950 C 251,950 50,749 50,500 50,251 251,50 500,50 749,50 950,251 950,500 950,749 749,950 500,950 Z m 0,-100 C 693,850 850,693 850,500 850,307 693,150 500,150 307,150 150,307 150,500 c 0,193 157,350 350,350 z" />
</svg>
