<?xml version="1.0" encoding="UTF-8" standalone="no"?>
<svg
   version="1.1"
   viewBox="0 0 900 900"
   id="svg1"
   sodipodi:docname="sikeTok-252.svg"
   inkscape:version="1.4.2 (ebf0e940d0, 2025-05-08)"
   width="900"
   height="900"
   xmlns:inkscape="http://www.inkscape.org/namespaces/inkscape"
   xmlns:sodipodi="http://sodipodi.sourceforge.net/DTD/sodipodi-0.dtd"
   xmlns="http://www.w3.org/2000/svg"
   xmlns:svg="http://www.w3.org/2000/svg">
  <defs
     id="defs1" />
  <sodipodi:namedview
     id="namedview1"
     pagecolor="#ffffff"
     bordercolor="#000000"
     borderopacity="0.25"
     inkscape:showpageshadow="2"
     inkscape:pageopacity="0.0"
     inkscape:pagecheckerboard="0"
     inkscape:deskcolor="#d1d1d1"
     inkscape:zoom="0.9"
     inkscape:cx="459.44444"
     inkscape:cy="450"
     inkscape:window-width="1920"
     inkscape:window-height="1145"
     inkscape:window-x="0"
     inkscape:window-y="0"
     inkscape:window-maximized="1"
     inkscape:current-layer="svg1" />
  <path
     fill="currentColor"
     d="M 450,700 C 312,700 200,588 200,450 200,312 312,200 450,200 588,200 700,312 700,450 700,588 588,700 450,700 Z M 600,450 c 0,-83 -67,-150 -150,-150 -83,0 -150,67 -150,150 0,83 67,150 150,150 83,0 150,-67 150,-150 z M 450,900 C 201,900 0,699 0,450 0,201 201,0 450,0 699,0 900,201 900,450 900,699 699,900 450,900 Z m 0,-100 C 643,800 800,643 800,450 800,257 643,100 450,100 257,100 100,257 100,450 c 0,193 157,350 350,350 z"
     id="path1" />
</svg>
