<?xml version="1.0" encoding="UTF-8" standalone="no"?>
<svg
   version="1.1"
   viewBox="-10 0 1010 1000"
   id="svg1"
   sodipodi:docname="tonsiTok-286.svg"
   inkscape:version="1.4.2 (ebf0e940d0, 2025-05-08)"
   xmlns:inkscape="http://www.inkscape.org/namespaces/inkscape"
   xmlns:sodipodi="http://sodipodi.sourceforge.net/DTD/sodipodi-0.dtd"
   xmlns="http://www.w3.org/2000/svg"
   xmlns:svg="http://www.w3.org/2000/svg">
  <defs
     id="defs1" />
  <sodipodi:namedview
     id="namedview1"
     pagecolor="#ffffff"
     bordercolor="#000000"
     borderopacity="0.25"
     inkscape:showpageshadow="2"
     inkscape:pageopacity="0.0"
     inkscape:pagecheckerboard="0"
     inkscape:deskcolor="#d1d1d1"
     inkscape:zoom="0.9"
     inkscape:cx="505"
     inkscape:cy="500"
     inkscape:window-width="1920"
     inkscape:window-height="1145"
     inkscape:window-x="0"
     inkscape:window-y="0"
     inkscape:window-maximized="1"
     inkscape:current-layer="svg1" />
  <path
     fill="currentColor"
     d="m 494.5,594 c 110,0 200,-90 200,-200 0,-36 -9,-70 -26,-99 l -1,-1 v -1 c -35,-59 -100,-99 -173,-99 -73,0 -137,40 -172,99 l -2,2 c -16,29 -26,63 -26,99 0,110 90,200 200,200 z M 44.5,163 c 0,-29 25,-50 50,-50 9,0 17,2 25,7 l 144,83 c 55,-66 138,-109 231,-109 93,0 176,43 231,109 l 144,-83 c 8,-5 16,-7 25,-7 25,0 51,20 51,49 0,17 -10,35 -26,44 l -144,83 c 12,33 19,68 19,105 0,149 -108,272 -250,296 v 166 c 0,28 -22,50 -50,50 -28,0 -50,-22 -50,-50 V 690 c -142,-24 -250,-147 -250,-296 0,-37 7,-72 19,-105 l -144,-83 c -16,-9 -25,-26 -25,-43 z"
     id="path1" />
</svg>
