<?xml version="1.0" encoding="UTF-8" standalone="no"?>
<svg
   version="1.1"
   viewBox="0 0 1000 1000"
   id="svg1"
   sodipodi:docname="jasimaTok-287.svg"
   inkscape:version="1.4.2 (ebf0e940d0, 2025-05-08)"
   width="1000"
   height="1000"
   xmlns:inkscape="http://www.inkscape.org/namespaces/inkscape"
   xmlns:sodipodi="http://sodipodi.sourceforge.net/DTD/sodipodi-0.dtd"
   xmlns="http://www.w3.org/2000/svg"
   xmlns:svg="http://www.w3.org/2000/svg">
  <defs
     id="defs1">
    <inkscape:path-effect
       effect="offset"
       id="path-effect1"
       is_visible="true"
       lpeversion="1.3"
       linejoin_type="miter"
       unit="pc"
       offset="0.4"
       miter_limit="4"
       attempt_force_join="false"
       update_on_knot_move="true" />
  </defs>
  <sodipodi:namedview
     id="namedview1"
     pagecolor="#ffffff"
     bordercolor="#000000"
     borderopacity="0.25"
     inkscape:showpageshadow="2"
     inkscape:pageopacity="0.0"
     inkscape:pagecheckerboard="false"
     inkscape:deskcolor="#d1d1d1"
     inkscape:zoom="0.31819805"
     inkscape:cx="699.25004"
     inkscape:cy="461.97643"
     inkscape:window-width="1920"
     inkscape:window-height="1145"
     inkscape:window-x="0"
     inkscape:window-y="0"
     inkscape:window-maximized="1"
     inkscape:current-layer="svg1" />
  <path
     fill="currentColor"
     d="m 500.5,43.599609 c -31.53609,0 -56.40039,24.864305 -56.40039,56.400391 V 208.30859 C 401.89707,182.13227 354.78876,163.59961 299.5,163.59961 c -92.90645,0 -167.91529,45.86254 -204.216797,97.69336 l -0.002,0.004 c -0.0035,0.005 -0.0082,0.009 -0.01172,0.0137 -0.0043,0.006 -0.0074,0.0134 -0.01172,0.0195 -27.676937,38.96887 -40.928383,82.96091 -49.976562,121.15625 -0.0031,0.0129 -0.0067,0.0261 -0.0098,0.0391 -0.965729,3.8616 -2.171875,8.59755 -2.171875,13.47461 0,27.51667 23.824766,57.40039 57.400391,57.40039 25.00081,0 48.47361,-18.05137 55.18945,-43.77148 l 0.002,-0.006 c 9.99027,-37.96293 16.91479,-63.14695 30.99609,-82.875 l 0.01,-0.0137 0.01,-0.0137 c 6.1324,-8.48561 14.02005,-16.84435 25.58008,-24.51172 11.57224,-7.67546 26.8685,-14.65354 47.79883,-20.00781 l 0.0312,-0.01 0.0312,-0.008 c 14.55524,-3.88139 28.00797,-5.7832 40.35156,-5.7832 47.04086,0 86.12081,25.05906 143.59961,70.6875 v 221.2207 C 401.89707,542.13227 354.78876,523.59961 299.5,523.59961 c -92.90645,0 -167.91529,45.86254 -204.216797,97.69336 l -0.002,0.004 c -0.0035,0.005 -0.0082,0.009 -0.01172,0.0137 -0.0043,0.006 -0.0074,0.0134 -0.01172,0.0195 -27.676937,38.96887 -40.928383,82.96091 -49.976562,121.15625 -0.0031,0.0129 -0.0067,0.0261 -0.0098,0.0391 -0.965729,3.8616 -2.171875,8.59755 -2.171875,13.47461 0,27.51667 23.824766,57.40039 57.400391,57.40039 25.00081,0 48.47361,-18.05137 55.18945,-43.77148 l 0.002,-0.006 c 9.99027,-37.96293 16.91479,-63.14695 30.99609,-82.875 l 0.01,-0.0137 0.01,-0.0137 c 6.1324,-8.48561 14.02005,-16.84435 25.58008,-24.51172 11.57224,-7.67546 26.8685,-14.65354 47.79883,-20.00781 l 0.0312,-0.01 0.0312,-0.008 c 14.55524,-3.88139 28.00797,-5.7832 40.35156,-5.7832 47.04086,0 86.12081,25.05906 143.59961,70.6875 V 900 c 0,31.53609 24.8643,56.40039 56.40039,56.40039 31.53609,0 56.40039,-24.8643 56.40039,-56.40039 V 791.69141 c 42.20254,26.17632 89.31085,44.70898 144.59961,44.70898 93.99507,0 166.98035,-45.92785 203.24219,-97.73047 l 0.008,-0.01 0.006,-0.01 c 25.60524,-36.87155 38.90196,-78.90799 48.91016,-114.9375 l 0.23437,-0.83984 v -0.32618 c 0,0 0,-0.002 0,-0.002 0,0 0,-0.002 0,-0.002 1.1e-4,-8e-4 0.002,-0.005 0.002,-0.006 0.0128,-0.0403 0.0276,-0.0856 0.043,-0.13281 0.017,-0.0524 0.0349,-0.10805 0.0547,-0.16797 0.0221,-0.0666 0.0473,-0.13789 0.0723,-0.21289 0.12639,-0.37919 0.58901,-1.70003 0.76171,-3.0625 0.95604,-4.78101 2.06641,-10.40512 2.06641,-15.96094 0,-28.57982 -22.89617,-55.40039 -57.40039,-55.40039 -24.95651,0 -45.3009,15.94875 -53.09961,40.45898 l -0.0371,0.1211 -0.0352,0.12304 c -10.95365,39.83148 -19.83109,66.07846 -34.01562,85.94922 -0.003,0.005 -0.006,0.009 -0.01,0.0137 l -0.01,0.0137 c -6.14448,8.50253 -13.77385,16.59679 -24.95508,24.01172 -11.19306,7.42276 -25.99982,14.15922 -46.45898,19.51757 l -0.0137,0.004 -0.0137,0.004 c -14.62366,3.89964 -27.00797,5.7832 -39.35156,5.7832 -46.94287,0 -87.09187,-26.03262 -144.59961,-70.72852 V 431.69141 c 42.20254,26.17632 89.31085,44.70898 144.59961,44.70898 93.99507,0 166.98035,-45.92785 203.24219,-97.73047 l 0.008,-0.01 0.006,-0.01 c 25.60524,-36.87155 38.90196,-78.90799 48.91016,-114.9375 l 0.23437,-0.83984 v -0.32618 c 0,0 0,-0.002 0,-0.002 0,0 0,-0.002 0,-0.002 1.1e-4,-8e-4 0.002,-0.005 0.002,-0.006 0.0128,-0.0403 0.0276,-0.0856 0.043,-0.13281 0.017,-0.0524 0.0349,-0.10805 0.0547,-0.16797 0.0221,-0.0666 0.0473,-0.13789 0.0723,-0.21289 0.12639,-0.37919 0.58901,-1.70003 0.76171,-3.0625 0.95604,-4.78101 2.06641,-10.40512 2.06641,-15.96094 0,-28.57982 -22.89617,-55.40039 -57.40039,-55.40039 -24.95651,0 -45.3009,15.94875 -53.09961,40.45898 l -0.0371,0.1211 -0.0352,0.12304 c -10.95365,39.83148 -19.83109,66.07846 -34.01562,85.94922 -0.003,0.005 -0.006,0.009 -0.01,0.0137 l -0.01,0.0137 c -6.14448,8.50253 -13.77385,16.59679 -24.95508,24.01172 -11.19306,7.42276 -25.99982,14.15922 -46.45898,19.51757 l -0.0137,0.004 -0.0137,0.004 c -14.62366,3.89964 -27.00797,5.7832 -39.35156,5.7832 -46.94287,0 -87.09187,-26.03262 -144.59961,-70.72852 V 100 c 0,-31.536086 -24.8643,-56.400391 -56.40039,-56.400391 z"
     id="path1"
     inkscape:path-effect="#path-effect1"
     inkscape:original-d="m 100.5,447 c -30,0 -51,-27 -51,-51 0,-4 1,-8 2,-12 9,-38 22,-81 49,-119 35,-50 108,-95 199,-95 58,0 107,21 151,50 V 100 c 0,-28 22,-50 50,-50 28,0 50,22 50,50 v 196 c 59,46 101,74 151,74 13,0 26,-2 41,-6 42,-11 62,-28 75,-46 15,-21 24,-48 35,-88 7,-22 25,-36 47,-36 31,0 51,24 51,49 0,5 -1,10 -2,15 0,1 -1,3 -1,4 -10,36 -23,77 -48,113 -35,50 -106,95 -198,95 -58,0 -107,-21 -151,-50 v 236 c 59,46 101,74 151,74 13,0 26,-2 41,-6 42,-11 62,-28 75,-46 15,-21 24,-48 35,-88 7,-22 25,-36 47,-36 31,0 51,24 51,49 0,5 -1,10 -2,15 0,1 -1,3 -1,4 -10,36 -23,77 -48,113 -35,50 -106,95 -198,95 -58,0 -107,-21 -151,-50 v 120 c 0,28 -22,50 -50,50 -28,0 -50,-22 -50,-50 V 704 c -59,-47 -100,-74 -150,-74 -13,0 -27,2 -42,6 -43,11 -64,29 -77,47 -15,21 -22,47 -32,85 -6,23 -27,39 -49,39 -30,0 -51,-27 -51,-51 0,-4 1,-8 2,-12 9,-38 22,-81 49,-119 35,-50 108,-95 199,-95 58,0 107,21 151,50 V 344 c -59,-47 -100,-74 -150,-74 -13,0 -27,2 -42,6 -43,11 -64,29 -77,47 -15,21 -22,47 -32,85 -6,23 -27,39 -49,39 z" />
</svg>
