<?xml version="1.0" encoding="UTF-8" standalone="no"?>
<svg
   version="1.1"
   viewBox="0 0 1000 1000"
   id="svg1"
   sodipodi:docname="namakoTok-280.svg"
   inkscape:version="1.4.2 (ebf0e940d0, 2025-05-08)"
   width="1000"
   height="1000"
   xmlns:inkscape="http://www.inkscape.org/namespaces/inkscape"
   xmlns:sodipodi="http://sodipodi.sourceforge.net/DTD/sodipodi-0.dtd"
   xmlns="http://www.w3.org/2000/svg"
   xmlns:svg="http://www.w3.org/2000/svg">
  <defs
     id="defs1">
    <inkscape:path-effect
       effect="offset"
       id="path-effect1"
       is_visible="true"
       lpeversion="1.3"
       linejoin_type="miter"
       unit="pc"
       offset="0.4"
       miter_limit="4"
       attempt_force_join="false"
       update_on_knot_move="true" />
  </defs>
  <sodipodi:namedview
     id="namedview1"
     pagecolor="#ffffff"
     bordercolor="#000000"
     borderopacity="0.25"
     inkscape:showpageshadow="2"
     inkscape:pageopacity="0.0"
     inkscape:pagecheckerboard="0"
     inkscape:deskcolor="#d1d1d1"
     inkscape:zoom="0.45"
     inkscape:cx="74.444444"
     inkscape:cy="280"
     inkscape:window-width="1920"
     inkscape:window-height="1145"
     inkscape:window-x="0"
     inkscape:window-y="0"
     inkscape:window-maximized="1"
     inkscape:current-layer="svg1" />
  <path
     fill="currentColor"
     d="m 567.5,93.599609 c -31.53609,0 -56.40039,24.864301 -56.40039,56.400391 v 100 c 0,31.53609 24.8643,56.40039 56.40039,56.40039 31.53609,0 56.40039,-24.8643 56.40039,-56.40039 V 150 c 0,-31.53609 -24.8643,-56.400391 -56.40039,-56.400391 z m -218,54.000001 c -33.47859,0 -57.40039,26.76056 -57.40039,55.40039 0,6.68624 1.11492,14.56149 4.5,22.47852 0.006,0.0139 0.0116,0.029 0.0176,0.043 l 37.97656,91.94141 0.008,0.0215 c 8.95399,21.26573 29.2143,34.91602 50.89844,34.91602 33.47859,0 57.40039,-26.76056 57.40039,-55.40039 0,-6.68624 -1.11492,-14.56149 -4.5,-22.47852 v -0.002 c -0.006,-0.0134 -0.0119,-0.0277 -0.0176,-0.041 l -37.97656,-91.94141 -0.008,-0.0215 C 391.44445,161.2499 371.18414,147.59961 349.5,147.59961 Z m 436,0 c -21.68414,0 -41.94445,13.65029 -50.89844,34.91601 l -0.008,0.0215 -37.97656,91.94141 c -0.006,0.0139 -0.0116,0.029 -0.0176,0.043 -3.38508,7.91703 -4.5,15.79228 -4.5,22.47852 0,28.63983 23.9218,55.40039 57.40039,55.40039 21.68414,0 41.94445,-13.65029 50.89844,-34.91602 l 0.008,-0.0215 37.97656,-91.94141 0.0176,-0.041 c 0,0 0,-0.002 0,-0.002 3.38508,-7.91703 4.5,-15.79228 4.5,-22.47852 0,-28.63983 -23.9218,-55.40039 -57.40039,-55.40039 z m -368,246 c -31.53609,0 -56.40039,24.8643 -56.40039,56.40039 0,99.7131 -5.99898,150.4928 -27.33008,194.14844 -0.003,0.005 -0.003,0.0106 -0.006,0.0156 l -0.01,0.0156 c -0.002,0.003 -0.002,0.007 -0.004,0.01 -22.28537,44.53893 -64.47068,86.98873 -156.19727,161.77149 -0.0145,0.011 -0.0265,0.0242 -0.041,0.0351 -13.75488,10.40346 -20.41211,27.42303 -20.41211,44.00391 0,33.60911 26.94676,56.40039 56.40039,56.40039 219.65251,0 363.69839,-39.1083 452.44727,-124.79687 C 755.80631,694.80785 773.90039,574.6802 773.90039,450 c 0,-31.53609 -24.8643,-56.40039 -56.40039,-56.40039 -31.53609,0 -56.40039,24.8643 -56.40039,56.40039 0,118.35462 -17.81795,197.10723 -73.04297,250.39453 l -0.0137,0.0137 -0.0156,0.0137 c -39.53296,38.61359 -106.11645,69.17885 -217.63281,84.04493 27.33575,-29.63307 48.77455,-58.49441 64.83008,-90.60547 C 469.93722,624.4361 473.90039,550.12176 473.90039,450 c 0,-31.53609 -24.8643,-56.40039 -56.40039,-56.40039 z"
     id="path1"
     inkscape:path-effect="#path-effect1"
     inkscape:original-d="m 298.5,203 c 0,-25 21,-49 51,-49 19,0 37,12 45,31 l 38,92 c 3,7 4,14 4,20 0,25 -21,49 -51,49 -19,0 -37,-12 -45,-31 l -38,-92 c -3,-7 -4,-14 -4,-20 z m 487,-49 c 30,0 51,24 51,49 0,6 -1,13 -4,20 l -38,92 c -8,19 -26,31 -45,31 -30,0 -51,-24 -51,-49 0,-6 1,-13 4,-20 l 38,-92 c 8,-19 26,-31 45,-31 z m -218,-54 c 28,0 50,22 50,50 v 100 c 0,28 -22,50 -50,50 -28,0 -50,-22 -50,-50 V 150 c 0,-28 22,-50 50,-50 z m -354,800 c -26,0 -50,-20 -50,-50 0,-15 6,-30 18,-39 92,-75 135,-118 158,-164 22,-45 28,-97 28,-197 0,-28 22,-50 50,-50 28,0 50,22 50,50 0,100 -4,173 -38,241 -18,36 -43,68 -76,102 123,-14 196,-46 239,-88 57,-55 75,-136 75,-255 0,-28 22,-50 50,-50 28,0 50,22 50,50 0,124 -18,242 -106,327 -87,84 -229,123 -448,123 z" />
</svg>
