<?xml version="1.0" encoding="UTF-8" standalone="no"?>
<svg
   version="1.1"
   viewBox="0 0 1000 1000"
   id="svg1"
   sodipodi:docname="nanpaTok-221.svg"
   inkscape:version="1.4.2 (ebf0e940d0, 2025-05-08)"
   width="1000"
   height="1000"
   xmlns:inkscape="http://www.inkscape.org/namespaces/inkscape"
   xmlns:sodipodi="http://sodipodi.sourceforge.net/DTD/sodipodi-0.dtd"
   xmlns="http://www.w3.org/2000/svg"
   xmlns:svg="http://www.w3.org/2000/svg">
  <defs
     id="defs1">
    <inkscape:path-effect
       effect="offset"
       id="path-effect1"
       is_visible="true"
       lpeversion="1.3"
       linejoin_type="miter"
       unit="pc"
       offset="0.4"
       miter_limit="4"
       attempt_force_join="false"
       update_on_knot_move="true" />
  </defs>
  <sodipodi:namedview
     id="namedview1"
     pagecolor="#ffffff"
     bordercolor="#000000"
     borderopacity="0.25"
     inkscape:showpageshadow="2"
     inkscape:pageopacity="0.0"
     inkscape:pagecheckerboard="0"
     inkscape:deskcolor="#d1d1d1"
     inkscape:zoom="0.45"
     inkscape:cx="116.66667"
     inkscape:cy="520"
     inkscape:window-width="1920"
     inkscape:window-height="1145"
     inkscape:window-x="0"
     inkscape:window-y="0"
     inkscape:window-maximized="1"
     inkscape:current-layer="svg1" />
  <path
     fill="currentColor"
     d="m 348,43.599609 c -31.53609,0 -56.40039,24.864305 -56.40039,56.400391 V 293.59961 H 100 c -31.536086,0 -56.400391,24.8643 -56.400391,56.40039 0,31.53609 24.864305,56.40039 56.400391,56.40039 H 291.59961 V 593.59961 H 100 c -31.536086,0 -56.400391,24.8643 -56.400391,56.40039 0,31.53609 24.864305,56.40039 56.400391,56.40039 H 291.59961 V 900 c 0,31.53609 24.8643,56.40039 56.40039,56.40039 31.53609,0 56.40039,-24.8643 56.40039,-56.40039 V 706.40039 H 591.59961 V 900 c 0,31.53609 24.8643,56.40039 56.40039,56.40039 31.53609,0 56.40039,-24.8643 56.40039,-56.40039 V 706.40039 H 900 c 31.53609,0 56.40039,-24.8643 56.40039,-56.40039 0,-31.53609 -24.8643,-56.40039 -56.40039,-56.40039 H 704.40039 V 406.40039 H 900 c 31.53609,0 56.40039,-24.8643 56.40039,-56.40039 0,-31.53609 -24.8643,-56.40039 -56.40039,-56.40039 H 704.40039 V 100 c 0,-31.536086 -24.8643,-56.400391 -56.40039,-56.400391 -31.53609,0 -56.40039,24.864305 -56.40039,56.400391 V 293.59961 H 404.40039 V 100 C 404.40039,68.463914 379.53609,43.599609 348,43.599609 Z M 404.40039,406.40039 H 591.59961 V 593.59961 H 404.40039 Z"
     id="path1"
     inkscape:path-effect="#path-effect1"
     inkscape:original-d="M 398,400 V 600 H 598 V 400 Z M 298,900 V 700 H 100 c -28,0 -50,-22 -50,-50 0,-28 22,-50 50,-50 H 298 V 400 H 100 c -28,0 -50,-22 -50,-50 0,-28 22,-50 50,-50 H 298 V 100 c 0,-28 22,-50 50,-50 28,0 50,22 50,50 V 300 H 598 V 100 c 0,-28 22,-50 50,-50 28,0 50,22 50,50 v 200 h 202 c 28,0 50,22 50,50 0,28 -22,50 -50,50 H 698 v 200 h 202 c 28,0 50,22 50,50 0,28 -22,50 -50,50 H 698 v 200 c 0,28 -22,50 -50,50 -28,0 -50,-22 -50,-50 V 700 H 398 v 200 c 0,28 -22,50 -50,50 -28,0 -50,-22 -50,-50 z" />
</svg>
