<?xml version="1.0" encoding="UTF-8" standalone="no"?>
<svg
   version="1.1"
   viewBox="0 0 1000 1000"
   id="svg1"
   sodipodi:docname="olinTok-229.svg"
   inkscape:version="1.4.2 (ebf0e940d0, 2025-05-08)"
   width="1000"
   height="1000"
   xmlns:inkscape="http://www.inkscape.org/namespaces/inkscape"
   xmlns:sodipodi="http://sodipodi.sourceforge.net/DTD/sodipodi-0.dtd"
   xmlns="http://www.w3.org/2000/svg"
   xmlns:svg="http://www.w3.org/2000/svg">
  <defs
     id="defs1">
    <inkscape:path-effect
       effect="offset"
       id="path-effect1"
       is_visible="true"
       lpeversion="1.3"
       linejoin_type="miter"
       unit="pc"
       offset="0.4"
       miter_limit="4"
       attempt_force_join="false"
       update_on_knot_move="true" />
  </defs>
  <sodipodi:namedview
     id="namedview1"
     pagecolor="#ffffff"
     bordercolor="#000000"
     borderopacity="0.25"
     inkscape:showpageshadow="2"
     inkscape:pageopacity="0.0"
     inkscape:pagecheckerboard="0"
     inkscape:deskcolor="#d1d1d1"
     inkscape:zoom="0.45"
     inkscape:cx="3.3333333"
     inkscape:cy="680"
     inkscape:window-width="1920"
     inkscape:window-height="1145"
     inkscape:window-x="0"
     inkscape:window-y="0"
     inkscape:window-maximized="1"
     inkscape:current-layer="svg1" />
  <path
     fill="currentColor"
     d="m 400,43.599609 c -86.52859,0 -156.40039,69.871801 -156.40039,156.400391 0,41.96875 20.86456,81.22248 41.02344,112.46875 l 0.0137,0.0234 0.0137,0.0215 c 44.59682,67.90879 116.43912,128.56051 172.23438,175.38867 l 0.13476,0.11328 0.14063,0.10352 c 3.58416,2.68812 4.91381,3.91369 7.75195,5.84375 l 1.00976,1.00977 0.52735,0.35156 c 9.75543,6.50362 22.02703,11.07617 33.55078,11.07617 11.52375,0 23.79535,-4.57255 33.55078,-11.07617 l 0.52734,-0.35156 1.00977,-1.00977 c 2.83814,-1.93006 4.16779,-3.15563 7.75195,-5.84375 l 0.14453,-0.10742 0.13868,-0.11719 c 56.74573,-47.78588 127.64401,-106.48321 172.2539,-175.42578 20.15888,-31.24627 41.02344,-70.5 41.02344,-112.46875 0,-86.52859 -69.8718,-156.400391 -156.40039,-156.400391 -45.0498,0 -77.32186,19.298075 -100,40.498047 C 477.32186,62.897684 445.0498,43.599609 400,43.599609 Z m 0,112.800781 c 7.68,0 14.89143,3.45402 21.78711,9.13281 10.34352,8.5182 19.27037,21.79054 25.83984,31.94336 l 0.0234,0.0371 5.98633,8.97852 c 0.007,0.0107 0.0146,0.0206 0.0215,0.0312 10.23308,15.87232 27.21068,24.87695 46.3418,24.87695 19.13112,0 36.10872,-9.00463 46.3418,-24.87695 l 0.041,-0.0625 5.9668,-8.94727 0.0234,-0.0371 c 6.56947,-10.15282 15.49632,-23.42516 25.83984,-31.94336 6.89568,-5.67879 14.10711,-9.13281 21.78711,-9.13281 12.32381,0 23.14788,4.79827 30.97461,12.625 7.82673,7.82673 12.625,18.6508 12.625,30.97461 0,3.72 -1.23819,10.1086 -4.66211,18.60937 -3.42208,8.49622 -8.97015,19.15572 -17.28125,31.86915 -0.002,0.003 -0.004,0.006 -0.006,0.01 -0.002,0.003 -0.006,0.006 -0.008,0.01 C 594.46845,291.71787 538.69242,344.48998 500.00195,377.5957 461.42145,344.53226 406.5451,291.81596 378.32227,250.44531 370.02255,237.74574 364.48177,227.09859 361.0625,218.60937 357.63858,210.1086 356.40039,203.72 356.40039,200 c 0,-12.32381 4.79827,-23.14788 12.625,-30.97461 7.82673,-7.82673 18.6508,-12.625 30.97461,-12.625 z m 0,337.19922 c -86.52859,0 -156.40039,69.8718 -156.40039,156.40039 0,41.96875 20.86456,81.22248 41.02344,112.46875 l 0.0137,0.0234 0.0137,0.0215 c 44.59682,67.90879 116.43912,128.56051 172.23438,175.38867 l 0.13476,0.11328 0.14063,0.10352 c 3.58416,2.68812 4.91381,3.91369 7.75195,5.84375 l 1.00976,1.00977 0.52735,0.35156 c 9.75543,6.50362 22.02703,11.07617 33.55078,11.07617 11.52375,0 23.79535,-4.57255 33.55078,-11.07617 l 0.52734,-0.35156 1.00977,-1.00977 c 2.83814,-1.93006 4.16779,-3.15563 7.75195,-5.84375 l 0.14453,-0.10742 0.13868,-0.11719 c 56.74573,-47.78588 127.64401,-106.48321 172.2539,-175.42578 20.15888,-31.24627 41.02344,-70.5 41.02344,-112.46875 0,-86.52859 -69.8718,-156.40039 -156.40039,-156.40039 -45.0498,0 -77.32186,19.29807 -100,40.49805 -22.67814,-21.19998 -54.9502,-40.49805 -100,-40.49805 z m 0,112.80078 c 7.68,0 14.89143,3.45402 21.78711,9.13281 10.34352,8.5182 19.27037,21.79054 25.83984,31.94336 l 0.0234,0.0371 5.98633,8.97852 c 0.007,0.0107 0.0146,0.0206 0.0215,0.0312 10.23308,15.87232 27.21068,24.87695 46.3418,24.87695 19.13112,0 36.10872,-9.00463 46.3418,-24.87695 l 0.041,-0.0625 5.9668,-8.94727 0.0234,-0.0371 c 6.56947,-10.15282 15.49632,-23.42516 25.83984,-31.94336 6.89568,-5.67879 14.10711,-9.13281 21.78711,-9.13281 12.32381,0 23.14788,4.79827 30.97461,12.625 7.82673,7.82673 12.625,18.6508 12.625,30.97461 0,3.72 -1.23819,10.1086 -4.66211,18.60937 -3.42208,8.49622 -8.97015,19.15572 -17.28125,31.86915 -0.002,0.003 -0.004,0.006 -0.006,0.01 -0.002,0.003 -0.006,0.006 -0.008,0.01 C 594.46845,741.71787 538.69242,794.48998 500.00195,827.5957 461.42145,794.53226 406.5451,741.81596 378.32227,700.44531 370.02255,687.74574 364.48177,677.09859 361.0625,668.60937 357.63858,660.1086 356.40039,653.72 356.40039,650 c 0,-12.32381 4.79827,-23.14788 12.625,-30.97461 7.82673,-7.82673 18.6508,-12.625 30.97461,-12.625 z"
     id="path1"
     inkscape:path-effect="#path-effect1"
     inkscape:original-d="m 400,600 c -28,0 -50,22 -50,50 0,10 6,28 23,54 30,44 88,99 127,132 39,-33 98,-88 127,-132 17,-26 23,-44 23,-54 0,-28 -22,-50 -50,-50 -24,0 -42,27 -53,44 l -6,9 c -9,14 -24,22 -41,22 -17,0 -32,-8 -41,-22 l -6,-9 c -11,-17 -29,-44 -53,-44 z m 130,340 c -9,6 -20,10 -30,10 -10,0 -21,-4 -30,-10 l -1,-1 c -3,-2 -4,-3 -8,-6 C 405,886 334,826 290,759 270,728 250,690 250,650 c 0,-83 67,-150 150,-150 46,0 78,21 100,43 22,-22 54,-43 100,-43 83,0 150,67 150,150 0,40 -20,78 -40,109 -44,68 -114,126 -171,174 -4,3 -5,4 -8,6 z M 400,150 c -28,0 -50,22 -50,50 0,10 6,28 23,54 30,44 88,99 127,132 39,-33 98,-88 127,-132 17,-26 23,-44 23,-54 0,-28 -22,-50 -50,-50 -24,0 -42,27 -53,44 l -6,9 c -9,14 -24,22 -41,22 -17,0 -32,-8 -41,-22 l -6,-9 c -11,-17 -29,-44 -53,-44 z m 130,340 c -9,6 -20,10 -30,10 -10,0 -21,-4 -30,-10 l -1,-1 c -3,-2 -4,-3 -8,-6 C 405,436 334,376 290,309 270,278 250,240 250,200 250,117 317,50 400,50 c 46,0 78,21 100,43 22,-22 54,-43 100,-43 83,0 150,67 150,150 0,40 -20,78 -40,109 -44,68 -114,126 -171,174 -4,3 -5,4 -8,6 z" />
</svg>
