<?xml version="1.0" encoding="UTF-8" standalone="no"?>
<svg
   version="1.1"
   viewBox="-10 0 1010 1000"
   id="svg1"
   sodipodi:docname="toki-pona.svg"
   xml:space="preserve"
   inkscape:version="1.4.2 (ebf0e940d0, 2025-05-08)"
   xmlns:inkscape="http://www.inkscape.org/namespaces/inkscape"
   xmlns:sodipodi="http://sodipodi.sourceforge.net/DTD/sodipodi-0.dtd"
   xmlns="http://www.w3.org/2000/svg"
   xmlns:svg="http://www.w3.org/2000/svg"><defs
     id="defs1"><inkscape:path-effect
       effect="offset"
       id="path-effect1"
       is_visible="true"
       lpeversion="1.3"
       linejoin_type="miter"
       unit="pc"
       offset="0.4"
       miter_limit="4"
       attempt_force_join="false"
       update_on_knot_move="true" /></defs><sodipodi:namedview
     id="namedview1"
     pagecolor="#ffffff"
     bordercolor="#000000"
     borderopacity="0.25"
     inkscape:showpageshadow="2"
     inkscape:pageopacity="0.0"
     inkscape:pagecheckerboard="0"
     inkscape:deskcolor="#d1d1d1"
     inkscape:zoom="0.45"
     inkscape:cx="365.55556"
     inkscape:cy="508.88889"
     inkscape:window-width="1920"
     inkscape:window-height="1145"
     inkscape:window-x="0"
     inkscape:window-y="0"
     inkscape:window-maximized="1"
     inkscape:current-layer="svg1" /><g
     id="g1"
     inkscape:path-effect="#path-effect1"><path
       fill="currentColor"
       d="m 500,23.599609 c -31.53609,0 -56.40039,24.864305 -56.40039,56.400391 v 100 c 0,31.53609 24.8643,56.40039 56.40039,56.40039 31.53609,0 56.40039,-24.8643 56.40039,-56.40039 V 80 c 0,-31.536086 -24.8643,-56.400391 -56.40039,-56.400391 z m -250,67 c -32.55051,0 -56.40039,27.928051 -56.40039,56.400391 0,8.96996 2.23221,19.10966 7.86133,28.20508 l 0.041,0.0742 c 0.005,0.007 0.009,0.0142 0.0137,0.0215 l 49.90625,86.83594 c 0.005,0.009 0.0106,0.0185 0.0156,0.0273 10.16951,18.05572 29.3507,28.23633 48.5625,28.23633 32.55051,0 56.40039,-27.92805 56.40039,-56.40039 0,-8.96996 -2.23221,-19.10966 -7.86133,-28.20508 l -0.041,-0.0742 -0.006,-0.01 c -0.002,-0.004 -0.005,-0.008 -0.008,-0.0117 l -49.90625,-86.83594 -0.0156,-0.0273 C 288.39299,100.78022 269.2118,90.599609 250,90.599609 Z m 500,0 c -19.2118,0 -38.39299,10.180611 -48.5625,28.236331 l -0.0156,0.0273 -49.90625,86.83594 c -0.005,0.007 -0.009,0.0142 -0.0137,0.0215 l -0.041,0.0742 c -5.62912,9.09542 -7.86133,19.23512 -7.86133,28.20508 0,28.47234 23.84988,56.40039 56.40039,56.40039 19.2118,0 38.39299,-10.18061 48.5625,-28.23633 0.005,-0.009 0.0107,-0.0185 0.0156,-0.0273 l 49.90625,-86.83594 0.008,-0.0117 c 0.002,-0.003 0.004,-0.006 0.006,-0.01 l 0.041,-0.0742 c 5.62912,-9.09542 7.86133,-19.23512 7.86133,-28.20508 0,-28.47234 -23.84988,-56.400391 -56.40039,-56.400391 z M 499,263.59961 C 302.48122,263.59961 142.59961,423.48122 142.59961,620 142.59961,816.51878 302.48122,976.40039 499,976.40039 695.51878,976.40039 855.40039,816.51878 855.40039,620 855.40039,423.48122 695.51878,263.59961 499,263.59961 Z m 0,112.80078 C 633.5372,376.40039 742.59961,485.4628 742.59961,620 742.59961,754.5372 633.5372,863.59961 499,863.59961 364.4628,863.59961 255.40039,754.5372 255.40039,620 255.40039,485.4628 364.4628,376.40039 499,376.40039 Z"
       id="path1"
       inkscape:original-d="M 149,620 C 149,427 306,270 499,270 692,270 849,427 849,620 849,813 692,970 499,970 306,970 149,813 149,620 Z M 499,370 C 361,370 249,482 249,620 249,758 361,870 499,870 637,870 749,758 749,620 749,482 637,370 499,370 Z M 750,97 c 29,0 50,25 50,50 0,8 -2,17 -7,25 l -50,87 c -9,16 -26,25 -43,25 -29,0 -50,-25 -50,-50 0,-8 2,-17 7,-25 l 50,-87 c 9,-16 26,-25 43,-25 z m -550,50 c 0,-25 21,-50 50,-50 17,0 34,9 43,25 l 50,87 c 5,8 7,17 7,25 0,25 -21,50 -50,50 -17,0 -34,-9 -43,-25 l -50,-87 c -5,-8 -7,-17 -7,-25 z M 500,30 c 28,0 50,22 50,50 v 100 c 0,28 -22,50 -50,50 -28,0 -50,-22 -50,-50 V 80 c 0,-28 22,-50 50,-50 z" /><path
       fill="currentColor"
       d="m 319,586 c -33.62109,0 -56.40039,27.93156 -56.40039,56.40039 0,4.75 1.19684,10.57447 2.19141,14.55273 l 0.0195,0.0742 0.0195,0.0723 C 292.63213,758.01075 388.24704,828.80078 499,828.80078 c 110.75296,0 206.36787,-70.79003 234.16992,-171.70117 l 0.0195,-0.0723 0.0195,-0.0742 c 0.99457,-3.97826 2.19141,-9.80273 2.19141,-14.55273 C 735.40039,613.93156 712.62109,586 679,586 c -24.90301,0 -47.41986,16.95224 -54.17383,41.7168 l -0.004,0.01 -0.002,0.01 C 611.63502,676.71029 562.34949,716 499,716 435.65051,716 386.36498,676.71029 373.17969,627.73633 l -0.002,-0.01 -0.004,-0.01 C 366.41986,602.95224 343.90301,586 319,586 Z"
       id="path1-6"
       inkscape:original-d="m 269,642.40115 c 0,-25 20,-50 50,-50 22,0 42,15 48,37 14,52 66,93 132,93 66,0 118,-41 132,-93 6,-22 26,-37 48,-37 30,0 50,25 50,50 0,4 -1,9 -2,13 -27,98 -120,167 -228,167 -108,0 -201,-69 -228,-167 -1,-4 -2,-9 -2,-13 z" /></g></svg>
