<?xml version="1.0" encoding="UTF-8" standalone="no"?>
<svg
   version="1.1"
   viewBox="0 0 1000 1000"
   id="svg1"
   sodipodi:docname="tonsiTok-286.svg"
   inkscape:version="1.4.2 (ebf0e940d0, 2025-05-08)"
   width="1000"
   height="1000"
   xmlns:inkscape="http://www.inkscape.org/namespaces/inkscape"
   xmlns:sodipodi="http://sodipodi.sourceforge.net/DTD/sodipodi-0.dtd"
   xmlns="http://www.w3.org/2000/svg"
   xmlns:svg="http://www.w3.org/2000/svg">
  <defs
     id="defs1">
    <inkscape:path-effect
       effect="offset"
       id="path-effect1"
       is_visible="true"
       lpeversion="1.3"
       linejoin_type="miter"
       unit="pc"
       offset="0.4"
       miter_limit="4"
       attempt_force_join="false"
       update_on_knot_move="true" />
  </defs>
  <sodipodi:namedview
     id="namedview1"
     pagecolor="#ffffff"
     bordercolor="#000000"
     borderopacity="0.25"
     inkscape:showpageshadow="2"
     inkscape:pageopacity="0.0"
     inkscape:pagecheckerboard="0"
     inkscape:deskcolor="#d1d1d1"
     inkscape:zoom="0.31819805"
     inkscape:cx="1500.6377"
     inkscape:cy="311.12699"
     inkscape:window-width="1920"
     inkscape:window-height="1145"
     inkscape:window-x="0"
     inkscape:window-y="0"
     inkscape:window-maximized="1"
     inkscape:current-layer="svg1" />
  <path
     fill="currentColor"
     d="m 499.5,87.599609 c -93.04954,0 -176.27281,42.123011 -232.42773,107.189451 L 127.82422,114.5293 c -0.0215,-0.0134 -0.043,-0.0238 -0.0644,-0.0371 -0.006,-0.004 -0.0117,-0.006 -0.0176,-0.01 -9.06638,-5.62864 -18.19423,-7.88281 -28.24219,-7.88281 -28.472344,0 -56.400391,23.84988 -56.400391,56.40039 0,19.21001 10.177909,38.3903 28.230469,48.56055 h 0.002 c 0.01005,0.006 0.0212,0.0119 0.03125,0.0176 L 210.68555,291.88281 C 199.55656,324.02887 193.09961,358.06925 193.09961,394 c 0,150.29676 107.55234,274.69744 250,301.36133 V 856 c 0,31.53609 24.8643,56.40039 56.40039,56.40039 31.53609,0 56.40039,-24.8643 56.40039,-56.40039 V 695.36133 c 142.44766,-26.66389 250,-151.06457 250,-301.36133 0,-35.93075 -6.45695,-69.97113 -17.58594,-102.11719 l 139.32227,-80.30469 0.0312,-0.0176 c 0,0 0.002,0 0.002,0 18.02432,-10.15474 29.23047,-30.21447 29.23047,-49.56055 0,-32.76118 -29.04255,-55.40039 -57.40039,-55.40039 -10.04796,0 -19.17581,2.25417 -28.24219,7.88281 l -0.0176,0.01 c -0.0214,0.0133 -0.043,0.0237 -0.0644,0.0371 L 731.92773,194.78906 C 675.77281,129.72262 592.54954,87.599609 499.5,87.599609 Z m 0,112.800781 c 70.04394,0 132.51948,38.08892 166.59961,94.37109 v 1.87891 l 2.28906,2.28906 c 16.13022,27.81446 24.71094,60.41947 24.71094,95.06055 0,106.50909 -87.09052,193.59961 -193.59961,193.59961 -106.50909,0 -193.59961,-87.09052 -193.59961,-193.59961 0,-34.4902 9.50171,-67.15761 24.77148,-95.11914 7e-4,-0.001 0.001,-0.003 0.002,-0.004 l 1.91992,-1.91992 0.41016,-0.69141 C 366.90484,239.11834 428.8379,200.40039 499.5,200.40039 Z"
     id="path1"
     inkscape:path-effect="#path-effect1"
     inkscape:original-d="m 499.5,594 c 110,0 200,-90 200,-200 0,-36 -9,-70 -26,-99 l -1,-1 v -1 c -35,-59 -100,-99 -173,-99 -73,0 -137,40 -172,99 l -2,2 c -16,29 -26,63 -26,99 0,110 90,200 200,200 z M 49.5,163 c 0,-29 25,-50 50,-50 9,0 17,2 25,7 l 144,83 c 55,-66 138,-109 231,-109 93,0 176,43 231,109 l 144,-83 c 8,-5 16,-7 25,-7 25,0 51,20 51,49 0,17 -10,35 -26,44 l -144,83 c 12,33 19,68 19,105 0,149 -108,272 -250,296 v 166 c 0,28 -22,50 -50,50 -28,0 -50,-22 -50,-50 V 690 c -142,-24 -250,-147 -250,-296 0,-37 7,-72 19,-105 l -144,-83 c -16,-9 -25,-26 -25,-43 z" />
</svg>
