<?xml version="1.0" standalone="no"?>
<!DOCTYPE svg PUBLIC "-//W3C//DTD SVG 1.1//EN" "http://www.w3.org/Graphics/SVG/1.1/DTD/svg11.dtd" >
<svg xmlns="http://www.w3.org/2000/svg" xmlns:xlink="http://www.w3.org/1999/xlink" version="1.1" viewBox="-10 0 1010 1000">
   <path fill="currentColor"
d="M693 560c0 28 -23 50 -51 50s-50 -22 -50 -50s22 -50 50 -50s51 22 51 50zM500 550c54 0 89 36 108 70c8 14 14 28 18 43h34c28 0 50 22 50 50s-22 50 -50 50h-25v14h25c28 0 50 22 50 50s-22 50 -50 50h-34c-4 15 -10 29 -18 43c-19 34 -54 70 -108 70s-89 -36 -108 -70
c-8 -14 -14 -28 -18 -43h-34c-28 0 -50 -22 -50 -50s22 -50 50 -50h25v-14h-25c-28 0 -50 -22 -50 -50s22 -50 50 -50h34c4 -15 10 -29 18 -43c19 -34 54 -70 108 -70zM517 663c-8 -12 -14 -13 -17 -13s-9 1 -17 13h34zM465 763v14h70v-14h-70zM483 877c8 12 14 13 17 13
s9 -1 17 -13h-34zM359 610c-28 0 -50 -22 -50 -50s22 -50 50 -50s51 22 51 50s-23 50 -51 50z" />
</svg>
