<?xml version="1.0" standalone="no"?>
<!DOCTYPE svg PUBLIC "-//W3C//DTD SVG 1.1//EN" "http://www.w3.org/Graphics/SVG/1.1/DTD/svg11.dtd" >
<svg xmlns="http://www.w3.org/2000/svg" xmlns:xlink="http://www.w3.org/1999/xlink" version="1.1" viewBox="-10 0 1010 1000">
   <path fill="currentColor"
d="M750 105c0 41 -34 75 -75 75s-75 -34 -75 -75s34 -75 75 -75s75 34 75 75zM575 792h-150c2 5 5 10 7 14c20 40 44 54 68 54s48 -14 68 -54c2 -4 5 -9 7 -14zM600 630h-200v20c0 14 1 28 2 42h196c1 -14 2 -28 2 -42v-20zM575 370c-2 -6 -4 -11 -7 -16
c-20 -40 -44 -54 -68 -54s-48 14 -68 54c-3 5 -5 10 -7 16h150zM402 470c-1 13 -2 26 -2 40v20h200v-20c0 -14 -1 -27 -2 -40h-196zM500 960c-99 0 -157 -84 -181 -168h-100c-28 0 -50 -22 -50 -50s22 -50 50 -50h83c-1 -14 -2 -28 -2 -42v-20h-100c-28 0 -50 -22 -50 -50
s22 -50 50 -50h100v-20c0 -13 0 -27 1 -40h-82c-28 0 -50 -22 -50 -50s22 -50 50 -50h100c23 -85 81 -170 181 -170s158 85 181 170h100c28 0 50 22 50 50s-22 50 -50 50h-82c1 13 1 27 1 40v20h100c28 0 50 22 50 50s-22 50 -50 50h-100v20c0 14 -1 28 -2 42h83
c28 0 50 22 50 50s-22 50 -50 50h-100c-24 84 -82 168 -181 168zM325 180c-41 0 -75 -34 -75 -75s34 -75 75 -75s75 34 75 75s-34 75 -75 75z" />
</svg>
