<?xml version="1.0" standalone="no"?>
<!DOCTYPE svg PUBLIC "-//W3C//DTD SVG 1.1//EN" "http://www.w3.org/Graphics/SVG/1.1/DTD/svg11.dtd" >
<svg xmlns="http://www.w3.org/2000/svg" xmlns:xlink="http://www.w3.org/1999/xlink" version="1.1" viewBox="-10 0 1010 1000">
   <path fill="currentColor"
d="M675 160c-41 0 -75 -34 -75 -75s34 -75 75 -75s75 34 75 75s-34 75 -75 75zM314 366c-40 49 -64 123 -64 224s24 175 64 224c39 47 98 76 186 76s147 -29 186 -76c40 -49 64 -123 64 -224s-24 -175 -64 -224c-39 -47 -98 -76 -186 -76s-147 29 -186 76zM222 321
c59 -84 156 -131 278 -131s219 47 278 131h134c28 0 50 22 50 50s-22 50 -50 50h-86c11 34 18 70 21 109h93c28 0 50 22 50 50s-22 50 -50 50h-91c-2 39 -8 76 -17 111h80c28 0 50 22 50 50s-22 50 -50 50h-123c-57 94 -158 149 -289 149s-232 -55 -289 -149h-123
c-28 0 -50 -22 -50 -50s22 -50 50 -50h80c-9 -35 -15 -72 -17 -111h-91c-28 0 -50 -22 -50 -50s22 -50 50 -50h93c3 -39 10 -75 21 -109h-86c-28 0 -50 -22 -50 -50s22 -50 50 -50h134zM400 85c0 41 -34 75 -75 75s-75 -34 -75 -75s34 -75 75 -75s75 34 75 75z" />
</svg>
