<?xml version="1.0" standalone="no"?>
<!DOCTYPE svg PUBLIC "-//W3C//DTD SVG 1.1//EN" "http://www.w3.org/Graphics/SVG/1.1/DTD/svg11.dtd" >
<svg xmlns="http://www.w3.org/2000/svg" xmlns:xlink="http://www.w3.org/1999/xlink" version="1.1" viewBox="-10 0 1010 1000">
   <path fill="currentColor"
d="M675 160c-41 0 -75 -34 -75 -75s34 -75 75 -75s75 34 75 75s-34 75 -75 75zM250 590c0 101 24 175 64 224c39 47 98 76 186 76s147 -29 186 -76c40 -49 64 -123 64 -224s-24 -175 -64 -224c-39 -47 -98 -76 -186 -76s-147 29 -186 76c-40 49 -64 123 -64 224zM500 190
c112 0 203 39 264 113c28 34 49 75 63 120h113c28 0 50 22 50 50s-22 50 -50 50h-93c2 22 3 44 3 67s-1 45 -3 67h93c28 0 50 22 50 50s-22 50 -50 50h-113c-14 45 -35 86 -63 120c-61 74 -152 113 -264 113s-203 -39 -264 -113c-28 -34 -49 -75 -63 -120h-113
c-28 0 -50 -22 -50 -50s22 -50 50 -50h93c-2 -22 -3 -44 -3 -67s1 -45 3 -67h-93c-28 0 -50 -22 -50 -50s22 -50 50 -50h113c14 -45 35 -86 63 -120c61 -74 152 -113 264 -113zM400 85c0 41 -34 75 -75 75s-75 -34 -75 -75s34 -75 75 -75s75 34 75 75z" />
</svg>
