<?xml version="1.0" standalone="no"?>
<!DOCTYPE svg PUBLIC "-//W3C//DTD SVG 1.1//EN" "http://www.w3.org/Graphics/SVG/1.1/DTD/svg11.dtd" >
<svg xmlns="http://www.w3.org/2000/svg" xmlns:xlink="http://www.w3.org/1999/xlink" version="1.1" viewBox="-10 0 1010 1000">
   <path fill="currentColor"
d="M675 210c-41 0 -75 -34 -75 -75s34 -75 75 -75s75 34 75 75s-34 75 -75 75zM588 740h-176c5 17 11 34 19 48c20 37 44 52 69 52s49 -15 69 -52c8 -14 14 -31 19 -48zM400 540v100h200v-100h-200zM588 440c-5 -17 -11 -34 -19 -48c-20 -37 -44 -52 -69 -52s-49 15 -69 52
c-8 14 -14 31 -19 48h176zM500 240c75 0 126 50 156 103c16 30 28 63 35 97h90c28 0 50 22 50 50s-22 50 -50 50h-81v100h81c28 0 50 22 50 50s-22 50 -50 50h-90c-7 34 -19 67 -35 97c-30 53 -81 103 -156 103s-126 -50 -156 -103c-16 -30 -28 -63 -35 -97h-90
c-28 0 -50 -22 -50 -50s22 -50 50 -50h81v-100h-81c-28 0 -50 -22 -50 -50s22 -50 50 -50h90c7 -34 19 -67 35 -97c30 -53 81 -103 156 -103zM400 135c0 41 -34 75 -75 75s-75 -34 -75 -75s34 -75 75 -75s75 34 75 75z" />
</svg>
