<?xml version="1.0" standalone="no"?>
<!DOCTYPE svg PUBLIC "-//W3C//DTD SVG 1.1//EN" "http://www.w3.org/Graphics/SVG/1.1/DTD/svg11.dtd" >
<svg xmlns="http://www.w3.org/2000/svg" xmlns:xlink="http://www.w3.org/1999/xlink" version="1.1" viewBox="-10 0 1070 1000">
   <path fill="currentColor"
d="M642 550c-21 182 -146 328 -342 348v52c0 24 6 34 11 39s15 11 39 11h650c28 0 50 22 50 50s-22 50 -50 50h-650c-41 0 -81 -11 -110 -40s-40 -69 -40 -110v-400h-100c-28 0 -50 -22 -50 -50s22 -50 50 -50h100v-300c0 -28 22 -50 50 -50c229 0 369 154 392 350h137
l-64 -65c-10 -10 -15 -22 -15 -35c0 -27 23 -50 50 -50c13 0 25 5 35 15l150 150c8 8 15 20 15 35s-7 27 -15 35l-150 150c-10 10 -22 15 -35 15c-27 0 -50 -23 -50 -50c0 -13 5 -25 15 -35l64 -65h-137zM300 550v247c141 -18 222 -118 241 -247h-241zM541 450
c-19 -128 -100 -229 -241 -247v247h241z" />
</svg>
