<?xml version="1.0" standalone="no"?>
<!DOCTYPE svg PUBLIC "-//W3C//DTD SVG 1.1//EN" "http://www.w3.org/Graphics/SVG/1.1/DTD/svg11.dtd" >
<svg xmlns="http://www.w3.org/2000/svg" xmlns:xlink="http://www.w3.org/1999/xlink" version="1.1" viewBox="-10 0 1010 1000">
   <path fill="currentColor"
d="M563 500c36 46 66 82 94 108c33 30 60 42 89 42c30 0 54 -12 72 -35c19 -24 32 -63 32 -115s-13 -91 -32 -115c-18 -23 -42 -35 -72 -35c-29 0 -56 12 -89 42c-28 26 -58 62 -94 108zM437 500c-36 -46 -66 -82 -94 -108c-33 -30 -60 -42 -89 -42c-30 0 -54 12 -72 35
c-19 24 -32 63 -32 115s13 91 32 115c18 23 42 35 72 35c29 0 56 -12 89 -42c28 -26 58 -62 94 -108zM50 500c0 -133 75 -250 204 -250c63 0 113 28 157 68c30 27 59 61 89 100c30 -39 59 -73 89 -100c44 -40 94 -68 157 -68c129 0 204 117 204 250s-75 250 -204 250
c-63 0 -113 -28 -157 -68c-30 -27 -59 -61 -89 -100c-30 39 -59 73 -89 100c-44 40 -94 68 -157 68c-129 0 -204 -117 -204 -250z" />
</svg>
