<?xml version="1.0" standalone="no"?>
<!DOCTYPE svg PUBLIC "-//W3C//DTD SVG 1.1//EN" "http://www.w3.org/Graphics/SVG/1.1/DTD/svg11.dtd" >
<svg xmlns="http://www.w3.org/2000/svg" xmlns:xlink="http://www.w3.org/1999/xlink" version="1.1" viewBox="-10 0 1010 1000">
   <path fill="currentColor"
d="M150 990c-25 0 -50 -20 -50 -50c0 -20 11 -38 31 -46l350 -140c6 -2 13 -4 19 -4s13 2 19 4l350 140c20 8 31 26 31 46c0 30 -25 50 -50 50c-6 0 -13 -2 -19 -4l-331 -132l-331 132c-6 2 -13 4 -19 4zM100 60c0 -30 25 -50 50 -50c6 0 13 2 19 4l331 132l331 -132
c6 -2 13 -4 19 -4c25 0 50 20 50 50c0 20 -11 38 -31 46l-350 140c-6 2 -13 4 -19 4s-13 -2 -19 -4l-350 -140c-20 -8 -31 -26 -31 -46z" />
</svg>
