<?xml version="1.0" standalone="no"?>
<!DOCTYPE svg PUBLIC "-//W3C//DTD SVG 1.1//EN" "http://www.w3.org/Graphics/SVG/1.1/DTD/svg11.dtd" >
<svg xmlns="http://www.w3.org/2000/svg" xmlns:xlink="http://www.w3.org/1999/xlink" version="1.1" viewBox="-10 0 1010 1000">
   <path fill="currentColor"
d="M150 900c-26 0 -50 -22 -50 -50c0 -15 7 -30 20 -40l350 -262c9 -6 20 -10 30 -10s21 4 30 10l350 262c13 10 20 25 20 40c0 28 -24 50 -50 50c-10 0 -21 -3 -30 -10l-320 -240l-320 240c-9 7 -20 10 -30 10zM850 100c26 0 50 22 50 50c0 15 -7 30 -20 40l-350 262
c-9 6 -20 10 -30 10s-21 -4 -30 -10l-350 -262c-13 -10 -20 -25 -20 -40c0 -28 24 -50 50 -50c10 0 21 3 30 10l320 240l320 -240c9 -7 20 -10 30 -10z" />
</svg>
