<?xml version="1.0" standalone="no"?>
<!DOCTYPE svg PUBLIC "-//W3C//DTD SVG 1.1//EN" "http://www.w3.org/Graphics/SVG/1.1/DTD/svg11.dtd" >
<svg xmlns="http://www.w3.org/2000/svg" xmlns:xlink="http://www.w3.org/1999/xlink" version="1.1" viewBox="-10 0 1070 1000">
   <path fill="currentColor"
d="M150 150c0 -27 23 -50 50 -50c13 0 26 5 36 15l264 272l264 -272c10 -10 23 -15 36 -15c27 0 50 23 50 50c0 13 -5 25 -14 35l-286 294v471c0 24 6 34 11 39s15 11 39 11h400c28 0 50 22 50 50s-22 50 -50 50h-400c-41 0 -81 -11 -110 -40s-40 -69 -40 -110v-471
l-286 -294c-9 -10 -14 -22 -14 -35z" />
</svg>
