<?xml version="1.0" standalone="no"?>
<!DOCTYPE svg PUBLIC "-//W3C//DTD SVG 1.1//EN" "http://www.w3.org/Graphics/SVG/1.1/DTD/svg11.dtd" >
<svg xmlns="http://www.w3.org/2000/svg" xmlns:xlink="http://www.w3.org/1999/xlink" version="1.1" viewBox="-10 0 1010 1000">
   <path fill="currentColor"
d="M500 870c-6 0 -10 4 -10 10s4 10 10 10s10 -4 10 -10s-4 -10 -10 -10zM500 770c61 0 110 49 110 110s-49 110 -110 110s-110 -49 -110 -110s49 -110 110 -110zM298 610c-6 0 -10 4 -10 10s4 10 10 10s10 -4 10 -10s-4 -10 -10 -10zM298 510c61 0 110 49 110 110
s-49 110 -110 110s-110 -49 -110 -110s49 -110 110 -110zM702 610c-6 0 -10 4 -10 10s4 10 10 10s10 -4 10 -10s-4 -10 -10 -10zM702 510c61 0 110 49 110 110s-49 110 -110 110s-110 -49 -110 -110s49 -110 110 -110zM326 851c-25 0 -50 -21 -50 -50c0 -16 8 -32 22 -42
l174 -116c8 -6 18 -8 28 -8s20 2 28 8l174 116c14 10 22 26 22 42c0 29 -25 50 -50 50c-10 0 -18 -2 -27 -8l-147 -98l-147 98c-9 6 -17 8 -27 8z" />
</svg>
