<?xml version="1.0" standalone="no"?>
<!DOCTYPE svg PUBLIC "-//W3C//DTD SVG 1.1//EN" "http://www.w3.org/Graphics/SVG/1.1/DTD/svg11.dtd" >
<svg xmlns="http://www.w3.org/2000/svg" xmlns:xlink="http://www.w3.org/1999/xlink" version="1.1" viewBox="-10 0 1010 1000">
   <path fill="currentColor"
d="M170 710c-26 0 -50 -21 -50 -50c0 -16 8 -33 22 -42l330 -220c8 -6 18 -8 28 -8s20 2 28 8l330 220c14 9 22 26 22 42c0 29 -24 50 -50 50c-10 0 -19 -2 -28 -8l-302 -202l-302 202c-9 6 -18 8 -28 8zM754 71c102 0 185 83 185 185s-83 184 -185 184s-184 -82 -184 -184
s82 -185 184 -185zM754 171c-47 0 -84 38 -84 85s37 84 84 84s85 -37 85 -84s-38 -85 -85 -85zM246 71c102 0 184 83 184 185s-82 184 -184 184s-185 -82 -185 -184s83 -185 185 -185zM246 171c-47 0 -85 38 -85 85s38 84 85 84s84 -37 84 -84s-37 -85 -84 -85zM500 611
c102 0 184 83 184 185s-82 184 -184 184s-185 -82 -185 -184s83 -185 185 -185zM500 711c-47 0 -85 38 -85 85s38 84 85 84s84 -37 84 -84s-37 -85 -84 -85z" />
</svg>
