<?xml version="1.0" standalone="no"?>
<!DOCTYPE svg PUBLIC "-//W3C//DTD SVG 1.1//EN" "http://www.w3.org/Graphics/SVG/1.1/DTD/svg11.dtd" >
<svg xmlns="http://www.w3.org/2000/svg" xmlns:xlink="http://www.w3.org/1999/xlink" version="1.1" viewBox="-10 0 1010 1000">
   <path fill="currentColor"
d="M550 100v679l165 -164c10 -10 22 -15 35 -15s25 5 35 15s15 22 15 35s-5 25 -15 35l-250 250c-9 9 -22 15 -35 15c-12 0 -25 -5 -35 -15l-250 -250c-10 -10 -15 -22 -15 -35s5 -25 15 -35s22 -15 35 -15s25 5 35 15l165 164v-679c0 -28 22 -50 50 -50s50 22 50 50z" />
</svg>
