<?xml version="1.0" standalone="no"?>
<!DOCTYPE svg PUBLIC "-//W3C//DTD SVG 1.1//EN" "http://www.w3.org/Graphics/SVG/1.1/DTD/svg11.dtd" >
<svg xmlns="http://www.w3.org/2000/svg" xmlns:xlink="http://www.w3.org/1999/xlink" version="1.1" viewBox="-10 0 1070 1000">
   <path fill="currentColor"
d="M550 150v450c0 28 -22 50 -50 50s-50 -22 -50 -50v-450c0 -28 22 -50 50 -50s50 22 50 50zM672 1002c-35 58 -99 98 -172 98c-110 0 -200 -90 -200 -200s90 -200 200 -200c58 0 110 24 146 63c32 28 46 65 63 101c9 19 18 37 28 55c28 49 61 81 119 81h144
c28 0 50 22 50 50s-22 50 -50 50h-144c-91 0 -147 -47 -184 -98zM500 1000c55 0 100 -45 100 -100s-45 -100 -100 -100s-100 45 -100 100s45 100 100 100z" />
</svg>
