<?xml version="1.0" standalone="no"?>
<!DOCTYPE svg PUBLIC "-//W3C//DTD SVG 1.1//EN" "http://www.w3.org/Graphics/SVG/1.1/DTD/svg11.dtd" >
<svg xmlns="http://www.w3.org/2000/svg" xmlns:xlink="http://www.w3.org/1999/xlink" version="1.1" viewBox="-10 0 1010 1000">
   <path fill="currentColor"
d="M600 750c0 -55 -45 -100 -100 -100s-100 45 -100 100s45 100 100 100s100 -45 100 -100zM800 900c0 26 -20 50 -50 50c-21 0 -40 -13 -47 -33c-9 -25 -18 -48 -28 -70c-34 61 -100 103 -175 103c-110 0 -200 -90 -200 -200s90 -200 200 -200c61 0 109 27 148 66
c47 50 105 146 149 267c2 6 3 11 3 17zM272 115c0 -25 22 -50 52 -50c22 0 41 15 47 38l85 340c1 4 2 8 2 12c0 25 -22 50 -52 50c-22 0 -41 -15 -47 -38l-85 -340c-1 -4 -2 -8 -2 -12zM676 65c30 0 52 25 52 50c0 4 -1 8 -2 12l-85 340c-6 23 -25 38 -47 38
c-30 0 -52 -25 -52 -50c0 -4 1 -8 2 -12l85 -340c6 -23 25 -38 47 -38z" />
</svg>
