<?xml version="1.0" standalone="no"?>
<!DOCTYPE svg PUBLIC "-//W3C//DTD SVG 1.1//EN" "http://www.w3.org/Graphics/SVG/1.1/DTD/svg11.dtd" >
<svg xmlns="http://www.w3.org/2000/svg" xmlns:xlink="http://www.w3.org/1999/xlink" version="1.1" viewBox="-10 0 1010 1000">
   <path fill="currentColor"
d="M272 275c-42 0 -62 -50 -62 -89c0 -62 37 -109 90 -137c51 -27 120 -39 200 -39s149 12 200 39c53 28 90 75 90 137c0 49 -28 82 -56 105c-27 22 -58 41 -88 58c-62 37 -96 65 -96 112v39c0 28 -22 50 -50 50s-50 -22 -50 -50v-39c0 -119 98 -172 162 -209
c24 -14 44 -25 59 -37c17 -14 19 -23 19 -29c0 -16 -8 -33 -37 -48c-31 -16 -82 -28 -153 -28s-122 12 -153 28c-29 15 -37 32 -37 48c0 5 1 8 4 12c6 8 8 18 8 27c0 25 -21 50 -50 50zM800 940c0 25 -20 50 -50 50c-20 0 -40 -13 -47 -33c-9 -25 -18 -48 -28 -70
c-34 61 -100 103 -175 103c-110 0 -200 -90 -200 -200s90 -200 200 -200c60 0 111 26 148 66c47 50 105 146 149 267c2 6 3 11 3 17zM500 890c55 0 100 -45 100 -100s-45 -100 -100 -100s-100 45 -100 100s45 100 100 100z" />
</svg>
