<?xml version="1.0" standalone="no"?>
<!DOCTYPE svg PUBLIC "-//W3C//DTD SVG 1.1//EN" "http://www.w3.org/Graphics/SVG/1.1/DTD/svg11.dtd" >
<svg xmlns="http://www.w3.org/2000/svg" xmlns:xlink="http://www.w3.org/1999/xlink" version="1.1" viewBox="-10 0 1010 1000">
   <path fill="currentColor"
d="M500 100c15 0 26 7 37 13c10 6 25 13 42 25c34 24 78 62 121 118c82 107 160 278 169 544h31c28 0 50 22 50 50s-22 50 -50 50h-80c-28 0 -50 -22 -50 -50c0 -275 -77 -439 -150 -533c-37 -47 -73 -78 -99 -97c-8 -6 -15 -10 -21 -14c-6 4 -13 8 -21 14
c-26 19 -62 50 -99 97c-73 94 -150 258 -150 533c0 28 -22 50 -50 50h-80c-28 0 -50 -22 -50 -50s22 -50 50 -50h31c9 -266 87 -437 169 -544c43 -56 87 -94 121 -118c25 -17 37 -25 60 -34c6 -2 13 -4 19 -4z" />
</svg>
