<?xml version="1.0" standalone="no"?>
<!DOCTYPE svg PUBLIC "-//W3C//DTD SVG 1.1//EN" "http://www.w3.org/Graphics/SVG/1.1/DTD/svg11.dtd" >
<svg xmlns="http://www.w3.org/2000/svg" xmlns:xlink="http://www.w3.org/1999/xlink" version="1.1" viewBox="-10 0 1010 1000">
   <path fill="currentColor"
d="M185 115l315 314l315 -314c10 -10 22 -15 35 -15s25 5 35 15s15 22 15 35s-5 25 -15 35l-314 315l314 315c10 10 15 22 15 35s-5 25 -15 35s-22 15 -35 15s-25 -5 -35 -15l-315 -314l-315 314c-10 10 -22 15 -35 15s-25 -5 -35 -15s-15 -22 -15 -35s5 -25 15 -35
l314 -315l-314 -315c-10 -10 -15 -22 -15 -35s5 -25 15 -35s22 -15 35 -15s25 5 35 15z" />
</svg>
