<?xml version="1.0" standalone="no"?>
<!DOCTYPE svg PUBLIC "-//W3C//DTD SVG 1.1//EN" "http://www.w3.org/Graphics/SVG/1.1/DTD/svg11.dtd" >
<svg xmlns="http://www.w3.org/2000/svg" xmlns:xlink="http://www.w3.org/1999/xlink" version="1.1" viewBox="-10 0 1010 1000">
   <path fill="currentColor"
d="M780 500c-17 -37 -180 -68 -180 -175c0 -91 133 -180 206 -219c8 -4 16 -6 24 -6c18 0 35 9 44 26c3 6 7 15 7 25c0 14 -8 32 -34 47c-18 10 -93 54 -131 99c-14 17 -16 26 -16 28c15 36 180 68 180 175s-165 139 -180 175c1 23 71 86 153 131c19 10 27 26 27 42
c0 26 -21 52 -49 52c-9 0 -17 -2 -27 -7c-63 -35 -204 -123 -204 -218c0 -107 163 -138 180 -175zM120 500c0 -107 165 -139 180 -175c-2 -37 -143 -128 -154 -131c-17 -9 -26 -26 -26 -44c0 -8 2 -16 6 -24c10 -19 24 -26 39 -26c21 0 43 14 59 24c102 62 176 131 176 201
c0 107 -163 138 -180 175c17 37 180 68 180 175c0 100 -159 194 -206 219c-8 4 -16 6 -24 6c-18 0 -35 -9 -44 -26c-3 -6 -7 -15 -7 -25c0 -14 8 -32 34 -47c18 -10 93 -54 131 -99c14 -17 16 -26 16 -28c-15 -36 -180 -68 -180 -175zM500 425c41 0 75 34 75 75
s-34 75 -75 75s-75 -34 -75 -75s34 -75 75 -75z" />
</svg>
