<?xml version="1.0" standalone="no"?>
<!DOCTYPE svg PUBLIC "-//W3C//DTD SVG 1.1//EN" "http://www.w3.org/Graphics/SVG/1.1/DTD/svg11.dtd" >
<svg xmlns="http://www.w3.org/2000/svg" xmlns:xlink="http://www.w3.org/1999/xlink" version="1.1" viewBox="-10 0 1010 1000">
   <path fill="currentColor"
d="M793 515l-50 87c-9 16 -26 25 -43 25c-8 0 -17 -2 -25 -7c-16 -9 -25 -26 -25 -43c0 -8 2 -17 7 -25l50 -87c9 -16 26 -25 43 -25c8 0 17 2 25 7c16 9 25 26 25 43c0 8 -2 17 -7 25zM225 447c8 -5 17 -7 25 -7c17 0 34 9 43 25l50 87c5 8 7 17 7 25c0 17 -9 34 -25 43
c-8 5 -17 7 -25 7c-17 0 -34 -9 -43 -25l-50 -87c-5 -8 -7 -17 -7 -25c0 -17 9 -34 25 -43zM500 373c28 0 50 22 50 50v100c0 28 -22 50 -50 50s-50 -22 -50 -50v-100c0 -28 22 -50 50 -50z" />
</svg>
