<?xml version="1.0" standalone="no"?>
<!DOCTYPE svg PUBLIC "-//W3C//DTD SVG 1.1//EN" "http://www.w3.org/Graphics/SVG/1.1/DTD/svg11.dtd" >
<svg xmlns="http://www.w3.org/2000/svg" xmlns:xlink="http://www.w3.org/1999/xlink" version="1.1" viewBox="-10 0 1010 1000">
   <path fill="currentColor"
d="M550 559v101c0 28 -22 50 -50 50s-50 -22 -50 -50v-101c0 -28 22 -50 50 -50s50 22 50 50zM304 578c0 -25 20 -50 50 -50c20 0 38 12 46 31l38 92c3 6 4 13 4 19c0 25 -20 50 -50 50c-20 0 -38 -11 -46 -30l-39 -93c-3 -6 -3 -13 -3 -19zM646 528c30 0 50 25 50 50
c0 6 0 13 -3 19l-39 93c-8 19 -26 30 -46 30c-30 0 -50 -25 -50 -50c0 -6 1 -13 4 -19l38 -92c8 -19 26 -31 46 -31zM396 786c0 57 47 104 104 104s104 -47 104 -104c0 -28 22 -50 50 -50s50 22 50 50c0 113 -91 204 -204 204s-204 -91 -204 -204c0 -28 22 -50 50 -50
s50 22 50 50z" />
</svg>
