<?xml version="1.0" standalone="no"?>
<!DOCTYPE svg PUBLIC "-//W3C//DTD SVG 1.1//EN" "http://www.w3.org/Graphics/SVG/1.1/DTD/svg11.dtd" >
<svg xmlns="http://www.w3.org/2000/svg" xmlns:xlink="http://www.w3.org/1999/xlink" version="1.1" viewBox="-10 0 1010 1000">
   <path fill="currentColor"
d="M500 14c28 0 50 22 50 50v184c0 28 -22 50 -50 50s-50 -22 -50 -50v-184c0 -28 22 -50 50 -50zM200 116c0 -25 20 -50 50 -50c20 0 38 12 46 31l70 170c3 6 4 13 4 19c0 25 -20 50 -50 50c-20 0 -38 -12 -46 -31l-70 -170c-3 -6 -4 -13 -4 -19zM680 336
c-30 0 -50 -25 -50 -50c0 -6 1 -13 4 -19l70 -170c8 -19 26 -31 46 -31c30 0 50 25 50 50c0 6 -1 13 -4 19l-70 170c-8 19 -26 31 -46 31zM500 820c138 0 250 -112 250 -250c0 -28 22 -50 50 -50s50 22 50 50c0 193 -157 350 -350 350s-350 -157 -350 -350
c0 -28 22 -50 50 -50s50 22 50 50c0 138 112 250 250 250z" />
</svg>
