<?xml version="1.0" standalone="no"?>
<!DOCTYPE svg PUBLIC "-//W3C//DTD SVG 1.1//EN" "http://www.w3.org/Graphics/SVG/1.1/DTD/svg11.dtd" >
<svg xmlns="http://www.w3.org/2000/svg" xmlns:xlink="http://www.w3.org/1999/xlink" version="1.1" viewBox="-10 0 1010 1000">
   <path fill="currentColor"
d="M600 358c25 2 51 3 78 3c81 0 121 -20 142 -41s30 -50 30 -87s-9 -54 -19 -64s-27 -19 -64 -19c-36 0 -62 9 -81 24c-20 15 -38 38 -50 75c-8 23 -21 63 -36 109zM399 644c-35 -3 -72 -5 -112 -5c-60 0 -92 18 -109 38c-18 21 -28 53 -28 90s9 54 19 64s27 19 64 19
s62 -8 81 -22s37 -37 50 -77c8 -24 20 -62 35 -107zM50 100c0 -25 19 -50 50 -50c19 0 38 11 46 30c0 0 1 1 1 2c7 13 10 22 22 39c17 26 45 61 86 97c55 48 134 97 245 123c18 -53 33 -98 42 -124c17 -51 43 -93 83 -123s89 -44 142 -44c52 0 100 13 135 48s48 83 48 135
s-13 112 -59 158s-116 70 -213 70c-39 0 -75 -2 -110 -6c-12 36 -25 73 -37 109c137 31 232 85 296 143c48 43 78 88 96 121c12 23 18 35 24 54c0 2 1 2 1 3v3c1 4 2 9 2 13c0 25 -21 49 -51 49c-22 0 -41 -14 -47 -37c0 0 -1 -1 -1 -2s-1 -4 -2 -7c-3 -7 -7 -17 -14 -29
c-13 -25 -36 -58 -75 -93c-52 -46 -133 -96 -260 -123c-17 52 -32 96 -41 123c-18 53 -45 98 -85 127c-40 30 -89 41 -141 41s-100 -13 -135 -48s-48 -83 -48 -135s13 -110 52 -155c40 -47 103 -73 185 -73c52 0 100 3 145 8c12 -36 24 -73 36 -110
c-123 -31 -214 -87 -279 -144c-48 -42 -82 -85 -103 -117c-11 -16 -19 -29 -24 -39c-3 -6 -7 -10 -7 -16l-1 -1c-3 -6 -4 -13 -4 -20z" />
</svg>
