<?xml version="1.0" standalone="no"?>
<!DOCTYPE svg PUBLIC "-//W3C//DTD SVG 1.1//EN" "http://www.w3.org/Graphics/SVG/1.1/DTD/svg11.dtd" >
<svg xmlns="http://www.w3.org/2000/svg" xmlns:xlink="http://www.w3.org/1999/xlink" version="1.1" viewBox="-10 0 1010 1000">
   <path fill="currentColor"
d="M450 100c0 -26 24 -50 50 -50c12 0 25 5 35 15l400 400c10 10 15 23 15 35s-5 25 -15 35l-400 400c-10 10 -23 15 -35 15c-26 0 -50 -24 -50 -50c0 -12 5 -25 15 -35l364 -365l-364 -365c-10 -10 -15 -23 -15 -35zM50 100c0 -26 24 -50 50 -50c12 0 25 5 35 15l400 400
c10 10 15 23 15 35s-5 25 -15 35l-400 400c-10 10 -23 15 -35 15c-26 0 -50 -24 -50 -50c0 -12 5 -25 15 -35l364 -365l-364 -365c-10 -10 -15 -23 -15 -35z" />
</svg>
