<?xml version="1.0" standalone="no"?>
<!DOCTYPE svg PUBLIC "-//W3C//DTD SVG 1.1//EN" "http://www.w3.org/Graphics/SVG/1.1/DTD/svg11.dtd" >
<svg xmlns="http://www.w3.org/2000/svg" xmlns:xlink="http://www.w3.org/1999/xlink" version="1.1" viewBox="-10 0 1010 1000">
   <path fill="currentColor"
d="M600 200c-164 0 -250 155 -250 410v290c0 31 -26 50 -51 50c-16 0 -32 -8 -42 -25l-200 -350c-4 -8 -7 -17 -7 -25c0 -17 9 -34 25 -43c8 -4 17 -7 25 -7c17 0 34 9 43 25l107 187v-102c0 -169 34 -296 97 -382c64 -88 155 -128 253 -128c175 0 350 131 350 510v290
c0 28 -22 50 -50 50s-50 -22 -50 -50v-290c0 -133 -27 -410 -250 -410z" />
</svg>
