<?xml version="1.0" standalone="no"?>
<!DOCTYPE svg PUBLIC "-//W3C//DTD SVG 1.1//EN" "http://www.w3.org/Graphics/SVG/1.1/DTD/svg11.dtd" >
<svg xmlns="http://www.w3.org/2000/svg" xmlns:xlink="http://www.w3.org/1999/xlink" version="1.1" viewBox="-10 0 1010 1000">
   <path fill="currentColor"
d="M495 70v100c0 28 -22 50 -50 50s-50 -22 -50 -50v-100c0 -28 22 -50 50 -50s50 22 50 50zM762 618c0 192 -135 362 -317 362s-317 -170 -317 -362s135 -361 317 -361c120 0 219 73 273 178h172c28 0 50 22 50 50s-22 50 -50 50h-137c6 27 9 55 9 83zM445 357
c-58 0 -114 29 -154 78h308c-40 -49 -96 -78 -154 -78zM228 618c0 152 104 262 217 262s217 -110 217 -262c0 -30 -4 -57 -11 -83h-411h-1c-7 26 -11 53 -11 83zM170 94c8 -5 17 -7 25 -7c17 0 34 9 43 25l50 87c5 8 7 17 7 25c0 17 -9 34 -25 43c-8 5 -17 7 -25 7
c-17 0 -34 -9 -43 -25l-50 -87c-5 -8 -7 -17 -7 -25c0 -17 9 -34 25 -43zM738 162l-50 87c-9 16 -26 25 -43 25c-8 0 -17 -2 -25 -7c-16 -9 -25 -26 -25 -43c0 -8 2 -17 7 -25l50 -87c9 -16 26 -25 43 -25c8 0 17 2 25 7c16 9 25 26 25 43c0 8 -2 17 -7 25z" />
</svg>
