<?xml version="1.0" standalone="no"?>
<!DOCTYPE svg PUBLIC "-//W3C//DTD SVG 1.1//EN" "http://www.w3.org/Graphics/SVG/1.1/DTD/svg11.dtd" >
<svg xmlns="http://www.w3.org/2000/svg" xmlns:xlink="http://www.w3.org/1999/xlink" version="1.1" viewBox="-10 0 1020 1000">
   <path fill="currentColor"
d="M530 840c-41 0 -75 -34 -75 -75s34 -75 75 -75s75 34 75 75s-34 75 -75 75zM401 162c21 0 37 17 37 38v92h185v-92c0 -21 17 -38 38 -38s37 17 37 38v92h92c21 0 38 16 38 37s-17 38 -38 38h-92v185h92c21 0 38 16 38 37s-17 38 -38 38h-92v93c0 21 -16 38 -37 38
s-38 -17 -38 -38v-93h-185v93c0 21 -16 38 -37 38s-38 -17 -38 -38v-93h-93c-21 0 -38 -17 -38 -38s17 -37 38 -37h93v-185h-93c-21 0 -38 -17 -38 -38s17 -37 38 -37h93v-92c0 -21 17 -38 38 -38zM438 367v185h185v-185h-185zM0 500c0 -276 224 -500 500 -500
s500 224 500 500s-224 500 -500 500c-76 0 -149 -17 -214 -48h-206c-28 0 -50 -22 -50 -50s22 -50 50 -50h65c-90 -90 -145 -215 -145 -352zM500 900c221 0 400 -179 400 -400s-179 -400 -400 -400s-400 179 -400 400c0 123 55 233 142 306v-116c0 -28 22 -50 50 -50
s50 22 50 50v178c48 21 102 32 158 32z" />
</svg>
