<?xml version="1.0" standalone="no"?>
<!DOCTYPE svg PUBLIC "-//W3C//DTD SVG 1.1//EN" "http://www.w3.org/Graphics/SVG/1.1/DTD/svg11.dtd" >
<svg xmlns="http://www.w3.org/2000/svg" xmlns:xlink="http://www.w3.org/1999/xlink" version="1.1" viewBox="-10 0 1010 1000">
   <path fill="currentColor"
d="M75 827c0 -43 27 -73 57 -90c-10 -16 -17 -35 -17 -55c0 -16 4 -33 15 -48c26 -37 70 -53 123 -61c23 -50 77 -63 145 -63c77 0 175 16 251 28c89 14 189 21 243 70c11 10 27 29 27 55c0 14 -4 27 -12 38c-19 26 -46 35 -80 43c-33 8 -70 13 -109 18
c-10 29 -29 53 -39 78c7 4 21 9 47 14c34 6 83 11 151 13c27 1 48 23 48 50c0 28 -23 50 -50 50c-70 0 -127 -7 -167 -15c-58 -11 -107 -29 -125 -75c-4 -10 -6 -21 -6 -31c0 -29 14 -55 24 -73c-53 4 -104 7 -156 10c24 8 47 17 66 29c18 11 42 32 42 65
c0 36 -28 57 -49 68c-36 19 -118 45 -190 45c-15 0 -30 -1 -45 -2c-97 -8 -194 -30 -194 -137v-24zM688 646c6 5 12 11 17 17c17 -2 35 -4 51 -7c-21 -5 -46 -7 -68 -10zM483 681c-45 -7 -84 -12 -118 -13c2 7 2 13 1 20c38 -3 77 -5 117 -7zM219 686c4 5 12 12 19 17
c10 -2 20 -4 31 -5c-4 -8 -8 -16 -11 -24c-17 3 -28 6 -39 12zM221 809c-20 5 -40 15 -46 20v21c0 5 0 9 1 13c23 17 84 27 135 27c37 0 67 -8 94 -15c-18 -6 -39 -12 -63 -19c-47 -13 -88 -30 -121 -47z" />
</svg>
