<?xml version="1.0" standalone="no"?>
<!DOCTYPE svg PUBLIC "-//W3C//DTD SVG 1.1//EN" "http://www.w3.org/Graphics/SVG/1.1/DTD/svg11.dtd" >
<svg xmlns="http://www.w3.org/2000/svg" xmlns:xlink="http://www.w3.org/1999/xlink" version="1.1" viewBox="-10 0 1010 1000">
   <path fill="currentColor"
d="M554 764c-3 -7 -5 -16 -5 -25c0 -5 1 -11 3 -16c-16 9 -32 22 -48 30c19 1 36 5 50 11zM825 514c25 0 50 20 50 50c0 10 -3 20 -8 28c27 13 58 34 58 76c0 54 -44 84 -86 96c3 11 6 23 6 35c0 4 -1 8 -1 12c20 11 41 25 55 41c10 11 20 28 20 49c0 36 -30 57 -47 65
c-36 18 -88 24 -142 24c-76 0 -169 -14 -242 -48c-14 -7 -26 -9 -39 -9c-32 0 -61 17 -93 33c-17 9 -38 18 -61 18c-42 0 -69 -33 -80 -62c-7 -19 -12 -42 -16 -69c-17 0 -30 3 -44 3c-47 0 -80 -31 -80 -82c0 -34 7 -54 19 -88c7 -21 26 -34 47 -34c30 0 50 25 50 50
c0 5 0 11 -2 16c-5 15 -9 27 -11 36c7 -1 14 -1 21 -1c32 0 57 9 76 31c14 16 20 36 23 56c3 18 5 30 8 39c23 -11 39 -22 69 -33c-22 -10 -43 -31 -45 -62c-57 -9 -117 -42 -117 -109c0 -11 2 -23 6 -33c-17 1 -36 5 -56 5c-26 0 -50 -21 -50 -50c0 -25 19 -47 45 -50
c47 -5 84 -8 118 -8c25 0 48 2 73 5c57 -19 133 -34 194 -34c43 0 93 9 126 44c9 10 14 22 14 34c0 6 -1 11 -3 17c17 5 34 12 48 20c-3 -7 -6 -15 -6 -25c0 -32 25 -51 37 -59s28 -15 47 -23c6 -2 13 -4 19 -4zM197 847v0zM373 654c-4 -2 -7 -4 -15 -6
c-25 10 -38 20 -43 26c7 5 22 12 46 13c4 -9 11 -22 12 -33zM467 618c4 11 6 23 6 37c28 -18 57 -35 85 -44c-7 0 -13 -1 -19 -1c-24 0 -45 3 -72 8z" />
</svg>
