<?xml version="1.0" standalone="no"?>
<!DOCTYPE svg PUBLIC "-//W3C//DTD SVG 1.1//EN" "http://www.w3.org/Graphics/SVG/1.1/DTD/svg11.dtd" >
<svg xmlns="http://www.w3.org/2000/svg" xmlns:xlink="http://www.w3.org/1999/xlink" version="1.1" viewBox="-10 0 1010 1000">
   <path fill="currentColor"
d="M825 83c26 0 50 22 50 50c0 15 -6 29 -19 39c-15 12 -25 22 -30 28c42 34 99 61 99 139c0 76 -39 125 -98 147c12 43 18 85 18 111c0 19 -3 38 -8 55c28 28 54 60 70 95c8 17 12 33 12 49c0 93 -99 129 -189 129c-82 0 -179 -29 -254 -99c-13 -12 -21 -14 -25 -14
s-10 0 -18 4c-43 23 -61 71 -109 91c-8 3 -18 6 -29 6c-56 0 -73 -54 -82 -100c-6 -30 -10 -68 -14 -119c-1 -20 -5 -32 -7 -39c-13 2 -24 6 -37 6c-12 0 -25 -3 -40 -12c-23 -14 -32 -38 -36 -58c-2 -12 -4 -26 -4 -43c0 -37 6 -86 17 -151c4 -24 25 -42 49 -42
c30 0 50 24 50 50c0 3 1 6 0 9c-12 68 -16 109 -16 134v9c8 -1 17 -3 26 -3c10 0 22 1 35 7c44 19 58 66 62 126c3 47 8 81 12 104c32 -32 74 -79 137 -79c36 0 70 16 97 41c54 51 126 72 186 72c39 0 80 -11 89 -26c1 -2 0 -6 -2 -10c-8 -17 -22 -35 -40 -55
c-28 20 -62 30 -98 30c-20 0 -40 -3 -60 -9c-58 -16 -84 -50 -111 -90c-7 -10 -8 -11 -8 -11s-4 -1 -11 -1c-16 0 -42 6 -60 6c-25 0 -49 -6 -69 -24c-25 -23 -30 -55 -30 -80c0 -13 1 -22 3 -34c-70 -18 -120 -88 -120 -170c0 -38 11 -77 35 -115c-21 2 -46 4 -75 10
c-3 1 -7 1 -10 1c-26 0 -50 -20 -50 -50c0 -23 16 -44 40 -49c46 -9 88 -14 125 -14c25 0 48 2 68 7c54 -33 130 -66 196 -66s113 35 136 83c3 7 5 15 5 22c0 25 -20 50 -50 50c-19 0 -37 -11 -46 -29c-9 -19 -18 -26 -42 -26c-31 0 -61 10 -101 28c21 30 30 63 30 102
c0 15 -2 31 -4 48c48 -64 102 -104 160 -104c65 0 108 47 135 89c11 17 21 35 29 54c19 -7 31 -16 31 -53c0 -19 -25 -35 -39 -45l-21 -15c-15 -12 -43 -37 -43 -76c0 -27 10 -47 24 -64c12 -15 28 -30 48 -45c9 -7 20 -11 31 -11zM430 560c17 0 42 -7 59 -7
c18 0 35 3 50 10c34 15 47 37 60 58c13 20 17 30 47 38c12 3 23 5 33 5c7 0 13 -1 19 -2c-33 -27 -71 -58 -99 -86c-20 -21 -51 -55 -51 -94c0 -12 3 -23 10 -35c23 -41 73 -42 130 -43c-2 -4 -5 -8 -7 -12c-22 -33 -39 -43 -51 -43c-11 0 -38 8 -80 65
c-35 47 -74 80 -114 97c-4 17 -6 28 -6 42v7zM742 569c-3 -17 -7 -42 -14 -66c-21 1 -39 1 -59 1c19 20 43 40 73 65zM424 559v0zM354 423c7 -29 20 -75 20 -114c0 -22 -4 -41 -15 -53c-34 32 -46 67 -46 96c0 35 17 63 41 71zM819 193l1 1z" />
</svg>
