<?xml version="1.0" standalone="no"?>
<!DOCTYPE svg PUBLIC "-//W3C//DTD SVG 1.1//EN" "http://www.w3.org/Graphics/SVG/1.1/DTD/svg11.dtd" >
<svg xmlns="http://www.w3.org/2000/svg" xmlns:xlink="http://www.w3.org/1999/xlink" version="1.1" viewBox="-10 0 1010 1000">
   <path fill="currentColor"
d="M277 618c-26 -5 -45 -8 -70 -8c15 5 32 8 52 8c6 0 12 1 18 0zM154 696c-31 -14 -58 -36 -71 -64c-5 -10 -8 -22 -8 -35c0 -46 41 -73 75 -81c16 -4 34 -6 55 -6c40 0 90 8 151 23c23 6 38 26 38 48c0 2 -1 5 -1 8c23 -4 45 -7 65 -7c18 0 34 2 50 5
c37 -20 79 -39 120 -52c32 -10 66 -16 97 -16c40 0 76 12 96 46c9 16 13 32 13 50c0 61 -44 127 -60 146c40 25 84 46 118 76c14 12 33 34 33 63c0 43 -37 63 -67 71c-33 9 -85 12 -156 12c-27 0 -49 -21 -50 -48c-49 40 -128 55 -211 55c-67 0 -136 -9 -193 -24
c-41 -10 -80 -24 -107 -42c-37 -24 -64 -59 -64 -103c0 -56 42 -98 77 -125zM234 857c-9 -11 -16 -25 -16 -44c0 -26 14 -45 28 -59c-21 13 -38 26 -51 39c-17 17 -18 26 -18 28c0 6 7 12 18 19c8 5 22 11 39 17zM576 866c-4 -2 -8 -5 -12 -7c-12 9 -25 17 -38 24
c21 -4 38 -10 50 -17zM618 645c16 18 30 46 30 76c0 23 -7 45 -16 62c24 15 57 42 57 82c0 7 -1 13 -3 21c5 -2 10 -3 16 -3c32 0 57 -1 78 -2c-27 -16 -62 -34 -85 -53c-15 -12 -33 -35 -33 -63c0 -30 17 -48 29 -62c16 -19 35 -41 42 -84h-9c-25 0 -79 15 -106 26z
M522 696c-8 6 -16 12 -23 18c11 8 26 15 44 24c2 -4 7 -14 5 -18c-3 -6 -11 -16 -26 -24zM344 707c20 4 40 23 40 49c0 18 -10 35 -28 44c-3 1 -6 3 -8 4c19 4 40 7 61 7c16 0 31 -2 46 -7c-25 -15 -64 -44 -64 -88c0 -8 2 -17 5 -26c-16 4 -36 11 -52 17z" />
</svg>
