<?xml version="1.0" standalone="no"?>
<!DOCTYPE svg PUBLIC "-//W3C//DTD SVG 1.1//EN" "http://www.w3.org/Graphics/SVG/1.1/DTD/svg11.dtd" >
<svg xmlns="http://www.w3.org/2000/svg" xmlns:xlink="http://www.w3.org/1999/xlink" version="1.1" viewBox="-10 0 1010 1000">
   <path fill="currentColor"
d="M518 574c0 -30 25 -50 50 -50c5 0 9 1 14 2c40 12 96 32 150 60c29 -44 82 -138 90 -179c2 -11 3 -18 3 -24c0 -5 -1 -8 -2 -11c-2 -6 -10 -19 -41 -38c-64 -39 -200 -86 -479 -155c-23 -6 -46 -9 -68 -9c-4 0 -7 1 -11 1c38 24 107 54 218 92c58 20 102 37 136 52
c32 15 59 29 76 44c12 10 28 30 28 55c0 43 -38 62 -70 70c-52 14 -126 15 -183 23c-14 2 -19 4 -22 4c-6 3 -12 12 -12 30s5 42 17 70c27 63 79 122 129 144c3 1 6 2 10 2c10 0 26 -4 49 -20s47 -40 71 -69c-43 -20 -86 -36 -118 -46c-22 -6 -35 -26 -35 -48zM75 643
c0 -71 24 -135 93 -135c24 0 46 9 64 18c21 11 44 28 65 44c-1 -10 -2 -20 -2 -29c0 -60 31 -115 95 -129c38 -8 86 -10 128 -14c-28 -11 -63 -25 -108 -40c-116 -39 -193 -74 -241 -104c-24 -15 -44 -30 -57 -48c-10 -13 -18 -30 -18 -50c0 -40 33 -62 54 -71
c25 -10 55 -15 86 -15s64 4 94 12c277 69 427 119 506 167c41 24 68 51 82 86c7 17 9 34 9 49c0 16 -3 30 -5 42c-12 63 -66 155 -103 212c47 35 104 88 104 163c0 28 -22 50 -50 50s-50 -22 -50 -50c0 -30 -37 -64 -62 -82c-31 38 -66 75 -102 100c-30 21 -67 39 -106 39
c-16 0 -33 -4 -50 -11c-66 -29 -137 -90 -193 -138c-39 -33 -81 -72 -123 -94c-3 -2 -6 -3 -8 -4c-1 7 -2 17 -2 32c0 47 2 85 23 114c19 27 66 58 189 63c27 1 48 23 48 50c0 28 -23 50 -50 50h-2c-137 -5 -220 -42 -266 -104c-41 -56 -42 -120 -42 -165v-8z" />
</svg>
