<?xml version="1.0" standalone="no"?>
<!DOCTYPE svg PUBLIC "-//W3C//DTD SVG 1.1//EN" "http://www.w3.org/Graphics/SVG/1.1/DTD/svg11.dtd" >
<svg xmlns="http://www.w3.org/2000/svg" xmlns:xlink="http://www.w3.org/1999/xlink" version="1.1" viewBox="-10 0 1010 1000">
   <path fill="currentColor"
d="M656 365c-118 18 -262 48 -388 48c-22 0 -43 0 -61 -3c-34 -5 -75 -17 -100 -49c-14 -18 -20 -39 -20 -59c0 -21 6 -41 15 -61c39 -87 124 -179 268 -179c28 0 50 22 50 50s-22 50 -50 50c-93 0 -149 57 -177 120c-5 11 -6 16 -6 19c3 2 12 7 34 10c11 2 25 2 40 2
c83 0 215 -21 296 -34c48 -8 95 -15 137 -21c1 -7 1 -12 1 -18c0 -30 -9 -48 -19 -58c-9 -8 -24 -16 -46 -16c-10 0 -21 2 -34 5c-43 11 -100 43 -166 107c-10 9 -22 14 -35 14c-27 0 -50 -23 -50 -50c0 -13 5 -26 15 -36c74 -72 146 -115 211 -132c20 -5 41 -8 60 -8
c44 0 83 14 114 44c35 33 50 79 50 130v10h7c35 0 61 3 85 22c17 13 25 33 25 54v8c-7 59 -21 172 -52 265c-15 46 -36 92 -65 126c-25 28 -59 50 -100 50c-11 0 -22 -2 -34 -5c-26 -7 -51 -13 -74 -17c3 12 5 23 5 33c0 54 -42 79 -84 99c-24 11 -55 24 -96 39
c-25 9 -50 13 -73 13c-26 0 -50 -5 -72 -17c-101 -53 -129 -224 -129 -357c0 -43 17 -79 51 -101c28 -18 60 -22 90 -22c71 0 150 25 205 43c19 6 35 26 35 48c0 9 -3 18 -9 27c-22 33 -41 59 -58 82h10c9 0 19 1 29 1c16 -54 51 -120 119 -206c19 -24 34 -48 46 -70z
M773 351c-18 47 -46 95 -85 145c-55 70 -82 120 -96 156c29 5 61 13 95 22c2 1 5 1 7 1c7 0 14 -4 25 -16c51 -59 79 -221 90 -309h-10c-7 0 -16 0 -26 1zM388 558c-39 -10 -74 -18 -109 -18c-21 0 -31 3 -36 6c-1 1 -5 4 -5 19c2 75 10 159 35 216c12 28 26 44 40 51
c6 3 15 6 26 6c10 0 23 -2 39 -8c40 -14 67 -26 87 -35c13 -6 21 -11 26 -14c-3 -13 -7 -24 -9 -40c-7 0 -13 -1 -20 -1c-55 0 -89 12 -120 15h-6c-27 0 -51 -20 -51 -50s19 -44 33 -59c15 -17 38 -44 70 -88zM188 303v-1v1z" />
</svg>
