<?xml version="1.0" standalone="no"?>
<!DOCTYPE svg PUBLIC "-//W3C//DTD SVG 1.1//EN" "http://www.w3.org/Graphics/SVG/1.1/DTD/svg11.dtd" >
<svg xmlns="http://www.w3.org/2000/svg" xmlns:xlink="http://www.w3.org/1999/xlink" version="1.1" viewBox="-10 0 1010 1000">
   <path fill="currentColor"
d="M661 847c16 0 31 1 43 1c14 0 25 -1 33 -2c-22 -31 -75 -76 -111 -98c-8 13 -21 40 -21 51c0 90 -48 163 -141 163c-59 0 -115 -35 -133 -76c-7 -16 -11 -33 -11 -49c0 -48 26 -94 44 -125c31 -56 84 -101 160 -101c25 0 51 5 71 12c24 -29 55 -62 75 -89h-3
c-24 0 -57 3 -104 10c-175 26 -243 149 -274 238c-11 31 -15 53 -25 80c-1 3 -4 8 -7 13c-2 3 -10 17 -28 23c-6 2 -12 3 -17 3c-38 0 -51 -33 -58 -63c-9 -38 -26 -127 -26 -182c0 -110 39 -208 104 -290l-121 -12c-26 -3 -44 -28 -44 -52c0 -13 6 -27 18 -37l202 -167
c9 -8 21 -12 32 -12c26 0 50 22 50 50c0 14 -7 29 -19 39l-110 91l84 9c39 -31 82 -59 129 -83c-17 -20 -34 -50 -34 -82c0 -16 3 -33 14 -49c10 -15 26 -22 42 -22c29 0 50 25 50 50c0 8 -2 16 -6 23c3 6 20 25 33 37c94 -34 198 -56 306 -63h4c27 0 50 21 50 50
c0 26 -21 48 -47 50c-72 5 -142 16 -207 34c84 47 162 84 244 116c19 8 32 27 32 47c0 30 -24 50 -50 50h-6l-522 -54c-81 76 -128 169 -128 277v16c49 -94 142 -201 320 -227c49 -7 88 -11 119 -11c57 0 119 22 119 78c0 37 -22 65 -39 87s-40 47 -60 69
c48 32 100 76 131 120c12 17 26 42 26 70c0 50 -39 74 -72 83c-19 5 -42 7 -68 7c-15 0 -30 -1 -47 -2c-26 -2 -46 -23 -46 -49c0 -29 23 -50 50 -50zM537 263c-20 9 -39 18 -57 28l122 13c-23 -13 -44 -27 -65 -41zM505 799c0 -33 12 -63 26 -88h-7c-11 0 -21 2 -30 6
c-14 6 -28 18 -43 44c-16 28 -27 53 -30 71c-1 8 1 12 1 13c4 10 34 16 43 16c7 0 13 -1 18 -3c7 -3 22 -16 22 -59z" />
</svg>
