<?xml version="1.0" standalone="no"?>
<!DOCTYPE svg PUBLIC "-//W3C//DTD SVG 1.1//EN" "http://www.w3.org/Graphics/SVG/1.1/DTD/svg11.dtd" >
<svg xmlns="http://www.w3.org/2000/svg" xmlns:xlink="http://www.w3.org/1999/xlink" version="1.1" viewBox="-10 0 1010 1000">
   <path fill="currentColor"
d="M608 980c-39 0 -71 -8 -106 -18c-39 18 -93 28 -163 28h-35c-81 0 -147 -5 -147 -87c0 -25 14 -42 25 -52c-26 -13 -57 -31 -57 -70c0 -37 26 -56 49 -68c19 -9 45 -17 77 -25c-26 -16 -66 -34 -66 -80c0 -37 35 -58 62 -70c19 -8 45 -16 78 -26c5 -1 9 -2 14 -2
c23 0 45 16 49 41c87 -20 176 -30 233 -30c67 0 122 3 161 10c33 6 59 13 78 35c8 9 15 23 15 39c0 34 -23 50 -42 61c-15 9 -35 16 -57 23c-46 14 -112 28 -201 41c-20 3 -41 6 -59 9c8 6 16 13 23 19c49 -9 118 -27 159 -31c13 -1 34 -5 105 -22c4 -1 8 -1 12 -1
c26 0 50 21 50 50c0 10 -3 20 -9 28c-50 74 -82 136 -195 188c-17 8 -36 10 -53 10zM405 783c-10 -6 -20 -14 -30 -20c-38 7 -69 14 -94 20c14 5 30 11 47 16c25 -6 51 -11 77 -16zM578 877c6 1 11 2 16 3c17 2 24 0 25 0c36 -16 59 -34 79 -53c-28 3 -81 17 -116 24
c0 8 -2 17 -4 26zM395 658c61 -11 161 -24 233 -37h-7c-54 0 -145 12 -232 33c2 1 4 3 6 4z" />
</svg>
