<?xml version="1.0" standalone="no"?>
<!DOCTYPE svg PUBLIC "-//W3C//DTD SVG 1.1//EN" "http://www.w3.org/Graphics/SVG/1.1/DTD/svg11.dtd" >
<svg xmlns="http://www.w3.org/2000/svg" xmlns:xlink="http://www.w3.org/1999/xlink" version="1.1" viewBox="-10 0 1010 1000">
   <path fill="currentColor"
d="M495 774c-49 -18 -109 -60 -148 -92c-40 15 -101 38 -124 58c-12 10 -14 15 -14 19c1 1 3 4 8 10c9 9 23 20 42 30c38 20 83 32 110 32c69 0 105 -18 126 -57zM750 507c-56 27 -107 52 -162 76c1 3 3 5 4 8c15 30 20 57 20 102h20c51 -56 86 -113 118 -186zM497 625
c-13 6 -25 11 -38 16c17 11 35 25 52 32c0 -6 -1 -12 -2 -17c0 -2 -7 -23 -12 -31zM418 507c-36 18 -51 31 -56 39c-1 1 -1 2 -1 2c0 1 0 5 7 14c1 2 3 3 4 5c24 -9 47 -17 70 -27zM450 385c34 -13 71 -27 112 -41c86 -30 145 -57 181 -81c17 -11 27 -20 33 -27
c-4 -2 -9 -4 -16 -6c-28 -9 -74 -16 -138 -16c-63 0 -159 19 -252 74c22 27 51 61 80 97zM369 70c25 0 50 21 50 50c0 20 -12 37 -30 46c86 -38 170 -52 233 -52c68 0 127 7 170 21c41 14 89 43 89 97c0 26 -12 49 -26 66s-34 34 -57 49c-46 30 -113 61 -203 92
c-30 10 -58 20 -82 29c7 10 15 19 22 29c28 -13 61 -27 91 -42c57 -26 122 -57 193 -91c7 -3 14 -5 22 -5c29 0 49 22 49 50c0 5 0 11 -2 16c-50 150 -100 251 -198 353l-15 15h-21c-20 0 -40 0 -58 -1c-2 7 -5 14 -8 20c-32 71 -111 119 -219 119c-78 0 -176 -45 -223 -92
c-18 -18 -37 -44 -37 -78c0 -43 24 -75 51 -98c32 -27 74 -43 116 -61c-7 -14 -12 -28 -14 -44c0 -4 -1 -7 -1 -11c0 -20 7 -39 17 -55c17 -27 45 -47 77 -65c-34 -43 -68 -81 -98 -118c-19 -22 -42 -52 -42 -92c0 -41 25 -67 49 -87c20 -17 47 -34 80 -53c8 -5 16 -7 25 -7
z" />
</svg>
