<?xml version="1.0" standalone="no"?>
<!DOCTYPE svg PUBLIC "-//W3C//DTD SVG 1.1//EN" "http://www.w3.org/Graphics/SVG/1.1/DTD/svg11.dtd" >
<svg xmlns="http://www.w3.org/2000/svg" xmlns:xlink="http://www.w3.org/1999/xlink" version="1.1" viewBox="-10 0 1010 1000">
   <path fill="currentColor"
d="M793 612c-19 5 -50 23 -82 76c-18 30 -36 64 -83 93c29 -9 56 -18 71 -25c70 -33 103 -68 117 -94c7 -13 9 -23 9 -30c0 -8 -2 -13 -4 -15c-3 -4 -10 -10 -28 -5zM804 510c65 0 121 50 121 121c0 26 -7 52 -21 78c-25 47 -73 91 -144 128c33 8 68 19 90 40
c7 7 20 22 20 42c0 24 -18 44 -33 52c-23 12 -44 14 -74 16c-31 3 -66 4 -103 4c-127 0 -280 -14 -380 -26c-54 -7 -94 -11 -135 -24c-30 -9 -67 -31 -67 -73c0 -11 3 -23 10 -33c12 -19 27 -24 42 -30c-24 -9 -55 -30 -55 -65c0 -27 18 -48 29 -58s24 -19 40 -28
c-12 -10 -18 -24 -18 -39c0 -16 7 -31 22 -41c34 -22 119 -51 246 -51c69 0 127 5 159 51c13 19 18 39 18 57c0 31 -9 53 -18 75c39 -14 51 -35 72 -70c41 -67 90 -107 142 -121c12 -3 25 -5 37 -5zM434 678c0 20 -11 38 -22 49c9 0 18 0 27 -1c8 -26 22 -52 29 -78
c3 -9 3 -15 3 -17c-4 -2 -15 -7 -41 -8h-28c17 11 32 31 32 55zM272 725c-1 -6 0 -11 1 -17c-15 3 -30 8 -44 14c13 1 27 2 43 3zM438 880c-1 -5 -1 -10 0 -15c-21 4 -45 6 -70 9c23 2 46 4 70 6z" />
</svg>
