<?xml version="1.0" standalone="no"?>
<!DOCTYPE svg PUBLIC "-//W3C//DTD SVG 1.1//EN" "http://www.w3.org/Graphics/SVG/1.1/DTD/svg11.dtd" >
<svg xmlns="http://www.w3.org/2000/svg" xmlns:xlink="http://www.w3.org/1999/xlink" version="1.1" viewBox="-10 0 1010 1000">
   <path fill="currentColor"
d="M178 747v1v-1zM176 756v0zM175 267c-28 0 -50 -24 -50 -50c0 -10 3 -21 10 -30c33 -45 122 -111 259 -111c51 0 89 7 120 31c39 30 57 78 57 142c0 80 -21 148 -32 218c48 -37 61 -97 81 -166c19 -65 39 -116 61 -154c21 -37 46 -68 75 -84c16 -9 32 -13 48 -13
c58 0 92 51 106 94c10 30 15 67 15 107c0 118 -48 271 -170 392c-22 22 -54 45 -88 66c61 9 130 31 179 91c12 14 24 32 24 57c0 38 -31 64 -59 75c-39 15 -84 18 -140 18c-140 0 -283 -22 -397 -52c-56 -14 -103 -29 -142 -55c-26 -17 -54 -53 -54 -94c0 -46 34 -73 60 -87
c58 -31 144 -39 215 -54c-69 -2 -130 -9 -172 -21c-50 -14 -106 -44 -106 -110c0 -24 8 -46 18 -65c16 -31 43 -63 74 -96c44 -46 100 -70 150 -70c63 0 117 42 117 102c0 7 0 14 -2 22c-9 40 -39 76 -82 106c-9 6 -18 9 -28 9c-26 0 -51 -21 -51 -50c0 -16 8 -31 22 -41
c32 -23 39 -39 41 -45c-3 -2 -9 -3 -18 -3c-4 0 -8 1 -14 2c-18 4 -41 14 -63 37c-29 31 -47 56 -57 74c-5 10 -7 15 -7 17c2 2 10 8 33 15c30 9 99 17 164 17c23 0 44 -1 62 -3c6 -88 37 -165 37 -256c0 -19 -3 -35 -7 -46c-6 -17 -12 -23 -36 -25c-12 -1 -23 -2 -34 -2
c-104 0 -164 50 -178 70c-10 13 -26 21 -41 21zM175 477v0zM571 804c-18 0 -40 1 -57 1c-13 0 -25 -1 -38 -4c-25 -6 -38 -27 -38 -48c0 -18 10 -36 29 -46c64 -32 177 -94 218 -135c105 -104 140 -231 140 -321c0 -39 -6 -80 -22 -99c-7 4 -19 16 -35 44
c-17 31 -39 88 -56 149c-12 43 -27 93 -54 136c-26 42 -62 77 -117 99c-1 52 -43 83 -81 100c-44 19 -104 29 -155 39c-58 11 -99 19 -124 34c5 10 17 13 31 19c22 9 51 20 87 29c104 27 243 49 372 49c31 0 58 -2 79 -5c-43 -34 -107 -41 -179 -41z" />
</svg>
