<?xml version="1.0" standalone="no"?>
<!DOCTYPE svg PUBLIC "-//W3C//DTD SVG 1.1//EN" "http://www.w3.org/Graphics/SVG/1.1/DTD/svg11.dtd" >
<svg xmlns="http://www.w3.org/2000/svg" xmlns:xlink="http://www.w3.org/1999/xlink" version="1.1" viewBox="-10 0 1010 1000">
   <path fill="currentColor"
d="M366 364c0 25 -20 50 -50 50c-22 0 -42 -15 -48 -37c-7 -25 -12 -49 -16 -71c-19 10 -28 24 -33 37c-2 7 -4 16 -4 25c0 22 12 58 30 85c109 -34 245 -39 368 -58c-4 -7 -9 -14 -15 -20c-17 -17 -45 -36 -92 -52c-63 -22 -115 -32 -156 -34c3 18 8 39 14 62c1 4 2 9 2 13
zM353 189c55 2 117 15 187 40c56 20 98 45 129 76c21 22 36 45 45 70c30 -8 57 -17 82 -28c20 -9 23 -14 23 -18c0 -3 -1 -6 -4 -11c-12 -21 -47 -49 -92 -62c-70 -20 -133 -40 -200 -58c-54 -14 -96 -23 -126 -23c-23 0 -37 3 -44 14zM75 651c0 -72 35 -123 79 -155
c-25 -41 -39 -86 -39 -129c0 -20 3 -38 9 -57c19 -54 63 -91 122 -109c10 -79 64 -126 151 -126c46 0 99 12 152 26c62 17 138 41 202 59c62 18 122 58 151 109c10 18 17 38 17 60c0 58 -39 90 -82 109c-35 16 -74 28 -113 37c-5 49 -19 90 -31 132c-9 33 -16 55 -16 82
c0 15 3 25 8 33c13 20 55 49 193 58c26 2 47 24 47 50c0 29 -23 50 -50 50h-3c-140 -9 -230 -40 -271 -105c-18 -28 -24 -57 -24 -87c0 -66 32 -135 43 -193c-98 15 -203 21 -294 40c16 12 34 24 54 35c39 22 75 44 104 67c32 26 69 61 69 115c0 30 -14 58 -36 81
c-27 28 -70 53 -125 77c-24 10 -51 15 -78 15c-17 0 -33 -1 -49 -4c-43 -7 -88 -24 -123 -51c-66 -51 -67 -110 -67 -219zM218 574c-27 17 -43 35 -43 77v38c0 25 1 49 3 62c9 49 75 74 136 74c17 0 30 -2 38 -6c51 -22 79 -41 93 -55c7 -7 9 -10 8 -13
c-1 -5 -9 -17 -32 -36c-22 -18 -52 -37 -90 -58c-44 -25 -82 -53 -113 -83z" />
</svg>
