<?xml version="1.0" standalone="no"?>
<!DOCTYPE svg PUBLIC "-//W3C//DTD SVG 1.1//EN" "http://www.w3.org/Graphics/SVG/1.1/DTD/svg11.dtd" >
<svg xmlns="http://www.w3.org/2000/svg" xmlns:xlink="http://www.w3.org/1999/xlink" version="1.1" viewBox="-10 0 1010 1000">
   <path fill="currentColor"
d="M938 696c0 29 -23 50 -50 50h-2l-100 -5c2 6 3 12 3 17c0 33 -31 53 -49 64c25 10 51 21 68 32c18 11 40 29 40 62c0 6 -1 13 -4 20c-9 23 -30 33 -39 37c-29 11 -56 11 -98 11c-14 0 -29 0 -46 -1c-30 -1 -47 -26 -47 -51c0 -16 6 -31 21 -41c-5 -1 -9 -2 -14 -3
c-7 4 -11 8 -15 11c-6 48 -48 77 -90 86c-16 4 -33 5 -51 5c-24 0 -48 -3 -70 -8c-33 -8 -76 -31 -76 -74c0 -25 14 -46 25 -58c-35 19 -54 39 -65 53s-14 25 -26 38c-3 4 -21 21 -44 21c-32 0 -46 -22 -54 -39c-11 -22 -30 -66 -30 -100c0 -42 20 -81 49 -111l-63 -3
c-25 -1 -48 -21 -48 -50c0 -20 12 -39 32 -46l204 -78c6 -2 12 -3 18 -3c25 0 50 20 50 50c0 10 -3 19 -8 27c20 -7 41 -13 63 -19c-2 -7 -3 -14 -3 -20c0 -33 29 -61 58 -61c21 0 45 19 48 44c6 3 14 7 23 10c96 -17 204 -28 316 -31h2c27 0 50 22 50 50
c0 27 -22 49 -49 50c-13 0 -25 0 -38 1c24 5 47 10 68 14c24 4 41 25 41 49zM347 720c-52 22 -87 45 -106 67c-8 10 -13 18 -15 26c34 -33 87 -67 170 -90zM508 875c-22 2 -42 7 -57 15h15c16 0 30 -2 40 -7c0 -3 1 -5 2 -8z" />
</svg>
