<?xml version="1.0" standalone="no"?>
<!DOCTYPE svg PUBLIC "-//W3C//DTD SVG 1.1//EN" "http://www.w3.org/Graphics/SVG/1.1/DTD/svg11.dtd" >
<svg xmlns="http://www.w3.org/2000/svg" xmlns:xlink="http://www.w3.org/1999/xlink" version="1.1" viewBox="-10 0 1010 1000">
   <path fill="currentColor"
d="M152 140c0 -27 21 -50 50 -50c23 0 43 16 48 39c5 21 21 41 55 58c16 8 36 15 58 21c-8 -20 -13 -40 -13 -59c0 -32 13 -59 44 -78c26 -16 60 -21 97 -21c97 0 164 61 208 140c32 -10 61 -22 88 -36c7 -4 15 -5 23 -5c17 0 33 8 42 23c32 50 48 98 48 144
c0 94 -59 153 -118 194c4 45 6 91 6 135c0 49 15 88 15 137c0 90 -67 125 -148 141c-60 12 -145 17 -264 17c-81 0 -158 -20 -213 -83c-54 -61 -78 -154 -78 -279c0 -27 7 -53 23 -74c22 -29 53 -41 93 -41c16 0 32 2 50 5c19 -65 77 -102 140 -102c19 0 29 -2 35 -4
c-2 -10 -13 -32 -19 -43c-63 -6 -123 -21 -170 -47v118c0 28 -22 50 -50 50s-50 -22 -50 -50v-250zM533 321c6 16 9 32 9 48c0 30 -12 56 -41 75c-26 16 -59 22 -95 22c-20 0 -36 9 -43 26c34 9 90 24 136 24c15 0 29 -1 41 -5c44 -14 93 -32 136 -54
c-8 -54 -20 -105 -35 -150c-36 7 -72 12 -108 14zM596 214c-30 -43 -66 -64 -105 -64c-22 0 -35 2 -41 4c4 22 20 47 32 68h5c35 0 73 -2 109 -8zM738 282c11 35 21 73 28 111c22 -23 35 -47 35 -76c0 -16 -4 -33 -12 -53c-16 7 -34 12 -51 18zM686 563
c-41 18 -82 32 -117 43c-23 7 -48 10 -72 10c-37 0 -73 -7 -105 -14c12 19 28 39 50 62c20 21 67 33 114 33c45 0 90 -12 114 -28c17 -11 18 -20 18 -24c0 -27 0 -55 -2 -82zM216 563c-14 0 -15 0 -16 16c0 114 24 177 54 212c29 33 72 49 137 49c117 0 194 -6 244 -16
c51 -10 63 -22 65 -26c1 -2 3 -6 3 -16c0 -4 0 -10 -1 -17c-41 21 -94 32 -147 32c-72 0 -144 -21 -185 -64c-54 -56 -89 -111 -103 -162c-23 -5 -39 -8 -51 -8zM201 565h1h-1z" />
</svg>
