<?xml version="1.0" standalone="no"?>
<!DOCTYPE svg PUBLIC "-//W3C//DTD SVG 1.1//EN" "http://www.w3.org/Graphics/SVG/1.1/DTD/svg11.dtd" >
<svg xmlns="http://www.w3.org/2000/svg" xmlns:xlink="http://www.w3.org/1999/xlink" version="1.1" viewBox="-10 0 1010 1000">
   <path fill="currentColor"
d="M523 340c-17 28 -31 55 -31 83c0 36 26 69 46 92c7 -27 10 -52 10 -75c0 -38 -9 -72 -25 -100zM413 793c-33 0 -195 -30 -195 -156c0 -51 30 -106 79 -159c10 -11 24 -16 37 -16c27 0 50 23 50 50c0 12 -5 24 -14 34c-44 47 -52 76 -52 91c0 12 9 41 89 55h4
c30 0 65 -41 85 -75c-45 -46 -105 -108 -105 -192c0 -51 19 -88 40 -126c-76 24 -254 198 -254 355c0 156 180 209 266 209c114 0 146 -81 146 -111c0 -23 -12 -41 -24 -58c-32 45 -84 99 -152 99zM199 361c-68 -28 -124 -107 -124 -192c0 -44 15 -90 63 -116
c20 -11 43 -16 67 -16c47 0 102 19 163 53c17 9 26 26 26 44c0 30 -25 50 -50 50c-22 0 -87 -47 -139 -47c-12 0 -30 1 -30 31c0 54 43 106 86 106c46 0 98 -80 197 -80c15 0 30 2 44 6c60 -69 144 -144 222 -144c35 0 110 15 110 147c0 167 -73 313 -73 332c0 2 1 4 1 6
c11 49 163 184 163 283c0 124 -172 124 -223 124c-28 0 -50 -22 -50 -50s22 -50 50 -50c70 0 104 -9 118 -17c6 -3 5 -2 4 -10c-14 -77 -163 -189 -163 -287c0 -70 52 -100 71 -296c1 -13 2 -23 2 -33c0 -17 -2 -30 -4 -38c-3 -12 -3 -13 -16 -9c-17 5 -67 29 -129 98
c42 50 63 115 63 184c0 51 -11 105 -32 158c35 39 73 91 73 155c0 79 -69 209 -248 209c-158 0 -365 -104 -365 -307c0 -115 67 -226 123 -294z" />
</svg>
