<?xml version="1.0" standalone="no"?>
<!DOCTYPE svg PUBLIC "-//W3C//DTD SVG 1.1//EN" "http://www.w3.org/Graphics/SVG/1.1/DTD/svg11.dtd" >
<svg xmlns="http://www.w3.org/2000/svg" xmlns:xlink="http://www.w3.org/1999/xlink" version="1.1" viewBox="-10 0 1010 1000">
   <path fill="currentColor"
d="M150 490c0 -28 22 -50 50 -50h600c28 0 50 22 50 50v57c0 229 -164 393 -350 393s-350 -164 -350 -393v-57zM500 840c131 0 250 -119 250 -293v-7h-500v7c0 174 119 293 250 293zM318 90c17 0 33 9 42 23l118 182c5 8 8 18 8 27c0 16 -8 32 -23 42c-8 5 -18 8 -27 8
c-16 0 -32 -8 -42 -23l-76 -117l-76 117c-10 15 -26 23 -42 23c-9 0 -19 -3 -27 -8c-15 -10 -23 -26 -23 -42c0 -9 3 -19 8 -27l118 -182c9 -14 25 -23 42 -23zM682 90c17 0 33 9 42 23l118 182c5 8 8 18 8 27c0 16 -8 32 -23 42c-8 5 -18 8 -27 8c-16 0 -32 -8 -42 -23
l-76 -117l-76 117c-10 15 -26 23 -42 23c-9 0 -19 -3 -27 -8c-15 -10 -23 -26 -23 -42c0 -9 3 -19 8 -27l118 -182c9 -14 25 -23 42 -23z" />
</svg>
