<?xml version="1.0" standalone="no"?>
<!DOCTYPE svg PUBLIC "-//W3C//DTD SVG 1.1//EN" "http://www.w3.org/Graphics/SVG/1.1/DTD/svg11.dtd" >
<svg xmlns="http://www.w3.org/2000/svg" xmlns:xlink="http://www.w3.org/1999/xlink" version="1.1" viewBox="-10 0 1010 1000">
   <path fill="currentColor"
d="M100 447c-30 0 -51 -27 -51 -51c0 -4 1 -8 2 -12c9 -38 22 -81 49 -119c35 -50 108 -95 199 -95c58 0 107 21 151 50v-120c0 -28 22 -50 50 -50s50 22 50 50v196c59 46 101 74 151 74c13 0 26 -2 41 -6c42 -11 62 -28 75 -46c15 -21 24 -48 35 -88c7 -22 25 -36 47 -36
c31 0 51 24 51 49c0 5 -1 10 -2 15c0 1 -1 3 -1 4c-10 36 -23 77 -48 113c-35 50 -106 95 -198 95c-58 0 -107 -21 -151 -50v236c59 46 101 74 151 74c13 0 26 -2 41 -6c42 -11 62 -28 75 -46c15 -21 24 -48 35 -88c7 -22 25 -36 47 -36c31 0 51 24 51 49c0 5 -1 10 -2 15
c0 1 -1 3 -1 4c-10 36 -23 77 -48 113c-35 50 -106 95 -198 95c-58 0 -107 -21 -151 -50v120c0 28 -22 50 -50 50s-50 -22 -50 -50v-196c-59 -47 -100 -74 -150 -74c-13 0 -27 2 -42 6c-43 11 -64 29 -77 47c-15 21 -22 47 -32 85c-6 23 -27 39 -49 39
c-30 0 -51 -27 -51 -51c0 -4 1 -8 2 -12c9 -38 22 -81 49 -119c35 -50 108 -95 199 -95c58 0 107 21 151 50v-236c-59 -47 -100 -74 -150 -74c-13 0 -27 2 -42 6c-43 11 -64 29 -77 47c-15 21 -22 47 -32 85c-6 23 -27 39 -49 39z" />
</svg>
