<?xml version="1.0" standalone="no"?>
<!DOCTYPE svg PUBLIC "-//W3C//DTD SVG 1.1//EN" "http://www.w3.org/Graphics/SVG/1.1/DTD/svg11.dtd" >
<svg xmlns="http://www.w3.org/2000/svg" xmlns:xlink="http://www.w3.org/1999/xlink" version="1.1" viewBox="-10 0 1010 1000">
   <path fill="currentColor"
d="M310 751c-30 0 -50 -25 -50 -50c0 -4 0 -9 1 -13c4 -18 12 -43 28 -65c22 -31 62 -56 115 -56c16 0 32 3 46 8v-15c0 -28 22 -50 50 -50s50 22 50 50v80c21 16 34 22 46 22c15 0 31 -11 33 -14c4 -6 7 -13 13 -33c6 -22 26 -37 48 -37c31 0 50 26 50 51c0 5 -1 11 -3 16
c-5 16 -11 40 -26 61c-22 31 -62 56 -115 56c-17 0 -32 -3 -46 -8v57c21 16 34 22 46 22c15 0 31 -11 33 -14c4 -6 7 -13 13 -33c6 -22 26 -37 48 -37c31 0 50 26 50 51c0 5 -1 11 -3 16c-5 16 -11 40 -26 61c-22 31 -62 56 -115 56c-17 0 -32 -3 -46 -8v15
c0 28 -22 50 -50 50s-50 -22 -50 -50v-80c-14 -10 -27 -22 -45 -22c-16 0 -33 11 -35 14c-4 5 -6 14 -11 32c-6 23 -27 38 -49 38c-30 0 -50 -25 -50 -50c0 -4 0 -9 1 -13c4 -18 12 -43 28 -65c22 -31 62 -56 115 -56c16 0 32 3 46 8v-57c-14 -10 -27 -22 -45 -22
c-16 0 -33 11 -35 14c-4 5 -6 14 -11 32c-6 23 -27 38 -49 38z" />
</svg>
