<?xml version="1.0" standalone="no"?>
<!DOCTYPE svg PUBLIC "-//W3C//DTD SVG 1.1//EN" "http://www.w3.org/Graphics/SVG/1.1/DTD/svg11.dtd" >
<svg xmlns="http://www.w3.org/2000/svg" xmlns:xlink="http://www.w3.org/1999/xlink" version="1.1" viewBox="-10 0 1010 1000">
   <path fill="currentColor"
d="M550 560v33v5c6 5 11 10 16 16h5h33c28 0 50 22 50 50s-22 50 -50 50h-33h-5c-5 6 -10 11 -16 16v5v21l98 160c5 9 8 18 8 26c0 28 -25 51 -50 51h-212c-25 0 -50 -23 -50 -51c0 -8 3 -17 8 -26l98 -160v-21v-5c-6 -5 -11 -10 -16 -16h-5h-33c-28 0 -50 -22 -50 -50
s22 -50 50 -50h33h5c5 -6 10 -11 16 -16v-5v-33c0 -28 22 -50 50 -50s50 22 50 50zM483 664c0 9 7 17 17 17s17 -8 17 -17s-7 -17 -17 -17s-17 8 -17 17zM500 866l-16 27h32z" />
</svg>
