<?xml version="1.0" standalone="no"?>
<!DOCTYPE svg PUBLIC "-//W3C//DTD SVG 1.1//EN" "http://www.w3.org/Graphics/SVG/1.1/DTD/svg11.dtd" >
<svg xmlns="http://www.w3.org/2000/svg" xmlns:xlink="http://www.w3.org/1999/xlink" version="1.1" viewBox="-10 0 1010 1000">
   <path fill="currentColor"
d="M644 870l-144 -235l-144 235h288zM583 303c0 -47 -37 -84 -83 -84s-83 37 -83 84s37 84 83 84s83 -37 83 -84zM266 970c-25 0 -49 -21 -49 -50c0 -9 2 -18 7 -26l226 -369v-45c-61 -17 -109 -66 -126 -127h-54c-28 0 -50 -22 -50 -50s22 -50 50 -50h54
c17 -61 65 -110 126 -127v-53c0 -28 22 -50 50 -50s50 22 50 50v53c61 17 109 66 126 127h54c28 0 50 22 50 50s-22 50 -50 50h-54c-17 61 -65 110 -126 127v45l226 369c5 8 7 17 7 26c0 29 -24 50 -49 50h-468z" />
</svg>
