<?xml version="1.0" standalone="no"?>
<!DOCTYPE svg PUBLIC "-//W3C//DTD SVG 1.1//EN" "http://www.w3.org/Graphics/SVG/1.1/DTD/svg11.dtd" >
<svg xmlns="http://www.w3.org/2000/svg" xmlns:xlink="http://www.w3.org/1999/xlink" version="1.1" viewBox="-700 0 700 1000">
   <path fill="currentColor"
d="M-675 325c10 -10 22 -15 35 -15s25 5 35 15l72 72c10 10 15 22 15 35s-5 25 -15 35s-22 15 -35 15s-25 -5 -35 -15l-72 -72c-10 -10 -15 -22 -15 -35s5 -25 15 -35zM-675 675c-10 -10 -15 -22 -15 -35s5 -25 15 -35l72 -72c10 -10 22 -15 35 -15s25 5 35 15s15 22 15 35
s-5 25 -15 35l-72 72c-10 10 -22 15 -35 15s-25 -5 -35 -15zM-325 325c10 10 15 22 15 35s-5 25 -15 35l-72 72c-10 10 -22 15 -35 15s-25 -5 -35 -15s-15 -22 -15 -35s5 -25 15 -35l72 -72c10 -10 22 -15 35 -15s25 5 35 15zM-325 675c-10 10 -22 15 -35 15s-25 -5 -35 -15
l-72 -72c-10 -10 -15 -22 -15 -35s5 -25 15 -35s22 -15 35 -15s25 5 35 15l72 72c10 10 15 22 15 35s-5 25 -15 35z" />
</svg>
