<?xml version="1.0" standalone="no"?>
<!DOCTYPE svg PUBLIC "-//W3C//DTD SVG 1.1//EN" "http://www.w3.org/Graphics/SVG/1.1/DTD/svg11.dtd" >
<svg xmlns="http://www.w3.org/2000/svg" xmlns:xlink="http://www.w3.org/1999/xlink" version="1.1" viewBox="-729 0 729 1000">
   <path fill="currentColor"
d="M-572 535l-6 10h156l-6 -10h-144zM-485 435l-15 -25l-15 25h30zM-665 645c-26 0 -50 -21 -50 -50c0 -9 3 -17 7 -25l22 -38c-19 -7 -33 -25 -33 -47c0 -28 22 -50 50 -50h39l87 -150c9 -15 25 -25 43 -25s34 10 43 25l87 150h39c28 0 50 22 50 50c0 22 -14 40 -33 47
l22 38c4 8 7 16 7 25c0 29 -24 50 -50 50h-330z" />
</svg>
