<?xml version="1.0" standalone="no"?>
<!DOCTYPE svg PUBLIC "-//W3C//DTD SVG 1.1//EN" "http://www.w3.org/Graphics/SVG/1.1/DTD/svg11.dtd" >
<svg xmlns="http://www.w3.org/2000/svg" xmlns:xlink="http://www.w3.org/1999/xlink" version="1.1" viewBox="-749 0 749 1000">
   <path fill="currentColor"
d="M-350 575c19 11 40 25 40 53s-22 50 -50 50c-11 0 -22 -4 -30 -10c-35 -27 -98 -42 -157 -52c-24 -4 -42 -24 -42 -49c0 -28 22 -50 50 -50c9 0 16 1 26 1c13 0 27 -1 42 -4c-27 -2 -57 -3 -86 -3s-57 1 -80 7c9 58 59 120 147 120c28 0 50 22 50 50s-22 50 -50 50
c-159 0 -249 -128 -249 -240c0 -40 31 -63 61 -73c-8 -10 -15 -24 -15 -41c0 -21 9 -36 18 -47c34 -42 101 -76 177 -76c43 0 90 12 135 43c13 9 22 24 22 41c0 28 -22 50 -50 50c-10 0 -20 -4 -28 -9c-28 -19 -54 -25 -79 -25c-21 0 -42 5 -59 12c64 13 160 20 221 36
c21 6 38 12 54 26c9 9 21 25 21 46v7c0 29 -15 29 -15 29c-24 24 -49 44 -74 58z" />
</svg>
