<?xml version="1.0" standalone="no"?>
<!DOCTYPE svg PUBLIC "-//W3C//DTD SVG 1.1//EN" "http://www.w3.org/Graphics/SVG/1.1/DTD/svg11.dtd" >
<svg xmlns="http://www.w3.org/2000/svg" xmlns:xlink="http://www.w3.org/1999/xlink" version="1.1" viewBox="-740 0 740 1000">
   <path fill="currentColor"
d="M-640 681c-30 0 -50 -25 -50 -50c0 -5 1 -10 2 -15c4 -16 10 -39 22 -59c18 -31 54 -60 105 -60c53 0 90 36 116 61c18 17 28 26 37 31c7 4 7 5 15 2c10 -3 12 -7 14 -10c3 -6 6 -14 10 -33c5 -24 26 -40 49 -40c30 0 50 24 50 50c0 3 0 8 -1 11c-4 18 -9 42 -22 64
c-19 31 -57 59 -107 59c-52 0 -88 -36 -115 -61c-18 -17 -28 -26 -37 -31c-11 -6 -23 -1 -28 7c-4 6 -6 15 -11 35c-6 23 -26 39 -49 39zM-680 491c-30 0 -50 -25 -50 -50c0 -5 1 -10 2 -15c4 -16 10 -39 22 -59c18 -31 54 -60 105 -60c53 0 90 36 116 61c18 17 28 26 37 31
c7 4 7 5 15 2c10 -3 12 -7 14 -10c3 -6 6 -14 10 -33c5 -24 26 -40 49 -40c30 0 50 24 50 50c0 3 0 8 -1 11c-4 18 -9 42 -22 64c-19 31 -57 59 -107 59c-52 0 -88 -36 -115 -61c-18 -17 -28 -26 -37 -31c-11 -6 -23 -1 -28 7c-4 6 -6 15 -11 35c-6 23 -26 39 -49 39z" />
</svg>
