<?xml version="1.0" standalone="no"?>
<!DOCTYPE svg PUBLIC "-//W3C//DTD SVG 1.1//EN" "http://www.w3.org/Graphics/SVG/1.1/DTD/svg11.dtd" >
<svg xmlns="http://www.w3.org/2000/svg" xmlns:xlink="http://www.w3.org/1999/xlink" version="1.1" viewBox="-714 0 714 1000">
   <path fill="currentColor"
d="M-500 259c28 0 50 22 50 50v101c0 28 -22 50 -50 50s-50 -22 -50 -50v-101c0 -28 22 -50 50 -50zM-684 359c0 -25 20 -50 50 -50c20 0 38 11 46 30l26 62c3 6 4 13 4 19c0 25 -20 50 -50 50c-20 0 -38 -11 -46 -30l-26 -62c-3 -6 -4 -13 -4 -19zM-392 470
c-30 0 -50 -25 -50 -50c0 -6 1 -13 4 -19l25 -62c8 -19 27 -31 47 -31c30 0 50 26 50 51c0 6 -1 13 -4 19l-26 62c-8 19 -26 30 -46 30zM-500 640c57 0 104 -47 104 -104c0 -28 22 -50 50 -50s50 22 50 50c0 113 -91 204 -204 204s-204 -91 -204 -204c0 -28 22 -50 50 -50
s50 22 50 50c0 57 47 104 104 104z" />
</svg>
