<?xml version="1.0" standalone="no"?>
<!DOCTYPE svg PUBLIC "-//W3C//DTD SVG 1.1//EN" "http://www.w3.org/Graphics/SVG/1.1/DTD/svg11.dtd" >
<svg xmlns="http://www.w3.org/2000/svg" xmlns:xlink="http://www.w3.org/1999/xlink" version="1.1" viewBox="-650 0 650 1000">
   <path fill="currentColor"
d="M-310 550c-28 0 -50 -22 -50 -50s22 -50 50 -50s50 22 50 50s-22 50 -50 50zM-640 330c0 -28 22 -50 50 -50h150c28 0 50 22 50 50v340c0 28 -22 50 -50 50h-150c-28 0 -50 -22 -50 -50s22 -50 50 -50h100v-240h-100c-28 0 -50 -22 -50 -50z" />
</svg>
