<?xml version="1.0" standalone="no"?>
<!DOCTYPE svg PUBLIC "-//W3C//DTD SVG 1.1//EN" "http://www.w3.org/Graphics/SVG/1.1/DTD/svg11.dtd" >
<svg xmlns="http://www.w3.org/2000/svg" xmlns:xlink="http://www.w3.org/1999/xlink" version="1.1" viewBox="-691 0 691 1000">
   <path fill="currentColor"
d="M-584 206v0zM-493 138c30 0 50 25 50 50c0 5 0 10 -2 15c-18 56 -48 103 -101 137c-8 5 -17 8 -26 8c-25 0 -51 -21 -51 -50c0 -16 9 -32 24 -42c29 -18 46 -43 59 -83c7 -21 26 -35 47 -35zM-632 241c-32 0 -49 -25 -49 -50c0 -7 1 -15 4 -22c9 -25 17 -44 35 -71
c24 -37 70 -88 142 -88c121 0 182 98 182 181c0 111 -77 187 -141 231c-49 33 -83 50 -132 66c-5 2 -10 2 -15 2c-25 0 -50 -20 -50 -50c0 -22 14 -40 36 -48c84 -29 202 -102 202 -201c0 -41 -28 -81 -82 -81c-19 0 -39 14 -58 43c-12 19 -20 34 -26 53
c-7 21 -27 35 -48 35z" />
</svg>
