<?xml version="1.0" standalone="no"?>
<!DOCTYPE svg PUBLIC "-//W3C//DTD SVG 1.1//EN" "http://www.w3.org/Graphics/SVG/1.1/DTD/svg11.dtd" >
<svg xmlns="http://www.w3.org/2000/svg" xmlns:xlink="http://www.w3.org/1999/xlink" version="1.1" viewBox="-710 0 710 1000">
   <path fill="currentColor"
d="M-577 584h-3c-16 0 -20 -1 -20 16c8 0 16 -9 23 -16zM-423 416c15 -1 23 -2 23 -16c-8 0 -17 9 -23 16zM-695 355c0 -25 21 -50 50 -50c17 0 34 9 43 25c7 12 27 43 68 64c7 -12 17 -24 27 -35c25 -27 55 -59 107 -59c24 0 52 6 73 27s27 49 27 73s-6 56 -31 81
c-23 22 -54 33 -90 35c13 6 26 13 37 21c44 30 64 67 74 87c3 7 5 14 5 21c0 25 -20 50 -50 50c-19 0 -36 -10 -45 -28c-5 -10 -16 -30 -42 -48c-7 -5 -15 -10 -24 -14c-7 13 -17 25 -27 36c-25 27 -55 59 -107 59c-24 0 -52 -6 -73 -27s-27 -49 -27 -73s6 -55 27 -79
c22 -26 56 -37 93 -37h2c-64 -33 -97 -82 -110 -104c-5 -8 -7 -17 -7 -25z" />
</svg>
