<?xml version="1.0" standalone="no"?>
<!DOCTYPE svg PUBLIC "-//W3C//DTD SVG 1.1//EN" "http://www.w3.org/Graphics/SVG/1.1/DTD/svg11.dtd" >
<svg xmlns="http://www.w3.org/2000/svg" xmlns:xlink="http://www.w3.org/1999/xlink" version="1.1" viewBox="-740 0 740 1000">
   <path fill="currentColor"
d="M-420 560c0 -28 22 -50 50 -50h50c28 0 50 22 50 50s-22 50 -50 50h-50c-28 0 -50 -22 -50 -50zM-400 510c-27 0 -50 -23 -50 -50c0 -13 5 -25 15 -35l35 -36c10 -10 22 -14 35 -14c27 0 50 23 50 50c0 13 -4 25 -14 35l-36 35c-10 10 -22 15 -35 15zM-500 470
c-28 0 -50 -22 -50 -50v-50c0 -28 22 -50 50 -50s50 22 50 50v50c0 28 -22 50 -50 50zM-685 425c0 -27 23 -50 50 -50c13 0 25 5 35 15l36 35c10 10 14 22 14 35c0 27 -23 50 -50 50c-13 0 -25 -4 -35 -14l-35 -36c-10 -10 -15 -22 -15 -35zM-730 560c0 -28 22 -50 50 -50
h50c28 0 50 22 50 50s-22 50 -50 50h-50c-28 0 -50 -22 -50 -50z" />
</svg>
