<?xml version="1.0" standalone="no"?>
<!DOCTYPE svg PUBLIC "-//W3C//DTD SVG 1.1//EN" "http://www.w3.org/Graphics/SVG/1.1/DTD/svg11.dtd" >
<svg xmlns="http://www.w3.org/2000/svg" xmlns:xlink="http://www.w3.org/1999/xlink" version="1.1" viewBox="-724 0 724 1000">
   <path fill="currentColor"
d="M-691 366c0 -28 22 -50 50 -50s50 22 50 50s-22 50 -50 50s-50 -22 -50 -50zM-409 366c0 -28 22 -50 50 -50s50 22 50 50s-22 50 -50 50s-50 -22 -50 -50zM-501 746c-42 0 -68 -30 -82 -56h-18c-21 0 -37 -16 -37 -37c0 -19 13 -34 31 -37c-1 -4 -1 -10 -2 -14h-51
c-21 0 -38 -16 -38 -37s17 -37 38 -37h49v-22h-65c-21 0 -38 -16 -38 -37s17 -37 38 -37h70c6 -32 13 -58 30 -83c14 -20 39 -43 75 -43s61 23 75 43c17 25 24 51 30 83h70c21 0 38 16 38 37s-17 37 -38 37h-65v22h49c21 0 38 16 38 37s-17 37 -38 37h-51c-1 4 -1 10 -2 14
c18 3 31 18 31 37c0 21 -16 37 -37 37h-18c-14 26 -40 56 -82 56zM-491 528v-22h-20v22h20zM-494 602h-14c1 4 2 10 3 14h8c1 -4 2 -10 3 -14zM-498 432l-3 -9l-3 9h6z" />
</svg>
