<?xml version="1.0" standalone="no"?>
<!DOCTYPE svg PUBLIC "-//W3C//DTD SVG 1.1//EN" "http://www.w3.org/Graphics/SVG/1.1/DTD/svg11.dtd" >
<svg xmlns="http://www.w3.org/2000/svg" xmlns:xlink="http://www.w3.org/1999/xlink" version="1.1" viewBox="-747 0 747 1000">
   <path fill="currentColor"
d="M-516 265c169 0 253 165 253 273c0 27 -22 50 -50 50c-27 0 -49 -21 -50 -48c-5 -111 -80 -174 -152 -174c-15 0 -30 2 -44 8c-43 18 -79 67 -79 124c0 20 5 41 15 62c12 25 42 56 76 56c13 0 26 -4 39 -15s26 -38 26 -62c0 -18 -8 -35 -27 -41h-4c-4 0 -5 2 -5 5
c0 8 11 26 11 41c0 25 -20 50 -50 50c-59 0 -60 -91 -60 -92c0 -64 53 -93 65 -97c15 -6 29 -8 43 -8c73 0 127 72 127 148c0 107 -83 170 -163 170c-120 0 -192 -108 -192 -217c0 -137 106 -233 221 -233z" />
</svg>
