<?xml version="1.0" standalone="no"?>
<!DOCTYPE svg PUBLIC "-//W3C//DTD SVG 1.1//EN" "http://www.w3.org/Graphics/SVG/1.1/DTD/svg11.dtd" >
<svg xmlns="http://www.w3.org/2000/svg" xmlns:xlink="http://www.w3.org/1999/xlink" version="1.1" viewBox="-679 0 679 1000">
   <path fill="currentColor"
d="M-619 348c-27 0 -50 -23 -50 -50c0 -13 5 -26 15 -36l104 -104v-98c0 -28 22 -50 50 -50s50 22 50 50v98l104 104c10 10 15 23 15 36c0 27 -23 50 -50 50c-13 0 -26 -5 -36 -15l-33 -34v141c0 28 -22 50 -50 50s-50 -22 -50 -50v-141l-33 34c-10 10 -23 15 -36 15z" />
</svg>
