<?xml version="1.0" standalone="no"?>
<!DOCTYPE svg PUBLIC "-//W3C//DTD SVG 1.1//EN" "http://www.w3.org/Graphics/SVG/1.1/DTD/svg11.dtd" >
<svg xmlns="http://www.w3.org/2000/svg" xmlns:xlink="http://www.w3.org/1999/xlink" version="1.1" viewBox="-684 0 684 1000">
   <path fill="currentColor"
d="M-516 495c40 22 68 56 83 100h7v-90c-28 -6 -55 -11 -81 -11c-3 0 -6 1 -9 1zM-574 551v44h59c-13 -23 -29 -33 -59 -44zM-574 429c22 -7 42 -10 67 -10c28 0 55 4 81 9v-23h-148v24zM-624 305h248c28 0 50 22 50 50v290c0 28 -22 50 -50 50h-248c-28 0 -50 -22 -50 -50
v-290c0 -28 22 -50 50 -50z" />
</svg>
