<?xml version="1.0" standalone="no"?>
<!DOCTYPE svg PUBLIC "-//W3C//DTD SVG 1.1//EN" "http://www.w3.org/Graphics/SVG/1.1/DTD/svg11.dtd" >
<svg xmlns="http://www.w3.org/2000/svg" xmlns:xlink="http://www.w3.org/1999/xlink" version="1.1" viewBox="-718 0 718 1000">
   <path fill="currentColor"
d="M-708 441c0 -23 0 -101 57 -101c68 0 104 17 140 44c10 -14 40 -54 106 -54h3c69 0 109 7 109 83v1c0 55 -23 136 -158 143v133c0 28 -22 50 -50 50s-50 -22 -50 -50v-111c-63 0 -157 -38 -157 -131v-7zM-394 430h-11c-17 0 -17 0 -32 25c5 -1 39 -6 43 -25zM-608 448
c0 5 0 24 51 31c-7 -13 -29 -27 -51 -33v2z" />
</svg>
