<?xml version="1.0" standalone="no"?>
<!DOCTYPE svg PUBLIC "-//W3C//DTD SVG 1.1//EN" "http://www.w3.org/Graphics/SVG/1.1/DTD/svg11.dtd" >
<svg xmlns="http://www.w3.org/2000/svg" xmlns:xlink="http://www.w3.org/1999/xlink" version="1.1" viewBox="-702 0 702 1000">
   <path fill="currentColor"
d="M-450 500c0 28 -22 50 -50 50s-50 -22 -50 -50s22 -50 50 -50s50 22 50 50zM-357 325c28 0 50 22 50 50v250c0 28 -22 50 -50 50s-50 -22 -50 -50v-250c0 -28 22 -50 50 -50zM-642 325c28 0 50 22 50 50v250c0 28 -22 50 -50 50s-50 -22 -50 -50v-250
c0 -28 22 -50 50 -50z" />
</svg>
