<?xml version="1.0" standalone="no"?>
<!DOCTYPE svg PUBLIC "-//W3C//DTD SVG 1.1//EN" "http://www.w3.org/Graphics/SVG/1.1/DTD/svg11.dtd" >
<svg xmlns="http://www.w3.org/2000/svg" xmlns:xlink="http://www.w3.org/1999/xlink" version="1.1" viewBox="-750 0 750 1000">
   <path fill="currentColor"
d="M-385 251c0 64 -51 115 -115 115s-115 -51 -115 -115s51 -115 115 -115s115 51 115 115zM-500 266c8 0 15 -7 15 -15s-7 -15 -15 -15s-15 7 -15 15s7 15 15 15zM-260 250c0 132 -108 240 -240 240s-240 -108 -240 -240s108 -239 240 -239s240 107 240 239zM-360 250
c0 -77 -63 -139 -140 -139s-140 62 -140 139s63 140 140 140s140 -63 140 -140z" />
</svg>
