<?xml version="1.0" standalone="no"?>
<!DOCTYPE svg PUBLIC "-//W3C//DTD SVG 1.1//EN" "http://www.w3.org/Graphics/SVG/1.1/DTD/svg11.dtd" >
<svg xmlns="http://www.w3.org/2000/svg" xmlns:xlink="http://www.w3.org/1999/xlink" version="1.1" viewBox="-769 0 769 1000">
   <path fill="currentColor"
d="M-500 146c10 0 18 -8 18 -18s-8 -18 -18 -18s-18 8 -18 18s8 18 18 18zM-500 246c-65 0 -118 -53 -118 -118s53 -118 118 -118s118 53 118 118s-53 118 -118 118zM-359 390c10 0 18 -8 18 -18s-8 -18 -18 -18s-19 8 -19 18s9 18 19 18zM-359 490
c-65 0 -119 -53 -119 -118s54 -118 119 -118s118 53 118 118s-53 118 -118 118zM-641 390c10 0 19 -8 19 -18s-9 -18 -19 -18s-18 8 -18 18s8 18 18 18zM-641 490c-65 0 -118 -53 -118 -118s53 -118 118 -118s119 53 119 118s-54 118 -119 118z" />
</svg>
