<?xml version="1.0" standalone="no"?>
<!DOCTYPE svg PUBLIC "-//W3C//DTD SVG 1.1//EN" "http://www.w3.org/Graphics/SVG/1.1/DTD/svg11.dtd" >
<svg xmlns="http://www.w3.org/2000/svg" xmlns:xlink="http://www.w3.org/1999/xlink" version="1.1" viewBox="-743 0 743 1000">
   <path fill="currentColor"
d="M-500 647c-22 18 -54 34 -92 34c-78 0 -141 -63 -141 -141c0 -31 11 -59 25 -83c17 -31 41 -60 65 -85c54 -57 112 -100 113 -101c8 -6 19 -10 30 -10s22 4 30 10c1 1 59 44 113 101c24 25 48 54 65 85c14 24 25 52 25 83c0 78 -63 141 -141 141c-38 0 -70 -16 -92 -34z
M-592 581c18 0 39 -21 43 -30c5 -22 25 -39 49 -39s44 17 49 39c4 9 25 30 43 30c23 0 41 -18 41 -41c0 -5 -3 -18 -12 -34c-25 -44 -85 -101 -121 -131c-36 30 -96 87 -121 131c-9 16 -12 29 -12 34c0 23 18 41 41 41z" />
</svg>
