<?xml version="1.0" standalone="no"?>
<!DOCTYPE svg PUBLIC "-//W3C//DTD SVG 1.1//EN" "http://www.w3.org/Graphics/SVG/1.1/DTD/svg11.dtd" >
<svg xmlns="http://www.w3.org/2000/svg" xmlns:xlink="http://www.w3.org/1999/xlink" version="1.1" viewBox="-697 0 697 1000">
   <path fill="currentColor"
d="M-474 361c0 -14 -12 -26 -26 -26s-27 12 -27 26s13 26 27 26s26 -12 26 -26zM-399 361c0 56 -45 101 -101 101c-16 0 -32 -3 -46 -10c-24 17 -41 48 -41 86c0 61 44 102 87 102c30 0 59 -20 75 -52h-53c-28 0 -50 -22 -50 -50s22 -50 50 -50h114c28 0 50 22 50 50
c0 106 -78 202 -186 202s-187 -96 -187 -202c0 -70 33 -133 86 -170c0 -2 -1 -5 -1 -7c0 -56 46 -101 102 -101s101 45 101 101z" />
</svg>
