<?xml version="1.0" standalone="no"?>
<!DOCTYPE svg PUBLIC "-//W3C//DTD SVG 1.1//EN" "http://www.w3.org/Graphics/SVG/1.1/DTD/svg11.dtd" >
<svg xmlns="http://www.w3.org/2000/svg" xmlns:xlink="http://www.w3.org/1999/xlink" version="1.1" viewBox="-702 0 702 1000">
   <path fill="currentColor"
d="M-361 310h3c27 0 50 22 50 50c0 22 -16 89 -50 124c-15 15 -33 24 -51 31l67 109c5 8 8 17 8 26c0 29 -24 50 -50 50h-232c-26 0 -50 -21 -50 -50c0 -9 2 -18 7 -26l68 -109c-36 -14 -70 -37 -91 -107c-6 -18 -10 -29 -10 -48c0 -28 23 -50 50 -50h3c14 1 98 7 139 50
c6 -7 47 -45 139 -50zM-500 557l-26 43h52z" />
</svg>
