<?xml version="1.0" standalone="no"?>
<!DOCTYPE svg PUBLIC "-//W3C//DTD SVG 1.1//EN" "http://www.w3.org/Graphics/SVG/1.1/DTD/svg11.dtd" >
<svg xmlns="http://www.w3.org/2000/svg" xmlns:xlink="http://www.w3.org/1999/xlink" version="1.1" viewBox="-738 0 738 1000">
   <path fill="currentColor"
d="M-379 589c0 -12 4 -22 4 -34c0 -55 -44 -100 -99 -100c-32 0 -60 15 -78 38h5c25 0 50 20 50 50c0 18 -10 36 -27 45l-87 44c-7 4 -15 5 -23 5c-22 0 -37 -12 -45 -27l-44 -87c-4 -7 -5 -14 -5 -22c0 -25 20 -51 50 -51c10 0 21 4 29 10c34 -62 99 -105 175 -105
c110 0 199 90 199 200c0 16 -2 31 -5 46c-5 23 -26 38 -49 38c-30 0 -50 -25 -50 -50z" />
</svg>
