<?xml version="1.0" standalone="no"?>
<!DOCTYPE svg PUBLIC "-//W3C//DTD SVG 1.1//EN" "http://www.w3.org/Graphics/SVG/1.1/DTD/svg11.dtd" >
<svg xmlns="http://www.w3.org/2000/svg" xmlns:xlink="http://www.w3.org/1999/xlink" version="1.1" viewBox="-749 0 749 1000">
   <path fill="currentColor"
d="M-739 478c0 -25 20 -50 50 -50c14 0 27 6 37 17c6 -47 20 -87 43 -118c33 -45 79 -65 129 -65s96 20 129 65c31 43 46 102 46 176v121c0 28 -22 50 -50 50s-50 -22 -50 -50v-121c0 -62 -13 -98 -27 -117c-13 -17 -28 -24 -48 -24s-35 7 -48 24c-14 19 -27 55 -27 117v121
c0 26 -21 50 -51 50c-18 0 -34 -9 -43 -25l-83 -146c-4 -8 -7 -17 -7 -25z" />
</svg>
