<?xml version="1.0" standalone="no"?>
<!DOCTYPE svg PUBLIC "-//W3C//DTD SVG 1.1//EN" "http://www.w3.org/Graphics/SVG/1.1/DTD/svg11.dtd" >
<svg xmlns="http://www.w3.org/2000/svg" xmlns:xlink="http://www.w3.org/1999/xlink" version="1.1" viewBox="-710 0 710 1000">
   <path fill="currentColor"
d="M-419 557c0 -45 -36 -81 -81 -81s-81 36 -81 81s36 81 81 81s81 -36 81 -81zM-700 388c0 -25 20 -50 50 -50c22 0 42 14 48 37c4 16 6 17 17 22c25 -13 54 -21 85 -21s60 8 85 21c11 -5 13 -6 17 -22c6 -23 26 -37 48 -37c30 0 50 25 50 50c0 4 -1 9 -2 13
c-7 25 -19 49 -40 67c15 26 23 57 23 89c0 100 -81 181 -181 181s-181 -81 -181 -181c0 -32 8 -63 23 -89c-21 -18 -33 -42 -40 -67c-1 -4 -2 -9 -2 -13z" />
</svg>
