<?xml version="1.0" standalone="no"?>
<!DOCTYPE svg PUBLIC "-//W3C//DTD SVG 1.1//EN" "http://www.w3.org/Graphics/SVG/1.1/DTD/svg11.dtd" >
<svg xmlns="http://www.w3.org/2000/svg" xmlns:xlink="http://www.w3.org/1999/xlink" version="1.1" viewBox="-721 0 721 1000">
   <path fill="currentColor"
d="M-499 506c-6 0 -11 -2 -18 -2c-30 0 -78 26 -90 41c-3 3 -4 12 -4 21c0 6 1 13 2 18c5 -5 13 -12 21 -23c45 -62 149 -34 197 -116c-2 -22 -6 -39 -16 -49l-49 85c-8 14 -24 25 -43 25zM-299 590c0 99 -125 142 -185 142c-28 0 -50 -22 -50 -50s22 -50 50 -50
c26 0 85 -22 85 -42v-7c-51 25 -93 30 -110 39c-21 28 -58 68 -106 68c-57 0 -96 -55 -96 -124c0 -39 11 -72 39 -97c42 -40 103 -62 145 -65l9 -16c-11 1 -67 8 -101 37c-9 8 -20 12 -33 12c-28 0 -50 -22 -50 -50c0 -15 6 -28 16 -37c42 -38 121 -64 216 -64
c45 0 81 4 111 22c44 27 69 82 69 145v4v9c0 44 -9 87 -9 124z" />
</svg>
