<?xml version="1.0" standalone="no"?>
<!DOCTYPE svg PUBLIC "-//W3C//DTD SVG 1.1//EN" "http://www.w3.org/Graphics/SVG/1.1/DTD/svg11.dtd" >
<svg xmlns="http://www.w3.org/2000/svg" xmlns:xlink="http://www.w3.org/1999/xlink" version="1.1" viewBox="-712 0 712 1000">
   <path fill="currentColor"
d="M-386 298c28 0 50 24 50 50c0 10 -3 21 -10 30l-92 122l35 46l8 -24c7 -21 26 -34 47 -34c30 0 50 25 50 50c0 5 -1 11 -3 16l-38 114c-6 19 -23 34 -47 34c-16 0 -30 -7 -40 -20l-74 -99l-74 99c-10 13 -24 20 -40 20c-24 0 -41 -15 -47 -34l-38 -114
c-2 -5 -3 -11 -3 -16c0 -25 20 -50 50 -50c21 0 40 13 47 34l8 24l35 -46l-92 -122c-7 -9 -10 -20 -10 -30c0 -26 22 -50 50 -50c15 0 30 7 40 20l74 98l74 -98c10 -13 25 -20 40 -20z" />
</svg>
