<?xml version="1.0" standalone="no"?>
<!DOCTYPE svg PUBLIC "-//W3C//DTD SVG 1.1//EN" "http://www.w3.org/Graphics/SVG/1.1/DTD/svg11.dtd" >
<svg xmlns="http://www.w3.org/2000/svg" xmlns:xlink="http://www.w3.org/1999/xlink" version="1.1" viewBox="-740 0 740 1000">
   <path fill="currentColor"
d="M-381 450l-35 -52h-168l-35 52l119 157zM-540 720l-180 -238c-7 -9 -10 -20 -10 -31c0 -10 2 -19 8 -27l69 -104c9 -14 25 -22 42 -22h222c17 0 33 8 42 22l69 104c6 8 8 17 8 27c0 11 -3 22 -10 31l-180 238c-9 13 -24 20 -40 20s-31 -7 -40 -20z" />
</svg>
