<?xml version="1.0" standalone="no"?>
<!DOCTYPE svg PUBLIC "-//W3C//DTD SVG 1.1//EN" "http://www.w3.org/Graphics/SVG/1.1/DTD/svg11.dtd" >
<svg xmlns="http://www.w3.org/2000/svg" xmlns:xlink="http://www.w3.org/1999/xlink" version="1.1" viewBox="-810 0 810 1000">
   <path fill="currentColor"
d="M-325 123c0 212 -18 372 -125 372c-35 0 -59 -20 -75 -40c-16 20 -40 40 -75 40c-34 0 -58 -17 -75 -36c-17 19 -41 36 -75 36c-28 0 -50 -22 -50 -50c0 -27 21 -49 48 -50c20 -20 27 -84 27 -123c0 -28 22 -50 50 -50c32 0 49 25 50 56c1 36 8 89 23 112
c20 -36 26 -130 27 -174v-20c0 -27 23 -49 50 -49c28 0 50 22 50 50v20c0 43 6 131 24 169c25 -56 26 -182 26 -257v-7c0 -28 22 -50 50 -50s50 22 50 50v1zM-250 500c-28 0 -50 -22 -50 -50v-390c0 -28 22 -50 50 -50s50 22 50 50v390c0 28 -22 50 -50 50z" />
</svg>
