<?xml version="1.0" standalone="no"?>
<!DOCTYPE svg PUBLIC "-//W3C//DTD SVG 1.1//EN" "http://www.w3.org/Graphics/SVG/1.1/DTD/svg11.dtd" >
<svg xmlns="http://www.w3.org/2000/svg" xmlns:xlink="http://www.w3.org/1999/xlink" version="1.1" viewBox="-750 0 750 1000">
   <path fill="currentColor"
d="M-500 110c-77 0 -140 63 -140 140v190c0 28 -22 50 -50 50s-50 -22 -50 -50v-190c0 -133 107 -240 240 -240s240 107 240 240v190c0 28 -22 50 -50 50s-50 -22 -50 -50v-190c0 -77 -63 -140 -140 -140zM-500 220c-17 0 -30 13 -30 30s13 30 30 30s30 -13 30 -30
s-13 -30 -30 -30zM-630 250c0 -72 58 -130 130 -130s130 58 130 130s-58 130 -130 130s-130 -58 -130 -130z" />
</svg>
