<?xml version="1.0" standalone="no"?>
<!DOCTYPE svg PUBLIC "-//W3C//DTD SVG 1.1//EN" "http://www.w3.org/Graphics/SVG/1.1/DTD/svg11.dtd" >
<svg xmlns="http://www.w3.org/2000/svg" xmlns:xlink="http://www.w3.org/1999/xlink" version="1.1" viewBox="-860 0 860 1000">
   <path fill="currentColor"
d="M-800 490c-28 0 -50 -22 -50 -50v-200c0 -28 22 -50 50 -50h600c28 0 50 22 50 50v200c0 28 -22 50 -50 50s-50 -22 -50 -50v-150h-500v150c0 28 -22 50 -50 50zM-425 85c0 41 -34 75 -75 75s-75 -34 -75 -75s34 -75 75 -75s75 34 75 75z" />
</svg>
