<?xml version="1.0" standalone="no"?>
<!DOCTYPE svg PUBLIC "-//W3C//DTD SVG 1.1//EN" "http://www.w3.org/Graphics/SVG/1.1/DTD/svg11.dtd" >
<svg xmlns="http://www.w3.org/2000/svg" xmlns:xlink="http://www.w3.org/1999/xlink" version="1.1" viewBox="-743 0 743 1000">
   <path fill="currentColor"
d="M-614 451c-33 -13 -72 -35 -72 -81c0 -36 26 -58 47 -70c35 -20 86 -33 137 -33c14 0 28 2 42 5c121 29 192 113 192 199c0 15 -3 25 -7 35c-10 27 -26 53 -42 77c8 9 14 21 14 34c0 28 -22 50 -50 50c-9 0 -18 -2 -25 -6c-18 19 -39 37 -61 51c-21 14 -48 25 -77 25
c-11 0 -23 -2 -34 -6c-49 -18 -93 -54 -127 -90c-16 -17 -30 -35 -40 -54c-8 -15 -16 -32 -16 -54c0 -40 29 -67 62 -74c18 -4 35 -6 57 -8zM-621 553c24 32 76 72 106 84c2 0 8 -2 19 -8c-15 -9 -26 -25 -26 -44c0 -28 22 -50 50 -50c17 0 40 2 63 6c13 -18 35 -56 40 -72
c-1 -29 -27 -79 -114 -100c-6 -1 -12 -2 -19 -2c-12 0 -24 2 -35 4c35 11 60 20 79 31c20 11 44 28 44 62c0 48 -42 62 -77 70c-41 10 -88 14 -130 19z" />
</svg>
