<?xml version="1.0" standalone="no"?>
<!DOCTYPE svg PUBLIC "-//W3C//DTD SVG 1.1//EN" "http://www.w3.org/Graphics/SVG/1.1/DTD/svg11.dtd" >
<svg xmlns="http://www.w3.org/2000/svg" xmlns:xlink="http://www.w3.org/1999/xlink" version="1.1" viewBox="-750 0 750 1000">
   <path fill="currentColor"
d="M-440 500c13 20 25 34 35 45c14 14 19 15 22 15s6 -1 11 -8c6 -9 12 -26 12 -52s-6 -43 -12 -52c-5 -7 -8 -8 -11 -8s-8 1 -22 15c-10 11 -22 25 -35 45zM-560 500c-13 -20 -25 -34 -35 -45c-14 -14 -19 -15 -22 -15s-6 1 -11 8c-6 9 -12 26 -12 52s6 43 12 52
c5 7 8 8 11 8s8 -1 22 -15c10 -11 22 -25 35 -45zM-740 500c0 -82 42 -160 123 -160c56 0 91 38 117 72c26 -34 61 -72 117 -72c81 0 123 78 123 160s-42 160 -123 160c-56 0 -91 -38 -117 -72c-26 34 -61 72 -117 72c-81 0 -123 -78 -123 -160z" />
</svg>
