<?xml version="1.0" standalone="no"?>
<!DOCTYPE svg PUBLIC "-//W3C//DTD SVG 1.1//EN" "http://www.w3.org/Graphics/SVG/1.1/DTD/svg11.dtd" >
<svg xmlns="http://www.w3.org/2000/svg" xmlns:xlink="http://www.w3.org/1999/xlink" version="1.1" viewBox="-903 0 903 1000">
   <path fill="currentColor"
d="M-709 173c83 -85 188 -163 324 -163c74 0 140 18 191 56c56 43 87 107 87 184s-31 141 -87 184c-51 38 -117 56 -191 56c-136 0 -241 -79 -324 -164c-37 49 -63 88 -89 137c-9 17 -27 27 -45 27c-30 0 -49 -25 -49 -49c0 -10 2 -20 7 -29c31 -57 62 -103 109 -162
c-49 -62 -79 -106 -111 -167c-4 -7 -6 -15 -6 -23c0 -25 21 -50 50 -50c19 0 36 12 46 30c25 46 52 86 88 133zM-644 250c77 81 160 141 259 141c58 0 102 -14 130 -36c29 -22 48 -55 48 -105s-19 -83 -48 -105c-28 -22 -72 -36 -130 -36c-100 0 -182 60 -259 141z" />
</svg>
