<?xml version="1.0" standalone="no"?>
<!DOCTYPE svg PUBLIC "-//W3C//DTD SVG 1.1//EN" "http://www.w3.org/Graphics/SVG/1.1/DTD/svg11.dtd" >
<svg xmlns="http://www.w3.org/2000/svg" xmlns:xlink="http://www.w3.org/1999/xlink" version="1.1" viewBox="-702 0 702 1000">
   <path fill="currentColor"
d="M-558 270c26 0 50 20 50 50c0 23 -16 44 -40 49c-19 4 -27 7 -33 10s-14 17 -8 29c5 9 17 23 33 40c24 26 59 62 59 113c0 50 -29 87 -60 105c-22 13 -44 19 -62 23c-4 1 -8 1 -12 1c-25 0 -50 -20 -50 -50c0 -23 16 -43 39 -49c28 -7 38 -5 44 -24c3 -8 2 -8 -2 -15
c-5 -9 -17 -23 -33 -40c-24 -26 -59 -61 -59 -112c0 -50 28 -88 59 -107c22 -13 46 -18 64 -22c3 -1 8 -1 11 -1zM-368 310c26 0 50 20 50 50c0 23 -16 44 -40 49c-19 4 -27 7 -33 10s-14 17 -8 29c5 9 17 23 33 40c24 26 59 62 59 113c0 50 -29 87 -60 105
c-22 13 -44 19 -62 23c-4 1 -8 1 -12 1c-25 0 -50 -20 -50 -50c0 -23 16 -43 39 -49c28 -7 38 -5 44 -24c3 -8 2 -8 -2 -15c-5 -9 -17 -23 -33 -40c-24 -26 -59 -61 -59 -112c0 -50 28 -88 59 -107c22 -13 46 -18 64 -22c3 -1 8 -1 11 -1z" />
</svg>
