<?xml version="1.0" standalone="no"?>
<!DOCTYPE svg PUBLIC "-//W3C//DTD SVG 1.1//EN" "http://www.w3.org/Graphics/SVG/1.1/DTD/svg11.dtd" >
<svg xmlns="http://www.w3.org/2000/svg" xmlns:xlink="http://www.w3.org/1999/xlink" version="1.1" viewBox="-694 0 694 1000">
   <path fill="currentColor"
d="M-684 116c0 -27 23 -50 50 -50c13 0 25 4 35 14l184 184v-49c0 -28 23 -49 50 -49c28 0 50 22 50 50l-1 169c0 29 -21 49 -49 49l-169 1c-28 0 -50 -22 -50 -50c0 -27 21 -50 49 -50h49l-184 -184c-10 -10 -14 -22 -14 -35z" />
</svg>
