<?xml version="1.0" standalone="no"?>
<!DOCTYPE svg PUBLIC "-//W3C//DTD SVG 1.1//EN" "http://www.w3.org/Graphics/SVG/1.1/DTD/svg11.dtd" >
<svg xmlns="http://www.w3.org/2000/svg" xmlns:xlink="http://www.w3.org/1999/xlink" version="1.1" viewBox="-809 0 809 1000">
   <path fill="currentColor"
d="M-271 462c-30 0 -50 -25 -50 -50c0 -7 1 -13 4 -20c10 -23 16 -51 16 -80c0 -17 -1 -34 -6 -50c-21 -74 -80 -126 -155 -145c-19 -5 -38 -7 -57 -7c-80 0 -148 44 -172 103c-6 14 -8 31 -8 48c0 13 1 25 5 37c16 49 68 93 129 93c16 0 33 -3 50 -10c25 -10 57 -37 57 -69
c0 -29 -28 -59 -60 -59c-8 0 -25 7 -25 14c0 3 2 5 10 7c23 6 38 26 38 48c0 30 -25 50 -50 50c-4 0 -9 0 -13 -1c-44 -11 -86 -52 -86 -104c0 -69 59 -113 126 -113c15 0 32 2 48 7c63 20 111 73 111 154c0 80 -58 135 -119 159c-25 10 -55 16 -86 16c-16 0 -32 -2 -48 -5
c-87 -18 -151 -77 -177 -156c-7 -21 -10 -45 -10 -68c0 -30 6 -60 16 -85c39 -98 134 -166 268 -166c106 0 189 50 241 110c40 46 74 113 74 193c0 47 -10 84 -25 119c-8 19 -27 30 -46 30z" />
</svg>
