<?xml version="1.0" standalone="no"?>
<!DOCTYPE svg PUBLIC "-//W3C//DTD SVG 1.1//EN" "http://www.w3.org/Graphics/SVG/1.1/DTD/svg11.dtd" >
<svg xmlns="http://www.w3.org/2000/svg" xmlns:xlink="http://www.w3.org/1999/xlink" version="1.1" viewBox="-718 0 718 1000">
   <path fill="currentColor"
d="M-526 311c17 -10 37 -32 80 -32c68 0 118 32 134 87c2 7 3 14 3 21c0 14 -3 26 -7 34c12 4 27 14 37 29c12 18 18 39 18 58c0 24 -7 42 -13 57c-18 47 -49 93 -117 93c-8 0 -23 -3 -26 2c-17 24 -42 36 -70 43c-29 7 -41 8 -53 8h-8c-39 0 -80 -5 -109 -28
c-27 -21 -51 -54 -51 -95c0 -19 5 -38 15 -55c11 -20 13 -28 13 -28c0 -6 -7 -24 -9 -34c-4 -19 -6 -36 -6 -52c0 -72 47 -115 114 -115c21 0 38 5 55 7zM-595 419c0 31 15 51 15 86c0 26 -10 50 -26 78c-2 4 -2 5 -2 5s0 6 13 16c8 3 32 7 45 7h7c5 0 39 -7 46 -11
c10 -13 22 -25 36 -32c18 -10 37 -11 49 -11c7 0 14 2 21 2c5 0 9 -1 12 -5c3 -5 15 -32 17 -42c-12 -2 -43 -8 -60 -40c-5 -10 -8 -22 -8 -34c0 -22 10 -40 18 -51c-7 -5 -20 -8 -34 -8c-2 0 0 -2 -12 7c-10 7 -33 26 -67 26c-20 0 -37 -8 -56 -8c-12 0 -14 -1 -14 15z" />
</svg>
