<?xml version="1.0" standalone="no"?>
<!DOCTYPE svg PUBLIC "-//W3C//DTD SVG 1.1//EN" "http://www.w3.org/Graphics/SVG/1.1/DTD/svg11.dtd" >
<svg xmlns="http://www.w3.org/2000/svg" xmlns:xlink="http://www.w3.org/1999/xlink" version="1.1" viewBox="-750 0 750 1000">
   <path fill="currentColor"
d="M-360 500c0 -77 -63 -140 -140 -140s-140 63 -140 140s63 140 140 140s140 -63 140 -140zM-260 500c0 133 -107 240 -240 240s-240 -107 -240 -240s107 -240 240 -240s240 107 240 240zM-480 475c0 -13 12 -25 25 -25c6 0 13 2 18 7l7 8l7 -8c5 -5 12 -7 18 -7
c13 0 25 12 25 25c0 6 -2 13 -7 18l-8 7l8 7c5 5 7 12 7 18c0 13 -12 25 -25 25c-6 0 -13 -2 -18 -7l-7 -8l-7 8c-5 5 -12 7 -18 7c-13 0 -25 -12 -25 -25c0 -6 2 -13 7 -18l8 -7l-8 -7c-5 -5 -7 -12 -7 -18zM-620 475c0 -13 12 -25 25 -25c6 0 13 2 18 7l7 8l7 -8
c5 -5 12 -7 18 -7c13 0 25 12 25 25c0 6 -2 13 -7 18l-8 7l8 7c5 5 7 12 7 18c0 13 -12 25 -25 25c-6 0 -13 -2 -18 -7l-7 -8l-7 8c-5 5 -12 7 -18 7c-13 0 -25 -12 -25 -25c0 -6 2 -13 7 -18l8 -7l-8 -7c-5 -5 -7 -12 -7 -18z" />
</svg>
