<?xml version="1.0" standalone="no"?>
<!DOCTYPE svg PUBLIC "-//W3C//DTD SVG 1.1//EN" "http://www.w3.org/Graphics/SVG/1.1/DTD/svg11.dtd" >
<svg xmlns="http://www.w3.org/2000/svg" xmlns:xlink="http://www.w3.org/1999/xlink" version="1.1" viewBox="-744 0 744 1000">
   <path fill="currentColor"
d="M-684 513c-28 0 -50 -24 -50 -50c0 -12 4 -24 12 -33l61 -70c9 -11 23 -17 38 -17s28 6 37 17l61 70c8 9 12 21 12 33c0 26 -22 50 -50 50c-14 0 -28 -6 -38 -17l-22 -27l-23 27c-10 11 -24 17 -38 17zM-436 513c-28 0 -50 -24 -50 -50c0 -12 4 -24 12 -33l61 -70
c9 -11 23 -17 38 -17s28 6 37 17l61 70c8 9 12 21 12 33c0 26 -22 50 -50 50c-14 0 -28 -6 -38 -17l-22 -27l-23 27c-10 11 -24 17 -38 17zM-450 600c0 28 -22 50 -50 50s-50 -22 -50 -50s22 -50 50 -50s50 22 50 50z" />
</svg>
