<?xml version="1.0" standalone="no"?>
<!DOCTYPE svg PUBLIC "-//W3C//DTD SVG 1.1//EN" "http://www.w3.org/Graphics/SVG/1.1/DTD/svg11.dtd" >
<svg xmlns="http://www.w3.org/2000/svg" xmlns:xlink="http://www.w3.org/1999/xlink" version="1.1" viewBox="-780 0 780 1000">
   <path fill="currentColor"
d="M-610 242c-28 0 -50 -22 -50 -50s22 -50 50 -50s50 22 50 50s-22 50 -50 50zM-450 192c0 28 -22 50 -50 50s-50 -22 -50 -50s22 -50 50 -50s50 22 50 50zM-390 242c-28 0 -50 -22 -50 -50s22 -50 50 -50s50 22 50 50s-22 50 -50 50zM-604 343c-23 0 -59 9 -66 13v84
c0 28 -22 50 -50 50s-50 -22 -50 -50v-380c0 -28 22 -50 50 -50h440c28 0 50 22 50 50v380c0 28 -22 50 -50 50s-50 -22 -50 -50v-39c-20 5 -44 8 -68 8c-18 0 -36 -2 -52 -5v36c0 28 -22 50 -50 50s-50 -22 -50 -50v-88c-14 -5 -34 -9 -54 -9zM-396 309c23 0 59 -9 66 -13
v-186h-340v141c23 -5 47 -8 70 -8c58 0 111 17 139 52c0 0 11 6 28 10c11 2 24 4 37 4z" />
</svg>
