<?xml version="1.0" standalone="no"?>
<!DOCTYPE svg PUBLIC "-//W3C//DTD SVG 1.1//EN" "http://www.w3.org/Graphics/SVG/1.1/DTD/svg11.dtd" >
<svg xmlns="http://www.w3.org/2000/svg" xmlns:xlink="http://www.w3.org/1999/xlink" version="1.1" viewBox="-740 0 740 1000">
   <path fill="currentColor"
d="M-700 622c0 -34 30 -134 132 -134c6 0 12 0 18 1v-39c-18 -16 -29 -25 -38 -30c-3 -2 -6 -3 -10 -3c-10 0 -20 7 -23 11c-3 6 -6 15 -10 33c-5 23 -26 40 -49 40c-30 0 -50 -24 -50 -50c0 -34 30 -134 132 -134c17 0 33 4 48 10v-17c0 -28 22 -50 50 -50s50 22 50 50v94
c6 4 13 7 20 7c8 0 16 -3 20 -10c4 -6 7 -15 12 -35c6 -23 26 -38 48 -38c30 0 50 25 50 50c0 11 -9 51 -24 75c-19 31 -57 59 -108 59c-6 0 -12 0 -18 -1v39c17 16 27 25 37 30c3 2 7 3 11 3c9 0 18 -5 22 -11s7 -15 12 -35c6 -23 26 -38 48 -38c30 0 50 25 50 50
c0 11 -9 51 -24 75c-19 31 -57 59 -108 59c-17 0 -33 -4 -48 -10v17c0 28 -22 50 -50 50s-50 -22 -50 -50v-94c-8 -6 -15 -8 -21 -8c-12 0 -19 9 -20 11c-3 6 -6 15 -10 33c-5 23 -26 40 -49 40c-30 0 -50 -24 -50 -50z" />
</svg>
