<?xml version="1.0" standalone="no"?>
<!DOCTYPE svg PUBLIC "-//W3C//DTD SVG 1.1//EN" "http://www.w3.org/Graphics/SVG/1.1/DTD/svg11.dtd" >
<svg xmlns="http://www.w3.org/2000/svg" xmlns:xlink="http://www.w3.org/1999/xlink" version="1.1" viewBox="-692 0 692 1000">
   <path fill="currentColor"
d="M-570 726c-25 0 -50 -20 -50 -50c0 -19 11 -38 30 -46c31 -14 76 -37 112 -70s59 -72 59 -118c0 -41 -27 -82 -81 -82c-19 0 -40 14 -59 43c-12 19 -19 34 -25 53c-7 21 -27 36 -48 36c-30 0 -50 -25 -50 -50c0 -16 6 -27 12 -41s15 -33 28 -53c24 -37 70 -88 142 -88
c121 0 181 99 181 182c0 148 -136 238 -231 280c-7 3 -13 4 -20 4zM-493 388c30 0 50 25 50 50c0 5 -1 10 -3 15c-18 56 -47 104 -100 138c-8 5 -18 7 -27 7c-25 0 -50 -20 -50 -49c0 -16 8 -33 23 -43c29 -18 46 -43 59 -83c7 -21 27 -35 48 -35z" />
</svg>
