<?xml version="1.0" standalone="no"?>
<!DOCTYPE svg PUBLIC "-//W3C//DTD SVG 1.1//EN" "http://www.w3.org/Graphics/SVG/1.1/DTD/svg11.dtd" >
<svg xmlns="http://www.w3.org/2000/svg" xmlns:xlink="http://www.w3.org/1999/xlink" version="1.1" viewBox="-790 0 790 1000">
   <path fill="currentColor"
d="M-270 10c25 0 50 20 50 50c0 17 -9 35 -25 44l-230 130c-8 4 -17 6 -25 6s-17 -2 -25 -6l-230 -130c-16 -9 -25 -27 -25 -44c0 -30 25 -50 50 -50c8 0 17 2 25 6l205 117l205 -117c8 -4 17 -6 25 -6zM-730 490c-25 0 -50 -20 -50 -50c0 -17 9 -35 25 -44l230 -130
c8 -4 17 -6 25 -6s17 2 25 6l230 130c16 9 25 27 25 44c0 30 -25 50 -50 50c-8 0 -17 -2 -25 -6l-205 -117l-205 117c-8 4 -17 6 -25 6z" />
</svg>
