<?xml version="1.0" standalone="no"?>
<!DOCTYPE svg PUBLIC "-//W3C//DTD SVG 1.1//EN" "http://www.w3.org/Graphics/SVG/1.1/DTD/svg11.dtd" >
<svg xmlns="http://www.w3.org/2000/svg" xmlns:xlink="http://www.w3.org/1999/xlink" version="1.1" viewBox="-749 0 749 1000">
   <path fill="currentColor"
d="M-509 260c141 0 241 86 241 222c0 78 -37 157 -79 195c-28 25 -61 37 -93 37c-47 0 -86 -21 -118 -38c-6 20 -26 34 -48 34c-27 0 -50 -21 -50 -49c0 -13 2 -25 4 -37c-22 -13 -40 -24 -54 -37c-16 -14 -33 -35 -33 -65c0 -45 37 -67 65 -79c-21 -6 -37 -25 -37 -48
c0 -27 22 -50 50 -50c3 0 5 1 8 1c23 4 44 8 65 13c-5 -8 -12 -23 -12 -37c0 -48 42 -62 91 -62zM-480 603c12 5 31 11 40 11s15 -2 25 -11c8 -8 20 -22 31 -47c10 -23 16 -50 16 -74c0 -65 -34 -104 -94 -117c2 4 3 8 4 12c4 0 9 -1 13 -1c28 0 50 22 50 50
c0 27 -22 49 -48 50c-7 0 -14 1 -21 1c-11 0 -22 0 -33 -1c-23 17 -47 28 -82 39c-13 4 -27 9 -38 13c5 3 9 7 15 10c12 -7 25 -14 39 -18c28 -9 62 -15 110 -22c3 0 5 -1 8 -1c28 0 50 23 50 50c0 25 -19 45 -43 49c-16 2 -30 5 -42 7z" />
</svg>
