<?xml version="1.0" standalone="no"?>
<!DOCTYPE svg PUBLIC "-//W3C//DTD SVG 1.1//EN" "http://www.w3.org/Graphics/SVG/1.1/DTD/svg11.dtd" >
<svg xmlns="http://www.w3.org/2000/svg" xmlns:xlink="http://www.w3.org/1999/xlink" version="1.1" viewBox="-745 0 745 1000">
   <path fill="currentColor"
d="M-486 300c17 0 32 -2 51 -2c21 0 46 4 72 16c57 27 78 84 78 134c0 38 -10 75 -27 98c-11 15 -23 24 -31 31c-21 18 -24 22 -33 55c-4 16 -9 40 -28 63c-20 24 -52 43 -94 43c-53 0 -77 -37 -94 -72c-11 -23 -8 -26 -40 -31c-23 -3 -39 -5 -59 -19
c-26 -18 -44 -50 -44 -91c0 -18 5 -36 13 -49c10 -16 21 -25 28 -32c10 -10 14 -14 15 -17c10 -25 5 -46 18 -76c14 -33 48 -63 95 -63c33 0 53 12 80 12zM-385 448c0 -39 -20 -50 -50 -50c-17 0 -35 2 -54 2c-22 0 -43 -5 -56 -8c-9 -2 -15 -4 -19 -4c-6 0 -7 5 -9 21
c-2 13 -4 34 -14 57c-14 34 -33 43 -48 60c0 1 1 5 2 7c28 7 53 3 88 30c27 21 35 48 51 75c17 -3 15 -9 21 -31c4 -17 11 -43 30 -69c13 -17 26 -29 35 -37c9 -7 13 -11 15 -14c6 -8 8 -28 8 -39z" />
</svg>
