<?xml version="1.0" standalone="no"?>
<!DOCTYPE svg PUBLIC "-//W3C//DTD SVG 1.1//EN" "http://www.w3.org/Graphics/SVG/1.1/DTD/svg11.dtd" >
<svg xmlns="http://www.w3.org/2000/svg" xmlns:xlink="http://www.w3.org/1999/xlink" version="1.1" viewBox="-751 0 751 1000">
   <path fill="currentColor"
d="M-259 249c0 28 -22 50 -50 50h-90c-28 0 -50 -22 -50 -50s22 -50 50 -50h90c28 0 50 22 50 50zM-500 8c28 0 50 22 50 50v90c0 28 -22 50 -50 50s-50 -22 -50 -50v-90c0 -28 22 -50 50 -50zM-500 490c-28 0 -50 -22 -50 -50v-90c0 -28 22 -50 50 -50s50 22 50 50v90
c0 28 -22 50 -50 50zM-741 249c0 -28 22 -50 50 -50h90c28 0 50 22 50 50s-22 50 -50 50h-90c-28 0 -50 -22 -50 -50z" />
</svg>
