<?xml version="1.0" standalone="no"?>
<!DOCTYPE svg PUBLIC "-//W3C//DTD SVG 1.1//EN" "http://www.w3.org/Graphics/SVG/1.1/DTD/svg11.dtd" >
<svg xmlns="http://www.w3.org/2000/svg" xmlns:xlink="http://www.w3.org/1999/xlink" version="1.1" viewBox="-691 0 691 1000">
   <path fill="currentColor"
d="M-376 298c30 0 50 25 50 50c0 6 -1 13 -4 19l-11 26c-8 19 -26 31 -46 31c-30 0 -50 -25 -50 -50c0 -6 1 -13 4 -19l11 -26c8 -19 26 -31 46 -31zM-675 348c0 -25 20 -50 50 -50c19 0 37 11 45 29l12 26c3 7 5 14 5 21c0 25 -20 50 -50 50c-19 0 -37 -11 -45 -29l-12 -26
c-3 -7 -5 -14 -5 -21zM-434 589l-84 49c5 1 12 2 18 2c32 0 58 -22 66 -51zM-567 551l84 -49c-6 -1 -11 -2 -17 -2c-32 0 -59 21 -67 51zM-631 695c-25 0 -50 -20 -50 -49c0 -13 6 -27 16 -37c-3 -13 -5 -25 -5 -39c0 -94 76 -170 170 -170c45 0 86 18 116 47
c5 -1 10 -3 15 -3c25 0 50 21 50 50c0 14 -6 27 -16 37c3 12 4 26 4 39c0 94 -75 170 -169 170c-45 0 -87 -17 -117 -46c-5 1 -9 1 -14 1zM-500 260c28 0 50 22 50 50v35c0 28 -22 50 -50 50s-50 -22 -50 -50v-35c0 -28 22 -50 50 -50z" />
</svg>
