<?xml version="1.0" standalone="no"?>
<!DOCTYPE svg PUBLIC "-//W3C//DTD SVG 1.1//EN" "http://www.w3.org/Graphics/SVG/1.1/DTD/svg11.dtd" >
<svg xmlns="http://www.w3.org/2000/svg" xmlns:xlink="http://www.w3.org/1999/xlink" version="1.1" viewBox="-922 0 922 1000">
   <path fill="currentColor"
d="M-305 413c-35 0 -72 -8 -102 -11c-4 30 -29 44 -40 49c-14 6 -33 12 -55 17c-33 8 -108 25 -158 25c-65 0 -115 -21 -149 -59c-42 -46 -53 -108 -53 -151c0 -23 11 -43 26 -57c-36 -7 -76 -25 -76 -72c0 -25 13 -43 23 -54c46 -50 131 -90 259 -90c27 0 49 21 50 48
c57 -23 110 -37 158 -43c19 -2 37 -3 54 -3c77 0 147 25 162 91h14c39 0 71 2 92 27c8 10 13 22 13 35c0 4 0 9 -1 13c-7 30 -24 91 -58 142c-32 48 -83 93 -159 93zM-673 299c-13 -1 -31 -2 -47 -2s-30 0 -40 2c5 44 19 77 59 89c-8 -8 -14 -20 -14 -35
c0 -37 22 -43 42 -54zM-367 306c19 2 39 7 60 7c58 0 91 -60 108 -110h-2h-22h-13c-21 26 -52 51 -88 74c-17 11 -31 20 -43 29zM-507 223c14 8 26 23 26 43v7c17 -18 39 -37 69 -58c-31 2 -63 6 -95 8zM-654 132c-1 -7 -1 -14 1 -21c-48 2 -84 11 -111 22c10 0 21 1 32 1
c24 0 50 -1 78 -2z" />
</svg>
