<?xml version="1.0" standalone="no"?>
<!DOCTYPE svg PUBLIC "-//W3C//DTD SVG 1.1//EN" "http://www.w3.org/Graphics/SVG/1.1/DTD/svg11.dtd" >
<svg xmlns="http://www.w3.org/2000/svg" xmlns:xlink="http://www.w3.org/1999/xlink" version="1.1" viewBox="-661 0 661 1000">
   <path fill="currentColor"
d="M-551 411c0 28 23 52 51 52h1c28 0 51 -24 51 -52s-24 -51 -52 -51s-51 23 -51 51zM-588 571h38v-17c-59 -21 -101 -77 -101 -143c0 -84 67 -151 151 -151s152 67 152 151c0 66 -43 122 -102 143v17h39c28 0 50 22 50 50s-22 50 -50 50h-39v19c0 28 -22 50 -50 50
s-50 -22 -50 -50v-19h-38c-28 0 -50 -22 -50 -50s22 -50 50 -50z" />
</svg>
