<?xml version="1.0" standalone="no"?>
<!DOCTYPE svg PUBLIC "-//W3C//DTD SVG 1.1//EN" "http://www.w3.org/Graphics/SVG/1.1/DTD/svg11.dtd" >
<svg xmlns="http://www.w3.org/2000/svg" xmlns:xlink="http://www.w3.org/1999/xlink" version="1.1" viewBox="-750 0 750 1000">
   <path fill="currentColor"
d="M-740 60c0 -28 22 -50 50 -50h380c28 0 50 22 50 50v380c0 28 -22 50 -50 50h-380c-28 0 -50 -22 -50 -50v-380zM-640 110v280h280v-280h-280zM-620 180c0 -28 22 -50 50 -50h140c28 0 50 22 50 50v140c0 28 -22 50 -50 50h-140c-28 0 -50 -22 -50 -50v-140zM-520 230v40
h40v-40h-40z" />
</svg>
