<?xml version="1.0" standalone="no"?>
<!DOCTYPE svg PUBLIC "-//W3C//DTD SVG 1.1//EN" "http://www.w3.org/Graphics/SVG/1.1/DTD/svg11.dtd" >
<svg xmlns="http://www.w3.org/2000/svg" xmlns:xlink="http://www.w3.org/1999/xlink" version="1.1" viewBox="-730 0 730 1000">
   <path fill="currentColor"
d="M-570 250c0 41 -34 75 -75 75s-75 -34 -75 -75s34 -75 75 -75s75 34 75 75zM-279 440c0 28 -22 50 -50 50h-162c-28 0 -50 -22 -50 -50v-380c0 -28 22 -50 50 -50h162c28 0 50 22 50 50s-22 50 -50 50h-112v280h112c28 0 50 22 50 50z" />
</svg>
