<?xml version="1.0" standalone="no"?>
<!DOCTYPE svg PUBLIC "-//W3C//DTD SVG 1.1//EN" "http://www.w3.org/Graphics/SVG/1.1/DTD/svg11.dtd" >
<svg xmlns="http://www.w3.org/2000/svg" xmlns:xlink="http://www.w3.org/1999/xlink" version="1.1" viewBox="-750 0 750 1000">
   <path fill="currentColor"
d="M-405 285c29 0 50 25 50 50c0 8 -2 17 -7 25l-52 90h104c28 0 50 22 50 50s-22 50 -50 50h-104l52 90c5 8 7 17 7 25c0 25 -20 50 -50 50c-17 0 -34 -9 -43 -25l-52 -90l-52 90c-9 16 -26 25 -43 25c-29 0 -50 -25 -50 -50c0 -8 2 -17 7 -25l52 -90h-104
c-28 0 -50 -22 -50 -50s22 -50 50 -50h104l-52 -90c-5 -8 -7 -17 -7 -25c0 -25 20 -50 50 -50c17 0 34 9 43 25l52 90l52 -90c9 -16 26 -25 43 -25z" />
</svg>
