<?xml version="1.0" standalone="no"?>
<!DOCTYPE svg PUBLIC "-//W3C//DTD SVG 1.1//EN" "http://www.w3.org/Graphics/SVG/1.1/DTD/svg11.dtd" >
<svg xmlns="http://www.w3.org/2000/svg" xmlns:xlink="http://www.w3.org/1999/xlink" version="1.1" viewBox="-710 0 710 1000">
   <path fill="currentColor"
d="M-450 60v100c0 28 -22 50 -50 50s-50 -22 -50 -50v-100c0 -28 22 -50 50 -50s50 22 50 50zM-441 200c0 -26 22 -50 50 -50c15 0 30 7 40 20c24 32 51 82 51 152c0 88 -43 168 -133 168c-24 0 -48 -9 -67 -23c-19 14 -43 23 -67 23c-90 0 -133 -80 -133 -168
c0 -70 27 -120 51 -152c10 -13 25 -20 40 -20c28 0 50 24 50 50c0 10 -3 21 -10 30c-15 20 -31 50 -31 92c0 35 4 68 33 68c15 0 16 -17 20 -28c6 -18 23 -34 47 -34c28 0 48 20 50 46c1 6 9 15 17 16c13 0 16 -3 21 -12c7 -11 12 -30 12 -56c0 -42 -16 -72 -31 -92
c-7 -9 -10 -20 -10 -30z" />
</svg>
