<?xml version="1.0" standalone="no"?>
<!DOCTYPE svg PUBLIC "-//W3C//DTD SVG 1.1//EN" "http://www.w3.org/Graphics/SVG/1.1/DTD/svg11.dtd" >
<svg xmlns="http://www.w3.org/2000/svg" xmlns:xlink="http://www.w3.org/1999/xlink" version="1.1" viewBox="-734 0 734 1000">
   <path fill="currentColor"
d="M-674 618c-25 0 -50 -20 -50 -50c0 -20 11 -38 31 -46l174 -70c6 -2 13 -4 19 -4s13 2 19 4l174 70c20 8 31 26 31 46c0 30 -25 50 -50 50c-6 0 -13 -2 -19 -4l-155 -62l-155 62c-6 2 -13 4 -19 4zM-392 300c47 0 85 38 85 85s-38 85 -85 85s-85 -38 -85 -85
s38 -85 85 -85zM-392 375c-6 0 -10 4 -10 10s4 10 10 10s10 -4 10 -10s-4 -10 -10 -10zM-607 300c47 0 85 38 85 85s-38 85 -85 85s-85 -38 -85 -85s38 -85 85 -85zM-607 375c-6 0 -10 4 -10 10s4 10 10 10s10 -4 10 -10s-4 -10 -10 -10zM-499 570c47 0 85 38 85 85
s-38 85 -85 85s-85 -38 -85 -85s38 -85 85 -85zM-499 645c-6 0 -10 4 -10 10s4 10 10 10s10 -4 10 -10s-4 -10 -10 -10z" />
</svg>
