<?xml version="1.0" standalone="no"?>
<!DOCTYPE svg PUBLIC "-//W3C//DTD SVG 1.1//EN" "http://www.w3.org/Graphics/SVG/1.1/DTD/svg11.dtd" >
<svg xmlns="http://www.w3.org/2000/svg" xmlns:xlink="http://www.w3.org/1999/xlink" version="1.1" viewBox="-725 0 725 1000">
   <path fill="currentColor"
d="M-335 541c26 0 50 22 50 50c0 14 -6 29 -18 39c-41 35 -87 50 -142 50c-21 0 -40 -13 -47 -33l-66 -186l-45 111c11 4 26 8 48 8c28 0 50 22 50 50s-22 50 -50 50c-72 0 -120 -22 -149 -58c-7 -9 -11 -20 -11 -31c0 -6 2 -13 4 -19l110 -271c8 -19 26 -31 46 -31
c22 0 40 13 47 33l97 273c16 -4 30 -11 44 -23c9 -8 21 -12 32 -12z" />
</svg>
