<?xml version="1.0" standalone="no"?>
<!DOCTYPE svg PUBLIC "-//W3C//DTD SVG 1.1//EN" "http://www.w3.org/Graphics/SVG/1.1/DTD/svg11.dtd" >
<svg xmlns="http://www.w3.org/2000/svg" xmlns:xlink="http://www.w3.org/1999/xlink" version="1.1" viewBox="-657 0 657 1000">
   <path fill="currentColor"
d="M-508 611h16l-8 -12zM-500 421c8 0 14 -5 15 -13v-3v-1c-1 -7 -7 -13 -15 -13s-14 6 -15 13v1v3c1 8 7 13 15 13zM-597 711c-26 0 -50 -21 -50 -50c0 -9 2 -18 7 -26l90 -146v-8c-10 -7 -18 -16 -25 -26h-20c-28 0 -50 -22 -50 -50s22 -50 50 -50h21c7 -10 14 -18 24 -24
v-21c0 -28 22 -50 50 -50s50 22 50 50v21c10 6 17 14 24 24h21c28 0 50 22 50 50s-22 50 -50 50h-20c-7 10 -15 19 -25 26v8l90 146c5 8 7 17 7 26c0 29 -24 50 -50 50h-194z" />
</svg>
