<?xml version="1.0" standalone="no"?>
<!DOCTYPE svg PUBLIC "-//W3C//DTD SVG 1.1//EN" "http://www.w3.org/Graphics/SVG/1.1/DTD/svg11.dtd" >
<svg xmlns="http://www.w3.org/2000/svg" xmlns:xlink="http://www.w3.org/1999/xlink" version="1.1" viewBox="-946 0 946 1000">
   <path fill="currentColor"
d="M-214 136c-47 -13 -165 -26 -228 -26c-112 0 -117 30 -256 48c-78 10 -99 28 -107 38c-13 17 -19 49 -29 72c26 14 50 19 100 28c73 13 117 35 161 65c31 22 45 28 104 29h26c72 0 112 -6 134 -14c24 -9 22 -13 24 -41c1 -10 3 -24 6 -39c8 -35 26 -71 70 -101
c26 -18 39 -31 44 -39c-7 -5 -22 -13 -49 -20zM-711 58c111 -14 150 -49 262 -49c73 0 201 15 261 31c57 15 126 42 126 113c0 14 -3 28 -9 40c-15 31 -45 59 -81 84c-31 21 -30 33 -33 69c-3 37 -11 67 -35 91c-15 15 -34 26 -56 34c-38 13 -91 19 -166 19
c-49 0 -97 -4 -128 -15c-47 -16 -64 -40 -103 -58c-17 -8 -40 -16 -78 -23c-43 -7 -75 -16 -101 -25c-41 -15 -84 -42 -84 -93c0 -18 6 -36 13 -53c15 -33 15 -59 40 -90c32 -40 85 -64 172 -75z" />
</svg>
