<?xml version="1.0" standalone="no"?>
<!DOCTYPE svg PUBLIC "-//W3C//DTD SVG 1.1//EN" "http://www.w3.org/Graphics/SVG/1.1/DTD/svg11.dtd" >
<svg xmlns="http://www.w3.org/2000/svg" xmlns:xlink="http://www.w3.org/1999/xlink" version="1.1" viewBox="-780 0 780 1000">
   <path fill="currentColor"
d="M-770 60c0 -28 22 -50 50 -50h440c28 0 50 22 50 50v380c0 28 -22 50 -50 50h-440c-28 0 -50 -22 -50 -50v-380zM-670 110v280h340v-280h-340zM-560 250c0 28 -22 50 -50 50s-50 -22 -50 -50s22 -50 50 -50s50 22 50 50zM-450 250c0 28 -22 50 -50 50s-50 -22 -50 -50
s22 -50 50 -50s50 22 50 50zM-340 250c0 28 -22 50 -50 50s-50 -22 -50 -50s22 -50 50 -50s50 22 50 50z" />
</svg>
