<?xml version="1.0" standalone="no"?>
<!DOCTYPE svg PUBLIC "-//W3C//DTD SVG 1.1//EN" "http://www.w3.org/Graphics/SVG/1.1/DTD/svg11.dtd" >
<svg xmlns="http://www.w3.org/2000/svg" xmlns:xlink="http://www.w3.org/1999/xlink" version="1.1" viewBox="-731 0 731 1000">
   <path fill="currentColor"
d="M-572 558c0 -20 -17 -37 -37 -37s-37 17 -37 37s17 37 37 37s37 -17 37 -37zM-391 595c20 0 37 -17 37 -37s-17 -37 -37 -37s-37 17 -37 37s17 37 37 37zM-500 484c-10 0 -19 -2 -28 -4c14 14 23 32 28 52c5 -20 14 -38 28 -52c-9 2 -18 4 -28 4zM-500 409
c20 0 37 -17 37 -37s-17 -37 -37 -37s-37 17 -37 37s17 37 37 37zM-581 450c-19 -20 -31 -48 -31 -78c0 -62 50 -112 112 -112s112 50 112 112c0 30 -12 58 -31 78c9 -2 18 -4 28 -4c62 0 112 50 112 112s-50 112 -112 112c-53 0 -97 -37 -109 -86c-12 49 -56 86 -109 86
c-62 0 -112 -50 -112 -112s50 -112 112 -112c10 0 19 2 28 4z" />
</svg>
