<?xml version="1.0" standalone="no"?>
<!DOCTYPE svg PUBLIC "-//W3C//DTD SVG 1.1//EN" "http://www.w3.org/Graphics/SVG/1.1/DTD/svg11.dtd" >
<svg xmlns="http://www.w3.org/2000/svg" xmlns:xlink="http://www.w3.org/1999/xlink" version="1.1" viewBox="-735 0 735 1000">
   <path fill="currentColor"
d="M-725 562c0 -46 42 -78 89 -78c27 0 50 22 50 51c0 18 -11 34 -26 43c10 11 23 23 36 33c-2 -39 -5 -84 -7 -126v-4c-45 -2 -77 -6 -103 -32c-14 -14 -20 -32 -20 -49c0 -27 15 -47 26 -59c19 -20 45 -38 69 -50c22 -11 52 -23 78 -23c28 0 50 22 50 50s-22 50 -50 50
c-11 2 -22 7 -33 13h2c17 0 31 5 42 13c29 -30 66 -66 115 -76c6 -1 13 -2 20 -2c42 0 70 26 85 54c14 26 24 54 24 80c0 42 -27 68 -50 80c11 16 27 40 27 69c0 62 -58 81 -117 81c-28 0 -50 -22 -50 -50s22 -50 50 -50c1 0 2 -1 3 -1c-6 -8 -13 -16 -21 -25
c-6 -6 -18 -22 -18 -44c0 -34 29 -51 37 -55c14 -7 25 -8 38 -12c-1 -5 -4 -14 -11 -26c-32 10 -73 59 -93 84c1 40 7 85 7 126c0 52 -16 104 -71 104c-19 0 -36 -8 -48 -14c-36 -19 -68 -46 -94 -76c-17 -20 -36 -43 -36 -79z" />
</svg>
