<?xml version="1.0" standalone="no"?>
<!DOCTYPE svg PUBLIC "-//W3C//DTD SVG 1.1//EN" "http://www.w3.org/Graphics/SVG/1.1/DTD/svg11.dtd" >
<svg xmlns="http://www.w3.org/2000/svg" xmlns:xlink="http://www.w3.org/1999/xlink" version="1.1" viewBox="-742 0 742 1000">
   <path fill="currentColor"
d="M-263 501c0 60 -15 134 -79 134c-25 0 -43 -12 -55 -23c-21 -18 -33 -38 -50 -56c-12 2 -24 3 -36 3c-44 0 -84 -15 -116 -32c-4 3 -8 7 -12 10c49 13 113 29 213 79c16 8 28 24 28 47c0 22 -12 36 -19 42c-18 17 -39 23 -66 28c-18 4 -39 6 -60 6
c-48 0 -87 -10 -110 -44c-9 -13 -14 -29 -14 -45c0 -6 1 -12 2 -17c-37 -10 -70 -18 -88 -53c-5 -10 -7 -21 -7 -31c0 -15 5 -27 10 -37c10 -18 23 -32 38 -45c-13 -12 -20 -20 -21 -21c-8 -9 -13 -21 -13 -34c0 -8 2 -16 6 -24c2 -3 20 -34 55 -66c28 -25 68 -52 122 -58
c2 0 4 -1 6 -1c28 0 50 24 50 51c0 26 -19 46 -44 49c-32 4 -59 23 -78 43c1 1 2 1 3 2c65 -38 145 -72 217 -92c5 -1 9 -2 13 -2c13 0 25 6 34 14c3 3 23 21 42 57c15 28 29 68 29 116z" />
</svg>
