<?xml version="1.0" standalone="no"?>
<!DOCTYPE svg PUBLIC "-//W3C//DTD SVG 1.1//EN" "http://www.w3.org/Graphics/SVG/1.1/DTD/svg11.dtd" >
<svg xmlns="http://www.w3.org/2000/svg" xmlns:xlink="http://www.w3.org/1999/xlink" version="1.1" viewBox="-749 0 749 1000">
   <path fill="currentColor"
d="M-261 542c0 25 -21 50 -49 50c-6 0 -12 -1 -18 -3l-7 30c-5 23 -26 39 -49 39c-24 0 -44 -17 -49 -40l-4 -19l-14 84c-4 24 -25 42 -49 42s-45 -18 -49 -42l-14 -84l-4 19c-5 23 -25 40 -49 40c-23 0 -44 -16 -49 -39l-7 -30c-6 2 -12 3 -18 3c-28 0 -49 -25 -49 -50
c0 -4 0 -7 1 -11l29 -133c5 -23 25 -40 49 -40c16 0 31 8 40 20l13 -63c5 -23 25 -40 49 -40c25 0 45 18 49 42l9 53l9 -53c4 -24 24 -42 49 -42c24 0 44 17 49 40l13 63c9 -12 24 -20 40 -20c24 0 44 17 49 40l29 133c1 4 1 7 1 11z" />
</svg>
