<?xml version="1.0" standalone="no"?>
<!DOCTYPE svg PUBLIC "-//W3C//DTD SVG 1.1//EN" "http://www.w3.org/Graphics/SVG/1.1/DTD/svg11.dtd" >
<svg xmlns="http://www.w3.org/2000/svg" xmlns:xlink="http://www.w3.org/1999/xlink" version="1.1" viewBox="-700 0 700 1000">
   <path fill="currentColor"
d="M-360 680c-28 0 -50 -22 -50 -50v-260c0 -28 22 -50 50 -50s50 22 50 50v260c0 28 -22 50 -50 50zM-640 680c-28 0 -50 -22 -50 -50v-260c0 -28 22 -50 50 -50s50 22 50 50v260c0 28 -22 50 -50 50zM-500 677c-28 0 -50 -22 -50 -50v-254c0 -28 22 -50 50 -50
s50 22 50 50v254c0 28 -22 50 -50 50z" />
</svg>
