<?xml version="1.0" standalone="no"?>
<!DOCTYPE svg PUBLIC "-//W3C//DTD SVG 1.1//EN" "http://www.w3.org/Graphics/SVG/1.1/DTD/svg11.dtd" >
<svg xmlns="http://www.w3.org/2000/svg" xmlns:xlink="http://www.w3.org/1999/xlink" version="1.1" viewBox="-738 0 738 1000">
   <path fill="currentColor"
d="M-580 471c-4 -5 -15 -14 -38 -15c-3 6 -10 22 -10 58c0 72 56 128 128 128s129 -56 129 -128c0 -36 -8 -51 -11 -56c-21 1 -30 2 -38 13c-19 25 -49 40 -80 40s-61 -15 -80 -40zM-577 310c0 -27 23 -50 50 -50c33 0 51 31 63 58c6 14 12 32 14 53c20 -9 45 -13 71 -13
c52 0 108 41 108 156c0 127 -102 228 -229 228s-228 -101 -228 -228c0 -117 56 -158 106 -158c26 0 50 6 70 15c-6 -23 -25 -36 -25 -61z" />
</svg>
