<?xml version="1.0" standalone="no"?>
<!DOCTYPE svg PUBLIC "-//W3C//DTD SVG 1.1//EN" "http://www.w3.org/Graphics/SVG/1.1/DTD/svg11.dtd" >
<svg xmlns="http://www.w3.org/2000/svg" xmlns:xlink="http://www.w3.org/1999/xlink" version="1.1" viewBox="-689 0 689 1000">
   <path fill="currentColor"
d="M-501 266c-34 0 -61 27 -61 62s27 62 61 62s62 -27 62 -62s-28 -62 -62 -62zM-662 328c0 -89 72 -162 161 -162s162 73 162 162s-73 162 -162 162s-161 -73 -161 -162zM-500 10c28 0 50 22 50 50v50c0 28 -22 50 -50 50s-50 -22 -50 -50v-50c0 -28 22 -50 50 -50z
M-679 94c0 -25 20 -51 50 -51c17 0 33 9 42 25l24 43c4 8 6 17 6 25c0 25 -20 52 -50 52c-17 0 -33 -9 -42 -25l-24 -44c-4 -8 -6 -17 -6 -25zM-371 43c30 0 50 26 50 51c0 8 -2 17 -6 25l-24 44c-9 16 -25 25 -42 25c-30 0 -50 -27 -50 -52c0 -8 2 -17 6 -25l24 -43
c9 -16 25 -25 42 -25z" />
</svg>
