<?xml version="1.0" standalone="no"?>
<!DOCTYPE svg PUBLIC "-//W3C//DTD SVG 1.1//EN" "http://www.w3.org/Graphics/SVG/1.1/DTD/svg11.dtd" >
<svg xmlns="http://www.w3.org/2000/svg" xmlns:xlink="http://www.w3.org/1999/xlink" version="1.1" viewBox="-960 0 960 1000">
   <path fill="currentColor"
d="M-200 211c-24 0 -52 2 -74 2c-86 0 -143 -15 -193 -79c-12 -15 -28 -24 -57 -24c-40 0 -84 13 -147 34c-41 14 -90 26 -126 42c-34 15 -46 29 -49 44s-4 27 -4 36c0 31 14 43 44 43c11 0 23 -2 35 -5c48 -12 87 -17 120 -17c37 0 67 7 92 21c39 21 53 50 85 70
c12 7 29 12 56 12c40 0 162 -23 186 -39c4 -57 27 -91 73 -123c3 -2 5 -4 7 -6c-11 -9 -29 -11 -48 -11zM-805 409c-88 0 -145 -55 -145 -145c0 -17 3 -35 7 -55c13 -62 61 -95 105 -115c30 -13 61 -22 92 -31c71 -21 151 -53 223 -53c51 0 99 15 135 62c26 34 62 41 109 41
c25 0 55 -3 85 -3c66 0 144 38 144 112c0 42 -24 69 -52 88c-21 15 -26 24 -27 27c-4 10 -2 13 -4 29c-4 28 -20 51 -41 66c-46 32 -168 58 -244 58c-38 0 -76 -6 -109 -27c-23 -14 -38 -30 -51 -43s-20 -19 -29 -24c-8 -4 -20 -9 -44 -9c-21 0 -51 4 -96 15
c-15 4 -36 7 -58 7z" />
</svg>
