<?xml version="1.0" standalone="no"?>
<!DOCTYPE svg PUBLIC "-//W3C//DTD SVG 1.1//EN" "http://www.w3.org/Graphics/SVG/1.1/DTD/svg11.dtd" >
<svg xmlns="http://www.w3.org/2000/svg" xmlns:xlink="http://www.w3.org/1999/xlink" version="1.1" viewBox="-650 0 650 1000">
   <path fill="currentColor"
d="M-460 400c0 -22 -18 -40 -40 -40s-40 18 -40 40s18 40 40 40s40 -18 40 -40zM-479 690c0 25 -20 50 -50 50c-37 0 -47 -33 -57 -65c-23 -73 -54 -184 -54 -275c0 -77 63 -140 140 -140s140 63 140 140s-63 140 -140 140c-7 0 -13 0 -20 -1c11 48 25 97 38 135
c2 5 3 11 3 16z" />
</svg>
