<?xml version="1.0" standalone="no"?>
<!DOCTYPE svg PUBLIC "-//W3C//DTD SVG 1.1//EN" "http://www.w3.org/Graphics/SVG/1.1/DTD/svg11.dtd" >
<svg xmlns="http://www.w3.org/2000/svg" xmlns:xlink="http://www.w3.org/1999/xlink" version="1.1" viewBox="-698 0 698 1000">
   <path fill="currentColor"
d="M-501 411c12 0 26 -7 37 -21h-75c11 14 26 21 38 21zM-688 597c0 -26 21 -50 50 -50c6 0 12 1 18 3c13 -23 31 -42 53 -55c-54 -29 -87 -91 -87 -155c0 -28 22 -50 50 -50h206c28 0 50 22 50 50c0 62 -31 122 -83 152c48 26 78 81 78 136v36c0 28 -22 50 -50 50
s-50 -22 -50 -50v-36c0 -33 -24 -52 -44 -52s-43 19 -43 52v36c0 26 -20 50 -50 50c-16 0 -31 -8 -41 -21l-48 -67c-6 -9 -9 -19 -9 -29z" />
</svg>
