<?xml version="1.0" standalone="no"?>
<!DOCTYPE svg PUBLIC "-//W3C//DTD SVG 1.1//EN" "http://www.w3.org/Graphics/SVG/1.1/DTD/svg11.dtd" >
<svg xmlns="http://www.w3.org/2000/svg" xmlns:xlink="http://www.w3.org/1999/xlink" version="1.1" viewBox="-779 0 779 1000">
   <path fill="currentColor"
d="M-340 440c0 25 -21 50 -50 50c-17 0 -35 -9 -44 -25l-66 -115l-66 115c-9 16 -27 25 -44 25c-29 0 -50 -25 -50 -50c0 -8 2 -17 7 -25l66 -115h-132c-28 0 -50 -22 -50 -50s22 -50 50 -50h132l-66 -115c-5 -8 -7 -17 -7 -25c0 -25 21 -50 50 -50c17 0 35 9 44 25l66 115
l66 -115c9 -16 27 -25 44 -25c29 0 50 25 50 50c0 8 -2 17 -7 25l-66 115h132c28 0 50 22 50 50s-22 50 -50 50h-132l66 115c5 8 7 17 7 25z" />
</svg>
