<?xml version="1.0" standalone="no"?>
<!DOCTYPE svg PUBLIC "-//W3C//DTD SVG 1.1//EN" "http://www.w3.org/Graphics/SVG/1.1/DTD/svg11.dtd" >
<svg xmlns="http://www.w3.org/2000/svg" xmlns:xlink="http://www.w3.org/1999/xlink" version="1.1" viewBox="-749 0 749 1000">
   <path fill="currentColor"
d="M-540 601c0 33 9 39 41 39h9c-6 -22 -17 -43 -17 -76c0 -35 16 -61 38 -78c8 -7 19 -11 31 -11c28 0 50 22 50 50c0 16 -19 30 -19 39c0 23 20 59 20 91c0 62 -53 85 -113 85c-46 0 -81 -15 -104 -39c-75 -38 -135 -106 -135 -207c0 -62 25 -122 73 -162
c21 -18 49 -31 75 -43c32 -14 60 -25 61 -25c6 -2 11 -3 17 -3c27 0 50 23 50 50c0 22 -14 40 -33 47c-12 4 -89 37 -106 51c-23 19 -37 51 -37 85c0 14 2 27 7 41c7 -29 21 -67 26 -80c28 -70 100 -97 163 -97c33 0 67 7 98 22c13 6 36 16 57 41c16 20 27 47 27 79
c0 34 -10 71 -32 115c-8 16 -25 28 -45 28c-28 0 -50 -22 -50 -50c0 -8 2 -15 5 -22c18 -35 22 -59 22 -71c0 -20 -10 -22 -25 -29c-17 -8 -37 -13 -57 -13c-39 0 -63 17 -70 35c-8 21 -27 74 -27 108z" />
</svg>
