<?xml version="1.0" standalone="no"?>
<!DOCTYPE svg PUBLIC "-//W3C//DTD SVG 1.1//EN" "http://www.w3.org/Graphics/SVG/1.1/DTD/svg11.dtd" >
<svg xmlns="http://www.w3.org/2000/svg" xmlns:xlink="http://www.w3.org/1999/xlink" version="1.1" viewBox="-736 0 736 1000">
   <path fill="currentColor"
d="M-570 598c27 -2 75 -32 127 -32c26 0 44 5 65 7c3 -10 4 -17 4 -20c0 -14 -23 -22 -51 -63c-20 -30 -23 -67 -28 -107c-48 33 -84 29 -124 38c1 11 4 26 4 38c0 20 -5 38 -13 53c-13 25 -29 35 -40 50c16 12 35 19 56 36zM-274 553c0 65 -32 121 -98 121
c-25 0 -50 -8 -71 -8h-7c-39 8 -73 32 -120 32c-21 0 -44 -7 -63 -23c-22 -18 -53 -27 -72 -51c-14 -17 -21 -40 -21 -64c0 -55 45 -81 52 -95c1 -1 1 -2 1 -4c0 -7 -4 -20 -4 -44c0 -42 24 -72 51 -85c40 -19 86 -10 116 -31c21 -15 43 -29 75 -29c45 0 68 36 76 70
c6 25 9 85 17 93c17 25 38 34 55 65c8 15 13 34 13 53z" />
</svg>
