<?xml version="1.0" standalone="no"?>
<!DOCTYPE svg PUBLIC "-//W3C//DTD SVG 1.1//EN" "http://www.w3.org/Graphics/SVG/1.1/DTD/svg11.dtd" >
<svg xmlns="http://www.w3.org/2000/svg" xmlns:xlink="http://www.w3.org/1999/xlink" version="1.1" viewBox="-748 0 748 1000">
   <path fill="currentColor"
d="M-637 486c0 5 -1 9 -1 14c0 77 52 125 100 125s100 -48 100 -125v-14h-199zM-578 386h80c-13 -7 -26 -11 -40 -11s-27 4 -40 11zM-338 486v14c0 117 -83 225 -200 225s-200 -108 -200 -225s83 -225 200 -225c77 0 138 46 172 111h45c28 0 50 22 50 50s-22 50 -50 50h-17z
" />
</svg>
