<?xml version="1.0" standalone="no"?>
<!DOCTYPE svg PUBLIC "-//W3C//DTD SVG 1.1//EN" "http://www.w3.org/Graphics/SVG/1.1/DTD/svg11.dtd" >
<svg xmlns="http://www.w3.org/2000/svg" xmlns:xlink="http://www.w3.org/1999/xlink" version="1.1" viewBox="-724 0 724 1000">
   <path fill="currentColor"
d="M-500 259c28 0 50 22 50 50v101c0 28 -22 50 -50 50s-50 -22 -50 -50v-101c0 -28 22 -50 50 -50zM-681 364c0 -25 20 -50 50 -50c20 0 38 12 46 31l23 56c3 6 4 13 4 19c0 25 -20 50 -50 50c-20 0 -38 -11 -46 -30l-24 -56c-3 -6 -3 -14 -3 -20zM-392 470
c-30 0 -50 -25 -50 -50c0 -6 1 -13 4 -19l23 -55c8 -19 26 -31 46 -31c30 0 50 25 50 50c0 6 -1 13 -4 19l-23 56c-8 19 -26 30 -46 30zM-602 575c18 38 57 64 102 64s84 -26 102 -64h-204zM-714 525c0 -28 22 -50 50 -50h327c28 0 50 22 50 50c0 118 -95 214 -213 214
s-214 -96 -214 -214z" />
</svg>
