<?xml version="1.0" standalone="no"?>
<!DOCTYPE svg PUBLIC "-//W3C//DTD SVG 1.1//EN" "http://www.w3.org/Graphics/SVG/1.1/DTD/svg11.dtd" >
<svg xmlns="http://www.w3.org/2000/svg" xmlns:xlink="http://www.w3.org/1999/xlink" version="1.1" viewBox="-678 0 678 1000">
   <path fill="currentColor"
d="M-476 449c0 -11 9 -20 20 -20s20 9 20 20s-9 20 -20 20s-20 -9 -20 -20zM-520 449c0 -11 9 -20 20 -20s20 9 20 20s-9 20 -20 20s-20 -9 -20 -20zM-564 449c0 -11 9 -20 20 -20s20 9 20 20s-9 20 -20 20s-20 -9 -20 -20zM-568 403v91h14c35 0 67 9 86 27c3 1 14 3 24 3
c4 0 8 -1 12 -1v-120h-136zM-450 624v24c0 28 -22 50 -50 50s-50 -22 -50 -50v-54h-6c-4 0 -8 1 -12 1v53c0 28 -22 50 -50 50s-50 -22 -50 -50v-295c0 -28 22 -50 50 -50h236c28 0 50 22 50 50v295c0 28 -22 50 -50 50s-50 -22 -50 -50v-24h-14h-4z" />
</svg>
