<?xml version="1.0" standalone="no"?>
<!DOCTYPE svg PUBLIC "-//W3C//DTD SVG 1.1//EN" "http://www.w3.org/Graphics/SVG/1.1/DTD/svg11.dtd" >
<svg xmlns="http://www.w3.org/2000/svg" xmlns:xlink="http://www.w3.org/1999/xlink" version="1.1" viewBox="-750 0 750 1000">
   <path fill="currentColor"
d="M-400 460c-22 0 -40 18 -40 40s18 40 40 40s40 -18 40 -40s-18 -40 -40 -40zM-740 529c0 -30 25 -50 50 -50c18 0 27 7 44 12c26 8 73 21 107 29c-1 -7 -1 -13 -1 -20c0 -77 63 -140 140 -140s140 63 140 140s-63 140 -140 140c-104 0 -225 -36 -306 -64
c-21 -7 -34 -26 -34 -47z" />
</svg>
