<?xml version="1.0" standalone="no"?>
<!DOCTYPE svg PUBLIC "-//W3C//DTD SVG 1.1//EN" "http://www.w3.org/Graphics/SVG/1.1/DTD/svg11.dtd" >
<svg xmlns="http://www.w3.org/2000/svg" xmlns:xlink="http://www.w3.org/1999/xlink" version="1.1" viewBox="-726 0 726 1000">
   <path fill="currentColor"
d="M-500 621c-5 0 -9 5 -9 10s4 9 9 9s10 -4 10 -9s-5 -10 -10 -10zM-616 441c0 34 40 80 116 80s116 -46 116 -80s-40 -81 -116 -81s-116 47 -116 81zM-395 599c3 10 5 21 5 32c0 60 -50 109 -110 109s-109 -49 -109 -109c0 -11 2 -22 5 -32c-64 -29 -112 -85 -112 -158
c0 -110 108 -181 216 -181s216 71 216 181c0 73 -47 129 -111 158z" />
</svg>
