<?xml version="1.0" standalone="no"?>
<!DOCTYPE svg PUBLIC "-//W3C//DTD SVG 1.1//EN" "http://www.w3.org/Graphics/SVG/1.1/DTD/svg11.dtd" >
<svg xmlns="http://www.w3.org/2000/svg" xmlns:xlink="http://www.w3.org/1999/xlink" version="1.1" viewBox="-873 0 873 1000">
   <path fill="currentColor"
d="M-425 415c0 41 -34 75 -75 75s-75 -34 -75 -75s34 -75 75 -75s75 34 75 75zM-813 227c-27 0 -50 -23 -50 -50c0 -13 5 -25 15 -35l117 -117c10 -10 22 -15 35 -15s26 5 36 15l117 117c10 10 15 22 15 35c0 27 -23 50 -50 50c-13 0 -25 -5 -35 -15l-83 -81l-82 81
c-10 10 -22 15 -35 15zM-422 227c-27 0 -50 -23 -50 -50c0 -13 5 -25 15 -35l117 -117c10 -10 23 -15 36 -15s25 5 35 15l117 117c10 10 15 22 15 35c0 27 -23 50 -50 50c-13 0 -25 -5 -35 -15l-82 -81l-83 81c-10 10 -22 15 -35 15z" />
</svg>
