<?xml version="1.0" standalone="no"?>
<!DOCTYPE svg PUBLIC "-//W3C//DTD SVG 1.1//EN" "http://www.w3.org/Graphics/SVG/1.1/DTD/svg11.dtd" >
<svg xmlns="http://www.w3.org/2000/svg" xmlns:xlink="http://www.w3.org/1999/xlink" version="1.1" viewBox="-740 0 740 1000">
   <path fill="currentColor"
d="M-500 297c6 0 12 -2 12 -7c0 -11 9 -20 20 -20s20 9 20 20c0 29 -26 47 -52 47s-52 -18 -52 -47c0 -11 9 -20 20 -20s20 9 20 20c0 5 6 7 12 7zM-400 286c0 55 -45 99 -100 99s-100 -44 -100 -99s45 -100 100 -100s100 45 100 100zM-500 345c33 0 60 -26 60 -59
s-27 -60 -60 -60s-60 27 -60 60s27 59 60 59zM-566 145l20 19c4 4 6 9 6 14c0 11 -9 21 -20 21c-5 0 -10 -2 -14 -6l-20 -20c-4 -4 -6 -9 -6 -14c0 -11 10 -20 21 -20c5 0 9 2 13 6zM-426 193c-4 4 -8 6 -13 6c-11 0 -21 -10 -21 -21c0 -5 2 -10 6 -14l20 -19
c4 -4 8 -6 13 -6c11 0 21 9 21 20c0 5 -2 10 -6 14zM-479 138v24c0 13 -10 19 -20 19s-20 -6 -20 -19v-24c0 -13 10 -19 20 -19s20 6 20 19zM-680 10h360c28 0 50 22 50 50v380c0 28 -22 50 -50 50h-360c-28 0 -50 -22 -50 -50v-380c0 -28 22 -50 50 -50zM-630 390h260v-280
h-260v280z" />
</svg>
