<?xml version="1.0" standalone="no"?>
<!DOCTYPE svg PUBLIC "-//W3C//DTD SVG 1.1//EN" "http://www.w3.org/Graphics/SVG/1.1/DTD/svg11.dtd" >
<svg xmlns="http://www.w3.org/2000/svg" xmlns:xlink="http://www.w3.org/1999/xlink" version="1.1" viewBox="-772 0 772 1000">
   <path fill="currentColor"
d="M-530 431c-22 36 -62 60 -107 60c-69 0 -125 -56 -125 -125s56 -125 125 -125h9l23 -39c-12 -19 -20 -42 -20 -67c0 -69 56 -125 125 -125s125 56 125 125c0 25 -8 48 -20 67l23 39h9c69 0 125 56 125 125s-56 125 -125 125c-45 0 -85 -24 -107 -60h-60zM-475 135
c0 -14 -11 -25 -25 -25s-25 11 -25 25s11 25 25 25s25 -11 25 -25zM-478 258c-7 1 -15 2 -22 2s-15 -1 -22 -2l-17 30c10 13 17 27 22 43h34c5 -16 12 -30 22 -43zM-363 391c14 0 25 -11 25 -25s-11 -25 -25 -25s-25 11 -25 25s11 25 25 25zM-612 366c0 -14 -11 -25 -25 -25
s-25 11 -25 25s11 25 25 25s25 -11 25 -25z" />
</svg>
