<?xml version="1.0" standalone="no"?>
<!DOCTYPE svg PUBLIC "-//W3C//DTD SVG 1.1//EN" "http://www.w3.org/Graphics/SVG/1.1/DTD/svg11.dtd" >
<svg xmlns="http://www.w3.org/2000/svg" xmlns:xlink="http://www.w3.org/1999/xlink" version="1.1" viewBox="-680 0 680 1000">
   <path fill="currentColor"
d="M-330 179c0 27 -23 50 -50 50c-13 0 -25 -5 -35 -15l-35 -34v260c0 28 -22 50 -50 50s-50 -22 -50 -50v-260l-35 34c-10 10 -22 15 -35 15c-27 0 -50 -23 -50 -50c0 -13 5 -26 15 -36l120 -119c8 -8 20 -14 35 -14s27 6 35 14l120 119c10 10 15 23 15 36z" />
</svg>
