<?xml version="1.0" standalone="no"?>
<!DOCTYPE svg PUBLIC "-//W3C//DTD SVG 1.1//EN" "http://www.w3.org/Graphics/SVG/1.1/DTD/svg11.dtd" >
<svg xmlns="http://www.w3.org/2000/svg" xmlns:xlink="http://www.w3.org/1999/xlink" version="1.1" viewBox="-694 0 694 1000">
   <path fill="currentColor"
d="M-634 434c-27 0 -50 -23 -50 -50c0 -13 4 -25 14 -35l184 -184h-49c-28 0 -49 -23 -49 -50c0 -28 22 -50 50 -50l169 1c29 0 49 21 49 50l1 168c0 28 -22 50 -50 50c-27 0 -50 -21 -50 -49v-49l-184 184c-10 10 -22 14 -35 14z" />
</svg>
