<?xml version="1.0" standalone="no"?>
<!DOCTYPE svg PUBLIC "-//W3C//DTD SVG 1.1//EN" "http://www.w3.org/Graphics/SVG/1.1/DTD/svg11.dtd" >
<svg xmlns="http://www.w3.org/2000/svg" xmlns:xlink="http://www.w3.org/1999/xlink" version="1.1" viewBox="-811 0 811 1000">
   <path fill="currentColor"
d="M-511 295c28 0 50 22 50 50v95c0 28 -22 50 -50 50s-50 -22 -50 -50v-95c0 -28 22 -50 50 -50zM-751 295c28 0 50 22 50 50v95c0 28 -22 50 -50 50s-50 -22 -50 -50v-95c0 -28 22 -50 50 -50zM-631 295c28 0 50 22 50 50v95c0 28 -22 50 -50 50s-50 -22 -50 -50v-95
c0 -28 22 -50 50 -50zM-322 203c0 28 -22 50 -50 50s-50 -22 -50 -50s22 -50 50 -50s50 22 50 50zM-441 203c0 28 -22 50 -50 50s-50 -22 -50 -50s22 -50 50 -50s50 22 50 50zM-721 10h330c106 0 192 86 192 192c0 89 -60 164 -142 186v52c0 28 -22 50 -50 50
s-50 -22 -50 -50v-95c0 -28 22 -50 50 -50c51 0 92 -42 92 -93s-41 -92 -92 -92h-330c-28 0 -50 -22 -50 -50s22 -50 50 -50z" />
</svg>
