<?xml version="1.0" standalone="no"?>
<!DOCTYPE svg PUBLIC "-//W3C//DTD SVG 1.1//EN" "http://www.w3.org/Graphics/SVG/1.1/DTD/svg11.dtd" >
<svg xmlns="http://www.w3.org/2000/svg" xmlns:xlink="http://www.w3.org/1999/xlink" version="1.1" viewBox="-645 0 645 1000">
   <path fill="currentColor"
d="M-500 320c-19 0 -35 16 -35 35v85c0 28 -22 50 -50 50s-50 -22 -50 -50v-85c0 -75 60 -135 135 -135s135 60 135 135v85c0 28 -22 50 -50 50s-50 -22 -50 -50v-85c0 -19 -16 -35 -35 -35zM-500 10c28 0 50 22 50 50v100c0 28 -22 50 -50 50s-50 -22 -50 -50v-100
c0 -28 22 -50 50 -50z" />
</svg>
