<?xml version="1.0" standalone="no"?>
<!DOCTYPE svg PUBLIC "-//W3C//DTD SVG 1.1//EN" "http://www.w3.org/Graphics/SVG/1.1/DTD/svg11.dtd" >
<svg xmlns="http://www.w3.org/2000/svg" xmlns:xlink="http://www.w3.org/1999/xlink" version="1.1" viewBox="-671 0 671 1000">
   <path fill="currentColor"
d="M-339 346c0 11 -3 21 -9 29l-90 125l90 125c6 8 9 18 9 29c0 28 -22 50 -50 50h-222c-28 0 -50 -22 -50 -50c0 -11 3 -21 9 -29l90 -125l-90 -125c-6 -8 -9 -18 -9 -29c0 -28 22 -50 50 -50h222c28 0 50 22 50 50zM-487 396h-26l13 18zM-513 604h26l-13 -18z" />
</svg>
