<?xml version="1.0" standalone="no"?>
<!DOCTYPE svg PUBLIC "-//W3C//DTD SVG 1.1//EN" "http://www.w3.org/Graphics/SVG/1.1/DTD/svg11.dtd" >
<svg xmlns="http://www.w3.org/2000/svg" xmlns:xlink="http://www.w3.org/1999/xlink" version="1.1" viewBox="-750 0 750 1000">
   <path fill="currentColor"
d="M-601 342c-27 0 -39 8 -39 35c0 13 0 13 13 13c25 0 31 -7 43 -48h-17zM-416 158c56 0 56 -20 56 -35c0 -13 0 -13 -13 -13c-19 0 -30 3 -44 48h1zM-549 237c-141 -47 -191 -149 -191 -177c0 -25 20 -50 50 -50c19 0 37 11 46 30c4 8 37 73 127 103
c19 -58 43 -133 144 -133c28 0 113 8 113 113c0 64 -37 135 -156 135c-12 0 -23 0 -34 -1l-1 5c146 44 191 148 191 178c0 25 -20 50 -50 50c-22 0 -42 -15 -48 -37c-2 -8 -25 -68 -125 -96c-20 60 -43 133 -144 133c-28 0 -113 -8 -113 -113c0 -79 52 -135 139 -135
c18 0 34 1 50 2z" />
</svg>
