<?xml version="1.0" standalone="no"?>
<!DOCTYPE svg PUBLIC "-//W3C//DTD SVG 1.1//EN" "http://www.w3.org/Graphics/SVG/1.1/DTD/svg11.dtd" >
<svg xmlns="http://www.w3.org/2000/svg" xmlns:xlink="http://www.w3.org/1999/xlink" version="1.1" viewBox="-950 0 950 1000">
   <path fill="currentColor"
d="M-810 342c-13 4 -30 13 -30 25c0 13 11 18 30 21v-46zM-686 338h-24v52h24v-52zM-517 319c53 0 69 83 69 102c0 39 -30 69 -69 69h-267c-116 0 -156 -68 -156 -123c0 -82 77 -128 156 -128c26 0 70 -1 102 -1c24 -144 149 -228 323 -228c49 0 64 40 78 73
c28 20 69 42 98 63c15 11 33 24 33 53c0 31 -24 53 -78 102v139c0 28 -22 50 -50 50s-50 -22 -50 -50v-162c0 -22 15 -35 29 -48c7 -6 17 -15 26 -24c-90 -55 -91 -55 -105 -96c-54 2 -208 22 -208 177v103h24c-3 -7 -5 -14 -5 -21c0 -25 21 -50 50 -50zM-370 274
c-28 0 -50 -22 -50 -50s22 -50 50 -50s50 22 50 50s-22 50 -50 50zM-430 224c0 28 -22 50 -50 50s-50 -22 -50 -50s22 -50 50 -50s50 22 50 50zM-337 373v67c0 28 -22 50 -50 50s-50 -22 -50 -50v-67c0 -28 22 -50 50 -50s50 22 50 50z" />
</svg>
