<?xml version="1.0" standalone="no"?>
<!DOCTYPE svg PUBLIC "-//W3C//DTD SVG 1.1//EN" "http://www.w3.org/Graphics/SVG/1.1/DTD/svg11.dtd" >
<svg xmlns="http://www.w3.org/2000/svg" xmlns:xlink="http://www.w3.org/1999/xlink" version="1.1" viewBox="-714 0 714 1000">
   <path fill="currentColor"
d="M-546 414h-29v20h29v-20zM-446 434h29v-20h-29v20zM-704 607c0 -27 24 -50 50 -50c9 0 18 3 26 8c9 -12 21 -23 34 -31h-31c-28 0 -50 -22 -50 -50v-120c0 -28 22 -50 50 -50h258c28 0 50 22 50 50v120c0 28 -22 50 -50 50h-30c30 20 56 53 56 96v26c0 28 -22 50 -50 50
s-50 -22 -50 -50v-26c0 -4 -4 -7 -9 -11c-9 -7 -26 -13 -46 -13c-25 0 -45 8 -53 21c-1 2 -1 3 -1 3v26c0 26 -20 50 -50 50c-12 0 -25 -4 -34 -13l-53 -49c-11 -10 -17 -23 -17 -37z" />
</svg>
