<?xml version="1.0" standalone="no"?>
<!DOCTYPE svg PUBLIC "-//W3C//DTD SVG 1.1//EN" "http://www.w3.org/Graphics/SVG/1.1/DTD/svg11.dtd" >
<svg xmlns="http://www.w3.org/2000/svg" xmlns:xlink="http://www.w3.org/1999/xlink" version="1.1" viewBox="-716 0 716 1000">
   <path fill="currentColor"
d="M-405 306c63 0 112 62 112 117c0 47 -29 80 -47 105c14 18 27 41 27 72c0 51 -41 85 -82 101c-18 7 -36 11 -54 11c-20 0 -38 -6 -52 -15c-20 -13 -28 -25 -37 -35c-20 10 -38 27 -71 27c-57 0 -97 -54 -97 -101c0 -34 18 -66 49 -86c2 -1 4 -3 6 -4
c-9 -11 -24 -31 -31 -58c-3 -11 -4 -22 -4 -33c0 -67 54 -101 116 -101c34 0 65 8 89 21c21 -6 45 -21 76 -21zM-482 428c-34 0 -52 -22 -89 -22c-6 0 -11 1 -15 2c1 13 3 15 15 30c11 14 27 34 27 63c0 33 -21 57 -41 72c13 -7 28 -13 49 -13c28 0 51 14 64 26
c9 9 17 20 23 26c7 0 31 -11 35 -14c-3 -7 -7 -12 -14 -18c-11 -10 -20 -27 -20 -47c0 -19 7 -32 12 -41c12 -20 30 -40 39 -58c3 -6 4 -10 4 -11c0 0 -2 -9 -12 -17c-20 4 -48 22 -77 22zM-406 406v0z" />
</svg>
