<?xml version="1.0" standalone="no"?>
<!DOCTYPE svg PUBLIC "-//W3C//DTD SVG 1.1//EN" "http://www.w3.org/Graphics/SVG/1.1/DTD/svg11.dtd" >
<svg xmlns="http://www.w3.org/2000/svg" xmlns:xlink="http://www.w3.org/1999/xlink" version="1.1" viewBox="-724 0 724 1000">
   <path fill="currentColor"
d="M-357 617c0 49 -36 79 -83 79c-40 0 -78 -18 -99 -38c-17 13 -39 29 -71 29c-20 0 -41 -8 -57 -21c-26 -21 -47 -50 -47 -92c0 -29 10 -53 22 -71c6 -10 15 -21 17 -31c-9 -18 -12 -35 -12 -53c0 -61 37 -115 99 -115c43 0 69 24 92 41c32 -8 65 -27 109 -27
c56 0 97 42 97 96c0 24 -8 41 -13 51c9 8 27 27 27 57c0 38 -26 61 -52 72c-12 5 -20 6 -30 9c1 5 1 10 1 14zM-459 592c1 -43 33 -69 63 -81c-6 -10 -11 -24 -11 -40c0 -23 9 -38 15 -53c-38 4 -63 28 -109 28c-42 0 -57 -29 -83 -41c-1 3 -3 9 -3 14c0 4 1 7 1 7
c8 15 11 30 11 45c0 37 -20 66 -33 86c-5 7 -6 14 -6 17c0 5 2 7 6 11c22 -13 38 -37 74 -37c29 0 47 18 58 32c9 11 7 9 17 12z" />
</svg>
