<?xml version="1.0" standalone="no"?>
<!DOCTYPE svg PUBLIC "-//W3C//DTD SVG 1.1//EN" "http://www.w3.org/Graphics/SVG/1.1/DTD/svg11.dtd" >
<svg xmlns="http://www.w3.org/2000/svg" xmlns:xlink="http://www.w3.org/1999/xlink" version="1.1" viewBox="-740 0 740 1000">
   <path fill="currentColor"
d="M-630 312c28 0 50 25 50 51c0 11 -4 21 -11 30c-19 25 -39 62 -39 114c0 32 6 57 15 72c7 12 18 18 35 18c12 0 28 -15 30 -27c2 -26 22 -46 50 -46s48 20 50 46c2 12 18 27 30 27c17 0 28 -6 35 -18c9 -15 15 -40 15 -72c0 -52 -20 -89 -39 -114c-7 -9 -11 -19 -11 -30
c0 -26 22 -51 50 -51c15 0 30 7 40 20c28 37 60 95 60 175c0 99 -48 190 -150 190c-29 0 -58 -11 -80 -29c-22 18 -51 29 -80 29c-102 0 -150 -91 -150 -190c0 -80 32 -138 60 -175c10 -13 25 -20 40 -20z" />
</svg>
