<?xml version="1.0" standalone="no"?>
<!DOCTYPE svg PUBLIC "-//W3C//DTD SVG 1.1//EN" "http://www.w3.org/Graphics/SVG/1.1/DTD/svg11.dtd" >
<svg xmlns="http://www.w3.org/2000/svg" xmlns:xlink="http://www.w3.org/1999/xlink" version="1.1" viewBox="-738 0 738 1000">
   <path fill="currentColor"
d="M-578 60c0 -26 22 -50 49 -50c16 0 32 7 42 20c18 22 32 52 36 91c20 -9 46 -13 72 -13c52 0 107 41 107 156c0 127 -101 228 -228 228s-228 -101 -228 -228c0 -117 55 -158 105 -158c26 0 51 6 71 15c-6 -23 -26 -36 -26 -61zM-580 221c-4 -5 -15 -14 -38 -15
c-3 6 -10 22 -10 58c0 72 56 128 128 128s128 -56 128 -128c0 -36 -7 -51 -10 -56c-21 1 -30 2 -38 13c-20 26 -50 40 -80 40s-60 -14 -80 -40z" />
</svg>
