<?xml version="1.0" standalone="no"?>
<!DOCTYPE svg PUBLIC "-//W3C//DTD SVG 1.1//EN" "http://www.w3.org/Graphics/SVG/1.1/DTD/svg11.dtd" >
<svg xmlns="http://www.w3.org/2000/svg" xmlns:xlink="http://www.w3.org/1999/xlink" version="1.1" viewBox="-720 0 720 1000">
   <path fill="currentColor"
d="M-641 416c-28 0 -50 -22 -50 -50s22 -50 50 -50s50 22 50 50s-22 50 -50 50zM-309 366c0 28 -22 50 -50 50s-50 -22 -50 -50s22 -50 50 -50s50 22 50 50zM-511 519v14h20v-14h-20zM-501 306c50 0 78 41 92 76c5 12 8 24 11 37h56c28 0 50 22 50 50s-22 50 -50 50h-49v14
h49c28 0 50 22 50 50s-22 50 -50 50h-56c-8 34 -19 62 -41 85c-14 15 -35 28 -62 28c-50 0 -78 -41 -92 -76c-5 -12 -8 -24 -11 -37h-56c-28 0 -50 -22 -50 -50s22 -50 50 -50h49v-14h-49c-28 0 -50 -22 -50 -50s22 -50 50 -50h56c8 -34 19 -62 41 -85c14 -15 35 -28 62 -28
z" />
</svg>
