<?xml version="1.0" standalone="no"?>
<!DOCTYPE svg PUBLIC "-//W3C//DTD SVG 1.1//EN" "http://www.w3.org/Graphics/SVG/1.1/DTD/svg11.dtd" >
<svg xmlns="http://www.w3.org/2000/svg" xmlns:xlink="http://www.w3.org/1999/xlink" version="1.1" viewBox="-743 0 743 1000">
   <path fill="currentColor"
d="M-592 420c-23 0 -41 18 -41 41c0 8 5 24 20 47c27 40 77 88 113 118c35 -30 87 -78 113 -118c15 -23 20 -39 20 -47c0 -23 -18 -41 -41 -41c-16 0 -37 16 -43 30c-5 23 -26 39 -49 39s-44 -16 -49 -39c-6 -14 -27 -30 -43 -30zM-500 740c-16 0 -28 -9 -39 -17
c-53 -41 -116 -99 -157 -160c-19 -28 -37 -64 -37 -102c0 -78 63 -141 141 -141c38 0 70 16 92 34c22 -18 54 -34 92 -34c78 0 141 63 141 141c0 38 -18 74 -37 102c-43 64 -109 124 -166 167c-9 7 -19 10 -30 10z" />
</svg>
