<?xml version="1.0" standalone="no"?>
<!DOCTYPE svg PUBLIC "-//W3C//DTD SVG 1.1//EN" "http://www.w3.org/Graphics/SVG/1.1/DTD/svg11.dtd" >
<svg xmlns="http://www.w3.org/2000/svg" xmlns:xlink="http://www.w3.org/1999/xlink" version="1.1" viewBox="-725 0 725 1000">
   <path fill="currentColor"
d="M-715 591c0 -28 24 -50 50 -50c11 0 23 4 32 12c14 12 28 19 44 23l97 -273c7 -20 25 -33 47 -33c20 0 38 12 46 31l110 271c2 6 4 13 4 19c0 19 -11 34 -23 44c-30 27 -72 45 -137 45c-28 0 -50 -22 -50 -50s22 -50 50 -50c22 0 37 -4 48 -8l-45 -111l-66 186
c-7 20 -26 33 -47 33c-55 0 -101 -15 -142 -50c-12 -10 -18 -25 -18 -39z" />
</svg>
