<?xml version="1.0" standalone="no"?>
<!DOCTYPE svg PUBLIC "-//W3C//DTD SVG 1.1//EN" "http://www.w3.org/Graphics/SVG/1.1/DTD/svg11.dtd" >
<svg xmlns="http://www.w3.org/2000/svg" xmlns:xlink="http://www.w3.org/1999/xlink" version="1.1" viewBox="-753 0 753 1000">
   <path fill="currentColor"
d="M-568 491c-68 0 -134 -57 -134 -135c0 -10 2 -20 4 -30c-28 -26 -45 -62 -45 -101c0 -77 58 -128 120 -134c20 -48 68 -81 123 -81s103 33 123 81c62 6 120 57 120 134c0 39 -16 75 -45 101c2 10 3 20 3 30c0 81 -67 135 -133 135c-24 0 -47 -7 -68 -19
c-21 12 -44 19 -68 19zM-398 357c0 -21 -16 -25 -16 -51c0 -21 12 -41 34 -48c14 -5 23 -17 23 -32c0 -21 -17 -35 -34 -35c-9 0 -17 4 -26 4c-25 0 -49 -19 -49 -50c0 -20 -16 -35 -34 -35s-33 13 -34 32v3c0 31 -25 50 -50 50c-9 0 -16 -4 -25 -4c-17 0 -34 14 -34 35
c0 15 9 27 23 32c22 7 34 28 34 49c0 27 -16 29 -16 49c0 18 15 34 34 34c31 0 30 -35 68 -35s37 35 68 35c19 0 34 -16 34 -33z" />
</svg>
