<?xml version="1.0" standalone="no"?>
<!DOCTYPE svg PUBLIC "-//W3C//DTD SVG 1.1//EN" "http://www.w3.org/Graphics/SVG/1.1/DTD/svg11.dtd" >
<svg xmlns="http://www.w3.org/2000/svg" xmlns:xlink="http://www.w3.org/1999/xlink" version="1.1" viewBox="-689 0 689 1000">
   <path fill="currentColor"
d="M-664 250c0 -28 22 -50 50 -50h228c28 0 50 22 50 50v190c0 28 -22 50 -50 50h-228c-28 0 -50 -22 -50 -50v-190zM-564 300v90h128v-90h-128zM-499 10c28 0 50 22 50 50v50c0 28 -22 50 -50 50s-50 -22 -50 -50v-50c0 -28 22 -50 50 -50zM-679 94c0 -25 20 -51 50 -51
c17 0 33 9 42 25l24 43c4 8 7 17 7 25c0 25 -21 51 -51 51c-17 0 -33 -9 -42 -25l-24 -43c-4 -8 -6 -17 -6 -25zM-369 43c30 0 50 26 50 51c0 8 -3 17 -7 25l-24 43c-9 16 -25 25 -42 25c-30 0 -50 -26 -50 -51c0 -8 2 -17 6 -25l25 -43c9 -16 25 -25 42 -25z" />
</svg>
