<?xml version="1.0" standalone="no"?>
<!DOCTYPE svg PUBLIC "-//W3C//DTD SVG 1.1//EN" "http://www.w3.org/Graphics/SVG/1.1/DTD/svg11.dtd" >
<svg xmlns="http://www.w3.org/2000/svg" xmlns:xlink="http://www.w3.org/1999/xlink" version="1.1" viewBox="-777 0 777 1000">
   <path fill="currentColor"
d="M-500 54c25 -23 62 -44 108 -44c88 0 159 71 159 159c0 42 -20 83 -42 116c-50 76 -128 144 -195 195c-10 7 -19 10 -28 10c-27 0 -51 -25 -68 -39c-51 -43 -119 -105 -159 -166c-22 -33 -42 -74 -42 -116c0 -88 71 -159 159 -159c46 0 83 21 108 44zM-608 110
c-32 0 -59 27 -59 59c0 12 7 32 26 60c33 50 97 111 141 147c44 -36 108 -97 141 -147c19 -28 26 -48 26 -60c0 -32 -27 -59 -59 -59c-22 0 -44 18 -55 34c-3 5 -4 8 -4 8c-5 23 -25 39 -49 39s-44 -16 -49 -39c0 0 -1 -3 -4 -8c-11 -16 -33 -34 -55 -34z" />
</svg>
