<?xml version="1.0" standalone="no"?>
<!DOCTYPE svg PUBLIC "-//W3C//DTD SVG 1.1//EN" "http://www.w3.org/Graphics/SVG/1.1/DTD/svg11.dtd" >
<svg xmlns="http://www.w3.org/2000/svg" xmlns:xlink="http://www.w3.org/1999/xlink" version="1.1" viewBox="-680 0 680 1000">
   <path fill="currentColor"
d="M-380 479c-14 0 -26 -6 -35 -15l-35 -34v260c0 28 -22 50 -50 50s-50 -22 -50 -50v-260l-35 34c-9 9 -21 15 -35 15c-28 0 -50 -22 -50 -50c0 -14 6 -27 15 -36l120 -118c9 -9 21 -15 35 -15s26 6 35 15l120 118c9 9 15 22 15 36c0 28 -22 50 -50 50z" />
</svg>
