<?xml version="1.0" standalone="no"?>
<!DOCTYPE svg PUBLIC "-//W3C//DTD SVG 1.1//EN" "http://www.w3.org/Graphics/SVG/1.1/DTD/svg11.dtd" >
<svg xmlns="http://www.w3.org/2000/svg" xmlns:xlink="http://www.w3.org/1999/xlink" version="1.1" viewBox="-710 0 710 1000">
   <path fill="currentColor"
d="M-650 674c-25 0 -50 -20 -50 -50c0 -19 11 -37 29 -45l150 -70c7 -3 14 -5 21 -5s14 2 21 5l150 70c18 8 29 26 29 45c0 30 -25 50 -50 50c-7 0 -14 -2 -21 -5l-129 -60l-129 60c-7 3 -14 5 -21 5zM-350 326c25 0 50 20 50 50c0 19 -11 37 -29 45l-150 70
c-7 3 -14 5 -21 5s-14 -2 -21 -5l-150 -70c-18 -8 -29 -26 -29 -45c0 -30 25 -50 50 -50c7 0 14 2 21 5l129 60l129 -60c7 -3 14 -5 21 -5z" />
</svg>
