<?xml version="1.0" standalone="no"?>
<!DOCTYPE svg PUBLIC "-//W3C//DTD SVG 1.1//EN" "http://www.w3.org/Graphics/SVG/1.1/DTD/svg11.dtd" >
<svg xmlns="http://www.w3.org/2000/svg" xmlns:xlink="http://www.w3.org/1999/xlink" version="1.1" viewBox="-760 0 760 1000">
   <path fill="currentColor"
d="M-500 485c-28 0 -50 -22 -50 -50v-370c0 -28 22 -50 50 -50s50 22 50 50v370c0 28 -22 50 -50 50zM-700 490c-28 0 -50 -22 -50 -50v-380c0 -28 22 -50 50 -50s50 22 50 50v380c0 28 -22 50 -50 50zM-300 490c-28 0 -50 -22 -50 -50v-380c0 -28 22 -50 50 -50
s50 22 50 50v380c0 28 -22 50 -50 50z" />
</svg>
