<?xml version="1.0" standalone="no"?>
<!DOCTYPE svg PUBLIC "-//W3C//DTD SVG 1.1//EN" "http://www.w3.org/Graphics/SVG/1.1/DTD/svg11.dtd" >
<svg xmlns="http://www.w3.org/2000/svg" xmlns:xlink="http://www.w3.org/1999/xlink" version="1.1" viewBox="-680 0 680 1000">
   <path fill="currentColor"
d="M-500 740c-28 0 -50 -22 -50 -50s22 -50 50 -50s50 22 50 50s-22 50 -50 50zM-500 260c89 0 170 41 170 127c0 61 -46 89 -81 114c-29 21 -39 33 -39 55v24c0 28 -22 50 -50 50s-50 -22 -50 -50v-24c0 -81 55 -118 90 -143c12 -8 20 -14 26 -20c3 -3 4 -4 4 -6
c0 -6 -2 -9 -9 -14c-10 -6 -29 -13 -61 -13s-52 6 -61 12c-7 5 -9 9 -9 15v1c4 7 6 15 6 23c0 25 -20 50 -50 50c-36 0 -56 -37 -56 -74c0 -86 81 -127 170 -127z" />
</svg>
