<?xml version="1.0" standalone="no"?>
<!DOCTYPE svg PUBLIC "-//W3C//DTD SVG 1.1//EN" "http://www.w3.org/Graphics/SVG/1.1/DTD/svg11.dtd" >
<svg xmlns="http://www.w3.org/2000/svg" xmlns:xlink="http://www.w3.org/1999/xlink" version="1.1" viewBox="-685 0 685 1000">
   <path fill="currentColor"
d="M-474 463c18 2 34 17 34 37c0 3 -1 7 -2 10l-23 86h40v-192h-33zM-527 537c-18 -2 -34 -17 -34 -37c0 -3 1 -7 2 -10l23 -86h-39v192h32zM-625 304h250c28 0 50 22 50 50v292c0 28 -22 50 -50 50h-250c-28 0 -50 -22 -50 -50v-292c0 -28 22 -50 50 -50z" />
</svg>
