<?xml version="1.0" standalone="no"?>
<!DOCTYPE svg PUBLIC "-//W3C//DTD SVG 1.1//EN" "http://www.w3.org/Graphics/SVG/1.1/DTD/svg11.dtd" >
<svg xmlns="http://www.w3.org/2000/svg" xmlns:xlink="http://www.w3.org/1999/xlink" version="1.1" viewBox="-935 0 935 1000">
   <path fill="currentColor"
d="M-318 208c0 24 -17 41 -27 47c27 6 56 12 83 20c31 -23 56 -46 78 -72c-43 -18 -79 -24 -156 -38c11 9 22 24 22 43zM-480 276c-40 2 -84 2 -119 7c22 29 73 60 131 73c6 1 12 2 19 2c16 0 34 -4 56 -11c-17 -3 -33 -6 -47 -8c-25 -4 -42 -25 -42 -49c0 -5 1 -9 2 -14z
M-705 265c4 -38 28 -59 56 -71c-79 -15 -134 -28 -171 -40c-22 -7 -42 -15 -56 -25c-11 -8 -30 -26 -30 -51c0 -29 24 -48 40 -55c27 -11 63 -13 101 -13c28 0 59 1 87 5c277 35 425 61 501 84c48 15 102 38 102 94c0 34 -15 53 -30 71c-13 16 -31 35 -48 50
c20 10 38 21 53 38c11 12 21 30 21 53c0 28 -22 50 -50 50c-24 0 -44 -16 -49 -39c-16 -14 -37 -22 -67 -32c-34 22 -72 42 -110 56c-30 11 -62 18 -94 18c-45 0 -80 -13 -117 -27c1 3 1 7 1 10c0 28 -23 49 -50 49c-130 0 -212 -20 -256 -51c-37 -26 -54 -62 -54 -114
c0 -23 6 -48 25 -68c20 -21 44 -25 67 -25c40 0 89 18 128 33zM-673 388c-42 -18 -111 -51 -152 -56c0 15 -1 16 11 24c16 11 54 26 141 32z" />
</svg>
