<?xml version="1.0" standalone="no"?>
<!DOCTYPE svg PUBLIC "-//W3C//DTD SVG 1.1//EN" "http://www.w3.org/Graphics/SVG/1.1/DTD/svg11.dtd" >
<svg xmlns="http://www.w3.org/2000/svg" xmlns:xlink="http://www.w3.org/1999/xlink" version="1.1" viewBox="-750 0 750 1000">
   <path fill="currentColor"
d="M-571 80c27 0 50 23 50 50c0 13 -5 25 -15 35l-34 35h260c28 0 50 22 50 50s-22 50 -50 50h-260l34 35c10 10 15 22 15 35c0 27 -23 50 -50 50c-13 0 -26 -5 -36 -15l-119 -120c-8 -8 -14 -20 -14 -35s6 -27 14 -35l119 -120c10 -10 23 -15 36 -15z" />
</svg>
