<?xml version="1.0" standalone="no"?>
<!DOCTYPE svg PUBLIC "-//W3C//DTD SVG 1.1//EN" "http://www.w3.org/Graphics/SVG/1.1/DTD/svg11.dtd" >
<svg xmlns="http://www.w3.org/2000/svg" xmlns:xlink="http://www.w3.org/1999/xlink" version="1.1" viewBox="-725 0 725 1000">
   <path fill="currentColor"
d="M-686 169c-13 -10 -19 -24 -19 -39c0 -11 4 -22 11 -31c10 -13 24 -19 39 -19c11 0 22 4 31 11l70 55c13 10 19 24 19 39c0 14 -6 29 -18 39l-33 26l33 26c12 10 18 25 18 39c0 15 -6 29 -19 39l-70 55c-9 7 -20 11 -31 11c-15 0 -29 -6 -39 -19c-7 -9 -11 -20 -11 -31
c0 -15 6 -29 19 -39l21 -17l-32 -25c-12 -9 -18 -24 -18 -39s6 -30 18 -39l32 -25zM-306 99c7 9 11 20 11 31c0 15 -6 29 -19 39l-21 17l32 25c12 9 18 24 18 39s-6 30 -18 39l-32 25l21 17c13 10 19 24 19 39c0 11 -4 22 -11 31c-10 13 -24 19 -39 19c-11 0 -22 -4 -31 -11
l-70 -55c-13 -10 -19 -24 -19 -39c0 -14 6 -29 18 -39l33 -26l-33 -26c-12 -10 -18 -25 -18 -39c0 -15 6 -29 19 -39l70 -55c9 -7 20 -11 31 -11c15 0 29 6 39 19zM-500 200c28 0 50 22 50 50s-22 50 -50 50s-50 -22 -50 -50s22 -50 50 -50z" />
</svg>
