<?xml version="1.0" standalone="no"?>
<!DOCTYPE svg PUBLIC "-//W3C//DTD SVG 1.1//EN" "http://www.w3.org/Graphics/SVG/1.1/DTD/svg11.dtd" >
<svg xmlns="http://www.w3.org/2000/svg" xmlns:xlink="http://www.w3.org/1999/xlink" version="1.1" viewBox="-638 0 638 1000">
   <path fill="currentColor"
d="M-580 497c11 0 21 5 30 10v-7c0 -28 22 -50 50 -50s50 22 50 50v7c9 -5 19 -10 30 -10c25 0 49 21 49 50c0 22 -14 37 -32 48c18 11 32 26 32 48c0 29 -24 50 -49 50c-11 0 -21 -5 -30 -10v7c0 28 -22 50 -50 50s-50 -22 -50 -50v-7c-9 5 -19 10 -30 10
c-25 0 -48 -21 -48 -50c0 -22 13 -37 31 -48c-18 -11 -31 -26 -31 -48c0 -29 23 -50 48 -50zM-450 310v80c0 28 -22 50 -50 50s-50 -22 -50 -50v-80c0 -28 22 -50 50 -50s50 22 50 50z" />
</svg>
