<?xml version="1.0" standalone="no"?>
<!DOCTYPE svg PUBLIC "-//W3C//DTD SVG 1.1//EN" "http://www.w3.org/Graphics/SVG/1.1/DTD/svg11.dtd" >
<svg xmlns="http://www.w3.org/2000/svg" xmlns:xlink="http://www.w3.org/1999/xlink" version="1.1" viewBox="-730 0 730 1000">
   <path fill="currentColor"
d="M-590 676c-74 0 -130 -56 -130 -130c0 -73 31 -127 91 -161c-1 -6 -2 -13 -2 -19c0 -59 48 -106 107 -106s106 47 106 106s-47 107 -106 107c-15 0 -30 -3 -43 -9l-12 7c-34 18 -41 37 -41 75c0 29 19 30 30 30c18 0 22 -7 47 -47c30 -51 77 -76 123 -76
c66 0 126 47 126 124c0 13 -7 99 -63 99c-30 0 -50 -25 -50 -50c0 -15 13 -38 13 -49c0 -14 -11 -24 -25 -24c-12 0 -27 8 -38 27c-21 36 -56 96 -133 96zM-524 398c17 0 31 -15 31 -32s-14 -31 -31 -31s-32 14 -32 31s15 32 32 32zM-428 615c-14 0 -25 -11 -25 -25
s11 -25 25 -25s25 11 25 25s-11 25 -25 25z" />
</svg>
