<?xml version="1.0" standalone="no"?>
<!DOCTYPE svg PUBLIC "-//W3C//DTD SVG 1.1//EN" "http://www.w3.org/Graphics/SVG/1.1/DTD/svg11.dtd" >
<svg xmlns="http://www.w3.org/2000/svg" xmlns:xlink="http://www.w3.org/1999/xlink" version="1.1" viewBox="-738 0 738 1000">
   <path fill="currentColor"
d="M-572 631c-18 5 -38 19 -64 19c-37 0 -63 -24 -76 -50c-12 -23 -16 -53 -16 -86c0 -56 10 -99 34 -131c21 -27 46 -43 64 -54c23 -15 45 -31 70 -42c14 -6 30 -12 49 -12c50 0 76 36 90 72c7 18 13 22 13 22s-1 1 6 1c9 0 27 -3 38 -3c21 0 39 8 53 19c23 19 39 50 39 88
c0 24 -6 49 -22 72c-25 36 -1 66 -32 112c-20 30 -60 50 -100 61c-12 3 -23 6 -37 6c-34 0 -61 -17 -77 -38c-17 -22 -21 -37 -32 -56zM-402 470c-60 0 -95 -40 -113 -88c-1 -2 -1 -4 -2 -5c-17 7 -43 26 -60 37c-19 12 -30 20 -37 29c-5 7 -10 16 -12 34c-1 13 -2 26 -2 39
c0 11 0 20 2 28c20 -9 39 -14 59 -14c61 0 84 54 93 72c5 10 8 18 12 23c12 -1 46 -15 53 -22c3 -20 0 -36 8 -63c5 -16 12 -33 24 -51c5 -7 6 -13 4 -21c-8 1 -18 2 -29 2zM-409 602v0z" />
</svg>
