<?xml version="1.0" standalone="no"?>
<!DOCTYPE svg PUBLIC "-//W3C//DTD SVG 1.1//EN" "http://www.w3.org/Graphics/SVG/1.1/DTD/svg11.dtd" >
<svg xmlns="http://www.w3.org/2000/svg" xmlns:xlink="http://www.w3.org/1999/xlink" version="1.1" viewBox="-738 0 738 1000">
   <path fill="currentColor"
d="M-518 483v34h34v-34h-34zM-618 678v-61h-60c-28 0 -50 -22 -50 -50s22 -50 50 -50h60v-34h-60c-28 0 -50 -22 -50 -50s22 -50 50 -50h60v-61c0 -28 22 -50 50 -50s50 22 50 50v61h34v-61c0 -28 22 -50 50 -50s50 22 50 50v61h62c28 0 50 22 50 50s-22 50 -50 50h-62v34
h62c28 0 50 22 50 50s-22 50 -50 50h-62v61c0 28 -22 50 -50 50s-50 -22 -50 -50v-61h-34v61c0 28 -22 50 -50 50s-50 -22 -50 -50z" />
</svg>
