<?xml version="1.0" standalone="no"?>
<!DOCTYPE svg PUBLIC "-//W3C//DTD SVG 1.1//EN" "http://www.w3.org/Graphics/SVG/1.1/DTD/svg11.dtd" >
<svg xmlns="http://www.w3.org/2000/svg" xmlns:xlink="http://www.w3.org/1999/xlink" version="1.1" viewBox="-697 0 697 1000">
   <path fill="currentColor"
d="M-625 308h191c94 0 170 76 170 170c0 77 -50 141 -120 162v38c0 28 -22 50 -50 50s-50 -22 -50 -50v-80c0 -28 22 -50 50 -50c39 0 70 -31 70 -70s-31 -70 -70 -70h-191c-28 0 -50 -22 -50 -50s22 -50 50 -50zM-476 478c0 23 -19 42 -42 42s-43 -19 -43 -42
s20 -42 43 -42s42 19 42 42zM-376 478c0 23 -19 42 -42 42s-42 -19 -42 -42s19 -42 42 -42s42 19 42 42zM-637 548c28 0 50 22 50 50v35c0 28 -22 50 -50 50s-50 -22 -50 -50v-35c0 -28 22 -50 50 -50zM-535 548c28 0 50 22 50 50v80c0 28 -22 50 -50 50s-50 -22 -50 -50
v-80c0 -28 22 -50 50 -50z" />
</svg>
