<?xml version="1.0" standalone="no"?>
<!DOCTYPE svg PUBLIC "-//W3C//DTD SVG 1.1//EN" "http://www.w3.org/Graphics/SVG/1.1/DTD/svg11.dtd" >
<svg xmlns="http://www.w3.org/2000/svg" xmlns:xlink="http://www.w3.org/1999/xlink" version="1.1" viewBox="-679 0 679 1000">
   <path fill="currentColor"
d="M-669 619c0 -29 25 -50 50 -50c9 0 18 2 26 7l93 56l93 -56c8 -5 17 -7 26 -7c25 0 50 21 50 50c0 17 -8 34 -24 43l-119 71c-8 5 -17 7 -26 7s-18 -2 -26 -7l-119 -71c-16 -9 -24 -26 -24 -43zM-669 485c0 -29 25 -50 50 -50c9 0 18 3 26 8l93 55l93 -55
c8 -5 17 -8 26 -8c25 0 50 21 50 50c0 17 -8 34 -24 43l-119 71c-8 5 -17 8 -26 8s-18 -3 -26 -8l-119 -71c-16 -9 -24 -26 -24 -43zM-669 352c0 -29 25 -50 50 -50c9 0 18 2 26 7l93 56l93 -56c8 -5 17 -7 26 -7c25 0 50 21 50 50c0 17 -8 34 -24 43l-119 71
c-8 5 -17 7 -26 7s-18 -2 -26 -7l-119 -71c-16 -9 -24 -26 -24 -43z" />
</svg>
