<?xml version="1.0" standalone="no"?>
<!DOCTYPE svg PUBLIC "-//W3C//DTD SVG 1.1//EN" "http://www.w3.org/Graphics/SVG/1.1/DTD/svg11.dtd" >
<svg xmlns="http://www.w3.org/2000/svg" xmlns:xlink="http://www.w3.org/1999/xlink" version="1.1" viewBox="-712 0 712 1000">
   <path fill="currentColor"
d="M-297 157c0 25 -21 50 -50 50c-8 0 -16 -1 -23 -5c-21 67 -72 133 -152 133c-54 0 -96 -32 -123 -72s-42 -91 -42 -145v-58c0 -28 22 -50 50 -50s50 22 50 50v58c0 50 24 117 65 117c40 0 64 -68 64 -117v-58c0 -30 26 -49 52 -49c16 0 31 7 41 23l60 97c5 8 8 17 8 26z
M-522 490c-28 0 -50 -22 -50 -50v-50c0 -28 22 -50 50 -50s50 22 50 50v50c0 28 -22 50 -50 50zM-342 406c0 25 -20 51 -50 51c-17 0 -33 -9 -42 -25l-25 -43c-4 -8 -6 -17 -6 -25c0 -25 20 -51 50 -51c17 0 33 9 42 25l24 43c4 8 7 17 7 25zM-652 457
c-30 0 -50 -26 -50 -51c0 -8 2 -17 6 -25l24 -43c9 -16 25 -25 42 -25c30 0 51 26 51 51c0 8 -3 17 -7 25l-24 43c-9 16 -25 25 -42 25z" />
</svg>
