<?xml version="1.0" standalone="no"?>
<!DOCTYPE svg PUBLIC "-//W3C//DTD SVG 1.1//EN" "http://www.w3.org/Graphics/SVG/1.1/DTD/svg11.dtd" >
<svg xmlns="http://www.w3.org/2000/svg" xmlns:xlink="http://www.w3.org/1999/xlink" version="1.1" viewBox="-689 0 689 1000">
   <path fill="currentColor"
d="M-500 415c7 0 13 6 13 13v15c0 16 -25 16 -25 0v-15c0 -7 5 -13 12 -13zM-453 463c-12 12 -30 -6 -18 -18l13 -13c12 -12 30 6 18 18zM-560 450c-12 -12 6 -30 18 -18l13 13c12 12 -6 30 -18 18zM-500 530c4 0 8 -2 8 -5c0 -7 5 -13 12 -13s13 6 13 13
c0 18 -16 30 -33 30s-33 -12 -33 -30c0 -7 6 -13 13 -13s12 6 12 13c0 3 4 5 8 5zM-500 586c-35 0 -64 -29 -64 -64s29 -64 64 -64s64 29 64 64s-29 64 -64 64zM-462 522c0 -21 -17 -38 -38 -38s-38 17 -38 38s17 38 38 38s38 -17 38 -38zM-579 410v180h158v-180h-158z
M-679 360c0 -28 22 -50 50 -50h258c28 0 50 22 50 50v280c0 28 -22 50 -50 50h-258c-28 0 -50 -22 -50 -50v-280z" />
</svg>
