<?xml version="1.0" standalone="no"?>
<!DOCTYPE svg PUBLIC "-//W3C//DTD SVG 1.1//EN" "http://www.w3.org/Graphics/SVG/1.1/DTD/svg11.dtd" >
<svg xmlns="http://www.w3.org/2000/svg" xmlns:xlink="http://www.w3.org/1999/xlink" version="1.1" viewBox="-755 0 755 1000">
   <path fill="currentColor"
d="M-580 229v57c0 46 22 82 52 97c9 4 19 7 28 7c51 0 80 -52 80 -104v-57c-38 -19 -65 -58 -65 -104c0 -64 51 -115 115 -115s115 51 115 115c0 46 -27 85 -65 104v57c0 90 -46 157 -108 187c-22 11 -47 17 -72 17c-57 0 -102 -29 -130 -63c-29 -34 -50 -82 -50 -141v-57
c-38 -19 -65 -58 -65 -104c0 -64 51 -115 115 -115s115 51 115 115c0 46 -27 85 -65 104zM-630 140c8 0 15 -7 15 -15s-7 -15 -15 -15s-15 7 -15 15s7 15 15 15zM-370 140c8 0 15 -7 15 -15s-7 -15 -15 -15s-15 7 -15 15s7 15 15 15z" />
</svg>
