<?xml version="1.0" standalone="no"?>
<!DOCTYPE svg PUBLIC "-//W3C//DTD SVG 1.1//EN" "http://www.w3.org/Graphics/SVG/1.1/DTD/svg11.dtd" >
<svg xmlns="http://www.w3.org/2000/svg" xmlns:xlink="http://www.w3.org/1999/xlink" version="1.1" viewBox="-770 0 770 1000">
   <path fill="currentColor"
d="M-359 439c-25 -49 -68 -79 -141 -79s-115 30 -140 79h281zM-239 489c0 28 -23 50 -50 50h-161v151c0 28 -22 50 -50 50s-50 -22 -50 -50v-151h-160c-27 0 -50 -22 -50 -50c0 -3 0 -7 1 -10c14 -66 43 -122 89 -161s104 -58 170 -58s125 19 171 58s75 95 89 161
c1 3 1 7 1 10z" />
</svg>
