<?xml version="1.0" standalone="no"?>
<!DOCTYPE svg PUBLIC "-//W3C//DTD SVG 1.1//EN" "http://www.w3.org/Graphics/SVG/1.1/DTD/svg11.dtd" >
<svg xmlns="http://www.w3.org/2000/svg" xmlns:xlink="http://www.w3.org/1999/xlink" version="1.1" viewBox="-692 0 692 1000">
   <path fill="currentColor"
d="M-557 603c0 9 -2 17 -6 24l-25 44c-9 15 -25 26 -44 26c-28 0 -50 -22 -50 -50c0 -9 3 -18 7 -25l24 -43c9 -15 25 -26 44 -26c28 0 50 22 50 50zM-394 553c19 0 34 11 43 26l25 43c4 7 6 16 6 25c0 28 -22 50 -50 50c-19 0 -35 -11 -44 -26l-24 -44c-4 -7 -6 -15 -6 -24
c0 -28 22 -50 50 -50zM-451 640v50c0 28 -22 50 -50 50s-50 -22 -50 -50v-50c0 -28 22 -50 50 -50s50 22 50 50zM-366 472c-19 56 -64 113 -136 113c-33 0 -62 -13 -84 -32c-40 -34 -66 -94 -66 -163v-50c0 -28 22 -50 50 -50s50 22 50 50v50c0 36 13 71 31 87
c7 6 14 8 19 8s11 -2 18 -8c18 -16 31 -51 31 -87v-50c0 -28 22 -50 50 -50c18 0 34 10 43 24l52 84c5 8 8 16 8 26c0 27 -23 50 -50 50c-5 0 -10 0 -16 -2z" />
</svg>
