<?xml version="1.0" standalone="no"?>
<!DOCTYPE svg PUBLIC "-//W3C//DTD SVG 1.1//EN" "http://www.w3.org/Graphics/SVG/1.1/DTD/svg11.dtd" >
<svg xmlns="http://www.w3.org/2000/svg" xmlns:xlink="http://www.w3.org/1999/xlink" version="1.1" viewBox="-685 0 685 1000">
   <path fill="currentColor"
d="M-425 473v-56l-54 35zM-491 596h66v-70l-79 -29zM-575 596h34l-17 -134c-1 -9 3 -19 11 -24l51 -34h-79v192zM-625 304h250c28 0 50 22 50 50v292c0 28 -22 50 -50 50h-250c-28 0 -50 -22 -50 -50v-292c0 -28 22 -50 50 -50zM-434 558c0 14 -11 25 -25 25
s-25 -11 -25 -25s11 -25 25 -25s25 11 25 25z" />
</svg>
