<?xml version="1.0" standalone="no"?>
<!DOCTYPE svg PUBLIC "-//W3C//DTD SVG 1.1//EN" "http://www.w3.org/Graphics/SVG/1.1/DTD/svg11.dtd" >
<svg xmlns="http://www.w3.org/2000/svg" xmlns:xlink="http://www.w3.org/1999/xlink" version="1.1" viewBox="-741 0 741 1000">
   <path fill="currentColor"
d="M-407 590c0 -19 -15 -20 -15 -47c0 -21 14 -41 35 -48c12 -4 20 -15 20 -28c0 -18 -16 -30 -30 -30c-8 0 -16 4 -24 4c-25 0 -50 -19 -50 -50c0 -17 -14 -30 -29 -30s-27 12 -28 28v2c0 31 -25 50 -50 50c-8 0 -16 -4 -24 -4c-14 0 -30 12 -30 30c0 13 8 24 20 28
c21 7 35 27 35 48c0 25 -16 32 -16 47s12 29 29 29c27 0 28 -33 64 -33c39 0 38 33 64 33c17 0 29 -14 29 -29zM-563 720c-72 0 -129 -59 -129 -131c0 -9 1 -17 3 -26c-27 -25 -42 -60 -42 -97c0 -74 55 -121 114 -128c20 -45 64 -77 117 -77s98 32 118 77
c59 7 114 54 114 128c0 37 -15 72 -42 97c2 9 3 17 3 26c0 72 -57 131 -129 131c-22 0 -44 -6 -64 -17c-20 11 -41 17 -63 17z" />
</svg>
