<?xml version="1.0" standalone="no"?>
<!DOCTYPE svg PUBLIC "-//W3C//DTD SVG 1.1//EN" "http://www.w3.org/Graphics/SVG/1.1/DTD/svg11.dtd" >
<svg xmlns="http://www.w3.org/2000/svg" xmlns:xlink="http://www.w3.org/1999/xlink" version="1.1" viewBox="-936 0 936 1000">
   <path fill="currentColor"
d="M-926 116c0 -26 22 -51 50 -51c15 0 29 7 39 19c83 104 224 189 373 235c-8 -21 -12 -45 -12 -69c0 -110 90 -200 200 -200s200 90 200 200s-90 200 -200 200h-2h-1c-102 0 -224 -31 -338 -83s-223 -127 -298 -220c-7 -9 -11 -20 -11 -31zM-276 150
c-55 0 -100 45 -100 100s45 100 100 100s100 -45 100 -100s-45 -100 -100 -100z" />
</svg>
