<?xml version="1.0" standalone="no"?>
<!DOCTYPE svg PUBLIC "-//W3C//DTD SVG 1.1//EN" "http://www.w3.org/Graphics/SVG/1.1/DTD/svg11.dtd" >
<svg xmlns="http://www.w3.org/2000/svg" xmlns:xlink="http://www.w3.org/1999/xlink" version="1.1" viewBox="-759 0 759 1000">
   <path fill="currentColor"
d="M-349 384c0 -26 -24 -45 -53 -45c-21 0 -40 11 -54 33c-33 53 -77 118 -163 118c-44 0 -81 -15 -104 -48c-22 -31 -26 -67 -26 -100c0 -31 4 -132 99 -199v-8c0 -69 56 -125 125 -125s125 56 125 125s-56 125 -125 125c-29 0 -56 -10 -77 -27c-44 38 -47 88 -47 109
c0 36 2 48 30 48c16 0 27 -5 38 -16c14 -13 26 -33 43 -60c34 -53 84 -75 133 -75c78 0 155 55 155 146c0 24 -6 50 -18 76c-8 18 -26 29 -45 29c-30 0 -50 -25 -50 -50c0 -7 2 -14 5 -21c6 -14 9 -25 9 -35zM-525 160c14 0 25 -11 25 -25s-11 -25 -25 -25s-25 11 -25 25
s11 25 25 25zM-404 425c-21 0 -37 -16 -37 -37s16 -38 37 -38s38 17 38 38s-17 37 -38 37z" />
</svg>
