<?xml version="1.0" standalone="no"?>
<!DOCTYPE svg PUBLIC "-//W3C//DTD SVG 1.1//EN" "http://www.w3.org/Graphics/SVG/1.1/DTD/svg11.dtd" >
<svg xmlns="http://www.w3.org/2000/svg" xmlns:xlink="http://www.w3.org/1999/xlink" version="1.1" viewBox="-701 0 701 1000">
   <path fill="currentColor"
d="M-516 113c26 33 43 78 43 137s-17 104 -43 137c62 -14 109 -69 109 -137s-47 -123 -109 -137zM-668 45c36 -22 78 -35 123 -35c132 0 238 108 238 240s-106 240 -238 240c-45 0 -87 -13 -123 -35c-16 -10 -23 -26 -23 -42c0 -21 11 -41 33 -48c49 -16 85 -40 85 -115
s-36 -99 -85 -115c-22 -7 -33 -27 -33 -48c0 -16 7 -32 23 -42z" />
</svg>
