<?xml version="1.0" standalone="no"?>
<!DOCTYPE svg PUBLIC "-//W3C//DTD SVG 1.1//EN" "http://www.w3.org/Graphics/SVG/1.1/DTD/svg11.dtd" >
<svg xmlns="http://www.w3.org/2000/svg" xmlns:xlink="http://www.w3.org/1999/xlink" version="1.1" viewBox="-700 0 700 1000">
   <path fill="currentColor"
d="M-351 503c23 21 50 48 50 92c0 24 -10 46 -24 65c-37 49 -101 74 -179 74c-21 0 -43 -2 -64 -5c-24 -4 -42 -24 -42 -49c0 -21 13 -40 31 -47c-32 -7 -57 -16 -80 -36c-17 -14 -31 -37 -31 -65c0 -21 7 -38 17 -54c13 -20 31 -37 54 -55c8 -6 19 -10 30 -10
c14 0 26 5 35 14c-1 -5 -1 -9 -1 -13c0 -13 3 -25 7 -37c-14 3 -28 9 -44 17c-7 4 -16 6 -24 6c-28 0 -50 -22 -50 -50c0 -19 11 -36 27 -44c44 -23 88 -34 128 -34c80 0 151 40 172 105c5 15 7 30 7 45c0 29 -8 57 -19 81zM-401 596c-1 -2 -4 -5 -8 -10
c-21 20 -46 38 -75 47c35 -3 71 -13 83 -37zM-585 527c13 6 35 13 57 13c10 0 24 -6 39 -17c-19 -15 -37 -32 -50 -54c-2 14 -9 25 -19 33c-13 10 -22 19 -27 25zM-454 412v1c0 7 13 18 20 25c1 -6 2 -12 2 -16c0 -15 -6 -24 -18 -32c1 8 -1 15 -4 22z" />
</svg>
