<?xml version="1.0" standalone="no"?>
<!DOCTYPE svg PUBLIC "-//W3C//DTD SVG 1.1//EN" "http://www.w3.org/Graphics/SVG/1.1/DTD/svg11.dtd" >
<svg xmlns="http://www.w3.org/2000/svg" xmlns:xlink="http://www.w3.org/1999/xlink" version="1.1" viewBox="-728 0 728 1000">
   <path fill="currentColor"
d="M-282 355c0 50 -23 135 -177 135h-87c-52 0 -80 0 -121 -4c-30 -3 -51 -22 -51 -51v-375c0 -28 22 -50 50 -50s50 22 50 50v328c30 1 79 2 159 2c49 0 66 -11 71 -15c3 -3 6 -8 6 -20c0 -11 -51 -15 -67 -15c-15 0 -34 1 -63 4h-8c-47 0 -50 -47 -50 -94v-22
c0 -55 2 -121 3 -169c1 -27 23 -49 50 -49c28 0 50 22 50 49v2v1c-1 50 -3 115 -3 170v8h20c28 0 168 6 168 115z" />
</svg>
