<?xml version="1.0" standalone="no"?>
<!DOCTYPE svg PUBLIC "-//W3C//DTD SVG 1.1//EN" "http://www.w3.org/Graphics/SVG/1.1/DTD/svg11.dtd" >
<svg xmlns="http://www.w3.org/2000/svg" xmlns:xlink="http://www.w3.org/1999/xlink" version="1.1" viewBox="-720 0 720 1000">
   <path fill="currentColor"
d="M-515 500c0 19 15 34 34 34s34 -15 34 -34s-15 -34 -34 -34s-34 15 -34 34zM-434 500c0 19 15 34 34 34s35 -15 35 -34s-16 -34 -35 -34s-34 15 -34 34zM-429 675c-76 0 -127 -45 -164 -87c-10 18 -17 33 -22 43c-8 17 -25 29 -45 29c-27 0 -50 -23 -50 -50
c0 -7 2 -14 5 -21c9 -19 24 -52 47 -89c-23 -37 -38 -70 -47 -89c-3 -7 -5 -14 -5 -21c0 -27 23 -50 50 -50c20 0 37 12 45 29c5 10 12 25 22 43c38 -42 88 -87 164 -87c51 0 100 19 132 59c25 32 37 72 37 116s-12 84 -37 116c-32 40 -81 59 -132 59z" />
</svg>
