<?xml version="1.0" standalone="no"?>
<!DOCTYPE svg PUBLIC "-//W3C//DTD SVG 1.1//EN" "http://www.w3.org/Graphics/SVG/1.1/DTD/svg11.dtd" >
<svg xmlns="http://www.w3.org/2000/svg" xmlns:xlink="http://www.w3.org/1999/xlink" version="1.1" viewBox="-702 0 702 1000">
   <path fill="currentColor"
d="M-369 10c25 0 50 20 50 50c0 22 -15 43 -38 49c-18 5 -26 7 -31 11c-3 2 -15 19 -15 35c0 6 2 11 5 17c6 12 20 31 36 51c23 29 54 69 54 123c0 53 -25 93 -56 115c-22 15 -45 22 -63 27c-5 1 -9 2 -14 2c-25 0 -50 -20 -50 -50c0 -22 14 -42 36 -48c20 -6 28 -9 34 -13
c3 -2 13 -15 13 -31c0 -18 -13 -37 -40 -71c-23 -29 -54 -69 -54 -123c0 -53 25 -93 56 -115c22 -16 47 -24 65 -28c4 -1 8 -1 12 -1zM-559 10c25 0 50 20 50 50c0 22 -15 43 -38 49c-18 5 -26 7 -31 11c-3 2 -15 19 -15 35c0 6 2 11 5 17c6 12 20 31 36 51
c23 29 54 69 54 123c0 53 -25 93 -56 115c-22 15 -45 22 -63 27c-5 1 -9 2 -14 2c-25 0 -50 -20 -50 -50c0 -22 14 -42 36 -48c20 -6 28 -9 34 -13c3 -2 13 -15 13 -31c0 -18 -13 -37 -40 -71c-23 -29 -54 -69 -54 -123c0 -53 25 -93 56 -115c22 -16 47 -24 65 -28
c4 -1 8 -1 12 -1z" />
</svg>
