<?xml version="1.0" standalone="no"?>
<!DOCTYPE svg PUBLIC "-//W3C//DTD SVG 1.1//EN" "http://www.w3.org/Graphics/SVG/1.1/DTD/svg11.dtd" >
<svg xmlns="http://www.w3.org/2000/svg" xmlns:xlink="http://www.w3.org/1999/xlink" version="1.1" viewBox="-677 0 677 1000">
   <path fill="currentColor"
d="M-293 585c0 36 -15 120 -153 120c-57 0 -90 2 -117 2c-22 0 -41 -1 -66 -7c-23 -5 -38 -26 -38 -49v-306c0 -28 22 -50 50 -50s50 22 50 50v259c25 1 63 1 121 1c43 0 52 -6 53 -15c-11 -5 -30 -8 -46 -8c-12 0 -32 4 -55 4c-51 0 -52 -47 -52 -95v-5
c0 -47 1 -100 2 -142c1 -27 23 -49 50 -49c28 0 50 22 50 49v2v1c-1 40 -2 90 -2 135h7c72 0 146 27 146 103z" />
</svg>
