<?xml version="1.0" standalone="no"?>
<!DOCTYPE svg PUBLIC "-//W3C//DTD SVG 1.1//EN" "http://www.w3.org/Graphics/SVG/1.1/DTD/svg11.dtd" >
<svg xmlns="http://www.w3.org/2000/svg" xmlns:xlink="http://www.w3.org/1999/xlink" version="1.1" viewBox="-695 0 695 1000">
   <path fill="currentColor"
d="M-570 480c0 -28 22 -50 50 -50h40c28 0 50 22 50 50v40c0 28 -22 50 -50 50h-40c-28 0 -50 -22 -50 -50v-40zM-585 415v170h170v-170h-170zM-685 365c0 -28 22 -50 50 -50h270c28 0 50 22 50 50v270c0 28 -22 50 -50 50h-270c-28 0 -50 -22 -50 -50v-270z" />
</svg>
