<?xml version="1.0" standalone="no"?>
<!DOCTYPE svg PUBLIC "-//W3C//DTD SVG 1.1//EN" "http://www.w3.org/Graphics/SVG/1.1/DTD/svg11.dtd" >
<svg xmlns="http://www.w3.org/2000/svg" xmlns:xlink="http://www.w3.org/1999/xlink" version="1.1" viewBox="-735 0 735 1000">
   <path fill="currentColor"
d="M-585 565c0 -18 -15 -32 -33 -32s-32 14 -32 32s14 32 32 32s33 -14 33 -32zM-382 597c18 0 32 -14 32 -32s-14 -32 -32 -32s-33 14 -33 32s15 32 33 32zM-489 474h-11h-11l-18 30c5 7 9 16 12 24h34c3 -8 7 -17 12 -24zM-468 367c0 -18 -14 -32 -32 -32s-32 14 -32 32
s14 32 32 32s32 -14 32 -32zM-531 628c-20 27 -51 44 -87 44c-59 0 -107 -48 -107 -107s48 -107 107 -107l23 -40c-8 -15 -12 -33 -12 -51c0 -59 48 -107 107 -107s107 48 107 107c0 18 -4 36 -12 51l23 40c59 0 107 48 107 107s-48 107 -107 107c-36 0 -67 -17 -87 -44h-62
z" />
</svg>
