<?xml version="1.0" standalone="no"?>
<!DOCTYPE svg PUBLIC "-//W3C//DTD SVG 1.1//EN" "http://www.w3.org/Graphics/SVG/1.1/DTD/svg11.dtd" >
<svg xmlns="http://www.w3.org/2000/svg" xmlns:xlink="http://www.w3.org/1999/xlink" version="1.1" viewBox="-694 0 694 1000">
   <path fill="currentColor"
d="M-350 600c0 28 -22 50 -50 50s-50 -22 -50 -50s22 -50 50 -50s50 22 50 50zM-550 400c0 28 -22 50 -50 50s-50 -22 -50 -50s22 -50 50 -50s50 22 50 50zM-366 316c27 0 50 23 50 50c0 13 -5 26 -15 36l-267 267c-10 10 -23 15 -36 15c-27 0 -50 -23 -50 -50
c0 -13 5 -26 15 -36l267 -267c10 -10 23 -15 36 -15z" />
</svg>
