<?xml version="1.0" standalone="no"?>
<!DOCTYPE svg PUBLIC "-//W3C//DTD SVG 1.1//EN" "http://www.w3.org/Graphics/SVG/1.1/DTD/svg11.dtd" >
<svg xmlns="http://www.w3.org/2000/svg" xmlns:xlink="http://www.w3.org/1999/xlink" version="1.1" viewBox="-777 0 777 1000">
   <path fill="currentColor"
d="M-500 446c-25 23 -62 44 -108 44c-87 0 -159 -70 -159 -158c0 -42 20 -83 42 -116c50 -75 128 -145 195 -195c10 -7 19 -10 28 -10c27 0 51 25 68 39c51 43 119 106 159 166c22 33 42 74 42 116c0 88 -72 158 -159 158c-46 0 -83 -21 -108 -44zM-608 390
c22 0 44 -18 55 -34c3 -5 4 -7 4 -7c5 -23 25 -40 49 -40s44 17 49 40c0 0 1 2 4 7c11 16 33 34 55 34c32 0 59 -26 59 -58c0 -12 -6 -32 -25 -60c-33 -50 -98 -111 -142 -147c-44 36 -109 97 -142 147c-19 28 -25 48 -25 60c0 32 27 58 59 58z" />
</svg>
