<?xml version="1.0" standalone="no"?>
<!DOCTYPE svg PUBLIC "-//W3C//DTD SVG 1.1//EN" "http://www.w3.org/Graphics/SVG/1.1/DTD/svg11.dtd" >
<svg xmlns="http://www.w3.org/2000/svg" xmlns:xlink="http://www.w3.org/1999/xlink" version="1.1" viewBox="-750 0 750 1000">
   <path fill="currentColor"
d="M-485 295c73 0 146 21 181 61c15 17 24 40 24 64c0 37 -18 69 -43 100c-10 13 -13 28 -14 56c-1 29 -4 54 -18 76c-25 40 -73 53 -129 53c-30 0 -52 -4 -73 -15c-42 -23 -37 -52 -80 -65c-28 -8 -50 -17 -68 -32c-19 -16 -35 -41 -35 -73c0 -27 6 -35 10 -57
c3 -19 7 -51 30 -80c19 -24 48 -40 84 -48c41 -9 46 -23 85 -34c14 -4 29 -6 46 -6zM-380 421c-14 -15 -73 -26 -105 -26c-22 0 -21 2 -38 11c-14 8 -37 19 -71 27c-16 4 -25 7 -30 16c-6 11 -12 50 -15 68c4 3 14 8 31 13c21 6 38 15 52 25c17 13 29 26 36 35
c8 10 10 11 11 12c1 0 17 3 25 3c32 0 42 -5 44 -6c1 -2 2 -12 3 -28c1 -27 2 -73 36 -114c17 -20 21 -33 21 -36z" />
</svg>
