<?xml version="1.0" standalone="no"?>
<!DOCTYPE svg PUBLIC "-//W3C//DTD SVG 1.1//EN" "http://www.w3.org/Graphics/SVG/1.1/DTD/svg11.dtd" >
<svg xmlns="http://www.w3.org/2000/svg" xmlns:xlink="http://www.w3.org/1999/xlink" version="1.1" viewBox="-830 0 830 1000">
   <path fill="currentColor"
d="M-496 65v24h12v-24c0 -28 22 -50 50 -50s50 22 50 50v34c15 4 30 10 44 18c34 19 70 53 70 107s-36 89 -70 108c-14 8 -29 14 -44 18v33c0 28 -22 50 -50 50s-50 -22 -50 -50v-24h-12v24c0 28 -22 50 -50 50s-50 -22 -50 -50v-24h-12v24c0 28 -22 50 -50 50
s-50 -22 -50 -50v-34c-15 -4 -29 -10 -42 -17c-34 -19 -70 -54 -70 -108s36 -88 70 -107c13 -7 27 -14 42 -18v-34c0 -28 22 -50 50 -50s50 22 50 50v24h12v-24c0 -28 22 -50 50 -50s50 22 50 50zM-596 189h-12v70h12v-70zM-496 259h12v-70h-12v70zM-384 242
c13 -8 14 -15 14 -18s-1 -9 -14 -17v35zM-708 240v-32c-11 8 -12 13 -12 16s1 8 12 16zM-280 416c-28 0 -50 -22 -50 -50s22 -50 50 -50s50 22 50 50s-22 50 -50 50zM-330 84c0 -28 22 -50 50 -50s50 22 50 50s-22 50 -50 50s-50 -22 -50 -50z" />
</svg>
