<?xml version="1.0" standalone="no"?>
<!DOCTYPE svg PUBLIC "-//W3C//DTD SVG 1.1//EN" "http://www.w3.org/Graphics/SVG/1.1/DTD/svg11.dtd" >
<svg xmlns="http://www.w3.org/2000/svg" xmlns:xlink="http://www.w3.org/1999/xlink" version="1.1" viewBox="-723 0 723 1000">
   <path fill="currentColor"
d="M-663 10h360c28 0 50 22 50 50v380c0 28 -22 50 -50 50h-118h-2h-240c-28 0 -50 -22 -50 -50v-380c0 -28 22 -50 50 -50zM-383 390h30v-141c-48 -10 -94 -19 -140 -19c-7 0 -14 1 -21 1c21 10 40 22 57 37c38 33 59 74 74 122zM-613 151c37 -15 78 -21 120 -21
c47 0 95 8 140 17v-37h-260v41zM-613 301v89h124c-9 -20 -20 -35 -34 -47c-19 -17 -47 -30 -90 -42z" />
</svg>
