<?xml version="1.0" standalone="no"?>
<!DOCTYPE svg PUBLIC "-//W3C//DTD SVG 1.1//EN" "http://www.w3.org/Graphics/SVG/1.1/DTD/svg11.dtd" >
<svg xmlns="http://www.w3.org/2000/svg" xmlns:xlink="http://www.w3.org/1999/xlink" version="1.1" viewBox="-723 0 723 1000">
   <path fill="currentColor"
d="M-376 298c30 0 50 25 50 50c0 6 -1 13 -4 19l-11 26c-8 19 -26 31 -46 31c-30 0 -50 -25 -50 -50c0 -6 1 -13 4 -19l11 -26c8 -19 26 -31 46 -31zM-675 348c0 -25 20 -50 50 -50c19 0 37 11 45 29l12 26c3 7 5 14 5 21c0 25 -20 50 -50 50c-19 0 -37 -11 -45 -29l-12 -26
c-3 -7 -5 -14 -5 -21zM-613 580c21 36 68 60 113 60s93 -24 114 -60c-21 -36 -69 -60 -114 -60s-92 24 -113 60zM-699 631c-9 -16 -14 -33 -14 -51s5 -35 14 -51c42 -71 125 -109 199 -109s158 38 200 109c9 16 14 33 14 51s-5 35 -14 51c-42 71 -126 109 -200 109
s-157 -38 -199 -109zM-460 580c0 22 -18 40 -40 40s-40 -18 -40 -40s18 -40 40 -40s40 18 40 40zM-450 310v35c0 28 -22 50 -50 50s-50 -22 -50 -50v-35c0 -28 22 -50 50 -50s50 22 50 50z" />
</svg>
