<?xml version="1.0" standalone="no"?>
<!DOCTYPE svg PUBLIC "-//W3C//DTD SVG 1.1//EN" "http://www.w3.org/Graphics/SVG/1.1/DTD/svg11.dtd" >
<svg xmlns="http://www.w3.org/2000/svg" xmlns:xlink="http://www.w3.org/1999/xlink" version="1.1" viewBox="-661 0 661 1000">
   <path fill="currentColor"
d="M-551 446c81 -17 102 -77 102 -107c0 -27 23 -50 50 -50c28 0 50 22 50 50c0 67 -38 127 -82 161c44 34 82 94 82 161c0 28 -22 50 -50 50c-31 0 -47 -23 -50 -52s-19 -88 -102 -105v107c0 28 -22 50 -50 50s-50 -22 -50 -50v-322c0 -28 22 -50 50 -50s50 22 50 50v107z
" />
</svg>
