<?xml version="1.0" standalone="no"?>
<!DOCTYPE svg PUBLIC "-//W3C//DTD SVG 1.1//EN" "http://www.w3.org/Graphics/SVG/1.1/DTD/svg11.dtd" >
<svg xmlns="http://www.w3.org/2000/svg" xmlns:xlink="http://www.w3.org/1999/xlink" version="1.1" viewBox="-735 0 735 1000">
   <path fill="currentColor"
d="M-500 740c-79 0 -134 -61 -134 -153v-5c-59 -25 -91 -84 -91 -138c0 -82 66 -134 141 -134c28 0 59 9 84 25c25 -16 56 -25 84 -25c75 0 141 52 141 134c0 54 -32 113 -91 138v5c0 92 -55 153 -134 153zM-584 410c-26 0 -41 12 -41 34c0 12 4 27 17 38
c11 -25 24 -48 38 -70c-5 -1 -10 -2 -14 -2zM-500 489c-3 5 -6 10 -8 15h16c-2 -5 -5 -10 -8 -15zM-375 444c0 -22 -15 -34 -41 -34c-4 0 -9 1 -14 2c14 22 27 45 38 70c13 -11 17 -26 17 -38zM-533 603c3 23 10 37 33 37s30 -15 33 -37c-11 1 -22 1 -33 1s-22 0 -33 -1z
" />
</svg>
