<?xml version="1.0" standalone="no"?>
<!DOCTYPE svg PUBLIC "-//W3C//DTD SVG 1.1//EN" "http://www.w3.org/Graphics/SVG/1.1/DTD/svg11.dtd" >
<svg xmlns="http://www.w3.org/2000/svg" xmlns:xlink="http://www.w3.org/1999/xlink" version="1.1" viewBox="-710 0 710 1000">
   <path fill="currentColor"
d="M-574 434c0 41 33 74 74 74s74 -33 74 -74s-33 -74 -74 -74s-74 33 -74 74zM-343 509c24 4 43 24 43 49v60c0 28 -22 50 -50 50s-50 -22 -50 -50v-10h-200v10c0 28 -22 50 -50 50s-50 -22 -50 -50v-60c0 -25 19 -45 43 -49c-11 -23 -17 -48 -17 -75
c0 -96 78 -174 174 -174s174 78 174 174c0 27 -6 52 -17 75z" />
</svg>
