<?xml version="1.0" standalone="no"?>
<!DOCTYPE svg PUBLIC "-//W3C//DTD SVG 1.1//EN" "http://www.w3.org/Graphics/SVG/1.1/DTD/svg11.dtd" >
<svg xmlns="http://www.w3.org/2000/svg" xmlns:xlink="http://www.w3.org/1999/xlink" version="1.1" viewBox="-713 0 713 1000">
   <path fill="currentColor"
d="M-703 343c0 -25 21 -50 50 -50c8 0 16 1 23 5c21 -67 72 -133 152 -133c54 0 96 32 123 72s42 91 42 145v58c0 28 -22 50 -50 50s-50 -22 -50 -50v-58c0 -50 -24 -117 -65 -117c-40 0 -64 68 -64 117v58c0 30 -26 49 -52 49c-16 0 -31 -7 -41 -23l-60 -97
c-5 -8 -8 -17 -8 -26zM-478 10c28 0 50 22 50 50v50c0 28 -22 50 -50 50s-50 -22 -50 -50v-50c0 -28 22 -50 50 -50zM-658 94c0 -25 20 -51 50 -51c17 0 33 9 42 25l25 43c4 8 6 17 6 25c0 25 -20 51 -50 51c-17 0 -33 -9 -42 -25l-24 -43c-4 -8 -7 -17 -7 -25zM-348 43
c30 0 50 26 50 51c0 8 -2 17 -6 25l-24 43c-9 16 -25 25 -42 25c-30 0 -51 -26 -51 -51c0 -8 3 -17 7 -25l24 -43c9 -16 25 -25 42 -25z" />
</svg>
