<?xml version="1.0" standalone="no"?>
<!DOCTYPE svg PUBLIC "-//W3C//DTD SVG 1.1//EN" "http://www.w3.org/Graphics/SVG/1.1/DTD/svg11.dtd" >
<svg xmlns="http://www.w3.org/2000/svg" xmlns:xlink="http://www.w3.org/1999/xlink" version="1.1" viewBox="-710 0 710 1000">
   <path fill="currentColor"
d="M-369 303c30 0 50 26 50 51c0 8 -3 17 -7 25l-24 44c-9 16 -25 25 -42 25c-30 0 -50 -27 -50 -52c0 -8 2 -16 6 -24l25 -44c9 -16 25 -25 42 -25zM-679 354c0 -25 20 -51 50 -51c17 0 33 9 42 25l24 44c4 8 7 16 7 24c0 25 -20 52 -50 52c-17 0 -34 -9 -43 -25l-24 -44
c-4 -8 -6 -17 -6 -25zM-499 260c28 0 50 22 50 50v50c0 28 -22 50 -50 50s-50 -22 -50 -50v-50c0 -28 22 -50 50 -50zM-634 528c20 -57 66 -113 136 -113c50 0 89 29 113 65s37 82 37 130v50c0 28 -22 50 -50 50s-50 -22 -50 -50v-50c0 -39 -19 -95 -50 -95s-49 56 -49 95
v50c0 26 -20 50 -50 50c-17 0 -34 -9 -43 -24l-52 -84c-5 -8 -8 -17 -8 -26c0 -25 21 -50 50 -50c5 0 11 0 16 2z" />
</svg>
