<?xml version="1.0" standalone="no"?>
<!DOCTYPE svg PUBLIC "-//W3C//DTD SVG 1.1//EN" "http://www.w3.org/Graphics/SVG/1.1/DTD/svg11.dtd" >
<svg xmlns="http://www.w3.org/2000/svg" xmlns:xlink="http://www.w3.org/1999/xlink" version="1.1" viewBox="-640 0 640 1000">
   <path fill="currentColor"
d="M-500 511c-19 0 -33 -12 -45 -22c-21 -18 -47 -42 -64 -68c-9 -14 -21 -35 -21 -60c0 -16 2 -34 10 -50c7 -14 26 -40 60 -40c21 0 35 11 42 17c8 7 13 14 18 21c5 -7 10 -14 18 -21c7 -6 21 -17 42 -17c34 0 53 26 60 40c8 16 10 34 10 50c0 25 -12 46 -21 60
c-21 32 -51 59 -79 80c-9 7 -19 10 -30 10zM-500 740c-19 0 -33 -12 -45 -22c-21 -18 -47 -42 -64 -68c-9 -14 -21 -35 -21 -60c0 -16 2 -34 10 -50c7 -14 26 -40 60 -40c21 0 35 11 42 17c8 7 13 14 18 21c5 -7 10 -14 18 -21c7 -6 21 -17 42 -17c34 0 53 26 60 40
c8 16 10 34 10 50c0 25 -12 46 -21 60c-21 32 -51 59 -79 80c-9 7 -19 10 -30 10z" />
</svg>
