<?xml version="1.0" standalone="no"?>
<!DOCTYPE svg PUBLIC "-//W3C//DTD SVG 1.1//EN" "http://www.w3.org/Graphics/SVG/1.1/DTD/svg11.dtd" >
<svg xmlns="http://www.w3.org/2000/svg" xmlns:xlink="http://www.w3.org/1999/xlink" version="1.1" viewBox="-725 0 725 1000">
   <path fill="currentColor"
d="M-425 565c0 -41 -34 -75 -75 -75s-75 34 -75 75s34 75 75 75s75 -34 75 -75zM-380 430c11 0 20 -9 20 -20s-9 -20 -20 -20s-20 9 -20 20s9 20 20 20zM-600 410c0 -11 -9 -20 -20 -20s-20 9 -20 20s9 20 20 20s20 -9 20 -20zM-527 392c9 -1 18 -2 27 -2s18 1 27 2
c8 -44 47 -77 93 -77c52 0 95 43 95 95c0 38 -22 71 -54 86c9 21 14 44 14 69c0 97 -78 175 -175 175s-175 -78 -175 -175c0 -25 5 -48 14 -69c-32 -15 -54 -48 -54 -86c0 -52 43 -95 95 -95c46 0 85 33 93 77zM-500 633c-23 0 -41 -18 -41 -41s18 -42 41 -42s42 19 42 42
s-19 41 -42 41z" />
</svg>
