<?xml version="1.0" standalone="no"?>
<!DOCTYPE svg PUBLIC "-//W3C//DTD SVG 1.1//EN" "http://www.w3.org/Graphics/SVG/1.1/DTD/svg11.dtd" >
<svg xmlns="http://www.w3.org/2000/svg" xmlns:xlink="http://www.w3.org/1999/xlink" version="1.1" viewBox="-690 0 690 1000">
   <path fill="currentColor"
d="M-432 355l11 -26c8 -18 25 -31 46 -31c27 0 50 23 50 50c0 6 -1 12 -4 19l-11 26c-8 18 -25 31 -46 31c-27 0 -50 -23 -50 -50c0 -6 1 -12 4 -19zM-612 424c-20 0 -38 -12 -46 -29l-11 -26c-3 -7 -5 -14 -5 -21c0 -27 23 -50 50 -50c20 0 37 12 45 29l12 26
c3 7 5 14 5 21c0 27 -23 50 -50 50zM-549 345v-35c0 -28 22 -50 50 -50s50 22 50 50v35c0 28 -22 50 -50 50s-50 -22 -50 -50zM-420 547v0zM-320 547c0 26 -10 46 -21 63c-14 21 -31 41 -49 57c-40 37 -82 64 -83 65c-8 5 -17 8 -27 8s-19 -3 -27 -8c-1 -1 -43 -28 -83 -65
c-18 -16 -35 -36 -49 -57c-11 -17 -21 -37 -21 -63c0 -65 57 -107 115 -107c27 0 49 10 65 21c16 -11 38 -21 65 -21c58 0 115 42 115 107zM-565 540c-25 0 -12 16 -1 29c16 20 45 44 66 60c22 -17 56 -46 72 -69c5 -7 7 -12 8 -14c-1 -3 -9 -6 -15 -6s-14 9 -25 23
c-9 12 -24 20 -40 20c-19 0 -33 -11 -43 -24c-12 -16 -17 -19 -22 -19z" />
</svg>
