<?xml version="1.0" standalone="no"?>
<!DOCTYPE svg PUBLIC "-//W3C//DTD SVG 1.1//EN" "http://www.w3.org/Graphics/SVG/1.1/DTD/svg11.dtd" >
<svg xmlns="http://www.w3.org/2000/svg" xmlns:xlink="http://www.w3.org/1999/xlink" version="1.1" viewBox="-947 0 947 1000">
   <path fill="currentColor"
d="M-775 262c0 39 -25 65 -56 94c37 26 111 34 185 34h21c55 -1 132 -9 156 -25c44 -32 82 -36 130 -36h49c78 0 99 -21 124 -60c-23 -7 -53 -5 -80 -11c-30 -7 -71 -29 -71 -74c0 -26 16 -44 30 -56c-33 -13 -75 -18 -126 -18c-71 0 -95 37 -177 37c-40 0 -86 -9 -126 -9
c-24 0 -94 2 -94 27c0 28 35 56 35 97zM-590 47c62 0 86 -37 177 -37c76 0 195 12 236 84c6 10 8 21 8 32c0 15 -5 29 -12 40c31 3 53 5 78 24c20 15 41 42 41 75c0 50 -54 111 -91 133c-37 23 -88 31 -148 31h-34c-85 0 -58 24 -140 44c-52 13 -105 17 -163 17
c-74 0 -235 -3 -286 -90c-8 -13 -13 -28 -13 -44c0 -33 18 -55 36 -71c13 -11 19 -19 23 -24c-14 -24 -31 -64 -31 -98c0 -61 44 -125 194 -125c59 0 101 9 125 9z" />
</svg>
