<?xml version="1.0" standalone="no"?>
<!DOCTYPE svg PUBLIC "-//W3C//DTD SVG 1.1//EN" "http://www.w3.org/Graphics/SVG/1.1/DTD/svg11.dtd" >
<svg xmlns="http://www.w3.org/2000/svg" xmlns:xlink="http://www.w3.org/1999/xlink" version="1.1" viewBox="-730 0 730 1000">
   <path fill="currentColor"
d="M-670 365c28 0 50 22 50 50v120h240v-120c0 -28 22 -50 50 -50s50 22 50 50v170c0 28 -22 50 -50 50h-340c-28 0 -50 -22 -50 -50v-170c0 -28 22 -50 50 -50zM-450 425c0 28 -22 50 -50 50s-50 -22 -50 -50s22 -50 50 -50s50 22 50 50z" />
</svg>
