<?xml version="1.0" standalone="no"?>
<!DOCTYPE svg PUBLIC "-//W3C//DTD SVG 1.1//EN" "http://www.w3.org/Graphics/SVG/1.1/DTD/svg11.dtd" >
<svg xmlns="http://www.w3.org/2000/svg" xmlns:xlink="http://www.w3.org/1999/xlink" version="1.1" viewBox="-745 0 745 1000">
   <path fill="currentColor"
d="M-265 553c0 25 -20 49 -50 49c-22 0 -42 -15 -48 -37c-9 -33 -11 -85 -49 -85c-15 0 -32 10 -40 35c-19 61 -74 105 -135 105c-63 0 -105 -43 -123 -82c-11 -25 -16 -52 -23 -78c-1 -4 -2 -9 -2 -13c0 -25 20 -50 50 -50c22 0 42 16 48 38c9 33 11 85 49 85
c15 0 32 -10 40 -35c19 -61 74 -105 135 -105c63 0 105 42 123 81c11 25 16 53 23 79c1 4 2 9 2 13z" />
</svg>
