<?xml version="1.0" standalone="no"?>
<!DOCTYPE svg PUBLIC "-//W3C//DTD SVG 1.1//EN" "http://www.w3.org/Graphics/SVG/1.1/DTD/svg11.dtd" >
<svg xmlns="http://www.w3.org/2000/svg" xmlns:xlink="http://www.w3.org/1999/xlink" version="1.1" viewBox="-671 0 671 1000">
   <path fill="currentColor"
d="M-500 571l-21 37h42zM-500 418c16 0 32 -8 44 -22h-88c12 14 28 22 44 22zM-606 708c-26 0 -50 -21 -50 -50c0 -8 2 -16 6 -24l76 -135c-53 -29 -87 -89 -87 -153c0 -28 22 -50 50 -50h222c28 0 50 22 50 50c0 64 -34 124 -87 153l76 135c4 8 6 16 6 24
c0 29 -24 50 -50 50h-212z" />
</svg>
