<?xml version="1.0" standalone="no"?>
<!DOCTYPE svg PUBLIC "-//W3C//DTD SVG 1.1//EN" "http://www.w3.org/Graphics/SVG/1.1/DTD/svg11.dtd" >
<svg xmlns="http://www.w3.org/2000/svg" xmlns:xlink="http://www.w3.org/1999/xlink" version="1.1" viewBox="-732 0 732 1000">
   <path fill="currentColor"
d="M-495 364c53 20 93 44 115 79c2 -1 4 -1 6 -2c-19 -39 -64 -76 -121 -81v4zM-566 467c15 -2 31 -4 46 -5c-26 -10 -47 -17 -65 -22c6 8 11 17 19 27zM-722 580c0 -39 30 -65 56 -81c-12 -17 -25 -39 -32 -58c-4 -12 -8 -24 -8 -37c0 -46 38 -71 81 -71c9 0 17 1 26 2
c4 -49 45 -75 97 -75c98 0 169 58 208 119c12 19 24 43 24 72c0 54 -40 76 -81 88c6 1 13 2 22 3c25 3 45 24 45 50c0 27 -22 50 -50 50h-6c-61 -7 -113 -27 -122 -84c-8 1 -15 1 -22 2c13 13 26 24 38 40c9 12 19 28 19 50c0 34 -26 56 -49 67c-17 8 -41 18 -66 18
c-22 0 -42 -7 -59 -15c-22 -10 -42 -24 -58 -37c-24 -20 -63 -55 -63 -103zM-554 631c-15 -15 -34 -36 -49 -53c-5 2 -9 5 -13 7c15 20 35 36 62 46z" />
</svg>
