<?xml version="1.0" standalone="no"?>
<!DOCTYPE svg PUBLIC "-//W3C//DTD SVG 1.1//EN" "http://www.w3.org/Graphics/SVG/1.1/DTD/svg11.dtd" >
<svg xmlns="http://www.w3.org/2000/svg" xmlns:xlink="http://www.w3.org/1999/xlink" version="1.1" viewBox="-743 0 743 1000">
   <path fill="currentColor"
d="M-462 723c-55 0 -90 -31 -103 -77c-13 7 -27 15 -49 15c-49 0 -84 -44 -100 -77c-13 -26 -19 -54 -19 -83c0 -72 42 -129 114 -129c19 0 29 4 40 6c2 -8 5 -22 15 -38c20 -32 72 -55 118 -55c36 0 70 13 97 40c31 32 70 68 70 136c0 22 -3 41 -12 58
c-10 20 -26 32 -33 37v7v27c0 32 -4 57 -21 79c-24 31 -67 54 -117 54zM-619 472c-12 0 -14 17 -14 29c0 22 10 45 21 57c14 -8 30 -19 55 -19c33 0 59 19 72 39c13 19 13 30 17 44c1 0 3 1 6 1c11 0 30 -8 37 -14c1 -5 1 -12 1 -21v-26c0 -23 2 -40 13 -58
c12 -19 22 -22 30 -31c0 0 2 -3 2 -12c0 -31 -24 -49 -41 -66c-7 -7 -15 -10 -26 -10c-9 0 -22 3 -33 10c-4 14 -4 24 -17 44c-14 22 -44 40 -78 40c-20 0 -32 -7 -45 -7z" />
</svg>
