<?xml version="1.0" standalone="no"?>
<!DOCTYPE svg PUBLIC "-//W3C//DTD SVG 1.1//EN" "http://www.w3.org/Graphics/SVG/1.1/DTD/svg11.dtd" >
<svg xmlns="http://www.w3.org/2000/svg" xmlns:xlink="http://www.w3.org/1999/xlink" version="1.1" viewBox="-910 0 910 1000">
   <path fill="currentColor"
d="M-212 322c0 17 15 37 15 66c0 78 -95 88 -153 94c-57 5 -141 8 -259 8c-156 0 -291 -42 -291 -200c0 -37 25 -62 55 -73c-2 -6 -3 -12 -3 -18v-120c0 -31 26 -49 51 -49c17 0 34 8 43 26c20 17 66 24 103 29v-2c0 -73 110 -73 142 -73c85 0 151 26 199 69
c52 -7 119 -22 120 -22c30 0 90 52 90 106c0 75 -83 105 -114 116c2 15 2 29 2 43zM-686 181c-22 -4 -42 -8 -62 -14v32c0 4 0 8 -1 11c8 1 16 1 24 2c11 -15 25 -24 39 -31zM-477 233c49 -3 95 -13 142 -23c-4 -9 -10 -17 -15 -25c-36 4 -72 6 -108 7c-1 16 -8 30 -19 41z
M-622 390c-46 -24 -78 -45 -100 -77c-25 -3 -47 -4 -63 -4h-14c3 22 11 78 177 81zM-239 181c13 -5 30 -14 36 -19c-13 3 -27 6 -41 8c2 4 3 7 5 11z" />
</svg>
