<?xml version="1.0" standalone="no"?>
<!DOCTYPE svg PUBLIC "-//W3C//DTD SVG 1.1//EN" "http://www.w3.org/Graphics/SVG/1.1/DTD/svg11.dtd" >
<svg xmlns="http://www.w3.org/2000/svg" xmlns:xlink="http://www.w3.org/1999/xlink" version="1.1" viewBox="-650 0 650 1000">
   <path fill="currentColor"
d="M-540 600c0 22 18 40 40 40s40 -18 40 -40s-18 -40 -40 -40s-40 18 -40 40zM-529 260c30 0 50 25 50 50c0 18 -7 27 -12 44c-8 26 -21 73 -29 107c7 -1 13 -1 20 -1c77 0 140 63 140 140s-63 140 -140 140s-140 -63 -140 -140c0 -104 36 -225 64 -306
c7 -21 26 -34 47 -34z" />
</svg>
