<?xml version="1.0" standalone="no"?>
<!DOCTYPE svg PUBLIC "-//W3C//DTD SVG 1.1//EN" "http://www.w3.org/Graphics/SVG/1.1/DTD/svg11.dtd" >
<svg xmlns="http://www.w3.org/2000/svg" xmlns:xlink="http://www.w3.org/1999/xlink" version="1.1" viewBox="-699 0 699 1000">
   <path fill="currentColor"
d="M-601 400c28 0 50 24 50 50c0 10 -3 21 -10 30c-14 18 -28 45 -28 83c0 30 4 59 27 59c12 -2 12 -14 15 -24c6 -18 23 -33 47 -33c28 0 48 20 50 45c1 4 7 11 12 12c11 0 13 -2 17 -9c6 -9 10 -26 10 -50c0 -38 -14 -65 -28 -83c-7 -9 -10 -20 -10 -30
c0 -26 22 -50 50 -50c15 0 30 7 40 20c23 30 48 78 48 143c0 83 -42 159 -127 159c-22 0 -44 -8 -62 -20c-18 12 -40 20 -62 20c-85 0 -127 -76 -127 -159c0 -65 25 -113 48 -143c10 -13 25 -20 40 -20zM-450 310v100c0 28 -22 50 -50 50s-50 -22 -50 -50v-100
c0 -28 22 -50 50 -50s50 22 50 50z" />
</svg>
