<?xml version="1.0" standalone="no"?>
<!DOCTYPE svg PUBLIC "-//W3C//DTD SVG 1.1//EN" "http://www.w3.org/Graphics/SVG/1.1/DTD/svg11.dtd" >
<svg xmlns="http://www.w3.org/2000/svg" xmlns:xlink="http://www.w3.org/1999/xlink" version="1.1" viewBox="-922 0 922 1000">
   <path fill="currentColor"
d="M-280 110c-61 0 -114 27 -180 27c-20 0 -41 -2 -63 -9c-34 -10 -88 -18 -140 -18c-16 0 -33 0 -48 2c-29 3 -46 10 -54 15c2 5 6 9 24 22c17 12 33 21 49 37c10 9 25 30 25 56c0 38 -33 61 -60 75c-16 8 -35 16 -59 24c-7 3 -13 5 -17 7c16 8 31 12 47 12
c21 0 43 -6 69 -14c27 -9 62 -21 104 -21c12 0 24 1 37 3c49 8 70 32 105 50c12 6 29 12 59 12c18 0 42 -3 72 -9c35 -7 56 -15 69 -21c-23 -20 -73 -32 -73 -79c0 -26 17 -48 31 -61c29 -25 72 -46 94 -76c-4 -4 -11 -10 -29 -19c-21 -11 -41 -15 -62 -15zM-186 148
c0 0 -1 0 -1 -1zM-766 123v0zM-460 37c54 0 119 -27 180 -27c82 0 193 53 193 132c0 52 -36 82 -65 105c-13 10 -25 19 -37 27c25 18 56 45 56 90c0 36 -23 61 -49 77c-39 24 -135 49 -200 49c-61 0 -100 -18 -141 -45c-18 -12 -33 -20 -60 -20c-57 0 -104 36 -170 36
c-48 0 -93 -19 -121 -41c-20 -16 -38 -39 -38 -73c0 -55 49 -86 93 -101c10 -4 20 -7 27 -10c-29 -20 -74 -55 -74 -113c0 -78 80 -103 144 -110c19 -2 39 -3 59 -3c61 0 125 9 169 22c11 3 23 5 34 5z" />
</svg>
