<?xml version="1.0" standalone="no"?>
<!DOCTYPE svg PUBLIC "-//W3C//DTD SVG 1.1//EN" "http://www.w3.org/Graphics/SVG/1.1/DTD/svg11.dtd" >
<svg xmlns="http://www.w3.org/2000/svg" xmlns:xlink="http://www.w3.org/1999/xlink" version="1.1" viewBox="-700 0 700 1000">
   <path fill="currentColor"
d="M-360 320c28 0 50 24 50 50c0 11 -4 22 -11 31c-42 54 -74 124 -96 184s-32 107 -34 115c-5 23 -25 40 -49 40s-44 -17 -49 -40c-2 -8 -12 -55 -34 -115s-54 -130 -96 -184c-7 -9 -11 -20 -11 -31c0 -26 22 -50 50 -50c15 0 29 6 39 19c44 57 78 125 101 184
c23 -59 57 -127 101 -184c10 -13 24 -19 39 -19z" />
</svg>
