<?xml version="1.0" standalone="no"?>
<!DOCTYPE svg PUBLIC "-//W3C//DTD SVG 1.1//EN" "http://www.w3.org/Graphics/SVG/1.1/DTD/svg11.dtd" >
<svg xmlns="http://www.w3.org/2000/svg" xmlns:xlink="http://www.w3.org/1999/xlink" version="1.1" viewBox="-940 0 940 1000">
   <path fill="currentColor"
d="M-930 250c0 -128 71 -240 196 -240c61 0 109 27 151 65c28 25 55 57 83 93c28 -36 55 -68 83 -93c42 -38 90 -65 151 -65c125 0 196 112 196 240s-71 240 -196 240c-61 0 -109 -27 -151 -65c-28 -25 -55 -57 -83 -93c-28 36 -55 68 -83 93c-42 38 -90 65 -151 65
c-125 0 -196 -112 -196 -240zM-563 250c-34 -43 -61 -77 -88 -101c-31 -28 -56 -39 -83 -39c-28 0 -50 12 -66 33c-17 22 -30 58 -30 107s13 85 30 107c16 21 38 33 66 33c27 0 52 -11 83 -39c27 -24 54 -58 88 -101zM-437 250c34 43 61 77 88 101c31 28 56 39 83 39
c28 0 50 -12 66 -33c17 -22 30 -58 30 -107s-13 -85 -30 -107c-16 -21 -38 -33 -66 -33c-27 0 -52 11 -83 39c-27 24 -54 58 -88 101z" />
</svg>
