<?xml version="1.0" standalone="no"?>
<!DOCTYPE svg PUBLIC "-//W3C//DTD SVG 1.1//EN" "http://www.w3.org/Graphics/SVG/1.1/DTD/svg11.dtd" >
<svg xmlns="http://www.w3.org/2000/svg" xmlns:xlink="http://www.w3.org/1999/xlink" version="1.1" viewBox="-739 0 739 1000">
   <path fill="currentColor"
d="M-271 342c26 0 50 22 50 50c0 14 -6 29 -18 39c-49 41 -103 59 -168 59c-21 0 -40 -13 -47 -33l-92 -257l-72 175c15 7 39 15 75 15c28 0 50 22 50 50s-22 50 -50 50c-84 0 -142 -24 -175 -66c-7 -9 -11 -21 -11 -32c0 -6 2 -12 4 -18l136 -333c8 -20 27 -30 46 -30
c20 0 39 10 47 32l123 344c27 -5 49 -15 70 -33c9 -8 21 -12 32 -12z" />
</svg>
