<?xml version="1.0" standalone="no"?>
<!DOCTYPE svg PUBLIC "-//W3C//DTD SVG 1.1//EN" "http://www.w3.org/Graphics/SVG/1.1/DTD/svg11.dtd" >
<svg xmlns="http://www.w3.org/2000/svg" xmlns:xlink="http://www.w3.org/1999/xlink" version="1.1" viewBox="-724 0 724 1000">
   <path fill="currentColor"
d="M-604 456h-10v138c0 28 -22 50 -50 50s-50 -22 -50 -50v-188c0 -28 22 -50 50 -50h110h1h107h1h110c28 0 50 22 50 50v188c0 28 -22 50 -50 50s-50 -22 -50 -50v-138h-11v115c0 28 -22 50 -50 50s-50 -22 -50 -50v-115h-8v115c0 28 -22 50 -50 50s-50 -22 -50 -50v-115z
" />
</svg>
