<?xml version="1.0" standalone="no"?>
<!DOCTYPE svg PUBLIC "-//W3C//DTD SVG 1.1//EN" "http://www.w3.org/Graphics/SVG/1.1/DTD/svg11.dtd" >
<svg xmlns="http://www.w3.org/2000/svg" xmlns:xlink="http://www.w3.org/1999/xlink" version="1.1" viewBox="-749 0 749 1000">
   <path fill="currentColor"
d="M-500 616c-64 0 -114 -51 -114 -115s50 -115 114 -115s116 51 116 115s-52 115 -116 115zM-484 501c0 -8 -8 -15 -16 -15s-14 7 -14 15s6 15 14 15s16 -7 16 -15zM-500 740c-132 0 -239 -108 -239 -240s107 -239 239 -239s240 107 240 239s-108 240 -240 240zM-500 640
c77 0 140 -63 140 -140s-63 -139 -140 -139s-139 62 -139 139s62 140 139 140z" />
</svg>
