<?xml version="1.0" standalone="no"?>
<!DOCTYPE svg PUBLIC "-//W3C//DTD SVG 1.1//EN" "http://www.w3.org/Graphics/SVG/1.1/DTD/svg11.dtd" >
<svg xmlns="http://www.w3.org/2000/svg" xmlns:xlink="http://www.w3.org/1999/xlink" version="1.1" viewBox="-759 0 759 1000">
   <path fill="currentColor"
d="M-749 157c0 -90 72 -147 155 -147c32 0 65 10 94 30c29 -20 63 -30 95 -30c82 0 154 57 154 146c0 62 -35 127 -103 155v11c0 43 -11 84 -36 116c-26 33 -64 52 -109 52h-1c-45 0 -83 -19 -109 -52c-25 -32 -36 -73 -36 -116v-11c-67 -27 -104 -93 -104 -154zM-595 110
c-33 0 -54 17 -54 47c0 18 9 41 30 55c14 -35 30 -67 50 -97c-9 -4 -18 -5 -26 -5zM-500 194c-7 12 -14 26 -20 39c7 0 14 1 21 1s13 -1 20 -1c-6 -13 -14 -27 -21 -39zM-350 157c0 -30 -21 -47 -54 -47c-8 0 -17 1 -26 5c20 30 36 62 50 97c21 -14 30 -37 30 -55zM-454 332
c-15 1 -30 2 -45 2s-31 -1 -46 -2c1 22 7 36 14 44s17 14 32 14s24 -6 31 -14s13 -22 14 -44z" />
</svg>
