<?xml version="1.0" standalone="no"?>
<!DOCTYPE svg PUBLIC "-//W3C//DTD SVG 1.1//EN" "http://www.w3.org/Graphics/SVG/1.1/DTD/svg11.dtd" >
<svg xmlns="http://www.w3.org/2000/svg" xmlns:xlink="http://www.w3.org/1999/xlink" version="1.1" viewBox="-723 0 723 1000">
   <path fill="currentColor"
d="M-387 441c14 0 25 -11 25 -25s-11 -25 -25 -25s-25 11 -25 25s11 25 25 25zM-613 441c14 0 25 -11 25 -25s-11 -25 -25 -25s-25 11 -25 25s11 25 25 25zM-563 503v53c0 37 18 67 42 79c7 3 14 5 21 5c40 0 63 -43 63 -84v-53c-30 -17 -50 -50 -50 -87
c0 -55 45 -100 100 -100s100 45 100 100c0 37 -20 70 -50 87v53c0 81 -42 142 -98 169c-20 10 -42 15 -65 15c-79 0 -131 -56 -152 -116c-8 -22 -11 -45 -11 -68v-53c-30 -17 -50 -50 -50 -87c0 -55 45 -100 100 -100s100 45 100 100c0 37 -20 70 -50 87z" />
</svg>
