<?xml version="1.0" standalone="no"?>
<!DOCTYPE svg PUBLIC "-//W3C//DTD SVG 1.1//EN" "http://www.w3.org/Graphics/SVG/1.1/DTD/svg11.dtd" >
<svg xmlns="http://www.w3.org/2000/svg" xmlns:xlink="http://www.w3.org/1999/xlink" version="1.1" viewBox="-661 0 661 1000">
   <path fill="currentColor"
d="M-400 381c-28 0 -50 -22 -50 -50s22 -50 50 -50s50 22 50 50s-22 50 -50 50zM-450 385h44c28 0 50 22 50 50s-22 50 -50 50h-44v5h51c28 0 50 22 50 50s-22 50 -50 50h-51v4h44c28 0 50 22 50 50s-22 50 -50 50h-44c-2 26 -24 46 -50 46s-48 -20 -50 -46h-45
c-28 0 -50 -22 -50 -50s22 -50 50 -50h45v-4h-51c-28 0 -50 -22 -50 -50s22 -50 50 -50h51v-5h-45c-28 0 -50 -22 -50 -50s22 -50 50 -50h45c3 -25 24 -45 50 -45s47 20 50 45zM-550 331c0 28 -22 50 -50 50s-50 -22 -50 -50s22 -50 50 -50s50 22 50 50z" />
</svg>
