<?xml version="1.0" standalone="no"?>
<!DOCTYPE svg PUBLIC "-//W3C//DTD SVG 1.1//EN" "http://www.w3.org/Graphics/SVG/1.1/DTD/svg11.dtd" >
<svg xmlns="http://www.w3.org/2000/svg" xmlns:xlink="http://www.w3.org/1999/xlink" version="1.1" viewBox="-680 0 680 1000">
   <path fill="currentColor"
d="M-500 340c0 -26 22 -50 50 -50c14 0 28 6 38 17l140 160c8 9 12 21 12 33s-4 24 -12 33l-140 160c-10 11 -24 17 -38 17c-28 0 -50 -24 -50 -50c0 -12 4 -24 12 -33l112 -127l-112 -127c-8 -9 -12 -21 -12 -33zM-670 340c0 -26 22 -50 50 -50c14 0 28 6 38 17l140 160
c8 9 12 21 12 33s-4 24 -12 33l-140 160c-10 11 -24 17 -38 17c-28 0 -50 -24 -50 -50c0 -12 4 -24 12 -33l112 -127l-112 -127c-8 -9 -12 -21 -12 -33z" />
</svg>
