<?xml version="1.0" standalone="no"?>
<!DOCTYPE svg PUBLIC "-//W3C//DTD SVG 1.1//EN" "http://www.w3.org/Graphics/SVG/1.1/DTD/svg11.dtd" >
<svg xmlns="http://www.w3.org/2000/svg" xmlns:xlink="http://www.w3.org/1999/xlink" version="1.1" viewBox="-687 0 687 1000">
   <path fill="currentColor"
d="M-507 595c0 -19 -15 -35 -35 -35c-19 0 -35 16 -35 35s16 35 35 35s35 -16 35 -35zM-333 656c0 25 -20 50 -50 50c-18 0 -35 -9 -44 -26c-1 -3 -3 -5 -4 -8c-24 35 -65 58 -111 58c-75 0 -135 -60 -135 -135s60 -135 135 -135c35 0 68 14 92 36c37 30 76 73 111 136
c4 8 6 16 6 24zM-492 310v90c0 28 -22 50 -50 50s-50 -22 -50 -50v-90c0 -28 22 -50 50 -50s50 22 50 50z" />
</svg>
