<?xml version="1.0" standalone="no"?>
<!DOCTYPE svg PUBLIC "-//W3C//DTD SVG 1.1//EN" "http://www.w3.org/Graphics/SVG/1.1/DTD/svg11.dtd" >
<svg xmlns="http://www.w3.org/2000/svg" xmlns:xlink="http://www.w3.org/1999/xlink" version="1.1" viewBox="-10 0 1010 1000">
   <path fill="currentColor"
d="M297 58c8 -5 18 -8 27 -8c17 0 32 8 42 23l350 550c5 8 8 18 8 27c0 26 -21 50 -50 50h-450v200c0 28 -22 50 -50 50s-50 -22 -50 -50v-250c0 -28 22 -50 50 -50h409l-301 -473c-5 -8 -8 -18 -8 -27c0 -17 8 -32 23 -42zM902 793c-10 15 -26 22 -42 22
c-9 0 -19 -3 -27 -8l-84 -54c-15 -10 -22 -26 -22 -42c0 -9 3 -19 8 -27c10 -15 26 -23 42 -23c9 0 19 3 27 8l84 55c15 10 23 25 23 41c0 9 -4 20 -9 28zM883 653l-99 -5c-27 -1 -48 -24 -48 -50c0 -28 23 -50 50 -50h3l100 5c27 1 47 24 47 50c0 28 -23 50 -50 50h-3z
M745 899c-7 4 -14 6 -22 6c-18 0 -36 -11 -45 -28l-45 -89c-4 -7 -6 -14 -6 -22c0 -18 11 -36 28 -45c7 -4 14 -5 22 -5c18 0 36 10 45 27l45 89c4 7 6 15 6 23c0 18 -11 35 -28 44zM371 551c-4 1 -9 1 -13 1c-36 0 -68 -26 -74 -62c-1 -4 -1 -9 -1 -13c0 -36 26 -68 62 -74
c4 -1 9 -1 13 -1c36 0 68 26 74 62c1 4 1 9 1 13c0 36 -26 68 -62 74zM240 498c1 4 1 9 1 13c0 36 -26 68 -62 74c-4 1 -9 1 -13 1c-36 0 -68 -26 -74 -62c-1 -4 -1 -9 -1 -13c0 -36 26 -68 62 -74c4 -1 9 -1 13 -1c36 0 68 26 74 62zM291 435c-9 17 -27 25 -44 25
c-11 0 -22 -4 -32 -12l-108 -93c-11 -10 -17 -24 -17 -38c0 -12 4 -23 12 -32c10 -11 24 -17 38 -17c12 0 23 4 32 12l62 52l39 -70c9 -16 27 -26 44 -26c8 0 16 3 24 7c16 9 26 26 26 43c0 8 -2 17 -6 25z" />
</svg>
