<?xml version="1.0" standalone="no"?>
<!DOCTYPE svg PUBLIC "-//W3C//DTD SVG 1.1//EN" "http://www.w3.org/Graphics/SVG/1.1/DTD/svg11.dtd" >
<svg xmlns="http://www.w3.org/2000/svg" xmlns:xlink="http://www.w3.org/1999/xlink" version="1.1" viewBox="-10 0 1010 1000">
   <path fill="currentColor"
d="M600 250c0 -55 -45 -100 -100 -100s-100 45 -100 100s45 100 100 100s100 -45 100 -100zM700 250c0 110 -90 200 -200 200c-51 0 -97 -19 -132 -50c-53 45 -88 117 -88 200c0 143 103 250 220 250c103 0 195 -83 216 -200h-171c-28 0 -50 -22 -50 -50s22 -50 50 -50h225
c28 0 50 22 50 50c0 188 -138 350 -320 350s-320 -162 -320 -350c0 -115 50 -219 131 -283c-7 -21 -11 -44 -11 -67c0 -110 90 -200 200 -200s200 90 200 200z" />
</svg>
