<?xml version="1.0" standalone="no"?>
<!DOCTYPE svg PUBLIC "-//W3C//DTD SVG 1.1//EN" "http://www.w3.org/Graphics/SVG/1.1/DTD/svg11.dtd" >
<svg xmlns="http://www.w3.org/2000/svg" xmlns:xlink="http://www.w3.org/1999/xlink" version="1.1" viewBox="-10 0 1010 1000">
   <path fill="currentColor"
d="M601 611c0 56 -45 101 -101 101c-16 0 -31 -3 -45 -10c-24 17 -42 48 -42 86c0 61 44 102 87 102c30 0 60 -20 76 -52h-53c-28 0 -50 -22 -50 -50s22 -50 50 -50h114c28 0 50 22 50 50c0 106 -79 202 -187 202s-187 -96 -187 -202c0 -70 33 -133 86 -170v-7
c0 -56 45 -101 101 -101s101 45 101 101zM500 610c1 0 1 0 1 1s0 1 -1 1s-1 0 -1 -1s0 -1 1 -1z" />
</svg>
