<?xml version="1.0" standalone="no"?>
<!DOCTYPE svg PUBLIC "-//W3C//DTD SVG 1.1//EN" "http://www.w3.org/Graphics/SVG/1.1/DTD/svg11.dtd" >
<svg xmlns="http://www.w3.org/2000/svg" xmlns:xlink="http://www.w3.org/1999/xlink" version="1.1" viewBox="-10 0 1010 1000">
   <path fill="currentColor"
d="M286 775c0 -28 22 -50 50 -50h328c28 0 50 22 50 50c0 118 -96 214 -214 214s-214 -96 -214 -214zM398 825c18 38 57 64 102 64s84 -26 102 -64h-204zM608 720c-30 0 -50 -25 -50 -50c0 -6 1 -13 4 -19l38 -92c8 -19 26 -31 46 -31c30 0 50 25 50 50c0 6 0 13 -3 19
l-39 93c-8 19 -26 30 -46 30zM304 578c0 -25 20 -50 50 -50c20 0 38 12 46 31l38 92c3 6 4 13 4 19c0 25 -20 50 -50 50c-20 0 -38 -11 -46 -30l-39 -93c-3 -6 -3 -13 -3 -19zM500 509c28 0 50 22 50 50v101c0 28 -22 50 -50 50s-50 -22 -50 -50v-101c0 -28 22 -50 50 -50z
" />
</svg>
