<?xml version="1.0" standalone="no"?>
<!DOCTYPE svg PUBLIC "-//W3C//DTD SVG 1.1//EN" "http://www.w3.org/Graphics/SVG/1.1/DTD/svg11.dtd" >
<svg xmlns="http://www.w3.org/2000/svg" xmlns:xlink="http://www.w3.org/1999/xlink" version="1.1" viewBox="-10 0 1010 1000">
   <path fill="currentColor"
d="M291 675c83 -86 188 -165 323 -165c74 0 140 18 191 57c56 43 87 107 87 185s-31 143 -87 186c-51 39 -117 57 -191 57c-135 0 -240 -79 -323 -165c-37 50 -63 89 -89 138c-9 17 -26 27 -44 27c-30 0 -50 -25 -50 -49c0 -10 3 -20 8 -29c31 -58 62 -105 109 -165
c-49 -62 -80 -108 -112 -169c-4 -7 -5 -15 -5 -23c0 -25 20 -50 49 -50c19 0 37 13 47 31c25 46 51 86 87 134zM356 752c77 82 159 143 258 143c58 0 103 -14 131 -36c29 -22 47 -57 47 -107s-18 -84 -47 -106c-28 -22 -73 -36 -131 -36c-99 0 -181 60 -258 142zM780 753
c0 33 -27 60 -60 60s-60 -27 -60 -60s27 -60 60 -60s60 27 60 60zM620 753c0 33 -27 60 -60 60s-60 -27 -60 -60s27 -60 60 -60s60 27 60 60z" />
</svg>
