<?xml version="1.0" standalone="no"?>
<!DOCTYPE svg PUBLIC "-//W3C//DTD SVG 1.1//EN" "http://www.w3.org/Graphics/SVG/1.1/DTD/svg11.dtd" >
<svg xmlns="http://www.w3.org/2000/svg" xmlns:xlink="http://www.w3.org/1999/xlink" version="1.1" viewBox="-10 0 1010 1000">
   <path fill="currentColor"
d="M309 500c86 171 196 244 308 250h17c66 0 117 -21 152 -57c39 -39 64 -102 64 -193s-25 -154 -64 -193c-35 -36 -86 -57 -152 -57h-17c-112 6 -222 79 -308 250zM50 201c0 -25 21 -50 50 -50s42 22 54 44c35 62 61 112 102 195c93 -150 215 -232 356 -239
c7 0 15 -1 22 -1c88 0 166 29 223 87c62 63 93 154 93 263s-31 200 -93 263c-57 58 -135 87 -223 87c-7 0 -15 -1 -22 -1c-141 -7 -263 -90 -356 -240c-45 92 -71 145 -113 216c-9 16 -26 24 -43 24c-29 0 -50 -25 -50 -50c0 -18 9 -30 17 -43c45 -81 74 -137 131 -256
c-61 -128 -88 -184 -141 -274c-5 -8 -7 -16 -7 -25z" />
</svg>
