<?xml version="1.0" standalone="no"?>
<!DOCTYPE svg PUBLIC "-//W3C//DTD SVG 1.1//EN" "http://www.w3.org/Graphics/SVG/1.1/DTD/svg11.dtd" >
<svg xmlns="http://www.w3.org/2000/svg" xmlns:xlink="http://www.w3.org/1999/xlink" version="1.1" viewBox="-10 0 1010 1000">
   <path fill="currentColor"
d="M616 325c-107 4 -210 81 -296 175c86 94 190 171 296 175h17c70 0 123 -17 158 -44c36 -28 59 -70 59 -131s-23 -103 -59 -131c-35 -27 -88 -44 -158 -44h-17zM50 276c0 -25 20 -51 50 -51c18 0 35 10 44 27l1 1c0 1 1 2 2 3c2 3 4 8 7 14c6 11 17 27 29 47
c19 30 42 67 72 106c91 -97 215 -192 357 -198h22c84 0 161 21 218 64c64 49 98 122 98 211s-34 162 -98 211c-57 43 -134 64 -218 64h-22c-142 -6 -266 -101 -357 -198c-42 55 -73 101 -101 153c-3 6 -5 11 -7 14c-1 1 -2 2 -2 3l-1 1c-9 17 -26 27 -44 27
c-29 0 -50 -25 -50 -50c0 -8 2 -16 6 -23v-1c5 -5 5 -12 11 -20c7 -13 18 -31 31 -52c22 -36 53 -81 91 -129c-38 -48 -69 -93 -91 -129c-13 -21 -24 -39 -31 -52c-6 -9 -6 -15 -11 -20c-4 -7 -6 -15 -6 -23z" />
</svg>
