<?xml version="1.0" standalone="no"?>
<!DOCTYPE svg PUBLIC "-//W3C//DTD SVG 1.1//EN" "http://www.w3.org/Graphics/SVG/1.1/DTD/svg11.dtd" >
<svg xmlns="http://www.w3.org/2000/svg" xmlns:xlink="http://www.w3.org/1999/xlink" version="1.1" viewBox="-10 0 1010 1000">
   <path fill="currentColor"
d="M401 80c5 -26 27 -40 49 -40c19 0 37 10 46 31l27 65c153 10 281 114 325 256l75 -9h7c31 0 48 26 48 51c0 23 -14 46 -44 49l-70 8v9c0 91 -33 174 -88 238l60 143c3 7 4 14 4 20c0 29 -26 49 -52 49c-18 0 -35 -10 -44 -31l-47 -112c-57 37 -124 58 -197 58
c-56 0 -109 -13 -156 -35l-15 70c-5 24 -26 40 -49 40c-3 0 -6 0 -10 -1c-24 -5 -40 -26 -40 -49c0 -3 0 -6 1 -10l23 -110c-56 -51 -96 -118 -112 -194l-61 7c-2 0 -5 1 -7 1c-31 0 -48 -26 -48 -51c0 -23 13 -46 43 -49l66 -8c10 -151 112 -277 250 -323zM242 564
c8 31 21 60 38 85l20 -92zM322 454l38 -179c-65 41 -112 109 -123 189zM404 545l-39 184c39 23 86 36 135 36c59 0 113 -19 157 -52l-79 -188zM538 429l-72 -172l-40 185zM682 512l49 118c21 -38 33 -81 33 -127zM747 404c-30 -78 -96 -138 -178 -160l72 172z" />
</svg>
