<?xml version="1.0" standalone="no"?>
<!DOCTYPE svg PUBLIC "-//W3C//DTD SVG 1.1//EN" "http://www.w3.org/Graphics/SVG/1.1/DTD/svg11.dtd" >
<svg xmlns="http://www.w3.org/2000/svg" xmlns:xlink="http://www.w3.org/1999/xlink" version="1.1" viewBox="-10 0 1010 1000">
   <path fill="currentColor"
d="M50 762c0 -27 24 -50 50 -50c11 0 23 4 32 12c54 45 111 69 183 75l238 -666c7 -20 25 -33 46 -33s39 12 47 31l250 613c3 6 4 13 4 19c0 11 -4 21 -11 30v1h-1c-1 2 -3 4 -5 6c-19 19 -34 32 -66 50c-47 26 -118 50 -217 50c-28 0 -50 -22 -50 -50s22 -50 50 -50
c97 0 148 -23 190 -51l-187 -459l-206 577c-7 20 -26 33 -47 33c-111 0 -200 -31 -282 -99c-12 -10 -18 -25 -18 -39z" />
</svg>
