<?xml version="1.0" standalone="no"?>
<!DOCTYPE svg PUBLIC "-//W3C//DTD SVG 1.1//EN" "http://www.w3.org/Graphics/SVG/1.1/DTD/svg11.dtd" >
<svg xmlns="http://www.w3.org/2000/svg" xmlns:xlink="http://www.w3.org/1999/xlink" version="1.1" viewBox="-10 0 1070 1000">
   <path fill="currentColor"
d="M50 762c0 -28 24 -50 50 -50c11 0 23 4 32 12c54 45 111 69 183 75l238 -666c7 -20 26 -33 47 -33c20 0 38 12 46 31l230 562c31 71 42 149 65 225c10 32 19 54 30 67c9 11 16 15 29 15c28 0 50 22 50 50s-22 50 -50 50c-93 0 -133 -80 -155 -153
c-12 -40 -21 -85 -32 -126c-44 41 -112 79 -213 79c-28 0 -50 -22 -50 -50s22 -50 50 -50c76 0 122 -28 148 -54c13 -13 21 -25 27 -35l-172 -421l-206 577c-7 20 -26 33 -47 33c-111 0 -200 -31 -282 -99c-12 -10 -18 -25 -18 -39z" />
</svg>
