<?xml version="1.0" standalone="no"?>
<!DOCTYPE svg PUBLIC "-//W3C//DTD SVG 1.1//EN" "http://www.w3.org/Graphics/SVG/1.1/DTD/svg11.dtd" >
<svg xmlns="http://www.w3.org/2000/svg" xmlns:xlink="http://www.w3.org/1999/xlink" version="1.1" viewBox="-10 0 1010 1000">
   <path fill="currentColor"
d="M221 892c0 -28 24 -50 50 -50c11 0 23 4 32 12c21 18 44 28 70 33l123 -344c8 -22 27 -32 47 -32c19 0 38 10 46 30l136 333c3 7 4 13 4 19c0 31 -33 54 -57 67c-29 16 -71 30 -129 30c-28 0 -50 -22 -50 -50s22 -50 50 -50c36 0 60 -8 75 -15l-72 -175l-92 257
c-7 20 -26 33 -47 33c-65 0 -119 -18 -168 -59c-12 -10 -18 -25 -18 -39z" />
</svg>
