<?xml version="1.0" standalone="no"?>
<!DOCTYPE svg PUBLIC "-//W3C//DTD SVG 1.1//EN" "http://www.w3.org/Graphics/SVG/1.1/DTD/svg11.dtd" >
<svg xmlns="http://www.w3.org/2000/svg" xmlns:xlink="http://www.w3.org/1999/xlink" version="1.1" viewBox="-10 0 1010 1000">
   <path fill="currentColor"
d="M603 550l204 323c5 8 8 18 8 27c0 26 -21 50 -50 50h-531c-29 0 -50 -24 -50 -50c0 -9 3 -19 8 -27l204 -323c-101 -41 -172 -140 -172 -255c0 -152 124 -275 276 -275s274 123 274 275c0 115 -70 214 -171 255zM667 345h-117v118c56 -17 100 -62 117 -118zM332 345
c17 56 62 101 118 118v-118h-118zM667 245c-17 -56 -61 -101 -117 -118v118h117zM450 245v-118c-56 17 -101 62 -118 118h118zM500 574l-175 276h349z" />
</svg>
