<?xml version="1.0" standalone="no"?>
<!DOCTYPE svg PUBLIC "-//W3C//DTD SVG 1.1//EN" "http://www.w3.org/Graphics/SVG/1.1/DTD/svg11.dtd" >
<svg xmlns="http://www.w3.org/2000/svg" xmlns:xlink="http://www.w3.org/1999/xlink" version="1.1" viewBox="-10 0 1010 1000">
   <path fill="currentColor"
d="M708 522c31 17 35 42 35 80c0 37 -9 71 -30 99s-51 43 -82 52c-25 7 -54 13 -81 13v174c0 28 -22 50 -50 50s-50 -22 -50 -50v-148c-4 0 -8 1 -12 1c-26 0 -51 -6 -76 -14c-55 -18 -105 -64 -105 -135v-9c0 -25 2 -53 14 -82c8 -18 25 -30 45 -30c58 0 101 13 129 29
c12 7 29 17 45 30c9 -14 18 -26 29 -36c30 -28 65 -36 99 -36h1h2c17 0 31 0 43 1c11 1 29 2 44 11zM643 610h-25c-16 0 -24 4 -31 10c-8 7 -17 20 -29 45c13 -1 30 -3 46 -8c18 -5 26 -11 30 -17c4 -5 8 -14 9 -30zM447 692c-3 -12 -8 -19 -12 -24c-8 -10 -20 -17 -39 -28
c-8 -4 -20 -10 -38 -13c0 5 -1 10 -1 17c0 11 4 17 8 22c11 13 52 27 75 27c2 0 5 -1 7 -1z" />
</svg>
