<?xml version="1.0" standalone="no"?>
<!DOCTYPE svg PUBLIC "-//W3C//DTD SVG 1.1//EN" "http://www.w3.org/Graphics/SVG/1.1/DTD/svg11.dtd" >
<svg xmlns="http://www.w3.org/2000/svg" xmlns:xlink="http://www.w3.org/1999/xlink" version="1.1" viewBox="-10 0 1010 1000">
   <path fill="currentColor"
d="M545 375c8 5 37 9 56 9c38 0 85 -7 129 -19c44 -13 72 -30 90 -54c18 -23 30 -58 30 -111c0 -17 0 -27 -1 -34c-4 -1 -9 -1 -18 -2c-20 -1 -47 -1 -87 -1c-44 0 -73 9 -100 34c-30 27 -61 78 -97 171c-1 3 -2 5 -2 7zM445 389c-16 -90 -67 -121 -135 -158
c-30 -16 -81 -35 -155 -40c-5 25 -5 54 -5 95c0 34 10 60 27 81s45 39 85 52c45 15 81 22 112 22h6c23 -1 45 -7 69 -19c-1 -8 -1 -16 -2 -23c-1 -3 -2 -7 -2 -10zM50 286v-5c0 -53 0 -109 23 -161c8 -18 26 -30 46 -30c111 0 190 26 240 53c38 21 87 49 126 97c2 2 3 4 5 6
c26 -53 54 -94 86 -123c50 -46 107 -60 168 -60h1c38 0 68 0 92 1c22 1 48 5 68 16c43 23 45 60 45 117v3c0 68 -15 126 -50 172s-85 74 -143 90c-48 13 -104 22 -154 22c-17 0 -34 -1 -49 -3h-4v418c0 28 -22 50 -50 50s-50 -22 -50 -50v-370c-21 7 -43 11 -66 12h-12
c-46 0 -92 -10 -141 -26c-98 -31 -181 -106 -181 -229z" />
</svg>
