<?xml version="1.0" standalone="no"?>
<!DOCTYPE svg PUBLIC "-//W3C//DTD SVG 1.1//EN" "http://www.w3.org/Graphics/SVG/1.1/DTD/svg11.dtd" >
<svg xmlns="http://www.w3.org/2000/svg" xmlns:xlink="http://www.w3.org/1999/xlink" version="1.1" viewBox="-10 0 1070 1000">
   <path fill="currentColor"
d="M800 948v2c0 37 13 50 50 50h150c28 0 50 22 50 50s-22 50 -50 50h-150c-33 0 -150 -10 -150 -150c0 -5 -3 -325 -400 -349v349c0 28 -22 50 -50 50s-50 -22 -50 -50v-800c0 -28 22 -50 50 -50s50 22 50 50v349c397 -24 400 -344 400 -349c0 -28 22 -50 50 -50
s50 22 50 50c0 10 -3 283 -276 400c275 118 276 393 276 398z" />
</svg>
