<?xml version="1.0" standalone="no"?>
<!DOCTYPE svg PUBLIC "-//W3C//DTD SVG 1.1//EN" "http://www.w3.org/Graphics/SVG/1.1/DTD/svg11.dtd" >
<svg xmlns="http://www.w3.org/2000/svg" xmlns:xlink="http://www.w3.org/1999/xlink" version="1.1" viewBox="-10 0 1010 1000">
   <path fill="currentColor"
d="M668 560c0 11 -3 121 -103 190c56 39 103 108 103 190c0 28 -22 50 -50 50c-32 0 -47 -24 -50 -54c-2 -25 -18 -114 -138 -132v136c0 28 -22 50 -50 50s-50 -22 -50 -50v-380c0 -28 22 -50 50 -50s50 22 50 50v136c68 -10 100 -42 116 -68c15 -23 21 -42 22 -68
c0 -27 23 -50 50 -50c28 0 50 22 50 50z" />
</svg>
