<?xml version="1.0" standalone="no"?>
<!DOCTYPE svg PUBLIC "-//W3C//DTD SVG 1.1//EN" "http://www.w3.org/Graphics/SVG/1.1/DTD/svg11.dtd" >
<svg xmlns="http://www.w3.org/2000/svg" xmlns:xlink="http://www.w3.org/1999/xlink" version="1.1" viewBox="-10 0 1010 1000">
   <path fill="currentColor"
d="M157 649c-20 17 -37 49 -37 98c0 39 11 76 37 92v-190zM282 631h-25v219h25v-219zM284 531c13 -253 131 -481 390 -481c42 0 60 36 65 48c13 29 15 62 24 92c53 30 133 89 179 135c13 13 23 23 31 40c2 5 7 14 7 27c0 22 -8 33 -16 43c-21 32 -49 57 -78 86
c-20 20 -40 39 -55 53c-3 3 -6 6 -9 8v318c0 28 -22 50 -50 50s-50 -22 -50 -50v-340c0 -29 24 -42 41 -59c30 -28 77 -75 105 -105c0 -1 1 -1 1 -2c-13 -12 -29 -27 -49 -43c-43 -34 -90 -66 -115 -79c-17 -9 -27 -24 -30 -31c-9 -19 -13 -39 -17 -61c-2 -10 -6 -22 -7 -29
c-88 6 -150 50 -194 119c-49 77 -75 187 -75 310v270h69c0 -28 -11 -56 -17 -79c-1 -2 -1 -3 -1 -4c-3 -3 -4 -12 -4 -17c0 -25 21 -50 51 -50c21 0 40 13 47 34v1l1 1c0 8 4 13 7 24c7 27 17 64 17 101c0 46 -24 89 -72 89h-279c-67 0 -116 -29 -145 -73
c-28 -41 -36 -90 -36 -130c0 -123 79 -215 181 -215c25 0 49 -1 71 -1h12zM720 460c-33 0 -60 -27 -60 -60s27 -60 60 -60s60 27 60 60s-27 60 -60 60zM620 400c0 33 -27 60 -60 60s-60 -27 -60 -60s27 -60 60 -60s60 27 60 60zM676 758v142c0 28 -22 50 -50 50
s-50 -22 -50 -50v-142c0 -28 22 -50 50 -50s50 22 50 50z" />
</svg>
