<?xml version="1.0" standalone="no"?>
<!DOCTYPE svg PUBLIC "-//W3C//DTD SVG 1.1//EN" "http://www.w3.org/Graphics/SVG/1.1/DTD/svg11.dtd" >
<svg xmlns="http://www.w3.org/2000/svg" xmlns:xlink="http://www.w3.org/1999/xlink" version="1.1" viewBox="-10 0 1010 1000">
   <path fill="currentColor"
d="M500 510c18 0 35 10 44 25l223 380c5 9 7 17 7 25c0 28 -25 50 -50 50h-447c-24 0 -50 -22 -50 -50c0 -8 2 -16 7 -25l223 -380c9 -15 25 -25 43 -25zM364 890h273l-137 -231zM500 734c18 0 34 10 43 25l26 45c5 9 7 17 7 25c0 28 -26 50 -50 50h-52
c-24 0 -50 -22 -50 -50c0 -8 2 -16 7 -25l26 -45c9 -15 25 -25 43 -25z" />
</svg>
