<?xml version="1.0" standalone="no"?>
<!DOCTYPE svg PUBLIC "-//W3C//DTD SVG 1.1//EN" "http://www.w3.org/Graphics/SVG/1.1/DTD/svg11.dtd" >
<svg xmlns="http://www.w3.org/2000/svg" xmlns:xlink="http://www.w3.org/1999/xlink" version="1.1" viewBox="-10 0 1010 1000">
   <path fill="currentColor"
d="M609 45c10 -14 25 -20 40 -20c23 0 44 15 49 41l35 195h192c30 0 50 24 50 50c0 12 -5 25 -15 35l-152 153l129 117c11 10 17 24 17 37c0 23 -16 46 -42 50l-199 33l9 187v2c0 29 -24 50 -50 50c-10 0 -21 -3 -30 -10l-209 -159l-221 130c-8 5 -17 7 -25 7
c-27 0 -51 -22 -51 -50c0 -6 2 -11 4 -17l89 -247l-175 -83c-19 -9 -29 -27 -29 -45c0 -17 8 -33 25 -43l207 -117l-67 -226c-1 -5 -2 -10 -2 -15c0 -28 24 -50 50 -50c9 0 19 3 28 9l221 149zM620 197l-82 109c-10 13 -25 20 -40 20c-10 0 -19 -2 -28 -8l-145 -98l39 131
c1 5 2 9 2 14c0 18 -10 34 -26 43l-156 89l129 60c18 8 28 27 28 46c0 6 -1 11 -3 17l-57 159l130 -76c8 -5 17 -7 26 -7c11 0 21 3 30 10l150 114l-6 -124v-3c0 -24 18 -45 42 -49l140 -23l-91 -83c-11 -10 -16 -23 -16 -37c0 -13 4 -25 14 -35l105 -105h-114
c-24 0 -45 -17 -49 -41z" />
</svg>
