<?xml version="1.0" standalone="no"?>
<!DOCTYPE svg PUBLIC "-//W3C//DTD SVG 1.1//EN" "http://www.w3.org/Graphics/SVG/1.1/DTD/svg11.dtd" >
<svg xmlns="http://www.w3.org/2000/svg" xmlns:xlink="http://www.w3.org/1999/xlink" version="1.1" viewBox="-10 0 1010 1000">
   <path fill="currentColor"
d="M124 303c157 0 202 -33 202 -160c0 -12 0 -26 -1 -40c0 -1 -1 -2 -1 -3c0 -30 25 -50 51 -50c12 0 25 4 35 14c96 95 152 137 216 137c77 0 150 -61 181 -61c27 0 50 23 50 50c0 33 -74 151 -74 238v1c0 47 21 97 118 159c16 10 23 26 23 41c0 26 -19 51 -49 51h-4
c-15 -1 -27 -1 -40 -1c-141 0 -157 59 -166 224c-1 28 -26 47 -51 47c-17 0 -34 -9 -45 -31c-13 -26 -74 -132 -214 -132c-98 0 -163 48 -189 48c-27 0 -50 -24 -50 -51c0 -30 83 -156 83 -242c0 -54 -31 -96 -104 -148c-14 -10 -20 -25 -20 -40c0 -26 18 -51 49 -51z
M714 286c-32 10 -62 16 -90 16c-70 0 -132 -32 -203 -91c-18 111 -83 164 -177 183c40 49 55 97 55 146c0 52 -16 104 -39 158c18 -4 52 -11 95 -11c64 0 147 16 223 84c16 -85 56 -160 167 -184c-46 -53 -62 -105 -62 -158c0 -49 14 -97 31 -143z" />
</svg>
