<?xml version="1.0" standalone="no"?>
<!DOCTYPE svg PUBLIC "-//W3C//DTD SVG 1.1//EN" "http://www.w3.org/Graphics/SVG/1.1/DTD/svg11.dtd" >
<svg xmlns="http://www.w3.org/2000/svg" xmlns:xlink="http://www.w3.org/1999/xlink" version="1.1" viewBox="-10 0 1010 1000">
   <path fill="currentColor"
d="M420 360c-30 -39 -86 -69 -161 -70c-21 0 -44 8 -64 32c-21 26 -45 79 -45 180c0 195 155 350 350 350s350 -155 350 -350c0 -98 -24 -150 -45 -176c-20 -24 -42 -32 -65 -32c-78 0 -127 23 -160 66c-19 25 -49 40 -80 40s-61 -15 -80 -40zM395 100c0 -26 22 -50 49 -50
c15 0 28 6 39 17c0 0 1 0 1 1c5 5 9 10 14 18c26 39 52 94 52 163c48 -36 116 -55 190 -55c101 0 210 81 210 308c0 250 -200 450 -450 450s-450 -200 -450 -450c0 -231 108 -312 208 -312h2c74 1 141 23 190 60c0 -45 -16 -82 -34 -107c-3 -4 -5 -6 -6 -8
c-10 -10 -15 -23 -15 -35z" />
</svg>
