<?xml version="1.0" standalone="no"?>
<!DOCTYPE svg PUBLIC "-//W3C//DTD SVG 1.1//EN" "http://www.w3.org/Graphics/SVG/1.1/DTD/svg11.dtd" >
<svg xmlns="http://www.w3.org/2000/svg" xmlns:xlink="http://www.w3.org/1999/xlink" version="1.1" viewBox="-10 0 1010 1000">
   <path fill="currentColor"
d="M420 338c-34 -46 -99 -80 -183 -80c-25 0 -53 10 -76 38c-25 30 -51 91 -51 203c0 218 173 391 390 391s390 -173 390 -391c0 -109 -27 -168 -51 -198c-24 -29 -51 -39 -79 -39c-86 0 -142 26 -180 76c-19 25 -49 40 -80 40s-61 -15 -80 -40zM391 60c0 -27 23 -50 50 -50
c25 0 41 19 53 37c29 42 56 102 56 179c53 -42 128 -64 210 -64c111 0 230 89 230 337c0 273 -218 491 -490 491s-490 -218 -490 -491c0 -252 119 -341 227 -341c83 0 159 27 213 69c0 -57 -20 -105 -46 -133c-9 -10 -13 -22 -13 -34z" />
</svg>
