<?xml version="1.0" standalone="no"?>
<!DOCTYPE svg PUBLIC "-//W3C//DTD SVG 1.1//EN" "http://www.w3.org/Graphics/SVG/1.1/DTD/svg11.dtd" >
<svg xmlns="http://www.w3.org/2000/svg" xmlns:xlink="http://www.w3.org/1999/xlink" version="1.1" viewBox="-10 0 1010 1000">
   <path fill="currentColor"
d="M690 510c27 0 50 23 50 50c0 13 -5 25 -15 35l-380 380c-10 10 -22 15 -35 15c-27 0 -50 -23 -50 -50c0 -13 5 -25 15 -35l380 -380c10 -10 22 -15 35 -15zM420 595c0 41 -34 75 -75 75s-75 -34 -75 -75s34 -75 75 -75s75 34 75 75zM730 905c0 41 -34 75 -75 75
s-75 -34 -75 -75s34 -75 75 -75s75 34 75 75z" />
</svg>
