<?xml version="1.0" standalone="no"?>
<!DOCTYPE svg PUBLIC "-//W3C//DTD SVG 1.1//EN" "http://www.w3.org/Graphics/SVG/1.1/DTD/svg11.dtd" >
<svg xmlns="http://www.w3.org/2000/svg" xmlns:xlink="http://www.w3.org/1999/xlink" version="1.1" viewBox="-10 0 1010 1000">
   <path fill="currentColor"
d="M800 700c0 55 -45 100 -100 100s-100 -45 -100 -100s45 -100 100 -100s100 45 100 100zM400 300c0 55 -45 100 -100 100s-100 -45 -100 -100s45 -100 100 -100s100 45 100 100zM750 200c26 0 50 24 50 50c0 12 -5 25 -15 35l-500 500c-10 10 -23 15 -35 15
c-26 0 -50 -24 -50 -50c0 -12 5 -25 15 -35l500 -500c10 -10 23 -15 35 -15z" />
</svg>
