<?xml version="1.0" standalone="no"?>
<!DOCTYPE svg PUBLIC "-//W3C//DTD SVG 1.1//EN" "http://www.w3.org/Graphics/SVG/1.1/DTD/svg11.dtd" >
<svg xmlns="http://www.w3.org/2000/svg" xmlns:xlink="http://www.w3.org/1999/xlink" version="1.1" viewBox="-10 0 1010 1000">
   <path fill="currentColor"
d="M839 368l-119 -178h-440l-119 178l339 449zM500 950c-16 0 -31 -7 -40 -20l-400 -530c-7 -9 -10 -19 -10 -30c0 -10 2 -20 8 -28l153 -230c9 -14 25 -22 42 -22h494c17 0 33 8 42 22l153 230c6 8 8 18 8 28c0 11 -3 21 -10 30l-400 530c-9 13 -24 20 -40 20z" />
</svg>
