<?xml version="1.0" standalone="no"?>
<!DOCTYPE svg PUBLIC "-//W3C//DTD SVG 1.1//EN" "http://www.w3.org/Graphics/SVG/1.1/DTD/svg11.dtd" >
<svg xmlns="http://www.w3.org/2000/svg" xmlns:xlink="http://www.w3.org/1999/xlink" version="1.1" viewBox="-10 0 1010 1000">
   <path fill="currentColor"
d="M500 510c28 0 50 22 50 50v35c0 28 -22 50 -50 50s-50 -22 -50 -50v-35c0 -28 22 -50 50 -50zM303 905c0 -22 13 -37 31 -47c-3 -12 -4 -25 -4 -38c0 -94 76 -170 170 -170c45 0 85 18 115 46c9 -5 20 -11 32 -11c25 0 50 21 50 50c0 17 -9 34 -25 43l-7 5
c3 12 4 24 4 37c0 94 -75 170 -169 170c-45 0 -86 -17 -116 -45c-9 5 -20 10 -31 10c-25 0 -50 -21 -50 -50zM433 801l84 -49c-6 -1 -11 -2 -17 -2c-32 0 -59 21 -67 51zM566 839l-84 49c5 1 12 2 18 2c32 0 58 -22 66 -51zM321 594c0 -25 20 -51 50 -51c17 0 33 9 42 25
l17 30c4 8 6 17 6 25c0 25 -20 52 -50 52c-17 0 -33 -9 -42 -25l-17 -31c-4 -8 -6 -17 -6 -25zM629 543c30 0 50 26 50 51c0 8 -2 17 -6 25l-17 31c-9 16 -25 25 -42 25c-30 0 -50 -27 -50 -52c0 -8 2 -17 6 -25l17 -30c9 -16 25 -25 42 -25z" />
</svg>
