<?xml version="1.0" standalone="no"?>
<!DOCTYPE svg PUBLIC "-//W3C//DTD SVG 1.1//EN" "http://www.w3.org/Graphics/SVG/1.1/DTD/svg11.dtd" >
<svg xmlns="http://www.w3.org/2000/svg" xmlns:xlink="http://www.w3.org/1999/xlink" version="1.1" viewBox="-10 0 1010 1000">
   <path fill="currentColor"
d="M750 117c29 0 50 25 50 50c0 9 -2 17 -7 25l-50 87c-9 16 -26 25 -43 25c-29 0 -50 -25 -50 -50c0 -9 2 -17 7 -25l50 -87c9 -16 26 -25 43 -25zM200 167c0 -25 21 -50 50 -50c17 0 34 9 43 25l50 87c5 8 7 16 7 25c0 25 -21 50 -50 50c-17 0 -34 -9 -43 -25l-50 -87
c-5 -8 -7 -16 -7 -25zM709 542l-366 244c41 40 96 64 157 64c124 0 225 -101 225 -225c0 -29 -6 -57 -16 -83zM500 400c-124 0 -225 101 -225 225c0 27 5 53 14 77l364 -242c-40 -37 -94 -60 -153 -60zM169 891c-26 0 -49 -21 -49 -50c0 -16 8 -32 22 -41l62 -41
c-18 -41 -29 -86 -29 -134c0 -179 146 -325 325 -325c94 0 178 40 237 103l70 -47c9 -6 18 -8 28 -8c26 0 50 21 50 50c0 16 -8 33 -22 42l-69 46c20 42 31 89 31 139c0 179 -146 325 -325 325c-96 0 -183 -42 -242 -108l-61 41c-9 6 -19 8 -28 8zM500 50c28 0 50 22 50 50
v100c0 28 -22 50 -50 50s-50 -22 -50 -50v-100c0 -28 22 -50 50 -50z" />
</svg>
