<?xml version="1.0" standalone="no"?>
<!DOCTYPE svg PUBLIC "-//W3C//DTD SVG 1.1//EN" "http://www.w3.org/Graphics/SVG/1.1/DTD/svg11.dtd" >
<svg xmlns="http://www.w3.org/2000/svg" xmlns:xlink="http://www.w3.org/1999/xlink" version="1.1" viewBox="-10 0 1010 1000">
   <path fill="currentColor"
d="M376 49c24 0 51 21 51 51c0 22 -16 43 -39 49c-38 10 -64 17 -85 32c-18 13 -36 34 -47 77c-4 15 -6 28 -6 41c0 55 34 100 89 169c1 3 4 4 5 7c50 63 106 133 106 226c0 92 -45 163 -95 198c-36 25 -77 38 -113 48c-1 0 -3 1 -4 1c-5 1 -10 2 -15 2
c-25 0 -49 -20 -49 -51c0 -22 14 -40 36 -47c40 -11 67 -20 88 -35c18 -13 35 -33 46 -75c4 -14 6 -27 6 -40c0 -56 -34 -102 -89 -170c-2 -3 -2 -4 -5 -7c-51 -64 -106 -133 -106 -226c0 -91 45 -164 95 -199c38 -27 81 -40 119 -49c4 -1 8 -2 12 -2zM776 49
c24 0 51 21 51 51c0 22 -16 43 -39 49c-38 10 -64 17 -85 32c-18 13 -36 34 -47 77c-4 15 -6 28 -6 41c0 55 34 100 89 169c1 3 4 4 5 7c50 63 106 133 106 226c0 92 -45 163 -95 198c-36 25 -77 38 -113 48c-1 0 -3 1 -4 1c-5 1 -10 2 -15 2c-25 0 -49 -20 -49 -51
c0 -22 14 -40 36 -47c40 -11 67 -20 88 -35c18 -13 35 -33 46 -75c4 -14 6 -27 6 -40c0 -56 -34 -102 -89 -170c-2 -3 -2 -4 -5 -7c-51 -64 -106 -133 -106 -226c0 -91 45 -164 95 -199c38 -27 81 -40 119 -49c4 -1 8 -2 12 -2z" />
</svg>
