<?xml version="1.0" standalone="no"?>
<!DOCTYPE svg PUBLIC "-//W3C//DTD SVG 1.1//EN" "http://www.w3.org/Graphics/SVG/1.1/DTD/svg11.dtd" >
<svg xmlns="http://www.w3.org/2000/svg" xmlns:xlink="http://www.w3.org/1999/xlink" version="1.1" viewBox="-10 0 1010 1000">
   <path fill="currentColor"
d="M236 70c25 0 50 20 50 50c0 22 -15 43 -38 49c-38 10 -64 17 -85 32c-18 13 -36 34 -47 77c-4 15 -6 28 -6 41c0 56 39 107 94 176c50 63 106 133 106 227c0 91 -45 162 -95 197c-37 26 -80 38 -117 49c-5 1 -9 2 -14 2c-25 0 -50 -20 -50 -50c0 -22 14 -42 36 -48
c40 -11 67 -20 88 -35c18 -13 35 -33 46 -75c4 -14 6 -27 6 -40c0 -57 -40 -109 -94 -177c-51 -64 -106 -133 -106 -226c0 -91 45 -163 95 -199c38 -27 81 -40 119 -49c4 -1 8 -1 12 -1zM916 30c25 0 50 20 50 50c0 22 -15 43 -38 49c-38 10 -64 17 -85 32
c-18 13 -36 34 -47 77c-4 15 -6 28 -6 41c0 56 39 107 94 176c50 63 106 133 106 227c0 91 -45 162 -95 197c-37 26 -80 38 -117 49c-5 1 -9 2 -14 2c-25 0 -50 -20 -50 -50c0 -22 14 -42 36 -48c40 -11 67 -20 88 -35c18 -13 35 -33 46 -75c4 -14 6 -27 6 -40
c0 -57 -40 -109 -94 -177c-51 -64 -106 -133 -106 -226c0 -91 45 -163 95 -199c38 -27 81 -40 119 -49c4 -1 8 -1 12 -1z" />
</svg>
