<?xml version="1.0" standalone="no"?>
<!DOCTYPE svg PUBLIC "-//W3C//DTD SVG 1.1//EN" "http://www.w3.org/Graphics/SVG/1.1/DTD/svg11.dtd" >
<svg xmlns="http://www.w3.org/2000/svg" xmlns:xlink="http://www.w3.org/1999/xlink" version="1.1" viewBox="-10 0 1010 1000">
   <path fill="currentColor"
d="M874 325c28 0 50 22 50 50v500c0 28 -22 50 -50 50h-750c-28 0 -50 -22 -50 -50v-250c0 -28 22 -50 50 -50h450v-150h-200c-28 0 -50 -22 -50 -50v-250c0 -28 22 -50 50 -50h250c28 0 50 22 50 50v200h200zM424 325h150v-150h-150v150zM674 625c0 28 -22 50 -50 50h-450
v150h650v-400h-150v200z" />
</svg>
