<?xml version="1.0" standalone="no"?>
<!DOCTYPE svg PUBLIC "-//W3C//DTD SVG 1.1//EN" "http://www.w3.org/Graphics/SVG/1.1/DTD/svg11.dtd" >
<svg xmlns="http://www.w3.org/2000/svg" xmlns:xlink="http://www.w3.org/1999/xlink" version="1.1" viewBox="-10 0 1010 1000">
   <path fill="currentColor"
d="M819 913c-63 0 -114 -20 -176 -20c-11 0 -22 1 -32 3c-69 15 -133 44 -197 64c-28 9 -59 16 -90 16c-37 0 -75 -10 -110 -41c-58 -51 -139 -70 -180 -140c-16 -27 -24 -60 -24 -98c0 -83 54 -129 89 -168c26 -29 44 -49 44 -97c0 -10 -2 -21 -4 -34c-5 -27 -7 -51 -7 -74
c0 -38 8 -71 25 -98c28 -45 75 -61 115 -70c42 -9 84 -13 126 -22s83 -22 119 -48c34 -25 65 -43 93 -53c17 -6 34 -9 51 -9c49 0 80 29 96 58c47 84 26 255 76 333c21 33 44 57 68 82c43 45 89 94 89 182c0 38 -8 80 -25 130c-21 64 -66 104 -146 104zM232 324
c0 27 11 77 11 108c0 86 -47 139 -86 182c-32 35 -47 51 -47 83c0 23 5 37 11 47c16 27 57 47 87 65c22 13 48 29 72 51c12 11 26 17 45 17c49 0 109 -29 151 -45c46 -17 103 -39 167 -39c55 0 101 13 150 18c10 1 19 2 26 2c13 0 22 -1 28 -4c7 -3 16 -9 23 -32
c15 -44 20 -75 20 -98c0 -27 -7 -46 -19 -64c-11 -17 -32 -38 -51 -58c-22 -23 -47 -51 -71 -89c-40 -62 -46 -136 -55 -215c-5 -43 -8 -94 -24 -122c-3 -6 -4 -7 -11 -7c-3 0 -8 1 -16 4c-16 5 -38 17 -68 39c-73 52 -137 64 -226 77c-22 3 -40 6 -56 10
c-33 7 -46 16 -52 26c-4 7 -9 20 -9 44z" />
</svg>
