<?xml version="1.0" standalone="no"?>
<!DOCTYPE svg PUBLIC "-//W3C//DTD SVG 1.1//EN" "http://www.w3.org/Graphics/SVG/1.1/DTD/svg11.dtd" >
<svg xmlns="http://www.w3.org/2000/svg" xmlns:xlink="http://www.w3.org/1999/xlink" version="1.1" viewBox="-10 0 1010 1000">
   <path fill="currentColor"
d="M373 88c66 0 113 26 180 26c41 0 78 -5 119 -5s84 5 135 27c103 44 143 137 143 231c0 33 -5 68 -14 99c-19 68 -59 98 -101 131c-20 15 -36 28 -52 48c-28 34 -35 83 -52 130c-9 26 -23 55 -49 80c-30 29 -92 58 -153 58c-24 0 -48 -5 -69 -15
c-59 -28 -74 -80 -104 -130c-21 -36 -41 -52 -86 -61c-59 -12 -105 -8 -152 -41c-33 -23 -68 -78 -68 -138c0 -82 55 -114 96 -152c13 -12 21 -23 27 -35c16 -35 18 -62 25 -100c7 -39 21 -82 69 -118c36 -27 72 -35 106 -35zM553 214c-35 0 -68 -5 -95 -11
c-26 -6 -55 -14 -82 -14c-18 0 -35 3 -50 14c-23 17 -27 39 -32 73c-4 28 -11 66 -30 107c-23 50 -59 72 -94 105c-15 14 -20 19 -20 37c0 6 1 15 4 25c6 21 14 29 21 34c23 16 79 17 114 24c28 5 59 15 89 36c53 37 67 85 99 136c10 16 19 24 27 28c5 2 12 5 24 5
c8 0 16 0 28 -3c30 -6 46 -17 56 -26c25 -24 34 -75 47 -114c9 -28 23 -59 47 -88c30 -37 60 -57 90 -82c23 -19 37 -34 44 -61c7 -25 10 -50 10 -73c0 -64 -28 -115 -82 -138c-35 -15 -67 -19 -100 -19c-35 0 -72 5 -115 5z" />
</svg>
