<?xml version="1.0" standalone="no"?>
<!DOCTYPE svg PUBLIC "-//W3C//DTD SVG 1.1//EN" "http://www.w3.org/Graphics/SVG/1.1/DTD/svg11.dtd" >
<svg xmlns="http://www.w3.org/2000/svg" xmlns:xlink="http://www.w3.org/1999/xlink" version="1.1" viewBox="-10 0 1010 1000">
   <path fill="currentColor"
d="M359 917c-123 0 -223 -101 -223 -224c0 -27 5 -54 15 -80c-63 -41 -101 -112 -101 -187c0 -136 111 -224 223 -224c4 0 7 1 11 1c25 -95 113 -166 216 -166s191 71 216 166c4 0 7 -1 11 -1c112 0 223 88 223 224c0 75 -38 146 -101 187c10 26 14 53 14 80
c0 123 -100 224 -223 224c-50 0 -100 -17 -140 -50c-40 33 -91 50 -141 50zM727 302c-29 0 -39 9 -54 9c-25 0 -50 -20 -50 -51c0 -68 -55 -123 -123 -123c-66 0 -120 52 -123 118v6c0 30 -26 50 -50 50c-15 0 -25 -9 -54 -9c-62 0 -123 49 -123 124c0 52 33 100 85 117
c21 7 35 27 35 48c0 31 -34 43 -34 102c0 69 57 124 123 124c38 0 76 -18 100 -51c10 -13 26 -21 41 -21c16 0 30 8 40 21c24 33 62 51 100 51c66 0 123 -55 123 -124c0 -59 -33 -70 -33 -102c0 -21 14 -41 35 -48c52 -17 85 -65 85 -117c0 -75 -61 -124 -123 -124z" />
</svg>
