<?xml version="1.0" standalone="no"?>
<!DOCTYPE svg PUBLIC "-//W3C//DTD SVG 1.1//EN" "http://www.w3.org/Graphics/SVG/1.1/DTD/svg11.dtd" >
<svg xmlns="http://www.w3.org/2000/svg" xmlns:xlink="http://www.w3.org/1999/xlink" version="1.1" viewBox="-10 0 1010 1000">
   <path fill="currentColor"
d="M629 853c56 0 107 9 161 9c13 0 24 -1 33 -3c20 -4 23 -19 26 -27c-10 -9 -29 -17 -48 -27c-20 -10 -44 -24 -67 -42c-45 -35 -51 -73 -63 -122c-5 -20 -3 -31 -25 -31c-15 0 -42 4 -88 20c-66 23 -125 29 -198 34c-35 3 -72 3 -98 13c4 15 8 29 8 45
c0 69 -68 94 -108 117c41 17 86 24 128 42c14 6 30 9 50 9c17 0 37 -2 61 -6c72 -11 143 -31 228 -31zM851 834v0zM788 961c-49 0 -108 -8 -158 -8c-11 0 -23 0 -34 1c-68 7 -118 19 -180 29c-24 4 -50 7 -75 7c-31 0 -61 -4 -90 -17c-54 -24 -123 -29 -167 -65
c-19 -16 -34 -39 -34 -70c0 -39 27 -62 43 -74c21 -15 61 -30 77 -46c-5 -15 -9 -31 -9 -47c0 -5 0 -10 1 -16c17 -96 149 -86 250 -96c40 -4 78 -11 113 -23c48 -17 87 -26 121 -26c57 0 93 30 110 69c13 31 16 87 39 105c32 25 76 40 110 65c20 15 45 40 45 81
c0 28 -13 54 -29 78c-29 42 -77 53 -133 53zM171 720v0z" />
</svg>
