<?xml version="1.0" standalone="no"?>
<!DOCTYPE svg PUBLIC "-//W3C//DTD SVG 1.1//EN" "http://www.w3.org/Graphics/SVG/1.1/DTD/svg11.dtd" >
<svg xmlns="http://www.w3.org/2000/svg" xmlns:xlink="http://www.w3.org/1999/xlink" version="1.1" viewBox="-10 0 1010 1000">
   <path fill="currentColor"
d="M775 774c0 14 4 47 4 66c0 36 -8 67 -29 92c-29 35 -66 44 -106 44c-56 0 -114 -22 -142 -36c-60 -30 -78 -69 -106 -102c-12 7 -24 19 -37 30c-39 34 -88 82 -160 82c-35 0 -69 -14 -100 -42c-63 -57 -89 -121 -89 -191c0 -68 27 -125 54 -172c15 -27 30 -53 40 -81
c6 -17 9 -33 9 -48s-3 -29 -10 -43c-15 -32 -23 -71 -23 -110c0 -32 5 -65 14 -95c20 -67 69 -144 164 -144c103 0 151 74 208 114c14 10 19 9 20 9c27 -1 67 -16 106 -32c51 -21 116 -50 189 -50c96 0 148 59 167 137c4 16 6 31 6 46c0 64 -27 104 -41 150
c-4 12 -4 18 -3 21c3 15 18 30 36 49c19 20 44 54 44 96c0 97 -77 119 -148 143c-15 5 -27 10 -35 16c-24 16 -28 26 -30 32c-1 4 -2 10 -2 19zM810 415c0 -64 44 -109 44 -167c0 -7 -1 -15 -3 -22c-8 -35 -22 -48 -34 -54c-8 -4 -20 -7 -36 -7c-12 0 -26 1 -43 5
c-39 8 -78 25 -118 41c-39 16 -86 36 -134 36c-32 0 -58 -14 -77 -27c-42 -29 -99 -96 -151 -96c-28 0 -52 20 -68 72c-7 22 -10 46 -10 67c0 26 5 50 13 67c14 29 20 58 20 86c0 82 -45 147 -73 197c-18 32 -30 68 -30 104c0 41 14 79 56 117c15 13 25 16 33 16
c36 0 79 -44 103 -65c23 -20 55 -49 98 -49c16 0 30 3 44 12c22 14 34 33 45 47c17 24 32 43 58 56c23 12 64 26 96 26c15 0 28 -5 30 -8c2 -2 6 -10 6 -29c0 -21 -4 -43 -4 -65c0 -102 78 -145 158 -170c15 -5 41 -14 49 -21c4 -4 10 -18 6 -27c-2 -4 -12 -17 -20 -25
c-20 -20 -58 -61 -58 -117z" />
</svg>
