<?xml version="1.0" standalone="no"?>
<!DOCTYPE svg PUBLIC "-//W3C//DTD SVG 1.1//EN" "http://www.w3.org/Graphics/SVG/1.1/DTD/svg11.dtd" >
<svg xmlns="http://www.w3.org/2000/svg" xmlns:xlink="http://www.w3.org/1999/xlink" version="1.1" viewBox="-10 0 1010 1000">
   <path fill="currentColor"
d="M372 510c59 0 117 13 185 13c43 0 80 -2 116 -2c40 0 80 3 126 13c60 13 108 39 133 81c13 21 18 43 18 65c0 24 -7 47 -18 68c-20 38 -58 57 -84 68c-27 12 -54 21 -77 35c-28 18 -27 34 -46 62c-34 50 -104 77 -194 77c-56 0 -97 -15 -128 -41c-13 -11 -21 -19 -28 -26
c-13 -13 -21 -21 -43 -29c-59 -21 -142 -10 -202 -32c-34 -13 -80 -46 -80 -99c0 -45 40 -71 64 -83c19 -10 55 -23 67 -36c11 -13 13 -24 19 -42c4 -12 12 -28 26 -43c30 -31 92 -49 146 -49zM850 680c0 -46 -123 -59 -182 -59c-36 0 -73 2 -115 2c-40 0 -81 -4 -115 -8
c-22 -3 -43 -5 -64 -5c-25 0 -65 6 -77 19c-1 1 -3 8 -4 12c-4 14 -13 43 -37 70c-28 31 -59 40 -94 57c16 6 48 9 75 11c38 2 88 6 130 21c53 19 74 50 100 72c16 13 31 19 56 19c11 0 23 -1 38 -3c34 -4 53 -10 63 -15c13 -7 17 -13 23 -25c10 -18 30 -55 70 -81
c31 -20 62 -30 91 -43c27 -12 34 -18 36 -23c5 -9 6 -15 6 -21z" />
</svg>
