<?xml version="1.0" standalone="no"?>
<!DOCTYPE svg PUBLIC "-//W3C//DTD SVG 1.1//EN" "http://www.w3.org/Graphics/SVG/1.1/DTD/svg11.dtd" >
<svg xmlns="http://www.w3.org/2000/svg" xmlns:xlink="http://www.w3.org/1999/xlink" version="1.1" viewBox="-10 0 1010 1000">
   <path fill="currentColor"
d="M333 189c-54 0 -100 16 -100 73c0 77 55 114 83 168c11 21 16 41 16 59c0 63 -55 110 -107 144c-25 16 -37 40 -37 64c0 26 14 51 43 67c10 5 17 6 24 4c10 -3 29 -15 47 -26c26 -17 66 -42 115 -42c14 0 29 2 44 7c59 18 74 63 110 98c14 13 25 20 46 20
c14 0 35 -3 64 -15c39 -16 59 -32 71 -46c11 -13 14 -25 14 -37c0 -29 -20 -65 -55 -100c-19 -19 -26 -40 -26 -61c0 -48 38 -96 59 -125c27 -37 69 -93 69 -141c0 -24 -9 -52 -44 -86c-21 -21 -36 -25 -50 -25c-15 0 -32 6 -56 16c-37 16 -78 37 -124 37
c-23 0 -48 -5 -73 -20c-30 -17 -84 -33 -133 -33zM133 262c0 -119 97 -172 206 -172c63 0 129 16 178 45c8 5 17 7 25 7c22 0 44 -13 63 -21c32 -14 68 -32 114 -32c44 0 83 17 120 54c51 50 74 103 74 157c0 111 -79 175 -120 246c-4 6 -5 10 -7 14c39 41 80 100 80 167
c0 92 -72 145 -148 176c-37 15 -71 22 -101 22c-89 0 -121 -56 -161 -102c-12 -14 -20 -19 -25 -21s-10 -2 -15 -2c-17 0 -34 10 -66 30c-28 18 -65 38 -106 38c-20 0 -40 -4 -61 -16c-63 -34 -96 -94 -96 -155c0 -55 27 -110 82 -147c43 -29 58 -47 62 -56c1 -2 1 -4 1 -6
c0 -15 -20 -35 -28 -46c-25 -33 -51 -65 -63 -117c-5 -22 -8 -43 -8 -63z" />
</svg>
