<?xml version="1.0" standalone="no"?>
<!DOCTYPE svg PUBLIC "-//W3C//DTD SVG 1.1//EN" "http://www.w3.org/Graphics/SVG/1.1/DTD/svg11.dtd" >
<svg xmlns="http://www.w3.org/2000/svg" xmlns:xlink="http://www.w3.org/1999/xlink" version="1.1" viewBox="-10 0 1010 1000">
   <path fill="currentColor"
d="M381 68c48 -31 98 -58 178 -58c36 0 80 5 134 16c120 24 220 71 263 158c14 28 21 58 21 90c0 68 -31 143 -85 221c-43 62 -47 129 -51 219c-1 26 -3 54 -6 80c-7 52 -24 109 -77 148c-45 33 -109 48 -195 48c-66 0 -114 -10 -152 -38c-32 -23 -50 -51 -68 -77
c-29 -43 -56 -82 -127 -108c-95 -35 -153 -78 -178 -137c-10 -24 -14 -49 -14 -73c0 -31 6 -60 11 -84c14 -66 16 -128 39 -189c31 -80 94 -136 188 -161c60 -16 88 -35 119 -55zM559 110c-62 0 -80 15 -113 36c-34 22 -83 53 -158 73c-66 18 -100 46 -121 100
c-19 49 -22 117 -34 175c-6 27 -9 47 -9 64c0 12 2 23 6 33c9 21 35 51 120 82c106 39 145 101 179 151c16 23 27 37 41 47c12 9 30 17 64 18c10 0 20 1 29 1c76 0 115 -14 136 -29s32 -38 37 -80c6 -48 5 -103 10 -155c6 -59 22 -125 64 -187c49 -72 66 -126 66 -165
c0 -19 -4 -33 -10 -46c-21 -43 -79 -82 -192 -104c-50 -10 -87 -14 -115 -14z" />
</svg>
