<?xml version="1.0" standalone="no"?>
<!DOCTYPE svg PUBLIC "-//W3C//DTD SVG 1.1//EN" "http://www.w3.org/Graphics/SVG/1.1/DTD/svg11.dtd" >
<svg xmlns="http://www.w3.org/2000/svg" xmlns:xlink="http://www.w3.org/1999/xlink" version="1.1" viewBox="-10 0 1010 1000">
   <path fill="currentColor"
d="M483 92c47 -27 100 -42 153 -42c63 0 125 23 175 76c46 49 130 121 138 245c1 10 1 18 1 27c0 92 -33 135 -82 175c-18 15 -19 16 -20 44v26c0 22 1 43 1 65c0 58 -5 101 -34 141c-41 56 -119 93 -191 100c-8 1 -16 1 -24 1c-84 0 -146 -45 -168 -116
c-10 -31 -12 -67 -39 -80c-7 -3 -11 -3 -17 -1c-10 3 -27 15 -39 22c-18 11 -47 28 -82 28c-30 0 -59 -12 -87 -35c-77 -63 -118 -175 -118 -276c0 -94 38 -200 147 -229c17 -5 33 -7 48 -7c28 0 50 6 70 11c13 3 23 5 32 5s17 -2 26 -6c13 -6 16 -12 24 -48
c4 -16 9 -40 22 -63c13 -24 34 -46 64 -63zM347 372c-37 0 -71 -16 -103 -16c-7 0 -13 1 -21 3c-43 11 -73 58 -73 133c0 79 33 159 81 199c15 13 24 12 26 12c5 0 22 -9 34 -17c25 -16 57 -34 94 -34c16 0 34 3 52 12c61 29 72 77 91 141c10 32 33 45 70 45
c59 0 114 -29 136 -60c13 -18 15 -50 15 -85c0 -25 -1 -51 -1 -74c0 -35 1 -65 19 -95c19 -32 44 -40 63 -63c8 -10 20 -27 20 -75c0 -99 -61 -149 -112 -204c-27 -29 -63 -44 -103 -44c-32 0 -67 9 -102 29c-29 16 -31 32 -39 67c-7 31 -19 82 -78 110
c-25 12 -48 16 -69 16z" />
</svg>
