<?xml version="1.0" standalone="no"?>
<!DOCTYPE svg PUBLIC "-//W3C//DTD SVG 1.1//EN" "http://www.w3.org/Graphics/SVG/1.1/DTD/svg11.dtd" >
<svg xmlns="http://www.w3.org/2000/svg" xmlns:xlink="http://www.w3.org/1999/xlink" version="1.1" viewBox="-10 0 1010 1000">
   <path fill="currentColor"
d="M673 334c-25 0 -50 -21 -50 -51c0 -68 -55 -123 -123 -123c-66 0 -120 52 -123 118c1 7 -1 14 -3 21c-7 21 -26 35 -47 35c-5 0 -11 -1 -16 -3c-13 -4 -26 -6 -38 -6c-62 0 -123 49 -123 124c0 52 33 100 85 117c21 7 35 26 35 47c0 14 -7 26 -13 34
c-14 21 -21 45 -21 69c0 63 54 124 123 124c38 0 76 -18 100 -51c10 -14 26 -21 41 -21s30 8 40 21c24 33 62 51 100 51c25 0 50 -8 72 -24c33 -24 51 -62 51 -100c0 -25 -7 -50 -23 -72c-7 -9 -10 -19 -10 -30c0 -21 14 -41 35 -48c52 -17 85 -65 85 -117
c0 -75 -61 -124 -123 -124c-12 0 -25 2 -38 6c-5 2 -11 3 -16 3zM50 449c0 -135 111 -223 223 -223h11c25 -95 113 -166 216 -166s191 71 216 166h11c112 0 223 88 223 224c0 75 -38 145 -101 186c10 26 15 52 15 79c0 69 -32 138 -93 182c-40 29 -86 43 -131 43
c-50 0 -99 -17 -140 -50c-41 33 -91 50 -141 50c-45 0 -91 -14 -131 -43c-60 -44 -92 -111 -92 -180c0 -27 5 -55 15 -81c-63 -41 -101 -112 -101 -187z" />
</svg>
