<?xml version="1.0" standalone="no"?>
<!DOCTYPE svg PUBLIC "-//W3C//DTD SVG 1.1//EN" "http://www.w3.org/Graphics/SVG/1.1/DTD/svg11.dtd" >
<svg xmlns="http://www.w3.org/2000/svg" xmlns:xlink="http://www.w3.org/1999/xlink" version="1.1" viewBox="-10 0 1010 1000">
   <path fill="currentColor"
d="M226 878c72 0 112 -51 184 -51c61 0 73 37 124 50c21 5 61 13 95 13c10 0 19 -1 27 -2c-1 -6 -2 -11 -2 -16c0 -74 88 -93 152 -103c-13 -11 -29 -32 -29 -57c0 -37 23 -54 37 -73c-12 -8 -39 -11 -60 -11c-101 0 -172 37 -267 37c-44 0 -81 -19 -112 -32
c-30 -13 -59 -23 -95 -23c-38 0 -57 15 -63 24c-6 10 -2 14 -1 15c17 17 27 38 27 63c0 57 -49 91 -77 115c-8 7 -13 12 -16 19c9 12 47 32 76 32zM50 845c0 -69 61 -93 90 -131c-18 -20 -26 -44 -26 -69c0 -22 6 -44 18 -63c27 -45 79 -72 148 -72c57 0 100 17 134 31
c28 12 58 24 74 24c29 0 66 -8 103 -15c44 -9 106 -22 164 -22c72 0 126 18 153 72c6 13 9 25 9 37c0 28 -15 51 -27 67c23 12 60 36 60 74c0 39 -32 62 -52 71c-42 19 -99 16 -141 34c1 6 1 12 1 17c0 33 -19 59 -40 71c-23 14 -57 19 -90 19c-44 0 -89 -8 -118 -15
c-46 -11 -69 -28 -88 -41c-8 -5 -10 -6 -11 -6c0 0 -2 -1 -9 0c-6 1 -27 9 -41 15c-38 16 -83 35 -134 35c-85 0 -177 -56 -177 -133z" />
</svg>
