<?xml version="1.0" standalone="no"?>
<!DOCTYPE svg PUBLIC "-//W3C//DTD SVG 1.1//EN" "http://www.w3.org/Graphics/SVG/1.1/DTD/svg11.dtd" >
<svg xmlns="http://www.w3.org/2000/svg" xmlns:xlink="http://www.w3.org/1999/xlink" version="1.1" viewBox="-10 0 1010 1000">
   <path fill="currentColor"
d="M71 207c0 -135 105 -197 233 -197c77 0 157 22 211 54c11 6 21 9 32 9c7 0 15 -1 23 -3c62 -15 114 -60 193 -60h3c46 1 91 19 133 61c60 60 88 121 88 183c0 121 -88 192 -131 272c-9 17 -11 27 -11 34c0 6 2 10 4 13c21 31 41 64 56 96c15 31 27 66 27 102
c0 87 -63 148 -174 193c-43 18 -82 26 -117 26c-102 0 -140 -65 -186 -118c-15 -18 -26 -25 -35 -28c-7 -2 -13 -4 -20 -4c-24 0 -47 14 -85 38c-29 18 -69 45 -119 45c-23 0 -47 -6 -71 -19c-69 -38 -106 -100 -106 -171c0 -64 32 -126 87 -171c26 -21 35 -37 39 -50
c2 -6 3 -13 3 -20c0 -8 -1 -18 -4 -29c-5 -21 -17 -49 -28 -77c-18 -46 -45 -113 -45 -179zM692 129c-42 18 -86 44 -145 44c-27 0 -55 -6 -83 -23c-40 -23 -102 -40 -160 -40c-53 0 -101 17 -120 45c-7 11 -13 27 -13 52c0 56 24 108 41 151c16 41 36 81 36 134
c0 16 -2 33 -7 50c-12 36 -36 68 -72 97c-35 29 -50 64 -50 94c0 32 15 62 54 83c9 5 16 7 23 7c4 0 9 -1 13 -2c15 -4 37 -18 59 -32c31 -20 76 -48 132 -48c16 0 33 2 50 7c67 21 88 75 129 115c18 17 33 27 62 27c19 0 44 -5 79 -19c99 -40 112 -75 112 -100
c0 -15 -5 -34 -17 -59s-30 -53 -50 -84c-15 -23 -20 -45 -20 -67c0 -65 41 -114 70 -155s72 -101 72 -152c0 -29 -12 -67 -58 -112c-27 -26 -47 -32 -66 -32c-20 0 -42 7 -71 19z" />
</svg>
