<?xml version="1.0" standalone="no"?>
<!DOCTYPE svg PUBLIC "-//W3C//DTD SVG 1.1//EN" "http://www.w3.org/Graphics/SVG/1.1/DTD/svg11.dtd" >
<svg xmlns="http://www.w3.org/2000/svg" xmlns:xlink="http://www.w3.org/1999/xlink" version="1.1" viewBox="-10 0 1010 1000">
   <path fill="currentColor"
d="M181 825c-137 0 -172 -123 -172 -268c0 -39 2 -83 7 -133c16 -159 100 -224 202 -289c45 -29 98 -70 142 -92c31 -16 62 -27 97 -27c69 0 120 47 165 116c29 45 54 59 82 66c41 11 86 11 133 22c70 16 115 74 134 139c7 23 10 49 10 75c0 47 -12 96 -36 143
c-42 82 -34 117 -41 189c-9 92 -66 137 -148 176c-55 26 -107 48 -165 48c-50 0 -96 -19 -131 -65c-17 -22 -33 -47 -49 -65c-13 -16 -24 -25 -35 -31c-14 -8 -34 -13 -71 -13c-22 0 -50 2 -86 7c-12 1 -24 2 -38 2zM457 116c-13 0 -27 4 -51 16c-36 18 -97 63 -137 89
c-79 50 -140 87 -153 213c-5 48 -7 89 -7 123c0 24 1 46 3 64c5 45 14 69 23 83c12 18 22 21 46 21c7 0 16 -1 26 -2c37 -5 69 -7 98 -7c48 0 86 8 119 26c53 29 81 76 116 122c15 19 29 26 50 26c35 0 70 -14 123 -39c46 -22 67 -38 77 -51c13 -16 16 -40 17 -70
c2 -46 5 -113 50 -199c17 -33 24 -67 24 -97c0 -60 -31 -107 -68 -116c-46 -11 -89 -10 -135 -23c-52 -14 -98 -44 -140 -109c-40 -61 -64 -70 -81 -70z" />
</svg>
