<?xml version="1.0" standalone="no"?>
<!DOCTYPE svg PUBLIC "-//W3C//DTD SVG 1.1//EN" "http://www.w3.org/Graphics/SVG/1.1/DTD/svg11.dtd" >
<svg xmlns="http://www.w3.org/2000/svg" xmlns:xlink="http://www.w3.org/1999/xlink" version="1.1" viewBox="-10 0 1010 1000">
   <path fill="currentColor"
d="M777 421c0 -55 40 -99 40 -150c0 -6 0 -13 -2 -19c-7 -31 -19 -40 -28 -45c-7 -3 -17 -6 -31 -6c-10 0 -24 1 -39 4c-35 7 -70 22 -106 37s-79 33 -124 33c-30 0 -55 -14 -73 -26c-38 -27 -89 -86 -135 -86c-21 0 -43 17 -57 63c-6 19 -8 39 -8 58c0 23 4 45 11 59
c14 28 19 56 19 82c0 71 -41 133 -67 180c-18 31 -28 62 -28 92c0 37 15 72 50 103c12 11 22 14 28 14c32 0 69 -40 90 -58s55 -46 93 -46c14 0 28 3 42 12c21 13 32 30 42 43c16 22 28 39 51 50c21 10 57 23 85 23c12 0 23 -5 24 -6s4 -6 4 -23c0 -19 -4 -39 -4 -59
c0 -95 74 -136 148 -159c18 -6 45 -11 48 -28c1 -6 0 -8 -1 -9c-1 -3 -11 -15 -18 -22c-18 -19 -54 -57 -54 -111zM405 813c-50 34 -93 101 -178 101c-33 0 -66 -13 -95 -39c-56 -50 -81 -113 -81 -178c0 -47 13 -95 39 -141c16 -29 34 -59 45 -90c5 -15 8 -29 8 -42
s-2 -25 -8 -37c-14 -30 -21 -66 -21 -102c0 -30 5 -61 13 -88c19 -63 64 -134 155 -134c93 0 138 68 190 104c11 8 15 8 15 8c23 -1 59 -14 95 -29c43 -18 109 -46 173 -46c90 0 139 55 157 128c4 16 6 31 6 45c0 54 -25 93 -38 135c-3 11 -3 16 -3 18c2 12 15 25 32 42
c9 10 22 24 31 43c7 15 10 31 10 47c0 36 -16 69 -38 89c-30 28 -61 33 -100 46c-14 5 -23 9 -30 14c-21 15 -25 22 -26 26s-2 8 -2 16c0 12 4 43 4 60c0 33 -7 63 -27 87c-25 30 -62 41 -101 41c-48 0 -98 -16 -131 -33c-54 -27 -71 -63 -94 -91z" />
</svg>
