<?xml version="1.0" standalone="no"?>
<!DOCTYPE svg PUBLIC "-//W3C//DTD SVG 1.1//EN" "http://www.w3.org/Graphics/SVG/1.1/DTD/svg11.dtd" >
<svg xmlns="http://www.w3.org/2000/svg" xmlns:xlink="http://www.w3.org/1999/xlink" version="1.1" viewBox="-10 0 1010 1000">
   <path fill="currentColor"
d="M91 318c0 -127 68 -209 193 -209c35 0 71 7 105 16c9 2 15 3 21 3c21 0 35 -12 52 -26c25 -20 64 -52 125 -52c100 0 208 42 240 161c3 11 4 20 4 30c0 41 -22 73 -34 93c-12 19 -14 26 -14 29c0 6 6 8 32 13c22 4 67 12 94 55c21 34 29 67 29 99c0 40 -12 78 -24 113
c-27 77 -72 179 -199 179c-16 0 -31 -2 -47 -2c-38 0 -47 7 -65 35c-43 66 -138 95 -242 95c-21 0 -43 -1 -64 -3c-41 -5 -102 -17 -144 -52c-48 -41 -90 -101 -90 -172c0 -30 7 -62 25 -95c31 -58 37 -85 37 -103c0 -13 -5 -33 -9 -49c-11 -42 -25 -112 -25 -158zM217 819
c26 22 75 31 126 31c57 0 116 -11 148 -28c15 -8 24 -15 28 -22c30 -46 72 -79 140 -79c17 0 33 1 49 1c8 0 16 0 23 -1c41 -6 63 -38 88 -111c12 -34 19 -59 19 -80c0 -17 -5 -30 -14 -45c-2 -3 -7 -6 -35 -12c-23 -5 -71 -14 -95 -63c-8 -17 -11 -32 -11 -47
c0 -36 18 -65 29 -82c15 -25 19 -33 19 -40v-5c-15 -57 -67 -86 -144 -86c-26 0 -44 16 -71 37c-23 18 -60 41 -106 41c-15 0 -30 -1 -47 -6c-24 -6 -52 -12 -79 -12c-21 0 -42 4 -57 13s-36 32 -36 94c0 24 3 54 10 90c8 41 24 70 24 118c0 43 -15 87 -49 150
c-9 18 -13 34 -13 49c0 8 1 16 3 24c7 23 23 48 51 71z" />
</svg>
