<?xml version="1.0" standalone="no"?>
<!DOCTYPE svg PUBLIC "-//W3C//DTD SVG 1.1//EN" "http://www.w3.org/Graphics/SVG/1.1/DTD/svg11.dtd" >
<svg xmlns="http://www.w3.org/2000/svg" xmlns:xlink="http://www.w3.org/1999/xlink" version="1.1" viewBox="-10 0 1010 1000">
   <path fill="currentColor"
d="M860 214c0 68 -54 113 -54 135c0 27 95 5 140 78c23 36 31 72 31 106c0 43 -13 85 -26 123c-30 87 -78 193 -219 193c-18 0 -37 -1 -54 -1c-32 0 -47 7 -69 39c-47 73 -158 104 -265 104c-91 0 -179 -22 -223 -60c-36 -30 -97 -94 -97 -184c0 -91 69 -150 69 -220
c0 -27 -38 -139 -38 -228c0 -138 74 -223 208 -223c72 0 117 20 138 20c53 0 88 -86 195 -86c210 0 264 152 264 204zM193 527c0 100 -68 157 -68 220c0 20 8 63 61 108c29 25 84 35 142 35c85 0 176 -23 197 -57c33 -51 77 -85 153 -85c19 0 36 1 54 1
c55 0 86 -18 124 -126c13 -38 21 -66 21 -90c0 -19 -5 -35 -16 -52c-12 -24 -105 -3 -143 -82c-8 -17 -12 -34 -12 -49c0 -63 54 -106 54 -135c0 -2 -12 -105 -164 -105c-65 0 -97 86 -195 86c-48 0 -74 -20 -138 -20c-54 0 -108 16 -108 123c0 97 38 160 38 228z" />
</svg>
