<?xml version="1.0" standalone="no"?>
<!DOCTYPE svg PUBLIC "-//W3C//DTD SVG 1.1//EN" "http://www.w3.org/Graphics/SVG/1.1/DTD/svg11.dtd" >
<svg xmlns="http://www.w3.org/2000/svg" xmlns:xlink="http://www.w3.org/1999/xlink" version="1.1" viewBox="-10 0 1010 1000">
   <path fill="currentColor"
d="M632 761c56 0 103 19 158 19c11 0 19 -1 24 -3c26 -11 36 -101 36 -120c0 -20 -7 -35 -16 -49c-10 -15 -29 -34 -46 -52c-20 -21 -44 -47 -66 -82c-49 -77 -41 -175 -61 -272c-4 -20 -7 -31 -14 -39c-2 0 -6 0 -15 3c-14 5 -34 15 -61 35c-67 48 -126 59 -207 71
c-20 3 -36 6 -51 9c-30 7 -40 14 -45 21c-3 5 -7 16 -7 38c0 24 10 71 10 99c0 80 -43 128 -79 168c-29 32 -42 46 -42 73c0 20 4 32 9 40c14 24 51 41 78 57c20 12 43 27 66 47c10 9 22 14 38 14c13 0 30 -3 52 -10c62 -19 118 -47 188 -62c17 -4 35 -5 51 -5zM648 163v0z
M647 163v0zM788 881c-53 0 -101 -19 -155 -19c-58 0 -100 21 -148 39c-43 16 -93 38 -144 38c-35 0 -71 -11 -104 -40c-53 -47 -126 -64 -164 -129c-15 -26 -23 -55 -23 -90c0 -78 50 -120 82 -156c23 -26 39 -43 39 -85c0 -9 -1 -19 -3 -30c-4 -24 -7 -48 -7 -69
c0 -35 7 -65 23 -91c27 -42 70 -58 107 -66c38 -8 77 -12 115 -20s74 -20 106 -43c31 -23 61 -39 87 -48c15 -5 31 -9 47 -9c74 0 101 61 113 119c15 72 16 188 48 238c48 76 143 122 143 243c0 36 -9 76 -23 119c-20 60 -64 99 -139 99z" />
</svg>
