<?xml version="1.0" standalone="no"?>
<!DOCTYPE svg PUBLIC "-//W3C//DTD SVG 1.1//EN" "http://www.w3.org/Graphics/SVG/1.1/DTD/svg11.dtd" >
<svg xmlns="http://www.w3.org/2000/svg" xmlns:xlink="http://www.w3.org/1999/xlink" version="1.1" viewBox="-10 0 1010 1000">
   <path fill="currentColor"
d="M255 920c-83 0 -205 -68 -205 -174c0 -93 95 -138 195 -138c41 0 67 8 106 8c17 0 34 -2 46 -9c8 -15 13 -29 34 -47c42 -36 131 -50 204 -50c58 0 115 10 162 34c88 44 153 77 153 157c0 19 -4 39 -14 55c-21 36 -53 45 -88 60c0 10 1 20 1 31c0 26 -5 68 -47 96
c-48 31 -125 47 -202 47c-34 0 -124 -2 -162 -62c-11 -18 -6 -24 -34 -30c-6 -1 -13 -2 -19 -2c-38 0 -70 24 -130 24zM255 820c37 0 73 -24 129 -24c36 0 103 10 138 79c12 11 48 15 79 15c50 0 118 -12 146 -30c2 -1 2 -7 2 -14c0 -11 -1 -25 -1 -31c0 -29 4 -53 31 -75
c28 -23 71 -27 71 -37v-6c0 0 -1 -3 -5 -8c-21 -24 -63 -41 -93 -56s-72 -23 -117 -23c-27 0 -93 3 -140 26c-6 8 -10 26 -29 44c-25 23 -71 35 -116 35c-36 0 -66 -7 -102 -7c-1 0 -98 0 -98 39c0 32 63 73 105 73z" />
</svg>
