<?xml version="1.0" standalone="no"?>
<!DOCTYPE svg PUBLIC "-//W3C//DTD SVG 1.1//EN" "http://www.w3.org/Graphics/SVG/1.1/DTD/svg11.dtd" >
<svg xmlns="http://www.w3.org/2000/svg" xmlns:xlink="http://www.w3.org/1999/xlink" version="1.1" viewBox="-10 0 1010 1000">
   <path fill="currentColor"
d="M420 168c-43 22 -103 65 -147 94c-63 41 -108 76 -118 179c-4 36 -5 66 -5 93c0 28 2 52 5 71c6 38 16 56 23 65c6 7 11 9 18 9c6 0 14 -3 22 -7c46 -24 91 -38 132 -38c40 0 76 14 105 48c38 44 52 103 85 146c12 16 24 22 42 22c30 0 62 -12 110 -35
c40 -19 56 -34 64 -45c9 -13 11 -38 12 -64c2 -46 5 -113 60 -194c16 -23 22 -49 22 -72c0 -14 -2 -27 -6 -39c-11 -33 -30 -40 -39 -40h-1c-29 3 -57 7 -84 7c-21 0 -42 -3 -64 -10c-58 -19 -99 -68 -130 -151c-11 -29 -22 -43 -30 -50c-6 -5 -13 -8 -23 -7
c-12 1 -30 6 -53 18zM722 267c29 0 57 -6 84 -6c67 0 113 54 132 107c8 22 12 47 12 72c0 42 -12 88 -39 128c-45 66 -40 102 -44 164c-2 28 -6 61 -28 94c-22 32 -56 57 -105 80c-50 24 -103 43 -153 43c-45 0 -87 -16 -121 -60c-22 -28 -36 -59 -48 -85
c-13 -27 -22 -45 -33 -57c-9 -10 -17 -14 -30 -14c-16 0 -42 5 -85 28c-22 11 -45 17 -68 17c-86 0 -127 -74 -140 -158c-4 -25 -6 -54 -6 -86c0 -31 2 -66 6 -104c15 -146 92 -206 186 -266c43 -27 90 -63 133 -85c32 -16 63 -29 101 -29c76 0 120 60 143 123
c25 68 50 84 68 90c10 3 22 4 35 4z" />
</svg>
