<?xml version="1.0" standalone="no"?>
<!DOCTYPE svg PUBLIC "-//W3C//DTD SVG 1.1//EN" "http://www.w3.org/Graphics/SVG/1.1/DTD/svg11.dtd" >
<svg xmlns="http://www.w3.org/2000/svg" xmlns:xlink="http://www.w3.org/1999/xlink" version="1.1" viewBox="-10 0 1010 1000">
   <path fill="currentColor"
d="M689 174c-44 0 -84 5 -130 5c-67 0 -114 -16 -168 -25c-11 -2 -22 -3 -31 -3c-20 0 -36 5 -54 18c-27 20 -32 44 -38 83c-5 31 -12 73 -32 117c-25 54 -64 77 -102 113c-13 12 -19 22 -22 30c-1 4 -2 8 -2 15s2 16 5 28c7 24 16 35 25 41c26 18 87 19 127 27
c30 6 64 17 96 39c58 40 73 93 108 148c11 18 21 28 31 33c6 3 14 6 28 6c9 0 20 -1 33 -4c34 -7 53 -19 64 -30c28 -27 37 -84 52 -128c10 -30 25 -63 51 -95c33 -40 65 -61 98 -88c25 -21 41 -40 50 -71c8 -28 12 -56 12 -81c0 -72 -31 -130 -93 -157
c-41 -17 -74 -21 -108 -21zM559 79c45 0 85 -5 130 -5s91 5 147 29c111 47 154 148 154 250c0 36 -5 73 -15 107c-20 73 -64 105 -109 141c-22 17 -41 33 -59 55c-32 39 -39 92 -58 144c-10 29 -25 60 -52 87c-35 34 -96 61 -167 61c-26 0 -49 -5 -71 -15
c-63 -30 -81 -87 -113 -141c-24 -40 -48 -60 -98 -70c-64 -13 -115 -9 -165 -44c-39 -28 -73 -83 -73 -151c0 -86 61 -120 104 -160c14 -13 24 -25 31 -40c18 -39 20 -70 28 -112s22 -88 73 -126c39 -29 78 -38 114 -38c66 0 116 26 179 28h20z" />
</svg>
