<?xml version="1.0" standalone="no"?>
<!DOCTYPE svg PUBLIC "-//W3C//DTD SVG 1.1//EN" "http://www.w3.org/Graphics/SVG/1.1/DTD/svg11.dtd" >
<svg xmlns="http://www.w3.org/2000/svg" xmlns:xlink="http://www.w3.org/1999/xlink" version="1.1" viewBox="-10 0 1010 1000">
   <path fill="currentColor"
d="M244 834c-121 0 -234 -166 -234 -342c0 -103 41 -217 158 -248c78 -21 113 -9 180 -41c38 -19 32 -88 136 -147c51 -29 109 -46 166 -46c68 0 135 25 188 82c50 54 143 131 151 266c1 10 1 21 1 30c0 157 -93 180 -106 206c-2 3 -5 12 -6 34v22c0 24 1 49 1 74
c0 65 -5 113 -37 156c-40 54 -128 110 -232 110c-93 0 -157 -48 -180 -124c-15 -48 -73 -64 -74 -64c-16 0 -63 32 -112 32zM779 724c0 -25 -1 -49 -1 -74c0 -41 0 -73 20 -107c39 -65 92 -43 92 -155c0 -111 -69 -168 -125 -228c-31 -33 -72 -50 -117 -50
c-37 0 -75 11 -114 33c-88 51 -59 112 -143 151c-85 41 -118 24 -197 46c-51 13 -84 67 -84 151c0 135 80 235 130 242h3c25 0 61 -30 113 -30c57 0 145 50 170 133c11 38 38 54 84 54c64 0 126 -34 151 -68c13 -18 18 -61 18 -98z" />
</svg>
