<?xml version="1.0" standalone="no"?>
<!DOCTYPE svg PUBLIC "-//W3C//DTD SVG 1.1//EN" "http://www.w3.org/Graphics/SVG/1.1/DTD/svg11.dtd" >
<svg xmlns="http://www.w3.org/2000/svg" xmlns:xlink="http://www.w3.org/1999/xlink" version="1.1" viewBox="-10 0 1010 1000">
   <path fill="currentColor"
d="M554 150c-55 0 -70 13 -100 32c-31 20 -76 48 -145 67c-59 16 -89 40 -107 88c-17 44 -20 106 -31 158c-5 25 -8 43 -8 58c0 11 1 20 5 28c7 17 30 44 107 72c98 36 134 93 165 139c14 21 24 33 36 42c10 8 26 14 56 15c9 0 17 1 25 1c69 0 103 -12 121 -25
c44 -33 34 -137 42 -211c6 -54 19 -115 58 -172c45 -65 60 -113 60 -147c0 -16 -4 -30 -9 -41c-18 -37 -70 -72 -172 -92c-45 -9 -78 -12 -103 -12zM389 104c51 -33 94 -54 166 -54c33 0 73 4 122 14c109 22 202 65 242 146c13 27 19 56 19 85c0 63 -29 131 -78 203
c-38 55 -42 116 -45 197c-1 24 -2 49 -5 73c-6 48 -22 100 -72 137c-42 31 -103 45 -181 45c-61 0 -104 -9 -140 -35c-30 -22 -47 -49 -63 -72c-27 -39 -50 -73 -113 -96c-87 -32 -141 -72 -165 -127c-10 -23 -13 -46 -13 -68c0 -29 5 -55 10 -77c13 -61 14 -117 36 -173
c28 -74 87 -126 173 -149c54 -14 79 -31 107 -49z" />
</svg>
