<?xml version="1.0" standalone="no"?>
<!DOCTYPE svg PUBLIC "-//W3C//DTD SVG 1.1//EN" "http://www.w3.org/Graphics/SVG/1.1/DTD/svg11.dtd" >
<svg xmlns="http://www.w3.org/2000/svg" xmlns:xlink="http://www.w3.org/1999/xlink" version="1.1" viewBox="-10 0 1010 1000">
   <path fill="currentColor"
d="M550 70v100c0 28 -22 50 -50 50s-50 -22 -50 -50v-100c0 -28 22 -50 50 -50s50 22 50 50zM181 110l64 76c8 9 12 22 12 33c0 14 -6 28 -18 38c-9 8 -21 12 -32 12c-14 0 -29 -6 -39 -18l-64 -77c-8 -9 -12 -21 -12 -32c0 -14 6 -28 18 -38c9 -8 21 -12 32 -12
c14 0 29 6 39 18zM889 104c12 10 18 24 18 38c0 11 -4 23 -12 32l-64 77c-10 12 -25 18 -39 18c-11 0 -23 -4 -32 -12c-12 -10 -18 -24 -18 -38c0 -11 4 -24 12 -33l64 -76c10 -12 25 -18 39 -18c11 0 23 4 32 12zM165 590h249l-124 -214c-5 -8 -7 -17 -7 -25
c0 -17 9 -34 25 -43c8 -5 17 -7 25 -7c17 0 34 9 43 25l124 215l124 -215c9 -16 27 -25 44 -25c8 0 17 2 25 7c16 9 25 26 25 43c0 8 -2 17 -7 25l-124 214h248c28 0 50 22 50 50s-22 50 -50 50h-248l124 215c5 8 7 17 7 25c0 17 -9 34 -25 43c-8 5 -17 7 -25 7
c-17 0 -35 -9 -44 -25l-124 -215l-124 215c-9 16 -26 25 -43 25c-8 0 -17 -2 -25 -7c-16 -9 -25 -26 -25 -43c0 -8 2 -17 7 -25l124 -215h-249c-28 0 -50 -22 -50 -50s22 -50 50 -50z" />
</svg>
