<?xml version="1.0" standalone="no"?>
<!DOCTYPE svg PUBLIC "-//W3C//DTD SVG 1.1//EN" "http://www.w3.org/Graphics/SVG/1.1/DTD/svg11.dtd" >
<svg xmlns="http://www.w3.org/2000/svg" xmlns:xlink="http://www.w3.org/1999/xlink" version="1.1" viewBox="-10 0 1010 1000">
   <path fill="currentColor"
d="M170 990c-88 0 -160 -72 -160 -160s72 -160 160 -160s160 72 160 160s-72 160 -160 160zM170 890c33 0 60 -27 60 -60s-27 -60 -60 -60s-60 27 -60 60s27 60 60 60zM830 990c-88 0 -160 -72 -160 -160s72 -160 160 -160s160 72 160 160s-72 160 -160 160zM830 890
c33 0 60 -27 60 -60s-27 -60 -60 -60s-60 27 -60 60s27 60 60 60zM500 330c-88 0 -160 -72 -160 -160s72 -160 160 -160s160 72 160 160s-72 160 -160 160zM500 230c33 0 60 -27 60 -60s-27 -60 -60 -60s-60 27 -60 60s27 60 60 60z" />
</svg>
