<?xml version="1.0" standalone="no"?>
<!DOCTYPE svg PUBLIC "-//W3C//DTD SVG 1.1//EN" "http://www.w3.org/Graphics/SVG/1.1/DTD/svg11.dtd" >
<svg xmlns="http://www.w3.org/2000/svg" xmlns:xlink="http://www.w3.org/1999/xlink" version="1.1" viewBox="-10 0 1010 1000">
   <path fill="currentColor"
d="M183 380c0 -4 0 -12 3 -15v-3c7 -13 9 -24 17 -42c11 -27 28 -63 52 -100c46 -71 126 -156 245 -156c211 0 316 170 316 317c0 200 -137 340 -262 425c-63 43 -127 75 -174 96c-24 10 -43 18 -57 23c-9 4 -14 7 -21 7l-1 1h-1c-5 2 -10 2 -15 2c-25 0 -50 -18 -50 -48
c0 -21 14 -42 35 -49h1c1 0 1 -1 3 -2c22 -7 37 -13 66 -26c164 -72 376 -216 376 -429c0 -105 -73 -217 -216 -217c-66 0 -120 48 -161 111c-20 30 -34 60 -44 83c-7 16 -9 24 -14 35v2c-7 21 -28 35 -49 35c-30 0 -49 -26 -49 -50zM516 324c30 0 48 25 48 50
c0 5 0 10 -2 15c-34 106 -87 190 -182 251c-8 5 -17 8 -26 8c-25 0 -51 -22 -51 -51c0 -16 8 -32 23 -42c71 -45 113 -107 141 -196c7 -21 28 -35 49 -35z" />
</svg>
