<?xml version="1.0" standalone="no"?>
<!DOCTYPE svg PUBLIC "-//W3C//DTD SVG 1.1//EN" "http://www.w3.org/Graphics/SVG/1.1/DTD/svg11.dtd" >
<svg xmlns="http://www.w3.org/2000/svg" xmlns:xlink="http://www.w3.org/1999/xlink" version="1.1" viewBox="-10 0 1010 1000">
   <path fill="currentColor"
d="M439 890l-38 -190c-1 -3 -1 -7 -1 -10c0 -17 9 -34 24 -43l61 -37h-98v280h52zM613 808l-96 -38l24 120h72v-82zM613 700v-51l-51 31zM337 510h326c27 0 50 21 50 49v2v379c0 28 -22 50 -50 50h-326c-28 0 -50 -22 -50 -50v-380c0 -28 22 -50 50 -50zM596 838
c0 14 -11 25 -25 25s-25 -11 -25 -25s11 -25 25 -25s25 11 25 25z" />
</svg>
