<?xml version="1.0" standalone="no"?>
<!DOCTYPE svg PUBLIC "-//W3C//DTD SVG 1.1//EN" "http://www.w3.org/Graphics/SVG/1.1/DTD/svg11.dtd" >
<svg xmlns="http://www.w3.org/2000/svg" xmlns:xlink="http://www.w3.org/1999/xlink" version="1.1" viewBox="-10 0 1010 1000">
   <path fill="currentColor"
d="M259 864c-30 0 -50 -26 -50 -52c0 -9 2 -17 6 -25l48 -86c9 -16 26 -25 43 -25c30 0 49 25 49 51c0 9 -2 17 -6 25l-48 87c-9 16 -25 25 -42 25zM790 812c0 26 -20 52 -50 52c-17 0 -33 -9 -42 -25l-48 -87c-4 -8 -6 -16 -6 -25c0 -26 19 -51 49 -51c17 0 34 9 43 25
l48 86c4 8 6 16 6 25zM500 930c-28 0 -50 -22 -50 -50v-100c0 -28 22 -50 50 -50s50 22 50 50v100c0 28 -22 50 -50 50zM900 314c0 25 -21 51 -50 51c-16 0 -32 -9 -42 -24l-32 -51c-8 78 -33 151 -72 208c-47 70 -117 122 -204 122s-158 -52 -205 -122s-75 -163 -75 -262
v-116c0 -28 22 -50 50 -50s50 22 50 50v116c0 81 22 154 57 206s80 78 123 78s87 -26 122 -78s57 -125 57 -206v-116c0 -25 20 -50 49 -50c17 0 33 9 43 24l121 194c5 8 8 17 8 26z" />
</svg>
