<?xml version="1.0" standalone="no"?>
<!DOCTYPE svg PUBLIC "-//W3C//DTD SVG 1.1//EN" "http://www.w3.org/Graphics/SVG/1.1/DTD/svg11.dtd" >
<svg xmlns="http://www.w3.org/2000/svg" xmlns:xlink="http://www.w3.org/1999/xlink" version="1.1" viewBox="-10 0 1010 1000">
   <path fill="currentColor"
d="M645 850c-41 0 -75 -34 -75 -75s34 -75 75 -75s75 34 75 75s-34 75 -75 75zM490 380c55 0 100 -45 100 -100s-45 -100 -100 -100s-100 45 -100 100s45 100 100 100zM790 920c-31 0 -50 -25 -50 -50c0 -6 1 -12 3 -18c12 -31 17 -58 17 -82c0 -58 -29 -96 -61 -114
c-16 -8 -32 -13 -49 -13c-9 0 -18 1 -27 4c-27 7 -57 32 -77 72c-46 88 -102 201 -231 201c-64 0 -111 -28 -140 -75c-26 -43 -34 -97 -34 -148v-3c0 -50 2 -234 160 -348c-7 -21 -11 -43 -11 -66c0 -110 90 -200 200 -200s200 90 200 200s-90 200 -200 200
c-51 0 -98 -19 -133 -51c-114 85 -116 223 -116 267c0 45 7 77 19 97c9 15 24 27 55 27c29 0 52 -12 75 -38c25 -28 45 -67 71 -116l1 -1c32 -60 79 -98 132 -114c19 -6 38 -9 57 -9c34 0 68 9 97 26c67 38 112 110 112 201c0 37 -8 77 -24 119c-8 20 -26 32 -46 32z" />
</svg>
