<?xml version="1.0" standalone="no"?>
<!DOCTYPE svg PUBLIC "-//W3C//DTD SVG 1.1//EN" "http://www.w3.org/Graphics/SVG/1.1/DTD/svg11.dtd" >
<svg xmlns="http://www.w3.org/2000/svg" xmlns:xlink="http://www.w3.org/1999/xlink" version="1.1" viewBox="-10 0 1010 1000">
   <path fill="currentColor"
d="M356 841h288l-144 -235zM574 309c45 -10 86 -25 106 -45c17 -17 31 -49 42 -85c-3 1 -5 1 -8 2c-45 10 -86 26 -106 46c-16 17 -31 49 -42 84c3 -1 5 -1 8 -2zM288 181c-3 -1 -5 -1 -8 -2c11 35 26 67 42 84c20 20 61 36 106 46c3 1 5 1 8 2c-11 -36 -25 -68 -42 -85
c-20 -20 -61 -35 -106 -45zM215 70h5c1 0 4 1 6 1c5 0 11 1 19 2c16 2 39 5 64 10c47 10 114 30 156 73c14 15 26 32 36 50c10 -18 22 -35 36 -49c42 -43 108 -64 155 -74c25 -5 48 -8 64 -10c8 -1 15 -2 20 -2c2 0 5 -1 6 -1h5c28 0 49 22 49 50v9c0 1 -1 3 -1 5
c-6 24 -8 41 -16 70c-12 39 -32 94 -68 130c-42 43 -109 63 -156 73c-16 3 -31 6 -44 8v83l225 367c5 8 7 17 7 26c0 29 -24 50 -49 50h-468c-25 0 -49 -21 -49 -50c0 -9 2 -18 7 -26l227 -371v-79c-13 -2 -29 -4 -45 -8c-47 -10 -113 -31 -155 -74
c-35 -36 -56 -91 -68 -130c-8 -28 -10 -46 -16 -69c0 -2 -1 -4 -1 -5v-9c0 -28 21 -50 49 -50z" />
</svg>
