<?xml version="1.0" standalone="no"?>
<!DOCTYPE svg PUBLIC "-//W3C//DTD SVG 1.1//EN" "http://www.w3.org/Graphics/SVG/1.1/DTD/svg11.dtd" >
<svg xmlns="http://www.w3.org/2000/svg" xmlns:xlink="http://www.w3.org/1999/xlink" version="1.1" viewBox="-60 0 1060 1000">
   <path fill="currentColor"
d="M337 150c0 -30 25 -50 50 -50c6 0 12 2 18 4c160 64 258 271 258 496c0 173 -55 357 -152 447c-34 31 -76 53 -124 53h-387c-28 0 -50 -22 -50 -50s22 -50 50 -50h387c16 0 35 -8 56 -27c77 -71 120 -231 120 -373c0 -178 -75 -357 -194 -404c-20 -8 -32 -26 -32 -46z
" />
</svg>
