<?xml version="1.0" standalone="no"?>
<!DOCTYPE svg PUBLIC "-//W3C//DTD SVG 1.1//EN" "http://www.w3.org/Graphics/SVG/1.1/DTD/svg11.dtd" >
<svg xmlns="http://www.w3.org/2000/svg" xmlns:xlink="http://www.w3.org/1999/xlink" version="1.1" viewBox="-10 0 1010 1000">
   <path fill="currentColor"
d="M658 730c0 7 1 13 1 20c0 125 -88 240 -213 240s-213 -115 -213 -240s88 -240 213 -240c82 0 148 50 184 120h86c28 0 50 22 50 50s-22 50 -50 50h-58zM388 630h115c-18 -13 -37 -20 -57 -20s-40 7 -58 20zM334 730c-1 6 -1 13 -1 20c0 85 58 140 113 140
s113 -55 113 -140c0 -7 -1 -14 -2 -20h-223z" />
</svg>
