<?xml version="1.0" standalone="no"?>
<!DOCTYPE svg PUBLIC "-//W3C//DTD SVG 1.1//EN" "http://www.w3.org/Graphics/SVG/1.1/DTD/svg11.dtd" >
<svg xmlns="http://www.w3.org/2000/svg" xmlns:xlink="http://www.w3.org/1999/xlink" version="1.1" viewBox="-10 0 1010 1000">
   <path fill="currentColor"
d="M400 400v200h200v-200h-200zM300 350c0 -28 22 -50 50 -50h300c28 0 50 22 50 50v300c0 28 -22 50 -50 50h-300c-28 0 -50 -22 -50 -50v-300zM200 200v600h600v-600h-600zM100 150c0 -28 22 -50 50 -50h700c28 0 50 22 50 50v700c0 28 -22 50 -50 50h-700
c-28 0 -50 -22 -50 -50v-700z" />
</svg>
