<?xml version="1.0" standalone="no"?>
<!DOCTYPE svg PUBLIC "-//W3C//DTD SVG 1.1//EN" "http://www.w3.org/Graphics/SVG/1.1/DTD/svg11.dtd" >
<svg xmlns="http://www.w3.org/2000/svg" xmlns:xlink="http://www.w3.org/1999/xlink" version="1.1" viewBox="-10 0 1010 1000">
   <path fill="currentColor"
d="M685 212c-13 0 -23 -12 -23 -25c0 -3 0 -7 2 -10c-49 -25 -105 -39 -164 -39s-115 14 -164 39c2 3 2 7 2 10c0 13 -10 25 -23 25c-8 0 -16 -4 -22 -10c-36 25 -67 56 -92 92c6 6 10 14 10 22c0 13 -12 23 -25 23c-3 0 -7 -1 -10 -2c-25 49 -38 105 -38 163v400
c0 21 -17 38 -38 38s-38 -17 -38 -38v-400c0 -80 22 -154 59 -219c-29 -35 -52 -71 -67 -103c-11 -23 -23 -52 -23 -78c0 -18 5 -35 19 -49s31 -19 49 -19c26 0 55 12 78 23c32 15 67 38 102 67c65 -38 140 -60 221 -60s156 22 221 60c35 -29 70 -52 102 -67
c23 -11 52 -23 78 -23c18 0 35 5 49 19s19 31 19 49c0 26 -12 55 -23 78c-15 32 -38 67 -67 102c38 65 59 140 59 220v400c0 21 -17 38 -38 38s-38 -17 -38 -38v-400c0 -58 -13 -114 -38 -163c-3 1 -7 2 -10 2c-13 0 -25 -10 -25 -23c0 -8 4 -16 10 -22
c-25 -36 -56 -67 -92 -92c-6 6 -14 10 -22 10zM150 237c24 -32 54 -62 86 -86c-29 -22 -57 -39 -81 -51c-21 -10 -38 -16 -51 -17s-18 2 -19 3s-4 6 -3 19s7 30 17 51c12 24 28 52 51 81zM901 156c10 -21 16 -38 17 -51s-2 -18 -3 -19s-6 -4 -19 -3s-30 7 -51 17
c-24 12 -52 29 -81 51c32 24 61 54 85 86c22 -29 40 -57 52 -81zM320 580c14 0 25 11 25 25c0 36 29 65 65 65s65 -29 65 -65c0 -14 11 -25 25 -25s25 11 25 25c0 36 29 65 65 65s65 -29 65 -65c0 -14 11 -25 25 -25s25 11 25 25c0 64 -51 115 -115 115
c-36 0 -69 -17 -90 -43c-21 26 -54 43 -90 43c-64 0 -115 -51 -115 -115c0 -14 11 -25 25 -25zM402 348l44 77h12c14 0 25 11 25 25c0 8 -5 15 -11 20l16 28c2 4 4 8 4 12c0 14 -13 25 -25 25h-174c-12 0 -25 -11 -25 -25c0 -4 2 -8 4 -12l16 -28c-6 -5 -11 -12 -11 -20
c0 -14 11 -25 25 -25h12l44 -77c4 -8 13 -13 22 -13s18 5 22 13zM423 485l-5 -10h-76l-5 10h86zM380 410l-9 15h18zM642 348l44 77h12c14 0 25 11 25 25c0 8 -5 15 -11 20l16 28c2 4 4 8 4 12c0 14 -13 25 -25 25h-174c-12 0 -25 -11 -25 -25c0 -4 2 -8 4 -12l16 -28
c-6 -5 -11 -12 -11 -20c0 -14 11 -25 25 -25h12l44 -77c4 -8 13 -13 22 -13s18 5 22 13zM577 485h86l-5 -10h-76zM620 410l-9 15h18zM162 530c0 -186 152 -338 338 -338s338 152 338 338s-152 338 -338 338s-338 -152 -338 -338zM500 268c-145 0 -262 117 -262 262
s117 262 262 262s262 -117 262 -262s-117 -262 -262 -262z" />
</svg>
