<?xml version="1.0" standalone="no"?>
<!DOCTYPE svg PUBLIC "-//W3C//DTD SVG 1.1//EN" "http://www.w3.org/Graphics/SVG/1.1/DTD/svg11.dtd" >
<svg xmlns="http://www.w3.org/2000/svg" xmlns:xlink="http://www.w3.org/1999/xlink" version="1.1" viewBox="-10 0 1010 1000">
   <path fill="currentColor"
d="M701 103c29 0 49 26 49 51c0 9 -2 17 -7 25l-156 271h313c28 0 50 22 50 50s-22 50 -50 50h-313l156 271c5 8 7 16 7 25c0 25 -20 51 -49 51c-17 0 -35 -10 -44 -26l-157 -271l-157 271c-9 16 -27 26 -44 26c-29 0 -49 -26 -49 -51c0 -9 2 -17 7 -25l156 -271h-313
c-28 0 -50 -22 -50 -50s22 -50 50 -50h313l-156 -271c-5 -8 -7 -16 -7 -25c0 -25 20 -51 49 -51c17 0 35 10 44 26l157 271l157 -271c9 -16 27 -26 44 -26z" />
</svg>
