<?xml version="1.0" standalone="no"?>
<!DOCTYPE svg PUBLIC "-//W3C//DTD SVG 1.1//EN" "http://www.w3.org/Graphics/SVG/1.1/DTD/svg11.dtd" >
<svg xmlns="http://www.w3.org/2000/svg" xmlns:xlink="http://www.w3.org/1999/xlink" version="1.1" viewBox="-10 0 1010 1000">
   <path fill="currentColor"
d="M950 613c0 25 -19 50 -50 50c-22 0 -42 -15 -48 -38c-23 -91 -34 -184 -115 -216c-16 -6 -32 -9 -48 -9c-59 0 -117 41 -141 115c-35 110 -130 185 -236 185c-28 0 -57 -6 -86 -17c-121 -48 -142 -154 -174 -283c-1 -4 -2 -9 -2 -13c0 -25 19 -50 50 -50
c22 0 42 15 48 38c23 91 34 184 115 216c16 6 32 9 48 9c59 0 117 -41 141 -115c35 -110 130 -185 236 -185c28 0 57 6 86 17c121 48 142 154 174 283c1 4 2 9 2 13z" />
</svg>
