<?xml version="1.0" standalone="no"?>
<!DOCTYPE svg PUBLIC "-//W3C//DTD SVG 1.1//EN" "http://www.w3.org/Graphics/SVG/1.1/DTD/svg11.dtd" >
<svg xmlns="http://www.w3.org/2000/svg" xmlns:xlink="http://www.w3.org/1999/xlink" version="1.1" viewBox="-10 0 1010 1000">
   <path fill="currentColor"
d="M690 450c0 33 -27 60 -60 60s-60 -27 -60 -60s27 -60 60 -60s60 27 60 60zM150 150c0 -28 22 -50 50 -50h600c28 0 50 22 50 50v750c0 28 -22 50 -50 50s-50 -22 -50 -50v-271l-231 97c-6 3 -13 4 -19 4c-24 0 -47 -18 -50 -44l-18 -147l-182 85v276c0 28 -22 50 -50 50
s-50 -22 -50 -50v-750zM250 514l202 -94c7 -3 14 -5 21 -5c24 0 47 18 50 44l18 149l209 -88v-320h-500v314z" />
</svg>
