<?xml version="1.0" standalone="no"?>
<!DOCTYPE svg PUBLIC "-//W3C//DTD SVG 1.1//EN" "http://www.w3.org/Graphics/SVG/1.1/DTD/svg11.dtd" >
<svg xmlns="http://www.w3.org/2000/svg" xmlns:xlink="http://www.w3.org/1999/xlink" version="1.1" viewBox="-10 0 1010 1000">
   <path fill="currentColor"
d="M250 582c30 -12 68 -22 108 -22c28 0 55 4 80 12c42 13 83 38 105 78c0 0 1 1 1 2c6 10 21 23 48 31c15 5 32 7 50 7c13 0 25 -1 38 -4c33 -8 49 -19 58 -28c8 -8 12 -19 12 -32v-426h-500v382zM450 691c-17 -17 -53 -31 -92 -31c-13 0 -25 1 -38 4c-33 8 -49 19 -58 28
c-8 8 -12 19 -12 32v176c0 28 -22 50 -50 50s-50 -22 -50 -50v-750c0 -28 22 -50 50 -50h600c28 0 50 22 50 50v750c0 28 -22 50 -50 50s-50 -22 -50 -50v-132c-30 12 -68 22 -108 22c-28 0 -55 -4 -80 -12c-4 -1 -8 -3 -12 -4v126c0 28 -22 50 -50 50s-50 -22 -50 -50v-209
zM660 470c-33 0 -60 -27 -60 -60s27 -60 60 -60s60 27 60 60s-27 60 -60 60zM560 410c0 33 -27 60 -60 60s-60 -27 -60 -60s27 -60 60 -60s60 27 60 60zM340 473c-33 0 -60 -27 -60 -60s27 -60 60 -60s60 27 60 60s-27 60 -60 60z" />
</svg>
