<?xml version="1.0" standalone="no"?>
<!DOCTYPE svg PUBLIC "-//W3C//DTD SVG 1.1//EN" "http://www.w3.org/Graphics/SVG/1.1/DTD/svg11.dtd" >
<svg xmlns="http://www.w3.org/2000/svg" xmlns:xlink="http://www.w3.org/1999/xlink" version="1.1" viewBox="-10 0 1010 1000">
   <path fill="currentColor"
d="M303 736c0 -41 -34 -75 -75 -75s-75 34 -75 75s34 75 75 75s75 -34 75 -75zM772 811c41 0 75 -34 75 -75s-34 -75 -75 -75s-75 34 -75 75s34 75 75 75zM534 437c-11 2 -22 3 -34 3s-23 -1 -34 -3l-106 184c13 15 24 33 31 52h218c7 -19 18 -37 31 -52zM575 265
c0 -41 -34 -75 -75 -75s-75 34 -75 75s34 75 75 75s75 -34 75 -75zM399 773c-17 79 -87 138 -171 138c-97 0 -175 -78 -175 -175s78 -175 175 -175c16 0 32 2 47 6l103 -177c-32 -32 -53 -76 -53 -125c0 -97 78 -175 175 -175s175 78 175 175c0 49 -21 93 -53 125l103 177
c15 -4 31 -6 47 -6c97 0 175 78 175 175s-78 175 -175 175c-84 0 -154 -59 -171 -138h-202z" />
</svg>
