<?xml version="1.0" standalone="no"?>
<!DOCTYPE svg PUBLIC "-//W3C//DTD SVG 1.1//EN" "http://www.w3.org/Graphics/SVG/1.1/DTD/svg11.dtd" >
<svg xmlns="http://www.w3.org/2000/svg" xmlns:xlink="http://www.w3.org/1999/xlink" version="1.1" viewBox="-10 0 1010 1000">
   <path fill="currentColor"
d="M709 529c-37 0 -68 -31 -68 -68s31 -67 68 -67s67 30 67 67s-30 68 -67 68zM610 461c0 37 -31 68 -68 68s-67 -31 -67 -68s30 -67 67 -67s68 30 68 67zM323 667c-4 -32 -7 -63 -7 -93c0 -107 27 -204 74 -280c-38 -17 -78 -47 -81 -100v-5c0 -31 15 -55 31 -72
c17 -18 39 -32 61 -42c51 -24 125 -37 197 -37c80 0 159 17 203 55c19 16 37 40 39 73v6c0 42 -25 70 -50 89c26 7 57 12 97 18c19 3 38 21 38 44c0 6 -1 12 -4 19c-51 107 -67 216 -67 313c0 103 18 193 34 251c1 4 2 8 2 12c0 20 -13 37 -33 43c-4 1 -8 2 -12 2
c-20 0 -37 -13 -43 -33c-16 -57 -35 -144 -38 -247l-36 62l45 76c2 4 3 9 3 13c0 14 -13 25 -25 25h-89l-44 77c-4 8 -12 12 -21 12s-18 -4 -22 -12l-44 -77h-75c1 3 1 7 2 10h4c25 0 45 20 45 45s-20 45 -45 45h-216c-52 0 -98 -11 -129 -39c-33 -29 -41 -69 -41 -106
c0 -89 82 -145 170 -145h23c19 0 39 0 54 -2zM674 126c24 0 45 20 45 45c0 9 -2 19 -2 26c0 15 3 25 9 33c34 -16 54 -37 54 -59c0 -44 -82 -74 -183 -74c-9 0 -18 1 -27 1c-112 6 -201 46 -201 91c0 23 23 42 58 55c63 -73 148 -118 247 -118zM678 309
c-38 9 -82 14 -127 14c-23 0 -47 -1 -69 -4c-47 63 -76 151 -76 254c0 29 2 58 7 89c7 46 16 91 25 128l27 -45l-45 -77c-2 -4 -3 -9 -3 -13c0 -14 13 -25 25 -25h89l44 -76c4 -8 13 -13 22 -13s17 5 21 13l45 76h88c5 0 9 2 13 4c2 -86 16 -181 52 -276
c-53 -10 -103 -21 -138 -49zM639 256c-4 -11 -8 -24 -10 -36c-33 7 -65 21 -93 43h16c31 0 61 -2 87 -7zM597 873l8 -14h-17zM559 809h75l37 -64l-37 -65h-74l-38 65zM700 795l-9 14h17zM708 680h-16l8 15zM597 616l-9 14h17zM485 680l9 15l8 -15h-17zM502 809l-8 -14l-9 14
h17zM376 869c-10 -37 -19 -70 -28 -115c-15 3 -30 3 -47 4v111h75zM221 761c-28 6 -55 24 -55 53c0 25 5 35 11 40c5 5 18 10 44 13v-106z" />
</svg>
