<?xml version="1.0" standalone="no"?>
<!DOCTYPE svg PUBLIC "-//W3C//DTD SVG 1.1//EN" "http://www.w3.org/Graphics/SVG/1.1/DTD/svg11.dtd" >
<svg xmlns="http://www.w3.org/2000/svg" xmlns:xlink="http://www.w3.org/1999/xlink" version="1.1" viewBox="-10 0 1010 1000">
   <path fill="currentColor"
d="M356 840h288l-144 -235zM266 940c-25 0 -49 -21 -49 -50c0 -9 2 -18 7 -26l233 -381c9 -15 26 -24 43 -24s34 9 43 24l233 381c5 8 7 17 7 26c0 29 -24 50 -49 50h-468zM286 165c23 97 110 170 214 170s191 -73 214 -170h-428zM180 115c0 -28 22 -50 50 -50h540
c28 0 50 22 50 50c0 177 -143 320 -320 320s-320 -143 -320 -320z" />
</svg>
