<?xml version="1.0" standalone="no"?>
<!DOCTYPE svg PUBLIC "-//W3C//DTD SVG 1.1//EN" "http://www.w3.org/Graphics/SVG/1.1/DTD/svg11.dtd" >
<svg xmlns="http://www.w3.org/2000/svg" xmlns:xlink="http://www.w3.org/1999/xlink" version="1.1" viewBox="-10 0 1010 1000">
   <path fill="currentColor"
d="M580 750c0 44 -36 80 -80 80s-80 -36 -80 -80s36 -80 80 -80s80 36 80 80zM149 801c-9 -16 -14 -33 -14 -51s5 -35 14 -51c70 -118 217 -189 351 -189s281 71 351 189c9 16 14 33 14 51s-5 35 -14 51c-70 118 -217 189 -351 189s-281 -71 -351 -189zM500 890
c105 0 216 -57 265 -140c-49 -83 -160 -140 -265 -140s-216 57 -265 140c49 83 160 140 265 140z" />
</svg>
