<?xml version="1.0" standalone="no"?>
<!DOCTYPE svg PUBLIC "-//W3C//DTD SVG 1.1//EN" "http://www.w3.org/Graphics/SVG/1.1/DTD/svg11.dtd" >
<svg xmlns="http://www.w3.org/2000/svg" xmlns:xlink="http://www.w3.org/1999/xlink" version="1.1" viewBox="-10 0 1010 1000">
   <path fill="currentColor"
d="M650 600c-26 0 -50 -24 -50 -50c0 -12 5 -25 15 -35l150 -150c10 -10 23 -15 35 -15c26 0 50 24 50 50c0 12 -5 25 -15 35l-150 150c-10 10 -23 15 -35 15zM150 400c0 -26 24 -50 50 -50c12 0 25 5 35 15l150 150c10 10 15 23 15 35c0 26 -24 50 -50 50
c-12 0 -25 -5 -35 -15l-150 -150c-10 -10 -15 -23 -15 -35zM50 700c0 -28 22 -50 50 -50h200c28 0 50 22 50 50s-22 50 -50 50h-200c-28 0 -50 -22 -50 -50zM500 250c28 0 50 22 50 50v200c0 28 -22 50 -50 50s-50 -22 -50 -50v-200c0 -28 22 -50 50 -50zM650 700
c0 -28 22 -50 50 -50h200c28 0 50 22 50 50s-22 50 -50 50h-200c-28 0 -50 -22 -50 -50z" />
</svg>
