<?xml version="1.0" standalone="no"?>
<!DOCTYPE svg PUBLIC "-//W3C//DTD SVG 1.1//EN" "http://www.w3.org/Graphics/SVG/1.1/DTD/svg11.dtd" >
<svg xmlns="http://www.w3.org/2000/svg" xmlns:xlink="http://www.w3.org/1999/xlink" version="1.1" viewBox="-10 0 1010 1000">
   <path fill="currentColor"
d="M640 940c0 -28 22 -50 50 -50h190c28 0 50 22 50 50s-22 50 -50 50h-190c-28 0 -50 -22 -50 -50zM500 510c28 0 50 22 50 50v190c0 28 -22 50 -50 50s-50 -22 -50 -50v-190c0 -28 22 -50 50 -50zM70 940c0 -28 22 -50 50 -50h190c28 0 50 22 50 50s-22 50 -50 50h-190
c-28 0 -50 -22 -50 -50zM165 655c0 -27 23 -50 50 -50c13 0 25 5 35 15l142 143c10 10 15 22 15 35c0 27 -23 50 -50 50c-13 0 -25 -5 -35 -15l-142 -143c-10 -10 -15 -22 -15 -35zM643 848c-27 0 -50 -23 -50 -50c0 -13 5 -25 15 -35l142 -143c10 -10 22 -15 35 -15
c27 0 50 23 50 50c0 13 -5 25 -15 35l-142 143c-10 10 -22 15 -35 15z" />
</svg>
