<?xml version="1.0" standalone="no"?>
<!DOCTYPE svg PUBLIC "-//W3C//DTD SVG 1.1//EN" "http://www.w3.org/Graphics/SVG/1.1/DTD/svg11.dtd" >
<svg xmlns="http://www.w3.org/2000/svg" xmlns:xlink="http://www.w3.org/1999/xlink" version="1.1" viewBox="-10 0 1010 1000">
   <path fill="currentColor"
d="M605 849c3 10 4 21 4 32c0 60 -49 109 -109 109s-109 -49 -109 -109c0 -11 1 -22 4 -32c-64 -29 -111 -85 -111 -158c0 -110 108 -181 216 -181s216 71 216 181c0 73 -47 129 -111 158zM384 691c0 34 40 80 116 80s116 -46 116 -80s-40 -81 -116 -81s-116 47 -116 81z
M500 871c-5 0 -9 5 -9 10s4 9 9 9s9 -4 9 -9s-4 -10 -9 -10z" />
</svg>
