<?xml version="1.0" standalone="no"?>
<!DOCTYPE svg PUBLIC "-//W3C//DTD SVG 1.1//EN" "http://www.w3.org/Graphics/SVG/1.1/DTD/svg11.dtd" >
<svg xmlns="http://www.w3.org/2000/svg" xmlns:xlink="http://www.w3.org/1999/xlink" version="1.1" viewBox="-10 0 1010 1000">
   <path fill="currentColor"
d="M800 550c0 -166 -134 -300 -300 -300s-300 134 -300 300s134 300 300 300s300 -134 300 -300zM50 100c0 -25 20 -50 50 -50c22 0 42 14 48 37c10 37 24 62 43 80c20 19 47 33 91 47c63 -41 138 -64 218 -64s155 23 218 64c44 -14 71 -28 91 -47c19 -18 33 -43 43 -80
c6 -23 26 -37 48 -37c30 0 50 25 50 50c0 4 -1 9 -2 13c-13 50 -34 92 -69 126c-22 21 -47 37 -76 50c60 70 97 161 97 261c0 221 -179 400 -400 400s-400 -179 -400 -400c0 -100 37 -191 97 -261c-29 -13 -54 -29 -76 -50c-35 -34 -56 -76 -69 -126c-1 -4 -2 -9 -2 -13z
" />
</svg>
