<?xml version="1.0" standalone="no"?>
<!DOCTYPE svg PUBLIC "-//W3C//DTD SVG 1.1//EN" "http://www.w3.org/Graphics/SVG/1.1/DTD/svg11.dtd" >
<svg xmlns="http://www.w3.org/2000/svg" xmlns:xlink="http://www.w3.org/1999/xlink" version="1.1" viewBox="-10 0 1010 1000">
   <path fill="currentColor"
d="M260 560c0 -25 20 -50 50 -50c22 0 42 14 48 37c4 14 8 22 13 26c4 4 10 9 22 13c32 -18 68 -28 107 -28s75 10 107 28c12 -4 18 -9 22 -13c5 -4 9 -12 13 -26c6 -23 26 -37 48 -37c30 0 50 25 50 50c0 4 -1 9 -2 13c-9 34 -27 65 -55 85c21 33 33 73 33 116
c0 119 -97 216 -216 216s-216 -97 -216 -216c0 -43 12 -83 33 -116c-28 -20 -46 -51 -55 -85c-1 -4 -2 -9 -2 -13zM616 774c0 -64 -52 -116 -116 -116s-116 52 -116 116s52 116 116 116s116 -52 116 -116z" />
</svg>
