<?xml version="1.0" standalone="no"?>
<!DOCTYPE svg PUBLIC "-//W3C//DTD SVG 1.1//EN" "http://www.w3.org/Graphics/SVG/1.1/DTD/svg11.dtd" >
<svg xmlns="http://www.w3.org/2000/svg" xmlns:xlink="http://www.w3.org/1999/xlink" version="1.1" viewBox="-10 0 1010 1000">
   <path fill="currentColor"
d="M150 500c0 -193 157 -350 350 -350s350 157 350 350s-157 350 -350 350s-350 -157 -350 -350zM500 250c-138 0 -250 112 -250 250s112 250 250 250s250 -112 250 -250s-112 -250 -250 -250zM500 110c-215 0 -390 175 -390 390v440c0 28 -22 50 -50 50s-50 -22 -50 -50
v-440c0 -271 219 -490 490 -490s490 219 490 490v440c0 28 -22 50 -50 50s-50 -22 -50 -50v-440c0 -215 -175 -390 -390 -390z" />
</svg>
