<?xml version="1.0" standalone="no"?>
<!DOCTYPE svg PUBLIC "-//W3C//DTD SVG 1.1//EN" "http://www.w3.org/Graphics/SVG/1.1/DTD/svg11.dtd" >
<svg xmlns="http://www.w3.org/2000/svg" xmlns:xlink="http://www.w3.org/1999/xlink" version="1.1" viewBox="-10 0 1010 1000">
   <path fill="currentColor"
d="M500 110c-138 0 -250 112 -250 250s112 250 250 250s250 -112 250 -250s-112 -250 -250 -250zM850 360c0 176 -130 322 -300 346v44h90c28 0 50 22 50 50s-22 50 -50 50h-90v90c0 28 -22 50 -50 50s-50 -22 -50 -50v-90h-90c-28 0 -50 -22 -50 -50s22 -50 50 -50h90v-44
c-170 -24 -300 -170 -300 -346c0 -193 157 -350 350 -350s350 157 350 350z" />
</svg>
