<?xml version="1.0" standalone="no"?>
<!DOCTYPE svg PUBLIC "-//W3C//DTD SVG 1.1//EN" "http://www.w3.org/Graphics/SVG/1.1/DTD/svg11.dtd" >
<svg xmlns="http://www.w3.org/2000/svg" xmlns:xlink="http://www.w3.org/1999/xlink" version="1.1" viewBox="-10 0 1010 1000">
   <path fill="currentColor"
d="M500 130c-193 0 -350 157 -350 350v440c0 28 -22 50 -50 50s-50 -22 -50 -50v-440c0 -249 201 -450 450 -450s450 201 450 450v440c0 28 -22 50 -50 50s-50 -22 -50 -50v-440c0 -193 -157 -350 -350 -350zM750 370c0 46 -25 99 -84 165c50 24 84 76 84 135
c0 106 -143 231 -220 290c-8 6 -19 10 -30 10c-10 0 -21 -3 -30 -10c-54 -41 -220 -177 -220 -290c0 -59 34 -111 84 -135c-59 -66 -84 -119 -84 -165c0 -83 67 -150 150 -150c17 0 59 3 100 43c22 -22 55 -43 100 -43c83 0 150 67 150 150zM500 695c-53 0 -54 -75 -100 -75
c-28 0 -50 22 -50 50c0 35 58 109 150 186c10 -8 150 -126 150 -186c0 -28 -22 -50 -50 -50c-46 0 -47 75 -100 75zM500 395c-53 0 -54 -75 -100 -75c-28 0 -50 22 -50 50c0 35 58 109 150 186c10 -8 150 -126 150 -186c0 -28 -22 -50 -50 -50c-46 0 -47 75 -100 75z" />
</svg>
