<?xml version="1.0" standalone="no"?>
<!DOCTYPE svg PUBLIC "-//W3C//DTD SVG 1.1//EN" "http://www.w3.org/Graphics/SVG/1.1/DTD/svg11.dtd" >
<svg xmlns="http://www.w3.org/2000/svg" xmlns:xlink="http://www.w3.org/1999/xlink" version="1.1" viewBox="-10 0 1010 1000">
   <path fill="currentColor"
d="M659 511c27 0 50 23 50 50v122c0 28 -22 50 -50 50s-50 -22 -50 -50v-1l-44 44c14 26 22 55 22 86c0 99 -80 179 -179 179s-179 -80 -179 -179s80 -179 179 -179c31 0 60 8 86 22l45 -44h-2c-28 0 -50 -22 -50 -50s22 -50 50 -50h122zM487 812c0 -44 -35 -79 -79 -79
s-79 35 -79 79s35 79 79 79s79 -35 79 -79z" />
</svg>
