<?xml version="1.0" standalone="no"?>
<!DOCTYPE svg PUBLIC "-//W3C//DTD SVG 1.1//EN" "http://www.w3.org/Graphics/SVG/1.1/DTD/svg11.dtd" >
<svg xmlns="http://www.w3.org/2000/svg" xmlns:xlink="http://www.w3.org/1999/xlink" version="1.1" viewBox="-10 0 1010 1000">
   <path fill="currentColor"
d="M250 425c0 138 112 250 250 250s250 -112 250 -250s-112 -250 -250 -250s-250 112 -250 250zM745 675h115c28 0 50 22 50 50v150c0 28 -22 50 -50 50s-50 -22 -50 -50v-100h-620v100c0 28 -22 50 -50 50s-50 -22 -50 -50v-150c0 -28 22 -50 50 -50h115
c-65 -64 -105 -152 -105 -250c0 -193 157 -350 350 -350s350 157 350 350c0 98 -40 186 -105 250z" />
</svg>
