<?xml version="1.0" standalone="no"?>
<!DOCTYPE svg PUBLIC "-//W3C//DTD SVG 1.1//EN" "http://www.w3.org/Graphics/SVG/1.1/DTD/svg11.dtd" >
<svg xmlns="http://www.w3.org/2000/svg" xmlns:xlink="http://www.w3.org/1999/xlink" version="1.1" viewBox="-10 0 1010 1000">
   <path fill="currentColor"
d="M208 641c0 83 67 150 150 150s150 -67 150 -150s-67 -150 -150 -150s-150 67 -150 150zM747 202c27 0 50 23 50 50v189c0 28 -22 50 -50 50s-50 -22 -50 -50v-68l-130 130c26 40 41 87 41 138c0 138 -112 250 -250 250s-250 -112 -250 -250s112 -250 250 -250
c51 0 98 16 138 42l130 -131h-68c-28 0 -50 -22 -50 -50s22 -50 50 -50h189z" />
</svg>
