<?xml version="1.0" standalone="no"?>
<!DOCTYPE svg PUBLIC "-//W3C//DTD SVG 1.1//EN" "http://www.w3.org/Graphics/SVG/1.1/DTD/svg11.dtd" >
<svg xmlns="http://www.w3.org/2000/svg" xmlns:xlink="http://www.w3.org/1999/xlink" version="1.1" viewBox="-10 0 1010 1000">
   <path fill="currentColor"
d="M170 580c0 138 112 250 250 250s250 -112 250 -250s-112 -250 -250 -250s-250 112 -250 250zM689 70h191c28 0 50 22 50 50v190c0 28 -22 50 -50 50s-50 -22 -50 -50v-69l-130 129c44 58 70 131 70 210c0 193 -157 350 -350 350s-350 -157 -350 -350s157 -350 350 -350
c79 0 152 25 210 69l129 -129h-70c-28 0 -50 -22 -50 -50s22 -50 50 -50z" />
</svg>
