<?xml version="1.0" standalone="no"?>
<!DOCTYPE svg PUBLIC "-//W3C//DTD SVG 1.1//EN" "http://www.w3.org/Graphics/SVG/1.1/DTD/svg11.dtd" >
<svg xmlns="http://www.w3.org/2000/svg" xmlns:xlink="http://www.w3.org/1999/xlink" version="1.1" viewBox="-10 0 1010 1000">
   <path fill="currentColor"
d="M750 500c0 35 -14 97 -117 200h227c28 0 50 22 50 50v150c0 28 -22 50 -50 50s-50 -22 -50 -50v-100h-620v100c0 28 -22 50 -50 50s-50 -22 -50 -50v-150c0 -28 22 -50 50 -50h227c-103 -103 -117 -165 -117 -200c0 -59 34 -111 84 -135c-59 -66 -84 -119 -84 -165
c0 -83 67 -150 150 -150c31 0 66 10 100 43c18 -18 51 -43 100 -43c83 0 150 67 150 150c0 46 -25 99 -84 165c50 24 84 76 84 135zM500 525c-53 0 -54 -75 -100 -75c-28 0 -50 22 -50 50c0 35 58 109 150 186c10 -8 150 -126 150 -186c0 -28 -22 -50 -50 -50
c-46 0 -47 75 -100 75zM500 225c-53 0 -54 -75 -100 -75c-28 0 -50 22 -50 50c0 35 58 109 150 186c10 -8 150 -126 150 -186c0 -28 -22 -50 -50 -50c-46 0 -47 75 -100 75z" />
</svg>
