<?xml version="1.0" standalone="no"?>
<!DOCTYPE svg PUBLIC "-//W3C//DTD SVG 1.1//EN" "http://www.w3.org/Graphics/SVG/1.1/DTD/svg11.dtd" >
<svg xmlns="http://www.w3.org/2000/svg" xmlns:xlink="http://www.w3.org/1999/xlink" version="1.1" viewBox="-10 0 1010 1000">
   <path fill="currentColor"
d="M594 581c-33 0 -60 -27 -60 -60s27 -60 60 -60s60 27 60 60s-27 60 -60 60zM754 581c-33 0 -60 -27 -60 -60s27 -60 60 -60s60 27 60 60s-27 60 -60 60zM333 343c60 -56 155 -63 264 -63c132 0 226 36 287 85c56 45 86 101 86 147c0 5 -1 10 -2 15
c-13 84 -121 214 -361 248c-25 3 -49 5 -73 5c-62 0 -119 -13 -165 -44c-66 -44 -99 -118 -99 -212c0 -41 6 -68 6 -69c0 -31 -28 -62 -80 -112c-9 -8 -21 -15 -33 -15c-15 0 -29 10 -29 42v13c0 2 19 151 66 228c5 8 7 16 7 25c0 17 -8 34 -24 43c-8 5 -17 8 -26 8
c-17 0 -34 -9 -43 -25c-40 -66 -72 -193 -79 -270c-1 -7 -1 -14 -1 -21c0 -94 62 -143 129 -143c36 0 72 14 102 42c25 24 49 48 68 73zM870 512c-1 -30 -68 -132 -273 -132c-198 0 -207 33 -223 94c-1 8 -4 26 -4 49c0 42 10 100 55 130c25 17 61 27 109 27
c18 0 38 -2 59 -5c214 -30 273 -139 277 -163z" />
</svg>
