<?xml version="1.0" standalone="no"?>
<!DOCTYPE svg PUBLIC "-//W3C//DTD SVG 1.1//EN" "http://www.w3.org/Graphics/SVG/1.1/DTD/svg11.dtd" >
<svg xmlns="http://www.w3.org/2000/svg" xmlns:xlink="http://www.w3.org/1999/xlink" version="1.1" viewBox="-10 0 1010 1000">
   <path fill="currentColor"
d="M766 492h-532c22 137 135 238 266 238s244 -101 266 -238zM601 170c30 0 49 26 49 51c0 7 -1 13 -4 20l-69 151h243c28 0 50 22 50 50c0 119 -52 227 -134 299l12 8c14 10 21 25 21 41c0 28 -24 50 -49 50c-10 0 -20 -3 -29 -9l-46 -32c-44 20 -93 31 -145 31
s-101 -11 -145 -31l-46 32c-9 6 -19 9 -29 9c-25 0 -49 -22 -49 -50c0 -16 7 -31 21 -41l12 -8c-82 -72 -134 -180 -134 -299c0 -28 22 -50 50 -50h288l86 -193c8 -18 28 -29 47 -29z" />
</svg>
