<?xml version="1.0" standalone="no"?>
<!DOCTYPE svg PUBLIC "-//W3C//DTD SVG 1.1//EN" "http://www.w3.org/Graphics/SVG/1.1/DTD/svg11.dtd" >
<svg xmlns="http://www.w3.org/2000/svg" xmlns:xlink="http://www.w3.org/1999/xlink" version="1.1" viewBox="-10 0 1010 1000">
   <path fill="currentColor"
d="M271 774c57 75 135 103 229 103s172 -28 229 -103c55 -72 94 -195 100 -397h-658c6 202 45 325 100 397zM620 10c30 0 50 25 50 50c0 7 -1 14 -4 21l-89 196h303c28 0 50 22 50 50c0 241 -43 404 -121 508c-8 11 -18 21 -27 31l49 34c14 10 21 25 21 41
c0 29 -24 50 -50 50c-10 0 -20 -3 -29 -9l-73 -52c-61 34 -130 47 -200 47s-139 -13 -200 -47l-73 52c-9 6 -19 9 -29 9c-26 0 -50 -21 -50 -50c0 -16 7 -31 21 -41l49 -34c-9 -10 -19 -20 -27 -31c-78 -104 -121 -267 -121 -508c0 -28 22 -50 50 -50h347l107 -238
c8 -18 27 -29 46 -29z" />
</svg>
