<?xml version="1.0" standalone="no"?>
<!DOCTYPE svg PUBLIC "-//W3C//DTD SVG 1.1//EN" "http://www.w3.org/Graphics/SVG/1.1/DTD/svg11.dtd" >
<svg xmlns="http://www.w3.org/2000/svg" xmlns:xlink="http://www.w3.org/1999/xlink" version="1.1" viewBox="-10 0 1010 1000">
   <path fill="currentColor"
d="M250 375c0 138 112 250 250 250s250 -112 250 -250s-112 -250 -250 -250s-250 112 -250 250zM252 939c-2 -5 -102 -343 -102 -564c0 -193 157 -350 350 -350s350 157 350 350s-157 350 -350 350c-82 0 -157 -28 -216 -75c4 22 28 136 64 261c2 6 2 10 2 15
c0 29 -26 48 -52 48c-19 0 -39 -10 -46 -35z" />
</svg>
