<?xml version="1.0" standalone="no"?>
<!DOCTYPE svg PUBLIC "-//W3C//DTD SVG 1.1//EN" "http://www.w3.org/Graphics/SVG/1.1/DTD/svg11.dtd" >
<svg xmlns="http://www.w3.org/2000/svg" xmlns:xlink="http://www.w3.org/1999/xlink" version="1.1" viewBox="-10 0 1010 1000">
   <path fill="currentColor"
d="M346 150c19 120 106 200 196 200s177 -80 196 -200h-392zM242 100c0 -28 22 -50 50 -50h500c28 0 50 22 50 50c0 184 -126 350 -300 350s-300 -166 -300 -350zM159 730c0 -25 22 -50 50 -50c16 0 31 8 41 22l31 44c25 -134 130 -246 271 -246c163 0 277 150 277 310v90
c0 28 -22 50 -50 50s-50 -22 -50 -50v-90c0 -120 -83 -210 -177 -210s-177 90 -177 210v90c0 26 -20 50 -50 50c-17 0 -33 -8 -42 -22l-115 -170c-6 -9 -9 -18 -9 -28z" />
</svg>
