<?xml version="1.0" standalone="no"?>
<!DOCTYPE svg PUBLIC "-//W3C//DTD SVG 1.1//EN" "http://www.w3.org/Graphics/SVG/1.1/DTD/svg11.dtd" >
<svg xmlns="http://www.w3.org/2000/svg" xmlns:xlink="http://www.w3.org/1999/xlink" version="1.1" viewBox="-10 0 1010 1000">
   <path fill="currentColor"
d="M312 859c0 -25 21 -50 50 -50c8 0 17 2 24 6c16 -32 40 -59 72 -75c-66 -29 -107 -104 -107 -180c0 -28 22 -50 50 -50h238c28 0 50 22 50 50c0 74 -39 146 -102 177c60 28 96 94 96 160v43c0 28 -22 50 -50 50s-50 -22 -50 -50v-43c0 -46 -31 -73 -58 -73s-58 27 -58 73
v43c0 30 -25 49 -51 49c-15 0 -30 -6 -40 -21l-55 -81c-6 -9 -9 -18 -9 -28zM520 652c20 0 44 -14 58 -42h-116c14 28 38 42 58 42z" />
</svg>
