<?xml version="1.0" standalone="no"?>
<!DOCTYPE svg PUBLIC "-//W3C//DTD SVG 1.1//EN" "http://www.w3.org/Graphics/SVG/1.1/DTD/svg11.dtd" >
<svg xmlns="http://www.w3.org/2000/svg" xmlns:xlink="http://www.w3.org/1999/xlink" version="1.1" viewBox="-10 0 1010 1000">
   <path fill="currentColor"
d="M500 706c-163 0 -331 57 -334 57c-6 2 -12 3 -17 3c-29 0 -49 -26 -49 -52c0 -19 11 -38 37 -46c25 -8 198 -62 363 -62c85 0 233 19 366 63c23 8 34 27 34 46c0 26 -19 51 -49 51c-6 0 -11 -1 -18 -3c-16 -5 -181 -57 -333 -57zM610 250l40 39l40 -39
c10 -10 22 -15 35 -15s25 5 35 15s15 22 15 35s-5 25 -15 35l-39 40l39 40c10 10 15 22 15 35s-5 25 -15 35s-22 15 -35 15s-25 -5 -35 -15l-40 -39l-40 39c-10 10 -22 15 -35 15s-25 -5 -35 -15s-15 -22 -15 -35s5 -25 15 -35l39 -40l-39 -40c-10 -10 -15 -22 -15 -35
s5 -25 15 -35s22 -15 35 -15s25 5 35 15zM240 250c10 -10 22 -15 35 -15s25 5 35 15l40 39l40 -39c10 -10 22 -15 35 -15s25 5 35 15s15 22 15 35s-5 25 -15 35l-39 40l39 40c10 10 15 22 15 35s-5 25 -15 35s-22 15 -35 15s-25 -5 -35 -15l-40 -39l-40 39
c-10 10 -22 15 -35 15s-25 -5 -35 -15s-15 -22 -15 -35s5 -25 15 -35l39 -40l-39 -40c-10 -10 -15 -22 -15 -35s5 -25 15 -35z" />
</svg>
