<?xml version="1.0" standalone="no"?>
<!DOCTYPE svg PUBLIC "-//W3C//DTD SVG 1.1//EN" "http://www.w3.org/Graphics/SVG/1.1/DTD/svg11.dtd" >
<svg xmlns="http://www.w3.org/2000/svg" xmlns:xlink="http://www.w3.org/1999/xlink" version="1.1" viewBox="-10 0 1010 1000">
   <path fill="currentColor"
d="M850 500c0 -193 -157 -350 -350 -350s-350 157 -350 350s157 350 350 350s350 -157 350 -350zM950 500c0 249 -201 450 -450 450s-450 -201 -450 -450s201 -450 450 -450s450 201 450 450zM525 425c0 -26 24 -50 50 -50c12 0 25 5 35 15l40 39l40 -39
c10 -10 23 -15 35 -15c26 0 50 24 50 50c0 12 -5 25 -15 35l-39 40l39 40c10 10 15 23 15 35c0 26 -24 50 -50 50c-12 0 -25 -5 -35 -15l-40 -39l-40 39c-10 10 -23 15 -35 15c-26 0 -50 -24 -50 -50c0 -12 5 -25 15 -35l39 -40l-39 -40c-10 -10 -15 -23 -15 -35zM225 425
c0 -26 24 -50 50 -50c12 0 25 5 35 15l40 39l40 -39c10 -10 23 -15 35 -15c26 0 50 24 50 50c0 12 -5 25 -15 35l-39 40l39 40c10 10 15 23 15 35c0 26 -24 50 -50 50c-12 0 -25 -5 -35 -15l-40 -39l-40 39c-10 10 -23 15 -35 15c-26 0 -50 -24 -50 -50c0 -12 5 -25 15 -35
l39 -40l-39 -40c-10 -10 -15 -23 -15 -35z" />
</svg>
