<?xml version="1.0" standalone="no"?>
<!DOCTYPE svg PUBLIC "-//W3C//DTD SVG 1.1//EN" "http://www.w3.org/Graphics/SVG/1.1/DTD/svg11.dtd" >
<svg xmlns="http://www.w3.org/2000/svg" xmlns:xlink="http://www.w3.org/1999/xlink" version="1.1" viewBox="-10 0 1010 1000">
   <path fill="currentColor"
d="M950 548c0 25 -20 50 -50 50c-20 0 -38 -12 -46 -32l-16 -37l-45 114c-8 19 -26 31 -47 31s-40 -13 -47 -32l-71 -188l-80 261c-6 21 -26 35 -48 35s-42 -14 -48 -35l-80 -261l-71 188c-7 19 -26 32 -47 32s-39 -12 -47 -31l-45 -114l-16 37c-8 20 -26 32 -46 32
c-30 0 -50 -25 -50 -50c0 -6 2 -13 4 -19l61 -152c8 -19 27 -32 47 -32s38 13 46 32l44 110l78 -205c8 -19 27 -32 47 -32h2c21 1 40 15 46 35l75 245l75 -245c6 -20 25 -34 46 -35h2c20 0 39 13 47 32l78 205l44 -110c8 -19 26 -32 46 -32s39 13 47 32l61 152
c2 6 4 13 4 19z" />
</svg>
