<?xml version="1.0" standalone="no"?>
<!DOCTYPE svg PUBLIC "-//W3C//DTD SVG 1.1//EN" "http://www.w3.org/Graphics/SVG/1.1/DTD/svg11.dtd" >
<svg xmlns="http://www.w3.org/2000/svg" xmlns:xlink="http://www.w3.org/1999/xlink" version="1.1" viewBox="-10 0 1010 1000">
   <path fill="currentColor"
d="M175 575c-41 0 -75 -34 -75 -75s34 -75 75 -75s75 34 75 75s-34 75 -75 75zM800 150c0 28 -22 50 -50 50h-350v600h350c28 0 50 22 50 50s-22 50 -50 50h-400c-28 0 -50 -22 -50 -50v-700c0 -28 22 -50 50 -50h400c28 0 50 22 50 50z" />
</svg>
