<?xml version="1.0" standalone="no"?>
<!DOCTYPE svg PUBLIC "-//W3C//DTD SVG 1.1//EN" "http://www.w3.org/Graphics/SVG/1.1/DTD/svg11.dtd" >
<svg xmlns="http://www.w3.org/2000/svg" xmlns:xlink="http://www.w3.org/1999/xlink" version="1.1" viewBox="-10 0 1010 1000">
   <path fill="currentColor"
d="M800 800c28 0 50 22 50 50s-22 50 -50 50h-300c-28 0 -50 -22 -50 -50v-264c-9 2 -17 2 -25 2c-45 0 -78 -26 -106 -48c-18 -15 -34 -27 -46 -27c-10 0 -18 8 -25 30c-6 22 -26 36 -48 36c-5 0 -9 -1 -14 -2c-25 -7 -35 -25 -35 -47c0 -43 41 -99 90 -112
c12 -3 23 -5 34 -5c45 0 78 26 106 48c25 20 35 27 45 27c2 0 5 0 7 -1c5 -1 17 -5 17 -15v-322c0 -28 22 -50 50 -50h300c28 0 50 22 50 50s-22 50 -50 50h-250v600h250z" />
</svg>
