<?xml version="1.0" standalone="no"?>
<!DOCTYPE svg PUBLIC "-//W3C//DTD SVG 1.1//EN" "http://www.w3.org/Graphics/SVG/1.1/DTD/svg11.dtd" >
<svg xmlns="http://www.w3.org/2000/svg" xmlns:xlink="http://www.w3.org/1999/xlink" version="1.1" viewBox="-10 0 1010 1000">
   <path fill="currentColor"
d="M950 795c0 25 -20 50 -50 50c-19 0 -38 -11 -46 -30l-16 -37l-46 109c-8 20 -27 30 -46 30s-38 -11 -46 -31l-72 -179l-80 248c-7 21 -26 35 -48 35s-41 -14 -48 -35l-80 -248l-72 179c-8 20 -27 31 -46 31s-38 -10 -46 -30l-46 -109l-16 37c-8 19 -27 30 -46 30
c-30 0 -50 -25 -50 -50c0 -7 1 -13 4 -19l62 -145c8 -18 26 -31 46 -31s38 13 46 31l44 106l78 -196c8 -21 28 -30 47 -30c20 0 40 12 47 34l76 233l76 -233c7 -22 27 -34 47 -34c19 0 38 9 46 30l79 196l44 -106c8 -18 26 -31 46 -31s38 13 46 31l62 145c3 6 4 12 4 19z
" />
</svg>
