<?xml version="1.0" standalone="no"?>
<!DOCTYPE svg PUBLIC "-//W3C//DTD SVG 1.1//EN" "http://www.w3.org/Graphics/SVG/1.1/DTD/svg11.dtd" >
<svg xmlns="http://www.w3.org/2000/svg" xmlns:xlink="http://www.w3.org/1999/xlink" version="1.1" viewBox="-10 0 1010 1000">
   <path fill="currentColor"
d="M542 926c-10 16 -26 24 -43 24s-33 -9 -43 -25l-399 -675c-5 -8 -7 -16 -7 -25c0 -17 8 -34 24 -43c138 -82 283 -123 427 -123s288 41 425 123c16 9 24 26 24 43c0 9 -2 18 -7 26zM434 691l65 111l201 -338c-10 2 -20 4 -30 4c-69 0 -126 -56 -126 -125
s57 -125 126 -125c58 0 106 39 120 93l41 -67c-108 -56 -219 -85 -330 -85c-27 0 -53 2 -80 5c32 23 53 60 53 102c0 69 -55 125 -124 125s-126 -56 -126 -125c0 -19 5 -38 13 -54c-23 9 -46 20 -68 32l157 265c21 -41 63 -68 112 -68c69 0 124 56 124 125s-55 125 -124 125
h-4zM462 566c0 -14 -10 -25 -24 -25s-26 11 -26 25s12 25 26 25s24 -11 24 -25zM670 368c14 0 24 -11 24 -25s-10 -25 -24 -25s-26 11 -26 25s12 25 26 25zM374 266c0 -14 -10 -25 -24 -25s-26 11 -26 25s12 25 26 25s24 -11 24 -25z" />
</svg>
