<?xml version="1.0" standalone="no"?>
<!DOCTYPE svg PUBLIC "-//W3C//DTD SVG 1.1//EN" "http://www.w3.org/Graphics/SVG/1.1/DTD/svg11.dtd" >
<svg xmlns="http://www.w3.org/2000/svg" xmlns:xlink="http://www.w3.org/1999/xlink" version="1.1" viewBox="-10 0 1010 1000">
   <path fill="currentColor"
d="M110 203c89 -117 231 -193 390 -193c271 0 490 219 490 490s-219 490 -490 490c-159 0 -301 -76 -390 -193c-7 -9 -10 -19 -10 -30c0 -24 14 -40 32 -47c73 -27 111 -62 131 -97c21 -36 27 -77 27 -123s-6 -87 -27 -123c-20 -35 -58 -70 -131 -97c-18 -7 -32 -23 -32 -47
c0 -11 3 -21 10 -30zM232 216c54 30 92 68 117 111c34 57 41 119 41 173s-7 116 -41 173c-25 43 -63 81 -117 111c70 66 164 106 268 106c215 0 390 -175 390 -390s-175 -390 -390 -390c-104 0 -198 40 -268 106z" />
</svg>
