<?xml version="1.0" standalone="no"?>
<!DOCTYPE svg PUBLIC "-//W3C//DTD SVG 1.1//EN" "http://www.w3.org/Graphics/SVG/1.1/DTD/svg11.dtd" >
<svg xmlns="http://www.w3.org/2000/svg" xmlns:xlink="http://www.w3.org/1999/xlink" version="1.1" viewBox="-10 0 1010 1000">
   <path fill="currentColor"
d="M750 325c41 0 75 -34 75 -75s-34 -75 -75 -75s-75 34 -75 75s34 75 75 75zM250 325c41 0 75 -34 75 -75s-34 -75 -75 -75s-75 34 -75 75s34 75 75 75zM300 418v187c0 108 54 192 126 228c24 12 49 17 74 17c62 0 108 -31 139 -69c35 -42 61 -103 61 -176v-187
c-72 -22 -125 -89 -125 -168c0 -97 78 -175 175 -175s175 78 175 175c0 79 -53 146 -125 168v187c0 99 -36 183 -85 241c-47 55 -121 104 -215 104s-168 -49 -215 -104c-49 -58 -85 -142 -85 -241v-187c-72 -22 -125 -89 -125 -168c0 -97 78 -175 175 -175s175 78 175 175
c0 79 -53 146 -125 168z" />
</svg>
