<?xml version="1.0" standalone="no"?>
<!DOCTYPE svg PUBLIC "-//W3C//DTD SVG 1.1//EN" "http://www.w3.org/Graphics/SVG/1.1/DTD/svg11.dtd" >
<svg xmlns="http://www.w3.org/2000/svg" xmlns:xlink="http://www.w3.org/1999/xlink" version="1.1" viewBox="-10 0 1010 1000">
   <path fill="currentColor"
d="M799 270c41 0 75 -34 75 -75s-34 -75 -75 -75s-75 34 -75 75s34 75 75 75zM201 270c41 0 75 -34 75 -75s-34 -75 -75 -75s-75 34 -75 75s34 75 75 75zM251 363v214c0 133 67 237 157 281c30 15 61 22 92 22c76 0 134 -40 173 -86c43 -51 76 -127 76 -217v-214
c-72 -22 -125 -89 -125 -168c0 -97 78 -175 175 -175s175 78 175 175c0 79 -53 146 -125 168v214c0 117 -42 215 -99 282c-55 65 -140 121 -250 121s-195 -56 -250 -121c-57 -68 -99 -165 -99 -282v-214c-72 -22 -125 -89 -125 -168c0 -97 78 -175 175 -175s175 78 175 175
c0 79 -53 146 -125 168z" />
</svg>
