<?xml version="1.0" standalone="no"?>
<!DOCTYPE svg PUBLIC "-//W3C//DTD SVG 1.1//EN" "http://www.w3.org/Graphics/SVG/1.1/DTD/svg11.dtd" >
<svg xmlns="http://www.w3.org/2000/svg" xmlns:xlink="http://www.w3.org/1999/xlink" version="1.1" viewBox="-10 0 1010 1000">
   <path fill="currentColor"
d="M340 925c-30 0 -50 -24 -50 -50v-116c0 -59 -13 -93 -26 -111c-12 -16 -26 -23 -44 -23s-32 7 -44 23c-13 18 -26 52 -26 111v116c0 28 -22 50 -50 50s-50 -22 -50 -50v-116c0 -71 15 -129 45 -170c32 -43 77 -64 125 -64s93 21 125 64c23 31 37 72 42 120l1 -1
c10 -15 26 -23 42 -23c29 0 50 25 50 50c0 9 -3 19 -8 27l-90 140c-9 15 -25 23 -42 23zM340 475c-30 0 -50 -24 -50 -50v-116c0 -59 -13 -93 -26 -111c-12 -16 -26 -23 -44 -23s-32 7 -44 23c-13 18 -26 52 -26 111v116c0 28 -22 50 -50 50s-50 -22 -50 -50v-116
c0 -71 15 -129 45 -170c32 -43 77 -64 125 -64s93 21 125 64c23 31 37 72 42 120l1 -1c10 -15 26 -23 42 -23c29 0 50 25 50 50c0 9 -3 19 -8 27l-90 140c-9 15 -25 23 -42 23zM520 735c0 -25 21 -50 50 -50c16 0 32 8 42 23l1 1c5 -48 19 -89 42 -120
c32 -43 77 -64 125 -64s93 21 125 64c30 41 45 99 45 170v116c0 28 -22 50 -50 50s-50 -22 -50 -50v-116c0 -59 -13 -93 -26 -111c-12 -16 -26 -23 -44 -23s-32 7 -44 23c-13 18 -26 52 -26 111v116c0 26 -20 50 -50 50c-17 0 -33 -8 -42 -23l-90 -140c-5 -8 -8 -18 -8 -27z
M520 285c0 -25 21 -50 50 -50c16 0 32 8 42 23l1 1c5 -48 19 -89 42 -120c32 -43 77 -64 125 -64s93 21 125 64c30 41 45 99 45 170v116c0 28 -22 50 -50 50s-50 -22 -50 -50v-116c0 -59 -13 -93 -26 -111c-12 -16 -26 -23 -44 -23s-32 7 -44 23c-13 18 -26 52 -26 111v116
c0 26 -20 50 -50 50c-17 0 -33 -8 -42 -23l-90 -140c-5 -8 -8 -18 -8 -27z" />
</svg>
