<?xml version="1.0" standalone="no"?>
<!DOCTYPE svg PUBLIC "-//W3C//DTD SVG 1.1//EN" "http://www.w3.org/Graphics/SVG/1.1/DTD/svg11.dtd" >
<svg xmlns="http://www.w3.org/2000/svg" xmlns:xlink="http://www.w3.org/1999/xlink" version="1.1" viewBox="-10 0 1010 1000">
   <path fill="currentColor"
d="M890 185c0 -41 -34 -75 -75 -75s-75 34 -75 75s34 75 75 75s75 -34 75 -75zM821 569c0 -177 -144 -321 -321 -321s-321 144 -321 321s144 321 321 321s321 -144 321 -321zM185 260c41 0 75 -34 75 -75s-34 -75 -75 -75s-75 34 -75 75s34 75 75 75zM185 10
c92 0 168 71 175 162c44 -16 91 -24 140 -24s96 8 140 24c7 -91 83 -162 175 -162c97 0 175 78 175 175c0 80 -54 149 -128 169c38 63 59 136 59 215c0 233 -188 421 -421 421s-421 -188 -421 -421c0 -79 21 -152 59 -215c-74 -20 -128 -89 -128 -169
c0 -97 78 -175 175 -175zM500 880c-36 0 -65 -29 -65 -65s29 -65 65 -65s65 29 65 65s-29 65 -65 65z" />
</svg>
