<?xml version="1.0" standalone="no"?>
<!DOCTYPE svg PUBLIC "-//W3C//DTD SVG 1.1//EN" "http://www.w3.org/Graphics/SVG/1.1/DTD/svg11.dtd" >
<svg xmlns="http://www.w3.org/2000/svg" xmlns:xlink="http://www.w3.org/1999/xlink" version="1.1" viewBox="-10 0 1010 1000">
   <path fill="currentColor"
d="M500 883c-23 0 -41 -18 -41 -41s18 -42 41 -42s42 19 42 42s-19 41 -42 41zM487 600h13h13c11 -52 57 -90 112 -90c64 0 115 51 115 115c0 43 -23 80 -58 100c8 22 13 45 13 70c0 108 -87 195 -195 195s-195 -87 -195 -195c0 -25 5 -48 13 -70c-35 -20 -58 -57 -58 -100
c0 -64 51 -115 115 -115c55 0 101 38 112 90zM390 625c0 -8 -7 -15 -15 -15s-15 7 -15 15s7 15 15 15s15 -7 15 -15zM625 640c8 0 15 -7 15 -15s-7 -15 -15 -15s-15 7 -15 15s7 15 15 15zM595 795c0 -52 -43 -95 -95 -95s-95 43 -95 95s43 95 95 95s95 -43 95 -95z" />
</svg>
