<?xml version="1.0" standalone="no"?>
<!DOCTYPE svg PUBLIC "-//W3C//DTD SVG 1.1//EN" "http://www.w3.org/Graphics/SVG/1.1/DTD/svg11.dtd" >
<svg xmlns="http://www.w3.org/2000/svg" xmlns:xlink="http://www.w3.org/1999/xlink" version="1.1" viewBox="-10 0 1010 1000">
   <path fill="currentColor"
d="M854 221c0 -41 -34 -75 -75 -75s-75 34 -75 75s34 75 75 75s75 -34 75 -75zM775 575c0 -152 -123 -275 -275 -275s-275 123 -275 275s123 275 275 275s275 -123 275 -275zM221 296c41 0 75 -34 75 -75s-34 -75 -75 -75s-75 34 -75 75s34 75 75 75zM221 46
c95 0 172 75 175 169c33 -10 68 -15 104 -15s71 5 104 15c3 -94 80 -169 175 -169c97 0 175 78 175 175c0 80 -54 148 -128 169c31 55 49 118 49 185c0 207 -168 375 -375 375s-375 -168 -375 -375c0 -67 18 -130 49 -185c-74 -21 -128 -89 -128 -169
c0 -97 78 -175 175 -175zM500 775c-41 0 -75 -34 -75 -75s34 -75 75 -75s75 34 75 75s-34 75 -75 75z" />
</svg>
