<?xml version="1.0" standalone="no"?>
<!DOCTYPE svg PUBLIC "-//W3C//DTD SVG 1.1//EN" "http://www.w3.org/Graphics/SVG/1.1/DTD/svg11.dtd" >
<svg xmlns="http://www.w3.org/2000/svg" xmlns:xlink="http://www.w3.org/1999/xlink" version="1.1" viewBox="-10 0 1010 1000">
   <path fill="currentColor"
d="M371 114c0 -25 20 -50 50 -50c20 0 38 12 46 31l38 92c3 6 4 13 4 19c0 25 -20 50 -50 50c-20 0 -38 -12 -46 -31l-38 -92c-3 -6 -4 -13 -4 -19zM859 64c30 0 50 25 50 50c0 6 -1 13 -4 19l-38 92c-8 19 -26 31 -46 31c-30 0 -50 -25 -50 -50c0 -6 1 -13 4 -19l38 -92
c8 -19 26 -31 46 -31zM640 10c28 0 50 22 50 50v100c0 28 -22 50 -50 50s-50 -22 -50 -50v-100c0 -28 22 -50 50 -50zM60 990c-26 0 -50 -20 -50 -50c0 -16 8 -33 22 -42c128 -86 189 -148 220 -216c32 -70 38 -153 38 -292c0 -28 22 -50 50 -50s50 22 50 50
c0 137 -4 241 -47 334c-27 59 -68 111 -128 163c278 -13 441 -64 537 -137c107 -82 138 -199 138 -360c0 -28 22 -50 50 -50s50 22 50 50c0 172 -33 330 -178 440c-140 106 -374 160 -752 160z" />
</svg>
