<?xml version="1.0" standalone="no"?>
<!DOCTYPE svg PUBLIC "-//W3C//DTD SVG 1.1//EN" "http://www.w3.org/Graphics/SVG/1.1/DTD/svg11.dtd" >
<svg xmlns="http://www.w3.org/2000/svg" xmlns:xlink="http://www.w3.org/1999/xlink" version="1.1" viewBox="-10 0 1010 1000">
   <path fill="currentColor"
d="M298 203c0 -25 21 -49 51 -49c19 0 37 12 45 31l38 92c3 7 4 14 4 20c0 25 -21 49 -51 49c-19 0 -37 -12 -45 -31l-38 -92c-3 -7 -4 -14 -4 -20zM785 154c30 0 51 24 51 49c0 6 -1 13 -4 20l-38 92c-8 19 -26 31 -45 31c-30 0 -51 -24 -51 -49c0 -6 1 -13 4 -20l38 -92
c8 -19 26 -31 45 -31zM567 100c28 0 50 22 50 50v100c0 28 -22 50 -50 50s-50 -22 -50 -50v-100c0 -28 22 -50 50 -50zM213 900c-26 0 -50 -20 -50 -50c0 -15 6 -30 18 -39c92 -75 135 -118 158 -164c22 -45 28 -97 28 -197c0 -28 22 -50 50 -50s50 22 50 50
c0 100 -4 173 -38 241c-18 36 -43 68 -76 102c123 -14 196 -46 239 -88c57 -55 75 -136 75 -255c0 -28 22 -50 50 -50s50 22 50 50c0 124 -18 242 -106 327c-87 84 -229 123 -448 123z" />
</svg>
