<?xml version="1.0" standalone="no"?>
<!DOCTYPE svg PUBLIC "-//W3C//DTD SVG 1.1//EN" "http://www.w3.org/Graphics/SVG/1.1/DTD/svg11.dtd" >
<svg xmlns="http://www.w3.org/2000/svg" xmlns:xlink="http://www.w3.org/1999/xlink" version="1.1" viewBox="-10 0 1010 1000">
   <path fill="currentColor"
d="M10 500c0 -28 22 -50 50 -50h141c28 0 50 22 50 50s-22 50 -50 50h-141c-28 0 -50 -22 -50 -50zM500 750c28 0 50 22 50 50v140c0 28 -22 50 -50 50s-50 -22 -50 -50v-140c0 -28 22 -50 50 -50zM500 10c28 0 50 22 50 50v140c0 28 -22 50 -50 50s-50 -22 -50 -50v-140
c0 -28 22 -50 50 -50zM750 500c0 -28 22 -50 50 -50h140c28 0 50 22 50 50s-22 50 -50 50h-140c-28 0 -50 -22 -50 -50z" />
</svg>
