<?xml version="1.0" standalone="no"?>
<!DOCTYPE svg PUBLIC "-//W3C//DTD SVG 1.1//EN" "http://www.w3.org/Graphics/SVG/1.1/DTD/svg11.dtd" >
<svg xmlns="http://www.w3.org/2000/svg" xmlns:xlink="http://www.w3.org/1999/xlink" version="1.1" viewBox="-10 0 1012 1000">
   <path fill="currentColor"
d="M250 250v500h500v-500h-500zM150 940v-90h-88c-28 0 -50 -22 -50 -50s22 -50 50 -50h88v-500h-88c-28 0 -50 -22 -50 -50s22 -50 50 -50h88v-90c0 -28 22 -50 50 -50s50 22 50 50v90h500v-90c0 -28 22 -50 50 -50s50 22 50 50v90h92c28 0 50 22 50 50s-22 50 -50 50h-92
v500h92c28 0 50 22 50 50s-22 50 -50 50h-92v90c0 28 -22 50 -50 50s-50 -22 -50 -50v-90h-500v90c0 28 -22 50 -50 50s-50 -22 -50 -50z" />
</svg>
