<?xml version="1.0" standalone="no"?>
<!DOCTYPE svg PUBLIC "-//W3C//DTD SVG 1.1//EN" "http://www.w3.org/Graphics/SVG/1.1/DTD/svg11.dtd" >
<svg xmlns="http://www.w3.org/2000/svg" xmlns:xlink="http://www.w3.org/1999/xlink" version="1.1" viewBox="-10 0 1010 1000">
   <path fill="currentColor"
d="M958 255c0 26 -22 50 -50 50c-15 0 -30 -7 -40 -20c-39 -51 -88 -93 -147 -124c-31 -16 -55 -23 -88 -34c-38 -8 -71 -15 -116 -15c-97 0 -177 36 -236 78c-70 50 -125 121 -152 212c-12 39 -17 70 -17 116c0 86 30 156 66 209c60 88 158 162 302 162
c107 0 188 -46 242 -101c52 -53 96 -127 96 -228c0 -95 -38 -165 -85 -214s-115 -91 -207 -91c-107 0 -181 51 -225 114c-25 36 -46 82 -46 140c0 92 42 155 95 194c31 23 73 43 124 43h12c27 0 50 22 50 50c0 27 -21 49 -48 50h-14c-77 0 -137 -28 -183 -62
c-76 -56 -136 -146 -136 -275c0 -82 29 -148 64 -198c61 -88 162 -156 307 -156c87 0 158 29 212 65c92 61 163 161 177 297c2 16 3 30 3 43c0 92 -29 165 -66 224c-65 103 -171 182 -317 201c-21 3 -38 4 -55 4c-141 0 -244 -57 -318 -127c-71 -67 -126 -158 -144 -274
c-4 -27 -6 -48 -6 -70c0 -148 56 -255 127 -335c70 -79 167 -139 290 -162c34 -6 58 -9 88 -9c54 0 99 10 139 18c6 1 11 2 16 4c29 9 59 19 96 38c72 38 132 90 180 153c7 9 10 19 10 30z" />
</svg>
