<?xml version="1.0" standalone="no"?>
<!DOCTYPE svg PUBLIC "-//W3C//DTD SVG 1.1//EN" "http://www.w3.org/Graphics/SVG/1.1/DTD/svg11.dtd" >
<svg xmlns="http://www.w3.org/2000/svg" xmlns:xlink="http://www.w3.org/1999/xlink" version="1.1" viewBox="-10 0 1010 1000">
   <path fill="currentColor"
d="M925 268c0 26 -21 50 -50 50c-16 0 -31 -7 -41 -21c-32 -45 -54 -66 -101 -94c-51 -31 -119 -53 -198 -53c-47 0 -84 8 -121 22c-77 29 -138 78 -180 142c-27 39 -45 87 -54 141c-3 20 -5 34 -5 50c0 7 1 15 1 24c4 113 55 194 118 248c48 41 110 73 197 73
c81 0 141 -37 181 -80c37 -40 71 -96 71 -170c0 -87 -37 -148 -86 -187c-29 -23 -64 -42 -112 -42c-69 0 -116 35 -140 80c-10 18 -16 44 -16 70c0 36 14 64 33 83c12 12 35 27 59 27c7 0 14 -1 21 -4c4 -1 6 -2 7 -2c5 0 11 -9 13 -11s4 -3 4 -4s5 -8 5 -8c2 -6 2 -6 2 -8
v-4v-6c0 -21 -10 -29 -28 -35c-21 -7 -36 -27 -36 -48c0 -30 26 -50 51 -50c5 0 9 1 14 2c55 16 99 64 99 133v10c-5 52 -31 86 -64 109c-23 15 -51 26 -85 26c-60 0 -103 -27 -133 -57c-31 -31 -51 -71 -60 -122c-2 -12 -3 -21 -3 -31c0 -6 1 -11 1 -18
c6 -106 70 -173 145 -209c32 -15 70 -23 113 -23c101 0 172 54 219 109c44 55 77 123 77 220c0 106 -45 184 -98 239c-51 54 -117 91 -205 106c-21 3 -36 5 -54 5c-76 0 -135 -21 -186 -48c-103 -57 -178 -150 -211 -276c-11 -42 -14 -76 -14 -123c0 -100 36 -181 76 -244
c54 -82 131 -146 229 -181c49 -17 98 -28 159 -28c58 0 98 8 147 23c38 12 62 22 99 44c59 35 91 66 131 122c6 9 9 19 9 29z" />
</svg>
