<?xml version="1.0" standalone="no"?>
<!DOCTYPE svg PUBLIC "-//W3C//DTD SVG 1.1//EN" "http://www.w3.org/Graphics/SVG/1.1/DTD/svg11.dtd" >
<svg xmlns="http://www.w3.org/2000/svg" xmlns:xlink="http://www.w3.org/1999/xlink" version="1.1" viewBox="-10 0 1010 1000">
   <path fill="currentColor"
d="M250 650c-26 0 -50 -24 -50 -50c0 -12 5 -25 15 -35l235 -236v-229c0 -28 22 -50 50 -50s50 22 50 50v229l235 236c10 10 15 23 15 35c0 26 -24 50 -50 50c-12 0 -25 -5 -35 -15l-165 -164v429c0 28 -22 50 -50 50s-50 -22 -50 -50v-429l-165 164c-10 10 -23 15 -35 15z
" />
</svg>
