<?xml version="1.0" standalone="no"?>
<!DOCTYPE svg PUBLIC "-//W3C//DTD SVG 1.1//EN" "http://www.w3.org/Graphics/SVG/1.1/DTD/svg11.dtd" >
<svg xmlns="http://www.w3.org/2000/svg" xmlns:xlink="http://www.w3.org/1999/xlink" version="1.1" viewBox="-10 0 1010 1000">
   <path fill="currentColor"
d="M281 990c-117 0 -211 -94 -211 -211v-58c0 -117 94 -211 211 -211h438c117 0 211 94 211 211v58c0 117 -94 211 -211 211h-438zM170 779c0 61 50 111 111 111h438c61 0 111 -50 111 -111v-58c0 -61 -50 -111 -111 -111h-438c-61 0 -111 50 -111 111v58z" />
</svg>
