<?xml version="1.0" standalone="no"?>
<!DOCTYPE svg PUBLIC "-//W3C//DTD SVG 1.1//EN" "http://www.w3.org/Graphics/SVG/1.1/DTD/svg11.dtd" >
<svg xmlns="http://www.w3.org/2000/svg" xmlns:xlink="http://www.w3.org/1999/xlink" version="1.1" viewBox="-10 0 1010 1000">
   <path fill="currentColor"
d="M800 350c0 27 -23 50 -50 50c-13 0 -25 -5 -35 -15l-165 -164v679c0 28 -22 50 -50 50s-50 -22 -50 -50v-679l-165 164c-10 10 -22 15 -35 15c-27 0 -50 -23 -50 -50c0 -13 5 -25 15 -35l250 -250c9 -9 22 -15 35 -15s25 5 35 15l250 250c10 10 15 22 15 35z" />
</svg>
