<?xml version="1.0" standalone="no"?>
<!DOCTYPE svg PUBLIC "-//W3C//DTD SVG 1.1//EN" "http://www.w3.org/Graphics/SVG/1.1/DTD/svg11.dtd" >
<svg xmlns="http://www.w3.org/2000/svg" xmlns:xlink="http://www.w3.org/1999/xlink" version="1.1" viewBox="-10 0 1010 1000">
   <path fill="currentColor"
d="M200 650c0 -26 24 -50 50 -50c12 0 25 5 35 15l165 164v-679c0 -28 22 -50 50 -50s50 22 50 50v679l165 -164c10 -10 23 -15 35 -15c26 0 50 24 50 50c0 12 -5 25 -15 35l-250 250c-9 9 -19 15 -35 15s-26 -6 -35 -15l-250 -250c-10 -10 -15 -23 -15 -35z" />
</svg>
