<?xml version="1.0" standalone="no"?>
<!DOCTYPE svg PUBLIC "-//W3C//DTD SVG 1.1//EN" "http://www.w3.org/Graphics/SVG/1.1/DTD/svg11.dtd" >
<svg xmlns="http://www.w3.org/2000/svg" xmlns:xlink="http://www.w3.org/1999/xlink" version="1.1" viewBox="-10 0 1010 1000">
   <path fill="currentColor"
d="M571 920c-27 0 -50 -23 -50 -50c0 -13 5 -25 15 -35l34 -35h-260c-28 0 -50 -22 -50 -50s22 -50 50 -50h260l-34 -35c-10 -10 -15 -22 -15 -35c0 -27 23 -50 50 -50c13 0 26 5 36 15l119 120c8 8 14 20 14 35s-6 27 -14 35l-119 120c-10 10 -23 15 -36 15z" />
</svg>
