<?xml version="1.0" standalone="no"?>
<!DOCTYPE svg PUBLIC "-//W3C//DTD SVG 1.1//EN" "http://www.w3.org/Graphics/SVG/1.1/DTD/svg11.dtd" >
<svg xmlns="http://www.w3.org/2000/svg" xmlns:xlink="http://www.w3.org/1999/xlink" version="1.1" viewBox="-10 0 1010 1000">
   <path fill="currentColor"
d="M265 815l200 -200c10 -10 22 -15 35 -15s25 5 35 15l200 200c10 10 15 22 15 35s-5 25 -15 35s-22 15 -35 15s-25 -5 -35 -15l-165 -164l-165 164c-10 10 -22 15 -35 15s-25 -5 -35 -15s-15 -22 -15 -35s5 -25 15 -35zM885 265c10 10 15 22 15 35s-5 25 -15 35l-164 165
l164 165c10 10 15 22 15 35s-5 25 -15 35s-22 15 -35 15s-25 -5 -35 -15l-200 -200c-10 -10 -15 -22 -15 -35s5 -25 15 -35l200 -200c10 -10 22 -15 35 -15s25 5 35 15zM115 265c10 -10 22 -15 35 -15s25 5 35 15l200 200c10 10 15 22 15 35s-5 25 -15 35l-200 200
c-10 10 -22 15 -35 15s-25 -5 -35 -15s-15 -22 -15 -35s5 -25 15 -35l164 -165l-164 -165c-10 -10 -15 -22 -15 -35s5 -25 15 -35zM265 115c10 -10 22 -15 35 -15s25 5 35 15l165 164l165 -164c10 -10 22 -15 35 -15s25 5 35 15s15 22 15 35s-5 25 -15 35l-200 200
c-10 10 -22 15 -35 15s-25 -5 -35 -15l-200 -200c-10 -10 -15 -22 -15 -35s5 -25 15 -35z" />
</svg>
