<?xml version="1.0" standalone="no"?>
<!DOCTYPE svg PUBLIC "-//W3C//DTD SVG 1.1//EN" "http://www.w3.org/Graphics/SVG/1.1/DTD/svg11.dtd" >
<svg xmlns="http://www.w3.org/2000/svg" xmlns:xlink="http://www.w3.org/1999/xlink" version="1.1" viewBox="-10 0 1010 1000">
   <path fill="currentColor"
d="M369 668c6 28 22 60 41 60c22 0 40 -18 40 -40c0 -28 22 -50 50 -50s50 22 50 50c0 22 18 40 40 40c19 0 35 -32 41 -60c5 -24 26 -40 49 -40c3 0 7 0 10 1c24 5 40 26 40 49c0 3 0 7 -1 10c-3 17 -32 140 -139 140c-34 0 -66 -13 -90 -33c-24 20 -56 33 -90 33
c-72 0 -123 -62 -139 -140c-1 -4 -1 -7 -1 -11c0 -30 25 -48 51 -48c21 0 43 12 48 39zM181 473c-10 -10 -145 -147 -145 -251c0 -25 7 -47 26 -66c18 -18 41 -25 66 -25c73 0 171 64 251 144l17 17c33 -11 68 -16 104 -16s71 5 104 16l17 -17c10 -10 147 -145 251 -145
c25 0 47 7 66 26c18 18 25 41 25 66c0 73 -64 171 -144 251l-8 8c17 41 27 85 27 132c0 186 -152 337 -338 337s-338 -151 -338 -337c0 -47 10 -92 27 -132zM138 232c7 34 42 96 105 162c17 -20 37 -38 59 -54c-9 -9 -98 -95 -164 -108zM757 394c9 -9 92 -97 105 -162
c-34 7 -97 43 -164 108c22 16 42 34 59 54zM238 613c0 145 117 263 262 263s262 -118 262 -263s-117 -263 -262 -263s-262 118 -262 263z" />
</svg>
