<?xml version="1.0" standalone="no"?>
<!DOCTYPE svg PUBLIC "-//W3C//DTD SVG 1.1//EN" "http://www.w3.org/Graphics/SVG/1.1/DTD/svg11.dtd" >
<svg xmlns="http://www.w3.org/2000/svg" xmlns:xlink="http://www.w3.org/1999/xlink" version="1.1" viewBox="-10 0 1010 1000">
   <path fill="currentColor"
d="M415 114v-5c1 -27 22 -49 49 -49h2c27 1 49 22 49 49v2v6c0 4 -1 8 -1 15c0 70 -3 136 -4 219c0 30 -1 60 -1 88s1 54 1 76v21c36 -3 65 -4 92 -4c38 0 70 3 108 9c90 16 185 66 185 174c0 47 -10 107 -62 154c-50 46 -130 71 -248 71c-194 0 -303 -2 -363 -5
c-39 -1 -49 -5 -72 -5c-1 0 -2 -1 -3 -1h-4c-23 -5 -38 -26 -38 -49v-770c0 -28 22 -50 50 -50s50 22 50 50v724c6 0 14 1 22 1c58 2 164 5 358 5c106 0 156 -23 180 -45c22 -21 30 -47 30 -80c0 -21 -9 -35 -25 -47c-35 -25 -103 -37 -164 -37c-34 0 -75 3 -136 9h-5
c-26 0 -42 -17 -47 -32c-2 -6 -4 -11 -4 -14c-1 -6 -3 -14 -3 -21c-1 -14 -1 -34 -1 -57s-1 -50 -1 -78s1 -58 1 -88c1 -83 4 -151 4 -221c0 -7 1 -11 1 -15z" />
</svg>
