<?xml version="1.0" standalone="no"?>
<!DOCTYPE svg PUBLIC "-//W3C//DTD SVG 1.1//EN" "http://www.w3.org/Graphics/SVG/1.1/DTD/svg11.dtd" >
<svg xmlns="http://www.w3.org/2000/svg" xmlns:xlink="http://www.w3.org/1999/xlink" version="1.1" viewBox="-10 0 1070 1000">
   <path fill="currentColor"
d="M550 150v450c0 28 -22 50 -50 50s-50 -22 -50 -50v-450c0 -28 22 -50 50 -50s50 22 50 50zM500 800c-55 0 -100 45 -100 100v150c0 28 -22 50 -50 50s-50 -22 -50 -50v-150c0 -110 90 -200 200 -200s200 90 200 200v80c0 12 8 20 20 20h280c28 0 50 22 50 50
s-22 50 -50 50h-280c-68 0 -120 -52 -120 -120v-80c0 -55 -45 -100 -100 -100z" />
</svg>
