<?xml version="1.0" standalone="no"?>
<!DOCTYPE svg PUBLIC "-//W3C//DTD SVG 1.1//EN" "http://www.w3.org/Graphics/SVG/1.1/DTD/svg11.dtd" >
<svg xmlns="http://www.w3.org/2000/svg" xmlns:xlink="http://www.w3.org/1999/xlink" version="1.1" viewBox="-10 0 1010 1000">
   <path fill="currentColor"
d="M754 405c-39 12 -64 49 -64 95s25 83 64 95c7 -32 11 -64 11 -95s-4 -63 -11 -95zM324 500c146 67 252 153 342 279c22 -30 39 -60 54 -90c-32 -11 -59 -29 -80 -53c-34 -38 -50 -88 -50 -136s16 -98 50 -136c21 -24 48 -42 80 -53c-15 -30 -32 -60 -54 -90
c-90 126 -196 212 -342 279zM685 50c30 0 50 24 50 50c0 9 -2 18 -7 26c-1 2 -3 4 -4 6c93 114 141 240 141 368s-48 254 -141 368c1 2 3 4 4 6c5 8 7 17 7 26c0 26 -20 50 -50 50c-17 0 -34 -8 -43 -24c-120 -201 -236 -299 -472 -378c-1 0 -2 -1 -3 -1
c-17 -7 -32 -23 -32 -47s15 -40 32 -47c1 0 2 -1 3 -1c236 -79 352 -177 472 -378c9 -16 26 -24 43 -24z" />
</svg>
