<?xml version="1.0" standalone="no"?>
<!DOCTYPE svg PUBLIC "-//W3C//DTD SVG 1.1//EN" "http://www.w3.org/Graphics/SVG/1.1/DTD/svg11.dtd" >
<svg xmlns="http://www.w3.org/2000/svg" xmlns:xlink="http://www.w3.org/1999/xlink" version="1.1" viewBox="-10 0 1010 1000">
   <path fill="currentColor"
d="M400 600c-28 0 -50 22 -50 50c0 10 6 28 23 54c30 44 88 99 127 132c39 -33 98 -88 127 -132c17 -26 23 -44 23 -54c0 -28 -22 -50 -50 -50c-24 0 -42 27 -53 44l-6 9c-9 14 -24 22 -41 22s-32 -8 -41 -22l-6 -9c-11 -17 -29 -44 -53 -44zM530 940c-9 6 -20 10 -30 10
s-21 -4 -30 -10l-1 -1c-3 -2 -4 -3 -8 -6c-56 -47 -127 -107 -171 -174c-20 -31 -40 -69 -40 -109c0 -83 67 -150 150 -150c46 0 78 21 100 43c22 -22 54 -43 100 -43c83 0 150 67 150 150c0 40 -20 78 -40 109c-44 68 -114 126 -171 174c-4 3 -5 4 -8 6zM400 150
c-28 0 -50 22 -50 50c0 10 6 28 23 54c30 44 88 99 127 132c39 -33 98 -88 127 -132c17 -26 23 -44 23 -54c0 -28 -22 -50 -50 -50c-24 0 -42 27 -53 44l-6 9c-9 14 -24 22 -41 22s-32 -8 -41 -22l-6 -9c-11 -17 -29 -44 -53 -44zM530 490c-9 6 -20 10 -30 10
s-21 -4 -30 -10l-1 -1c-3 -2 -4 -3 -8 -6c-56 -47 -127 -107 -171 -174c-20 -31 -40 -69 -40 -109c0 -83 67 -150 150 -150c46 0 78 21 100 43c22 -22 54 -43 100 -43c83 0 150 67 150 150c0 40 -20 78 -40 109c-44 68 -114 126 -171 174c-4 3 -5 4 -8 6z" />
</svg>
