<?xml version="1.0" standalone="no"?>
<!DOCTYPE svg PUBLIC "-//W3C//DTD SVG 1.1//EN" "http://www.w3.org/Graphics/SVG/1.1/DTD/svg11.dtd" >
<svg xmlns="http://www.w3.org/2000/svg" xmlns:xlink="http://www.w3.org/1999/xlink" version="1.1" viewBox="-10 0 1010 1000">
   <path fill="currentColor"
d="M500 510c28 0 50 22 50 50v50c0 28 -22 50 -50 50s-50 -22 -50 -50v-50c0 -28 22 -50 50 -50zM321 594c0 -25 20 -51 50 -51c17 0 33 9 42 25l24 43c4 8 6 17 6 25c0 25 -20 52 -50 52c-17 0 -33 -9 -42 -25l-24 -44c-4 -8 -6 -17 -6 -25zM629 543c30 0 50 26 50 51
c0 8 -2 17 -6 25l-24 44c-9 16 -25 25 -42 25c-30 0 -50 -27 -50 -52c0 -8 2 -17 6 -25l24 -43c9 -16 25 -25 42 -25zM550 966c-16 12 -33 23 -52 23c-10 0 -20 -4 -32 -12c-39 -27 -85 -63 -116 -103c-14 -18 -30 -46 -30 -77c0 -65 58 -107 115 -107c27 0 49 9 65 21
c16 -12 38 -21 65 -21c57 0 115 42 115 107c0 31 -16 59 -30 77c-26 35 -68 68 -100 92zM500 833c-29 0 -39 -24 -56 -39c-4 -3 -6 -4 -9 -4c-7 0 -13 3 -15 7c7 19 30 39 48 55c11 10 22 19 32 26c22 -17 54 -44 70 -65c8 -10 10 -15 10 -16c-2 -4 -8 -7 -15 -7
c-9 0 -17 12 -22 19c-10 14 -24 24 -43 24z" />
</svg>
