<?xml version="1.0" standalone="no"?>
<!DOCTYPE svg PUBLIC "-//W3C//DTD SVG 1.1//EN" "http://www.w3.org/Graphics/SVG/1.1/DTD/svg11.dtd" >
<svg xmlns="http://www.w3.org/2000/svg" xmlns:xlink="http://www.w3.org/1999/xlink" version="1.1" viewBox="-10 0 1010 1000">
   <path fill="currentColor"
d="M357 450c-51 0 -93 42 -93 93c0 21 11 50 36 88c24 36 57 74 92 109c40 40 74 70 108 96c65 -49 153 -134 200 -205c25 -38 36 -67 36 -88c0 -51 -42 -93 -93 -93c-53 0 -78 53 -102 85c-9 14 -24 22 -41 22s-32 -8 -41 -22c-24 -32 -49 -85 -102 -85zM470 940h-1v-1
c-3 0 -8 -6 -12 -9c-46 -35 -85 -70 -135 -120c-37 -37 -76 -79 -105 -123c-28 -43 -53 -93 -53 -144c0 -107 86 -193 193 -193c67 0 112 35 143 72c31 -37 76 -72 143 -72c107 0 193 86 193 193c0 51 -25 101 -53 144c-29 44 -68 86 -105 123c-51 51 -89 85 -135 120
c-4 3 -9 9 -12 9l-1 1c-9 6 -20 10 -30 10s-21 -4 -30 -10zM750 117c29 0 50 25 50 50c0 9 -2 17 -7 25l-50 87c-9 16 -26 25 -43 25c-29 0 -50 -25 -50 -50c0 -9 2 -17 7 -25l50 -87c9 -16 26 -25 43 -25zM200 167c0 -25 21 -50 50 -50c17 0 34 9 43 25l50 87
c5 8 7 16 7 25c0 25 -21 50 -50 50c-17 0 -34 -9 -43 -25l-50 -87c-5 -8 -7 -16 -7 -25zM500 50c28 0 50 22 50 50v100c0 28 -22 50 -50 50s-50 -22 -50 -50v-100c0 -28 22 -50 50 -50z" />
</svg>
