<?xml version="1.0" standalone="no"?>
<!DOCTYPE svg PUBLIC "-//W3C//DTD SVG 1.1//EN" "http://www.w3.org/Graphics/SVG/1.1/DTD/svg11.dtd" >
<svg xmlns="http://www.w3.org/2000/svg" xmlns:xlink="http://www.w3.org/1999/xlink" version="1.1" viewBox="-10 0 1010 1000">
   <path fill="currentColor"
d="M811 926c-16 14 -39 33 -63 33c-10 0 -20 -3 -30 -11c-55 -42 -122 -102 -164 -165c-19 -28 -37 -64 -37 -102c0 -78 63 -141 141 -141c41 0 71 19 92 38c21 -19 51 -38 92 -38c78 0 141 63 141 141c0 38 -18 74 -37 102c-35 52 -91 106 -135 143zM658 640
c-23 0 -41 18 -41 41c0 8 5 24 20 47c27 40 77 88 113 118c35 -30 87 -78 113 -118c15 -23 20 -39 20 -47c0 -23 -18 -41 -41 -41c-24 0 -40 31 -51 47c-9 14 -24 22 -41 22s-32 -8 -41 -22c-11 -17 -27 -47 -51 -47zM311 926c-16 14 -39 33 -63 33c-10 0 -20 -3 -30 -11
c-55 -42 -122 -102 -164 -165c-19 -28 -37 -64 -37 -102c0 -78 63 -141 141 -141c41 0 71 19 92 38c21 -19 51 -38 92 -38c78 0 141 63 141 141c0 38 -18 74 -37 102c-35 52 -91 106 -135 143zM158 640c-23 0 -41 18 -41 41c0 8 5 24 20 47c27 40 77 88 113 118
c35 -30 87 -78 113 -118c15 -23 20 -39 20 -47c0 -23 -18 -41 -41 -41c-24 0 -40 31 -51 47c-9 14 -24 22 -41 22s-32 -8 -41 -22c-11 -17 -27 -47 -51 -47z" />
</svg>
