<?xml version="1.0" standalone="no"?>
<!DOCTYPE svg PUBLIC "-//W3C//DTD SVG 1.1//EN" "http://www.w3.org/Graphics/SVG/1.1/DTD/svg11.dtd" >
<svg xmlns="http://www.w3.org/2000/svg" xmlns:xlink="http://www.w3.org/1999/xlink" version="1.1" viewBox="-10 0 1010 1000">
   <path fill="currentColor"
d="M255 676c-55 72 -95 141 -111 171c-9 17 -26 27 -44 27c-8 0 -16 -2 -23 -6c-2 -1 -27 -15 -27 -43c0 -9 3 -18 9 -30c15 -28 61 -109 130 -196c-4 -5 -83 -105 -133 -201c-4 -7 -6 -16 -6 -24c0 -18 10 -35 27 -44c2 -1 12 -6 24 -6c14 0 32 6 46 31c9 17 48 88 108 167
c91 -97 215 -192 357 -198h22c85 0 161 20 218 64c64 49 98 122 98 211c0 165 -120 275 -316 275h-22c-97 -4 -219 -51 -357 -198zM850 599c0 -51 -20 -175 -215 -175h-19c-107 4 -210 81 -296 175c78 85 184 171 296 175h16c74 0 218 -20 218 -175zM639 649
c53 0 84 -23 95 -44c9 -17 26 -26 44 -26c8 0 16 2 24 6c17 9 26 26 26 44c0 8 -2 16 -6 24c-32 60 -102 96 -183 96s-151 -36 -183 -96c-4 -8 -6 -16 -6 -24c0 -18 9 -35 26 -44c8 -4 16 -6 24 -6c18 0 35 9 44 26c11 21 42 44 95 44zM640 100c28 0 50 22 50 50v100
c0 28 -22 50 -50 50s-50 -22 -50 -50v-100c0 -28 22 -50 50 -50zM374 153c8 -5 17 -7 25 -7c17 0 33 9 42 25l48 87c4 8 7 17 7 25c0 18 -9 34 -25 44c-8 5 -17 7 -25 7c-17 0 -34 -9 -43 -25l-48 -86c-4 -8 -6 -17 -6 -25c0 -18 9 -35 25 -45zM905 153c16 10 25 27 25 45
c0 8 -2 17 -6 25l-48 86c-9 16 -26 25 -43 25c-8 0 -17 -2 -25 -7c-16 -10 -25 -26 -25 -44c0 -8 3 -17 7 -25l48 -87c9 -16 25 -25 42 -25c8 0 17 2 25 7z" />
</svg>
