<?xml version="1.0" standalone="no"?>
<!DOCTYPE svg PUBLIC "-//W3C//DTD SVG 1.1//EN" "http://www.w3.org/Graphics/SVG/1.1/DTD/svg11.dtd" >
<svg xmlns="http://www.w3.org/2000/svg" xmlns:xlink="http://www.w3.org/1999/xlink" version="1.1" viewBox="-10 0 1010 1000">
   <path fill="currentColor"
d="M625 750c138 0 250 -112 250 -250s-112 -250 -250 -250s-250 112 -250 250s112 250 250 250zM625 850c-219 0 -552 -98 -564 -102c-22 -6 -36 -26 -36 -48c0 -5 1 -9 2 -14c0 -1 11 -36 47 -36c6 0 12 1 19 3c19 6 129 37 257 63c-47 -59 -75 -134 -75 -216
c0 -193 157 -350 350 -350s350 157 350 350s-157 350 -350 350z" />
</svg>
