<?xml version="1.0" standalone="no"?>
<!DOCTYPE svg PUBLIC "-//W3C//DTD SVG 1.1//EN" "http://www.w3.org/Graphics/SVG/1.1/DTD/svg11.dtd" >
<svg xmlns="http://www.w3.org/2000/svg" xmlns:xlink="http://www.w3.org/1999/xlink" version="1.1" viewBox="-10 0 1010 1000">
   <path fill="currentColor"
d="M724 400c-55 0 -100 45 -100 100s45 100 100 100s100 -45 100 -100s-45 -100 -100 -100zM74 365c0 -26 23 -49 51 -49c14 0 29 6 38 18c62 77 158 144 262 192c37 17 74 32 111 43c-8 -21 -12 -45 -12 -69c0 -110 90 -200 200 -200s200 90 200 200s-90 200 -200 200h-3
c-102 0 -224 -31 -338 -83s-223 -127 -298 -220c-7 -9 -11 -21 -11 -32z" />
</svg>
