<?xml version="1.0" standalone="no"?>
<!DOCTYPE svg PUBLIC "-//W3C//DTD SVG 1.1//EN" "http://www.w3.org/Graphics/SVG/1.1/DTD/svg11.dtd" >
<svg xmlns="http://www.w3.org/2000/svg" xmlns:xlink="http://www.w3.org/1999/xlink" version="1.1" viewBox="-10 0 1010 1000">
   <path fill="currentColor"
d="M500 125c18 0 34 10 43 25l390 675c5 8 7 17 7 25c0 17 -9 34 -25 43c-8 5 -17 7 -25 7c-17 0 -35 -9 -44 -25l-346 -600l-346 600c-9 16 -27 25 -44 25c-8 0 -17 -2 -25 -7c-16 -9 -25 -26 -25 -43c0 -8 2 -17 7 -25l390 -675c9 -15 25 -25 43 -25z" />
</svg>
