<?xml version="1.0" standalone="no"?>
<!DOCTYPE svg PUBLIC "-//W3C//DTD SVG 1.1//EN" "http://www.w3.org/Graphics/SVG/1.1/DTD/svg11.dtd" >
<svg xmlns="http://www.w3.org/2000/svg" xmlns:xlink="http://www.w3.org/1999/xlink" version="1.1" viewBox="-10 0 1070 1000">
   <path fill="currentColor"
d="M200 100c28 0 50 22 50 50v400h500v-400c0 -28 22 -50 50 -50s50 22 50 50v800c0 24 6 34 11 39s15 11 39 11h100c28 0 50 22 50 50s-22 50 -50 50h-100c-41 0 -81 -11 -110 -40s-40 -69 -40 -110v-50h-550c-28 0 -50 -22 -50 -50v-700c0 -28 22 -50 50 -50zM250 650v150
h500v-150h-500z" />
</svg>
