<?xml version="1.0" standalone="no"?>
<!DOCTYPE svg PUBLIC "-//W3C//DTD SVG 1.1//EN" "http://www.w3.org/Graphics/SVG/1.1/DTD/svg11.dtd" >
<svg xmlns="http://www.w3.org/2000/svg" xmlns:xlink="http://www.w3.org/1999/xlink" version="1.1" viewBox="-10 0 1010 1000">
   <path fill="currentColor"
d="M500 50c28 0 50 22 50 50v350c0 28 -22 50 -50 50s-50 -22 -50 -50v-350c0 -28 22 -50 50 -50zM500 950c-110 0 -200 -90 -200 -200s90 -200 200 -200s200 90 200 200s-90 200 -200 200zM500 850c55 0 100 -45 100 -100s-45 -100 -100 -100s-100 45 -100 100
s45 100 100 100z" />
</svg>
