<?xml version="1.0" standalone="no"?>
<!DOCTYPE svg PUBLIC "-//W3C//DTD SVG 1.1//EN" "http://www.w3.org/Graphics/SVG/1.1/DTD/svg11.dtd" >
<svg xmlns="http://www.w3.org/2000/svg" xmlns:xlink="http://www.w3.org/1999/xlink" version="1.1" viewBox="-10 0 1010 1000">
   <path fill="currentColor"
d="M500 510c28 0 50 22 50 50v100c0 28 -22 50 -50 50s-50 -22 -50 -50v-100c0 -28 22 -50 50 -50zM500 890c19 0 35 -16 35 -35s-16 -35 -35 -35s-35 16 -35 35s16 35 35 35zM500 990c-75 0 -135 -60 -135 -135s60 -135 135 -135s135 60 135 135s-60 135 -135 135z" />
</svg>
