<?xml version="1.0" standalone="no"?>
<!DOCTYPE svg PUBLIC "-//W3C//DTD SVG 1.1//EN" "http://www.w3.org/Graphics/SVG/1.1/DTD/svg11.dtd" >
<svg xmlns="http://www.w3.org/2000/svg" xmlns:xlink="http://www.w3.org/1999/xlink" version="1.1" viewBox="-10 0 1010 1000">
   <path fill="currentColor"
d="M750 155c29 0 50 25 50 50c0 8 -2 17 -7 25l-50 87c-9 16 -26 25 -43 25c-29 0 -50 -25 -50 -50c0 -8 2 -17 7 -25l50 -87c9 -16 26 -25 43 -25zM200 205c0 -25 21 -50 50 -50c17 0 34 9 43 25l50 87c5 8 7 17 7 25c0 25 -21 50 -50 50c-17 0 -34 -9 -43 -25l-50 -87
c-5 -8 -7 -17 -7 -25zM500 88c28 0 50 22 50 50v100c0 28 -22 50 -50 50s-50 -22 -50 -50v-100c0 -28 22 -50 50 -50zM500 815c131 0 270 -71 331 -175c-61 -104 -200 -175 -331 -175s-270 71 -331 175c61 104 200 175 331 175zM83 691c-9 -16 -13 -33 -13 -51s4 -35 13 -51
c82 -139 256 -224 417 -224s335 85 417 224c9 16 13 33 13 51s-4 35 -13 51c-82 139 -256 224 -417 224s-335 -85 -417 -224zM600 640c0 55 -45 100 -100 100s-100 -45 -100 -100s45 -100 100 -100s100 45 100 100z" />
</svg>
