<?xml version="1.0" standalone="no"?>
<!DOCTYPE svg PUBLIC "-//W3C//DTD SVG 1.1//EN" "http://www.w3.org/Graphics/SVG/1.1/DTD/svg11.dtd" >
<svg xmlns="http://www.w3.org/2000/svg" xmlns:xlink="http://www.w3.org/1999/xlink" version="1.1" viewBox="-10 0 1010 1000">
   <path fill="currentColor"
d="M540 830c0 22 -18 40 -40 40s-40 -18 -40 -40s18 -40 40 -40s40 18 40 40zM300 881c-9 -16 -13 -33 -13 -51s4 -35 13 -51c42 -71 126 -109 200 -109s158 38 200 109c9 16 13 33 13 51s-4 35 -13 51c-42 71 -126 109 -200 109s-158 -38 -200 -109zM387 830
c21 36 68 60 113 60s92 -24 113 -60c-21 -36 -68 -60 -113 -60s-92 24 -113 60zM500 510c28 0 50 22 50 50v50c0 28 -22 50 -50 50s-50 -22 -50 -50v-50c0 -28 22 -50 50 -50zM320 594c0 -25 20 -51 50 -51c17 0 33 9 42 25l24 43c4 8 7 17 7 25c0 25 -21 51 -51 51
c-17 0 -33 -9 -42 -25l-24 -43c-4 -8 -6 -17 -6 -25zM630 543c30 0 50 26 50 51c0 8 -3 17 -7 25l-24 43c-9 16 -25 25 -42 25c-30 0 -50 -26 -50 -51c0 -8 2 -17 6 -25l25 -43c9 -16 25 -25 42 -25z" />
</svg>
