<?xml version="1.0" standalone="no"?>
<!DOCTYPE svg PUBLIC "-//W3C//DTD SVG 1.1//EN" "http://www.w3.org/Graphics/SVG/1.1/DTD/svg11.dtd" >
<svg xmlns="http://www.w3.org/2000/svg" xmlns:xlink="http://www.w3.org/1999/xlink" version="1.1" viewBox="-10 0 1010 1000">
   <path fill="currentColor"
d="M630 450c25 0 50 20 50 50c0 10 -3 19 -8 27l-177 273h255v-600h-125l-163 250h168zM370 550c-25 0 -50 -20 -50 -50c0 -10 3 -19 8 -27l177 -273h-255v600h125l163 -250h-168zM200 100h600c28 0 50 22 50 50v700c0 28 -22 50 -50 50h-600c-28 0 -50 -22 -50 -50v-700
c0 -28 22 -50 50 -50z" />
</svg>
