<?xml version="1.0" standalone="no"?>
<!DOCTYPE svg PUBLIC "-//W3C//DTD SVG 1.1//EN" "http://www.w3.org/Graphics/SVG/1.1/DTD/svg11.dtd" >
<svg xmlns="http://www.w3.org/2000/svg" xmlns:xlink="http://www.w3.org/1999/xlink" version="1.1" viewBox="-10 0 1010 1000">
   <path fill="currentColor"
d="M500 50c28 0 50 22 50 50v100c0 28 -22 50 -50 50s-50 -22 -50 -50v-100c0 -28 22 -50 50 -50zM225 124c8 -5 17 -7 25 -7c17 0 34 9 43 25l50 87c5 8 7 17 7 25c0 17 -9 34 -25 43c-8 5 -17 7 -25 7c-17 0 -34 -9 -43 -25l-50 -87c-5 -8 -7 -17 -7 -25
c0 -17 9 -34 25 -43zM793 192l-50 87c-9 16 -26 25 -43 25c-8 0 -17 -2 -25 -7c-16 -9 -25 -26 -25 -43c0 -8 2 -17 7 -25l50 -87c9 -16 26 -25 43 -25c8 0 17 2 25 7c16 9 25 26 25 43c0 8 -2 17 -7 25zM240 400c0 -28 22 -50 50 -50h420c28 0 50 22 50 50v450
c0 28 -22 50 -50 50h-420c-28 0 -50 -22 -50 -50v-450zM340 567v233h261l-61 -144l-48 71c-10 15 -26 22 -42 22c-19 0 -38 -11 -46 -31zM399 450l61 144l48 -71c10 -15 26 -22 42 -22c19 0 38 11 46 31l64 151v-233h-261z" />
</svg>
