<?xml version="1.0" standalone="no"?>
<!DOCTYPE svg PUBLIC "-//W3C//DTD SVG 1.1//EN" "http://www.w3.org/Graphics/SVG/1.1/DTD/svg11.dtd" >
<svg xmlns="http://www.w3.org/2000/svg" xmlns:xlink="http://www.w3.org/1999/xlink" version="1.1" viewBox="-10 0 1010 1000">
   <path fill="currentColor"
d="M397 589c14 -35 45 -79 104 -79s90 44 104 79c14 36 17 77 17 108v106c0 31 -3 72 -17 108c-14 35 -45 79 -104 79s-90 -44 -104 -79c-14 -36 -17 -77 -17 -108v-106c0 -31 3 -72 17 -108zM501 610c-4 0 -6 6 -10 15c-7 19 -11 46 -11 72v106c0 31 3 72 19 87h2
c4 0 6 -6 10 -15c7 -19 11 -46 11 -72v-106c0 -31 -3 -72 -19 -87h-2z" />
</svg>
