<?xml version="1.0" standalone="no"?>
<!DOCTYPE svg PUBLIC "-//W3C//DTD SVG 1.1//EN" "http://www.w3.org/Graphics/SVG/1.1/DTD/svg11.dtd" >
<svg xmlns="http://www.w3.org/2000/svg" xmlns:xlink="http://www.w3.org/1999/xlink" version="1.1" viewBox="-10 0 1010 1000">
   <path fill="currentColor"
d="M331 560c0 -29 25 -50 50 -50c10 0 19 3 28 9l91 61l91 -61c9 -6 18 -9 28 -9c25 0 50 21 50 50c0 16 -8 31 -22 41l-119 80c-8 6 -18 9 -28 9s-20 -3 -28 -9l-119 -80c-14 -10 -22 -25 -22 -41zM331 710c0 -29 25 -50 50 -50c10 0 19 3 28 9l91 61l91 -61
c9 -6 18 -9 28 -9c25 0 50 21 50 50c0 16 -8 31 -22 41l-119 80c-8 6 -18 9 -28 9s-20 -3 -28 -9l-119 -80c-14 -10 -22 -25 -22 -41zM331 860c0 -29 25 -50 50 -50c10 0 19 3 28 9l91 61l91 -61c9 -6 18 -9 28 -9c25 0 50 21 50 50c0 16 -8 31 -22 41l-119 80
c-8 6 -18 9 -28 9s-20 -3 -28 -9l-119 -80c-14 -10 -22 -25 -22 -41z" />
</svg>
