<?xml version="1.0" standalone="no"?>
<!DOCTYPE svg PUBLIC "-//W3C//DTD SVG 1.1//EN" "http://www.w3.org/Graphics/SVG/1.1/DTD/svg11.dtd" >
<svg xmlns="http://www.w3.org/2000/svg" xmlns:xlink="http://www.w3.org/1999/xlink" version="1.1" viewBox="-10 0 1010 1000">
   <path fill="currentColor"
d="M500 350c-83 0 -150 67 -150 150s67 150 150 150s150 -67 150 -150s-67 -150 -150 -150zM250 500c0 -138 112 -250 250 -250s250 112 250 250s-112 250 -250 250s-250 -112 -250 -250zM500 530c19 0 29 -9 34 -20c9 -21 27 -30 44 -30c26 0 52 21 52 49c0 7 -1 14 -4 21
c-21 47 -68 80 -126 80c-76 0 -129 -57 -129 -102c0 -18 9 -35 29 -44c7 -3 13 -4 20 -4c19 0 38 11 46 30c5 11 15 20 34 20zM168 168c10 -10 22 -15 35 -15s25 5 35 15l75 74c10 10 14 22 14 35s-4 26 -14 36s-23 14 -36 14s-25 -4 -35 -14l-74 -75
c-10 -10 -15 -22 -15 -35s5 -25 15 -35zM30 500c0 -28 22 -50 50 -50h105c28 0 50 22 50 50s-22 50 -50 50h-105c-28 0 -50 -22 -50 -50zM168 832c-10 -10 -15 -22 -15 -35s5 -25 15 -35l74 -75c10 -10 22 -14 35 -14s26 4 36 14s14 23 14 36s-4 25 -14 35l-75 74
c-10 10 -22 15 -35 15s-25 -5 -35 -15zM500 970c-28 0 -50 -22 -50 -50v-105c0 -28 22 -50 50 -50s50 22 50 50v105c0 28 -22 50 -50 50zM832 832c-10 10 -22 15 -35 15s-25 -5 -35 -15l-75 -74c-10 -10 -14 -22 -14 -35s4 -26 14 -36s23 -14 36 -14s25 4 35 14l74 75
c10 10 15 22 15 35s-5 25 -15 35zM970 500c0 28 -22 50 -50 50h-105c-28 0 -50 -22 -50 -50s22 -50 50 -50h105c28 0 50 22 50 50zM832 168c10 10 15 22 15 35s-5 25 -15 35l-74 75c-10 10 -22 14 -35 14s-26 -4 -36 -14s-14 -23 -14 -36s4 -25 14 -35l75 -74
c10 -10 22 -15 35 -15s25 5 35 15zM500 30c28 0 50 22 50 50v105c0 28 -22 50 -50 50s-50 -22 -50 -50v-105c0 -28 22 -50 50 -50z" />
</svg>
