<?xml version="1.0" standalone="no"?>
<!DOCTYPE svg PUBLIC "-//W3C//DTD SVG 1.1//EN" "http://www.w3.org/Graphics/SVG/1.1/DTD/svg11.dtd" >
<svg xmlns="http://www.w3.org/2000/svg" xmlns:xlink="http://www.w3.org/1999/xlink" version="1.1" viewBox="-10 0 1010 1000">
   <path fill="currentColor"
d="M500 245c-25 43 -150 259 -150 405c0 83 67 150 150 150s150 -67 150 -150c0 -49 -17 -176 -150 -405zM500 100c29 0 37 13 74 74c65 109 176 317 176 476c0 138 -112 250 -250 250s-250 -112 -250 -250v-3c1 -117 76 -327 208 -525c9 -14 25 -22 42 -22z" />
</svg>
