<?xml version="1.0" standalone="no"?>
<!DOCTYPE svg PUBLIC "-//W3C//DTD SVG 1.1//EN" "http://www.w3.org/Graphics/SVG/1.1/DTD/svg11.dtd" >
<svg xmlns="http://www.w3.org/2000/svg" xmlns:xlink="http://www.w3.org/1999/xlink" version="1.1" viewBox="-10 0 1010 1000">
   <path fill="currentColor"
d="M300 200c-83 0 -150 67 -150 150c0 35 18 81 54 135c35 52 82 106 131 155s98 91 135 122c12 10 21 18 30 25c9 -7 18 -15 30 -25c37 -31 86 -73 135 -122s96 -103 131 -155c36 -54 54 -100 54 -135c0 -83 -67 -150 -150 -150c-40 0 -75 18 -104 44c-30 27 -45 55 -47 66
c-5 23 -25 40 -49 40s-44 -17 -49 -40c-2 -11 -17 -39 -47 -66c-29 -26 -64 -44 -104 -44zM500 199c45 -50 109 -99 200 -99c138 0 250 112 250 250c0 65 -32 131 -71 190c-85 128 -221 246 -331 336c-9 6 -13 9 -18 14c-9 6 -20 10 -30 10c-9 0 -24 -4 -31 -11
c-5 -5 -9 -8 -17 -13c-108 -89 -247 -209 -331 -336c-39 -59 -71 -125 -71 -190c0 -138 112 -250 250 -250c90 0 155 49 200 99z" />
</svg>
