<?xml version="1.0" standalone="no"?>
<!DOCTYPE svg PUBLIC "-//W3C//DTD SVG 1.1//EN" "http://www.w3.org/Graphics/SVG/1.1/DTD/svg11.dtd" >
<svg xmlns="http://www.w3.org/2000/svg" xmlns:xlink="http://www.w3.org/1999/xlink" version="1.1" viewBox="-10 0 1010 1000">
   <path fill="currentColor"
d="M280 110c-88 0 -170 83 -170 201c0 50 22 112 62 180c80 137 220 283 328 382c107 -98 248 -245 328 -382c40 -68 62 -130 62 -180c0 -118 -82 -201 -170 -201c-47 0 -89 18 -120 44c-32 27 -48 57 -51 73c-4 24 -25 42 -49 42s-45 -18 -49 -42c-3 -16 -19 -46 -51 -73
c-31 -26 -73 -44 -120 -44zM500 113c47 -56 124 -103 220 -103c155 0 270 141 270 301c0 76 -33 157 -76 230c-77 132 -211 276 -311 372c-31 29 -45 44 -70 65c-9 8 -21 12 -33 12c-23 0 -37 -16 -52 -29c-121 -108 -271 -265 -362 -420c-43 -73 -76 -154 -76 -230
c0 -160 115 -301 270 -301c96 0 173 47 220 103z" />
</svg>
