<?xml version="1.0" standalone="no"?>
<!DOCTYPE svg PUBLIC "-//W3C//DTD SVG 1.1//EN" "http://www.w3.org/Graphics/SVG/1.1/DTD/svg11.dtd" >
<svg xmlns="http://www.w3.org/2000/svg" xmlns:xlink="http://www.w3.org/1999/xlink" version="1.1" viewBox="-10 0 1010 1000">
   <path fill="currentColor"
d="M825 460c0 -107 -139 -175 -425 -175c-14 0 -25 -11 -25 -25v-135h-50v750h50v-215c0 -14 11 -25 25 -25c150 0 425 -21 425 -175zM200 125c-4 0 -25 0 -25 25c0 4 0 25 25 25c14 0 25 11 25 25s-11 25 -25 25c-44 0 -75 -31 -75 -75s31 -75 75 -75h300c44 0 75 31 75 75
s-31 75 -75 75c-14 0 -25 -11 -25 -25s11 -25 25 -25c4 0 25 0 25 -25c0 -4 0 -25 -25 -25h-75v110c163 2 272 28 343 66c76 41 107 99 107 159c0 88 -65 220 -450 225v190h75c4 0 25 0 25 -25c0 -4 0 -25 -25 -25c-14 0 -25 -11 -25 -25s11 -25 25 -25c44 0 75 31 75 75
s-31 75 -75 75h-300c-44 0 -75 -31 -75 -75s31 -75 75 -75c14 0 25 11 25 25s-11 25 -25 25c-4 0 -25 0 -25 25c0 4 0 25 25 25h75v-750h-75zM425 535c160 -2 300 -19 300 -75s-140 -73 -300 -75v150zM400 585c-14 0 -25 -11 -25 -25v-200c0 -14 11 -25 25 -25
c243 0 375 30 375 125s-132 125 -375 125z" />
</svg>
