<?xml version="1.0" standalone="no"?>
<!DOCTYPE svg PUBLIC "-//W3C//DTD SVG 1.1//EN" "http://www.w3.org/Graphics/SVG/1.1/DTD/svg11.dtd" >
<svg xmlns="http://www.w3.org/2000/svg" xmlns:xlink="http://www.w3.org/1999/xlink" version="1.1" viewBox="-10 0 1010 1000">
   <path fill="currentColor"
d="M750 125c0 41 -34 75 -75 75s-75 -34 -75 -75s34 -75 75 -75s75 34 75 75zM263 375c0 -28 22 -50 50 -50h137v-75c0 -28 22 -50 50 -50s50 22 50 50v75h137c28 0 50 22 50 50s-22 50 -50 50h-137v100h150c28 0 50 22 50 50s-22 50 -50 50h-150v100h137c28 0 50 22 50 50
s-22 50 -50 50h-137v75c0 28 -22 50 -50 50s-50 -22 -50 -50v-75h-137c-28 0 -50 -22 -50 -50s22 -50 50 -50h137v-100h-150c-28 0 -50 -22 -50 -50s22 -50 50 -50h150v-100h-137c-28 0 -50 -22 -50 -50zM325 200c-41 0 -75 -34 -75 -75s34 -75 75 -75s75 34 75 75
s-34 75 -75 75z" />
</svg>
