<?xml version="1.0" standalone="no"?>
<!DOCTYPE svg PUBLIC "-//W3C//DTD SVG 1.1//EN" "http://www.w3.org/Graphics/SVG/1.1/DTD/svg11.dtd" >
<svg xmlns="http://www.w3.org/2000/svg" xmlns:xlink="http://www.w3.org/1999/xlink" version="1.1" viewBox="-10 0 1010 1000">
   <path fill="currentColor"
d="M250 200v600h500v-600h-500zM150 150c0 -28 22 -50 50 -50h600c28 0 50 22 50 50v700c0 28 -22 50 -50 50h-600c-28 0 -50 -22 -50 -50v-700zM500 215c25 0 45 20 45 45v55c0 25 -20 45 -45 45s-45 -20 -45 -45v-55c0 -25 20 -45 45 -45zM711 271c12 9 18 22 18 36
c0 9 -3 19 -9 27l-35 46c-9 12 -22 18 -36 18c-9 0 -19 -3 -27 -9c-12 -9 -18 -22 -18 -36c0 -9 3 -19 9 -27l35 -46c9 -12 22 -18 36 -18c9 0 19 3 27 9zM289 271c8 -6 18 -9 27 -9c14 0 27 6 36 18l35 46c6 8 9 18 9 27c0 14 -6 27 -18 36c-8 6 -18 9 -27 9
c-14 0 -27 -6 -36 -18l-35 -46c-6 -8 -9 -18 -9 -27c0 -14 6 -27 18 -36zM500 792c-117 0 -212 -95 -212 -212s95 -212 212 -212s212 95 212 212s-95 212 -212 212zM622 580c0 -67 -55 -122 -122 -122s-122 55 -122 122s55 122 122 122s122 -55 122 -122zM419 635
c-6 -8 -9 -17 -9 -25c0 -22 21 -40 42 -40c11 0 20 4 29 15c6 7 14 10 19 10s13 -3 19 -10c9 -11 18 -15 29 -15c21 0 42 18 42 40c0 8 -3 17 -9 25c-23 29 -54 40 -81 40s-58 -11 -81 -40z" />
</svg>
