<?xml version="1.0" standalone="no"?>
<!DOCTYPE svg PUBLIC "-//W3C//DTD SVG 1.1//EN" "http://www.w3.org/Graphics/SVG/1.1/DTD/svg11.dtd" >
<svg xmlns="http://www.w3.org/2000/svg" xmlns:xlink="http://www.w3.org/1999/xlink" version="1.1" viewBox="-10 0 1010 1000">
   <path fill="currentColor"
d="M758 850h-516c-147 0 -222 -121 -222 -227c0 -50 16 -96 49 -126c91 -83 216 -14 216 -83c0 -11 -4 -26 -11 -46s-18 -48 -18 -82c0 -12 1 -25 5 -39c24 -89 104 -147 239 -147c69 0 205 17 239 147c4 14 5 28 5 40c0 54 -29 92 -29 124c0 7 2 14 5 20
c20 37 132 -7 211 66c33 30 49 76 49 126c0 106 -75 227 -222 227zM879 608c-7 -54 -41 -55 -107 -59c-38 -2 -106 -6 -141 -71c-12 -23 -17 -45 -17 -65c0 -52 30 -94 30 -128c0 -4 -1 -9 -2 -13c-10 -38 -45 -72 -142 -72c-64 0 -127 15 -142 72c-1 4 -2 9 -2 13
c0 34 30 76 30 128c0 20 -5 42 -17 65c-56 105 -184 48 -232 92c-10 9 -17 30 -17 53c0 54 33 127 122 127h516c90 0 122 -74 122 -127c0 -5 0 -10 -1 -15z" />
</svg>
