<?xml version="1.0" standalone="no"?>
<!DOCTYPE svg PUBLIC "-//W3C//DTD SVG 1.1//EN" "http://www.w3.org/Graphics/SVG/1.1/DTD/svg11.dtd" >
<svg xmlns="http://www.w3.org/2000/svg" xmlns:xlink="http://www.w3.org/1999/xlink" version="1.1" viewBox="-10 0 1010 1000">
   <path fill="currentColor"
d="M90 100c0 -30 25 -50 51 -50c12 0 24 5 34 15l180 180c10 10 15 22 15 35s-5 25 -15 35s-22 15 -35 15s-25 -5 -35 -15l-95 -94v679c0 28 -22 50 -50 50s-50 -22 -50 -50v-800zM690 100c0 -30 25 -50 51 -50c12 0 24 5 34 15l180 180c10 10 15 22 15 35s-5 25 -15 35
s-22 15 -35 15s-25 -5 -35 -15l-95 -94v679c0 28 -22 50 -50 50s-50 -22 -50 -50v-800zM390 100c0 -30 25 -50 51 -50c12 0 24 5 34 15l180 180c10 10 15 22 15 35s-5 25 -15 35s-22 15 -35 15s-25 -5 -35 -15l-95 -94v679c0 28 -22 50 -50 50s-50 -22 -50 -50v-800z" />
</svg>
