<?xml version="1.0" standalone="no"?>
<!DOCTYPE svg PUBLIC "-//W3C//DTD SVG 1.1//EN" "http://www.w3.org/Graphics/SVG/1.1/DTD/svg11.dtd" >
<svg xmlns="http://www.w3.org/2000/svg" xmlns:xlink="http://www.w3.org/1999/xlink" version="1.1" viewBox="-10 0 1010 1000">
   <path fill="currentColor"
d="M789 148l-35 94c-8 23 -26 33 -44 33c-26 0 -53 -19 -53 -48c0 -6 2 -13 4 -19l34 -94c8 -23 27 -32 45 -32c26 0 52 19 52 48c0 6 -1 12 -3 18zM211 148c-2 -6 -4 -12 -4 -18c0 -29 27 -48 53 -48c18 0 36 9 44 32l35 94c2 6 3 13 3 19c0 29 -26 48 -52 48
c-18 0 -37 -10 -45 -33zM500 600c-51 0 -160 -9 -250 -74v324h500v-324c-64 46 -153 74 -250 74zM265 400c34 55 124 100 235 100c10 0 174 -2 235 -100h-470zM150 350c0 -28 22 -50 50 -50h600c28 0 50 22 50 50v550c0 28 -22 50 -50 50h-600c-28 0 -50 -22 -50 -50v-550z
M626 800c-41 0 -76 -34 -76 -75s35 -75 76 -75s74 34 74 75s-33 75 -74 75zM450 725c0 41 -34 75 -75 75s-75 -34 -75 -75s34 -75 75 -75s75 34 75 75zM550 100v100c0 28 -22 50 -50 50s-50 -22 -50 -50v-100c0 -28 22 -50 50 -50s50 22 50 50z" />
</svg>
