<?xml version="1.0" standalone="no"?>
<!DOCTYPE svg PUBLIC "-//W3C//DTD SVG 1.1//EN" "http://www.w3.org/Graphics/SVG/1.1/DTD/svg11.dtd" >
<svg xmlns="http://www.w3.org/2000/svg" xmlns:xlink="http://www.w3.org/1999/xlink" version="1.1" viewBox="-10 0 1010 1000">
   <path fill="currentColor"
d="M550 940c0 28 -22 50 -50 50s-50 -22 -50 -50s22 -50 50 -50s50 22 50 50zM310 711c-36 0 -60 -39 -60 -74c0 -56 44 -87 85 -103c42 -16 99 -24 165 -24s122 8 165 24c41 16 85 47 85 103c0 45 -34 71 -55 84c-38 23 -101 41 -132 66c-12 9 -13 15 -13 19v24
c0 28 -22 50 -50 50s-50 -22 -50 -50v-24c0 -88 85 -122 145 -148c21 -9 37 -15 50 -23c-3 -2 -9 -5 -16 -8c-26 -10 -69 -17 -129 -17s-103 7 -129 17c-9 4 -15 7 -18 9c5 8 7 16 7 25c0 26 -23 50 -50 50zM349 640l1 -1c0 1 -1 1 -1 1z" />
</svg>
