<?xml version="1.0" standalone="no"?>
<!DOCTYPE svg PUBLIC "-//W3C//DTD SVG 1.1//EN" "http://www.w3.org/Graphics/SVG/1.1/DTD/svg11.dtd" >
<svg xmlns="http://www.w3.org/2000/svg" xmlns:xlink="http://www.w3.org/1999/xlink" version="1.1" viewBox="-10 0 1010 1000">
   <path fill="currentColor"
d="M500 650c-57 0 -100 47 -100 100c0 55 45 100 100 100s100 -45 100 -100s-45 -100 -100 -100zM500 140c-47 0 -256 6 -256 110c0 9 2 16 7 23c6 8 8 18 8 27c0 16 -8 32 -23 42c-8 6 -18 8 -27 8c-16 0 -32 -8 -42 -23c-16 -24 -23 -48 -23 -77c0 -110 100 -210 356 -210
c100 0 185 15 248 48c64 34 108 89 108 162c0 107 -97 174 -209 251c-28 19 -56 38 -84 59c80 26 137 101 137 190c0 110 -90 200 -200 200s-200 -90 -200 -200c0 -55 21 -104 57 -140c72 -82 162 -143 236 -193c92 -63 163 -113 163 -167c0 -76 -118 -110 -256 -110z" />
</svg>
