<?xml version="1.0" standalone="no"?>
<!DOCTYPE svg PUBLIC "-//W3C//DTD SVG 1.1//EN" "http://www.w3.org/Graphics/SVG/1.1/DTD/svg11.dtd" >
<svg xmlns="http://www.w3.org/2000/svg" xmlns:xlink="http://www.w3.org/1999/xlink" version="1.1" viewBox="-10 0 1010 1000">
   <path fill="currentColor"
d="M425 875c0 -41 34 -75 75 -75s75 34 75 75s-34 75 -75 75s-75 -34 -75 -75zM259 300c0 28 -22 50 -50 50c-46 0 -65 -59 -65 -100c0 -93 65 -146 134 -174c59 -24 134 -36 222 -36s162 12 221 36c69 28 135 81 135 174c0 44 -21 81 -47 107c-32 33 -72 55 -110 77
c-87 50 -149 90 -149 166v50c0 28 -22 50 -50 50s-50 -22 -50 -50v-50c0 -142 120 -208 198 -253c31 -18 59 -34 78 -49c24 -20 30 -33 30 -48c0 -14 -3 -25 -9 -35c-10 -16 -30 -33 -64 -47c-42 -17 -104 -28 -183 -28s-142 11 -184 28c-34 14 -53 31 -63 47
c-6 10 -9 21 -9 35c0 19 15 31 15 50z" />
</svg>
