<?xml version="1.0" standalone="no"?>
<!DOCTYPE svg PUBLIC "-//W3C//DTD SVG 1.1//EN" "http://www.w3.org/Graphics/SVG/1.1/DTD/svg11.dtd" >
<svg xmlns="http://www.w3.org/2000/svg" xmlns:xlink="http://www.w3.org/1999/xlink" version="1.1" viewBox="-10 0 1010 1000">
   <path fill="currentColor"
d="M381 854c92 -37 169 -179 169 -354c0 -89 -19 -169 -51 -232s-75 -105 -118 -122c-22 -9 -31 -26 -31 -44c0 -26 20 -52 49 -52c6 0 13 1 20 4c137 55 231 235 231 446c0 103 -22 200 -62 278c-39 77 -97 139 -169 168c-7 3 -14 4 -20 4c-29 0 -49 -26 -49 -52
c0 -18 9 -35 31 -44z" />
</svg>
