<?xml version="1.0" standalone="no"?>
<!DOCTYPE svg PUBLIC "-//W3C//DTD SVG 1.1//EN" "http://www.w3.org/Graphics/SVG/1.1/DTD/svg11.dtd" >
<svg xmlns="http://www.w3.org/2000/svg" xmlns:xlink="http://www.w3.org/1999/xlink" version="1.1" viewBox="-10 0 1010 1000">
   <path fill="currentColor"
d="M220 838c-21 42 -56 92 -120 92c-28 0 -50 -22 -50 -50s22 -50 50 -50c2 0 11 0 25 -26c13 -25 24 -61 31 -101c7 -39 10 -79 12 -109c1 -15 2 -28 2 -37v-13c0 -28 22 -50 50 -50s50 22 50 50v13c0 9 1 22 2 37c2 30 5 70 12 109c7 40 18 76 31 101c14 26 23 26 25 26h1
c9 -7 15 -15 23 -34c33 -76 44 -267 46 -361v-39c0 -27 23 -49 50 -49s50 23 50 50v38c0 55 3 145 14 228c7 54 18 101 32 133c8 19 14 27 23 34h1c9 -7 15 -16 23 -37c46 -119 47 -370 47 -524v-19c0 -28 22 -50 50 -50s50 22 50 50v1c0 163 -1 442 -54 578
c-17 44 -52 101 -116 101c-63 0 -97 -53 -115 -94c-2 -4 -3 -7 -5 -11c-2 4 -3 7 -5 11c-18 41 -52 94 -115 94c-64 0 -99 -50 -120 -92zM900 940c-28 0 -50 -22 -50 -50v-760c0 -28 22 -50 50 -50s50 22 50 50v760c0 28 -22 50 -50 50z" />
</svg>
