<?xml version="1.0" standalone="no"?>
<!DOCTYPE svg PUBLIC "-//W3C//DTD SVG 1.1//EN" "http://www.w3.org/Graphics/SVG/1.1/DTD/svg11.dtd" >
<svg xmlns="http://www.w3.org/2000/svg" xmlns:xlink="http://www.w3.org/1999/xlink" version="1.1" viewBox="-10 0 1010 1000">
   <path fill="currentColor"
d="M500 850c-193 0 -350 -157 -350 -350s157 -350 350 -350s350 157 350 350s-157 350 -350 350zM750 500c0 -138 -112 -250 -250 -250s-250 112 -250 250s112 250 250 250s250 -112 250 -250zM500 990c-271 0 -490 -219 -490 -490s219 -490 490 -490s490 219 490 490
s-219 490 -490 490zM500 890c215 0 390 -175 390 -390s-175 -390 -390 -390s-390 175 -390 390s175 390 390 390z" />
</svg>
