<?xml version="1.0" standalone="no"?>
<!DOCTYPE svg PUBLIC "-//W3C//DTD SVG 1.1//EN" "http://www.w3.org/Graphics/SVG/1.1/DTD/svg11.dtd" >
<svg xmlns="http://www.w3.org/2000/svg" xmlns:xlink="http://www.w3.org/1999/xlink" version="1.1" viewBox="-10 0 1010 1000">
   <path fill="currentColor"
d="M471 510c32 0 49 26 49 50c0 8 -1 15 -4 23c-12 35 -26 83 -36 128c7 -1 13 -1 20 -1c77 0 140 63 140 140s-63 140 -140 140s-140 -63 -140 -140c0 -104 36 -225 64 -306c7 -21 26 -34 47 -34zM460 850c0 22 18 40 40 40s40 -18 40 -40s-18 -40 -40 -40s-40 18 -40 40z
" />
</svg>
