<?xml version="1.0" standalone="no"?>
<!DOCTYPE svg PUBLIC "-//W3C//DTD SVG 1.1//EN" "http://www.w3.org/Graphics/SVG/1.1/DTD/svg11.dtd" >
<svg xmlns="http://www.w3.org/2000/svg" xmlns:xlink="http://www.w3.org/1999/xlink" version="1.1" viewBox="-10 0 1010 1000">
   <path fill="currentColor"
d="M592 940c0 -28 22 -50 50 -50h238c28 0 50 22 50 50s-22 50 -50 50h-238c-28 0 -50 -22 -50 -50zM500 510c28 0 50 22 50 50v238c0 28 -22 50 -50 50s-50 -22 -50 -50v-238c0 -28 22 -50 50 -50zM70 940c0 -28 22 -50 50 -50h237c28 0 50 22 50 50s-22 50 -50 50h-237
c-28 0 -50 -22 -50 -50z" />
</svg>
