<?xml version="1.0" standalone="no"?>
<!DOCTYPE svg PUBLIC "-//W3C//DTD SVG 1.1//EN" "http://www.w3.org/Graphics/SVG/1.1/DTD/svg11.dtd" >
<svg xmlns="http://www.w3.org/2000/svg" xmlns:xlink="http://www.w3.org/1999/xlink" version="1.1" viewBox="-10 0 1010 1000">
   <path fill="currentColor"
d="M720 497c0 33 -27 60 -60 60s-60 -27 -60 -60s27 -60 60 -60s60 27 60 60zM560 497c0 33 -27 60 -60 60s-60 -27 -60 -60s27 -60 60 -60s60 27 60 60zM400 500c0 33 -27 60 -60 60s-60 -27 -60 -60s27 -60 60 -60s60 27 60 60zM250 200v600h500v-600h-500zM150 150
c0 -28 22 -50 50 -50h600c28 0 50 22 50 50v700c0 28 -22 50 -50 50h-600c-28 0 -50 -22 -50 -50v-700z" />
</svg>
