<?xml version="1.0" standalone="no"?>
<!DOCTYPE svg PUBLIC "-//W3C//DTD SVG 1.1//EN" "http://www.w3.org/Graphics/SVG/1.1/DTD/svg11.dtd" >
<svg xmlns="http://www.w3.org/2000/svg" xmlns:xlink="http://www.w3.org/1999/xlink" version="1.1" viewBox="-10 0 1010 1000">
   <path fill="currentColor"
d="M500 575c148 0 268 -93 302 -213c6 -22 26 -37 48 -37c4 0 9 1 13 2c22 6 37 26 37 48c0 4 -1 9 -2 13c-47 167 -209 287 -398 287s-351 -120 -398 -287c-1 -5 -2 -9 -2 -14c0 -29 26 -48 52 -48c20 0 39 11 46 36c34 120 154 213 302 213z" />
</svg>
