<?xml version="1.0" standalone="no"?>
<!DOCTYPE svg PUBLIC "-//W3C//DTD SVG 1.1//EN" "http://www.w3.org/Graphics/SVG/1.1/DTD/svg11.dtd" >
<svg xmlns="http://www.w3.org/2000/svg" xmlns:xlink="http://www.w3.org/1999/xlink" version="1.1" viewBox="-10 0 1010 1000">
   <path fill="currentColor"
d="M823 430c-29 -86 -104 -230 -323 -230c-87 0 -252 22 -322 230h645zM600 530h-200v220c0 55 45 100 100 100s100 -45 100 -100v-220zM888 530h-188v220c0 110 -90 200 -200 200s-200 -90 -200 -200v-220h-187c-28 0 -50 -23 -50 -50c0 -3 0 -7 1 -10
c26 -124 117 -370 436 -370c120 0 368 41 437 370c1 3 1 7 1 10c0 27 -22 50 -50 50z" />
</svg>
