<?xml version="1.0" standalone="no"?>
<!DOCTYPE svg PUBLIC "-//W3C//DTD SVG 1.1//EN" "http://www.w3.org/Graphics/SVG/1.1/DTD/svg11.dtd" >
<svg xmlns="http://www.w3.org/2000/svg" xmlns:xlink="http://www.w3.org/1999/xlink" version="1.1" viewBox="-10 0 1010 1000">
   <path fill="currentColor"
d="M823 430c-47 -139 -146 -230 -323 -230s-275 91 -322 230h645zM938 480c0 29 -23 50 -50 50h-339v320c0 28 -22 50 -50 50s-50 -22 -50 -50v-320h-336c-27 0 -50 -21 -50 -50c0 -3 0 -7 1 -10c24 -114 73 -208 149 -273s174 -97 287 -97s211 32 287 97s126 159 150 273
c1 3 1 7 1 10z" />
</svg>
