<?xml version="1.0" standalone="no"?>
<!DOCTYPE svg PUBLIC "-//W3C//DTD SVG 1.1//EN" "http://www.w3.org/Graphics/SVG/1.1/DTD/svg11.dtd" >
<svg xmlns="http://www.w3.org/2000/svg" xmlns:xlink="http://www.w3.org/1999/xlink" version="1.1" viewBox="-10 0 1010 1000">
   <path fill="currentColor"
d="M190 50h450c193 0 350 157 350 350c0 176 -130 322 -300 346v154c0 28 -22 50 -50 50s-50 -22 -50 -50v-200c0 -28 22 -50 50 -50c138 0 250 -112 250 -250s-112 -250 -250 -250h-450c-28 0 -50 -22 -50 -50s22 -50 50 -50zM320 650c28 0 50 22 50 50v200
c0 28 -22 50 -50 50s-50 -22 -50 -50v-200c0 -28 22 -50 50 -50zM160 650c28 0 50 22 50 50v200c0 28 -22 50 -50 50s-50 -22 -50 -50v-200c0 -28 22 -50 50 -50zM480 650c28 0 50 22 50 50v200c0 28 -22 50 -50 50s-50 -22 -50 -50v-200c0 -28 22 -50 50 -50z" />
</svg>
