<?xml version="1.0" standalone="no"?>
<!DOCTYPE svg PUBLIC "-//W3C//DTD SVG 1.1//EN" "http://www.w3.org/Graphics/SVG/1.1/DTD/svg11.dtd" >
<svg xmlns="http://www.w3.org/2000/svg" xmlns:xlink="http://www.w3.org/1999/xlink" version="1.1" viewBox="-10 0 1010 1000">
   <path fill="currentColor"
d="M489 795c28 0 50 22 50 50v95c0 28 -22 50 -50 50s-50 -22 -50 -50v-95c0 -28 22 -50 50 -50zM249 795c28 0 50 22 50 50v95c0 28 -22 50 -50 50s-50 -22 -50 -50v-95c0 -28 22 -50 50 -50zM369 795c28 0 50 22 50 50v95c0 28 -22 50 -50 50s-50 -22 -50 -50v-95
c0 -28 22 -50 50 -50zM678 703c0 28 -22 50 -50 50s-50 -22 -50 -50s22 -50 50 -50s50 22 50 50zM559 703c0 28 -22 50 -50 50s-50 -22 -50 -50s22 -50 50 -50s50 22 50 50zM279 510h330c106 0 192 86 192 192c0 89 -60 164 -142 186v52c0 28 -22 50 -50 50s-50 -22 -50 -50
v-95c0 -28 22 -50 50 -50c51 0 92 -42 92 -93s-41 -92 -92 -92h-330c-28 0 -50 -22 -50 -50s22 -50 50 -50z" />
</svg>
