<?xml version="1.0" standalone="no"?>
<!DOCTYPE svg PUBLIC "-//W3C//DTD SVG 1.1//EN" "http://www.w3.org/Graphics/SVG/1.1/DTD/svg11.dtd" >
<svg xmlns="http://www.w3.org/2000/svg" xmlns:xlink="http://www.w3.org/1999/xlink" version="1.1" viewBox="-10 0 1010 1000">
   <path fill="currentColor"
d="M140 50h450c193 0 350 157 350 350c0 176 -130 322 -300 346v154c0 28 -22 50 -50 50s-50 -22 -50 -50v-200c0 -28 22 -50 50 -50c138 0 250 -112 250 -250s-112 -250 -250 -250h-450c-28 0 -50 -22 -50 -50s22 -50 50 -50zM490 400c0 41 -34 75 -75 75s-75 -34 -75 -75
s34 -75 75 -75s75 34 75 75zM720 400c0 41 -34 75 -75 75s-75 -34 -75 -75s34 -75 75 -75s75 34 75 75zM270 650c28 0 50 22 50 50v200c0 28 -22 50 -50 50s-50 -22 -50 -50v-200c0 -28 22 -50 50 -50zM110 650c28 0 50 22 50 50v200c0 28 -22 50 -50 50s-50 -22 -50 -50
v-200c0 -28 22 -50 50 -50zM430 650c28 0 50 22 50 50v200c0 28 -22 50 -50 50s-50 -22 -50 -50v-200c0 -28 22 -50 50 -50z" />
</svg>
