<?xml version="1.0" standalone="no"?>
<!DOCTYPE svg PUBLIC "-//W3C//DTD SVG 1.1//EN" "http://www.w3.org/Graphics/SVG/1.1/DTD/svg11.dtd" >
<svg xmlns="http://www.w3.org/2000/svg" xmlns:xlink="http://www.w3.org/1999/xlink" version="1.1" viewBox="-560 0 620 1000">
   <path fill="currentColor"
d="M-550 1010c0 -28 22 -50 50 -50c40 0 43 40 75 40h425c28 0 50 22 50 50s-22 50 -50 50h-425c-66 0 -125 -53 -125 -90zM-550 -10c0 -37 59 -90 125 -90h425c28 0 50 22 50 50s-22 50 -50 50h-425c-32 0 -35 40 -75 40c-28 0 -50 -22 -50 -50z" />
</svg>
