<?xml version="1.0" standalone="no"?>
<!DOCTYPE svg PUBLIC "-//W3C//DTD SVG 1.1//EN" "http://www.w3.org/Graphics/SVG/1.1/DTD/svg11.dtd" >
<svg xmlns="http://www.w3.org/2000/svg" xmlns:xlink="http://www.w3.org/1999/xlink" version="1.1" viewBox="-10 0 1010 1000">
   <path fill="currentColor"
d="M940 10c30 0 50 25 50 50c0 8 -2 16 -6 24c-120 220 -217 398 -290 542c-74 144 -122 251 -146 329c-6 21 -26 35 -48 35s-42 -14 -48 -35c-24 -78 -72 -185 -146 -329c-73 -144 -170 -322 -290 -542c-4 -8 -6 -16 -6 -24c0 -25 20 -50 50 -50c18 0 35 9 44 26
c120 220 217 399 291 544c42 83 78 156 105 219c27 -63 63 -136 105 -219c74 -145 171 -324 291 -544c9 -17 26 -26 44 -26z" />
</svg>
