<?xml version="1.0" standalone="no"?>
<!DOCTYPE svg PUBLIC "-//W3C//DTD SVG 1.1//EN" "http://www.w3.org/Graphics/SVG/1.1/DTD/svg11.dtd" >
<svg xmlns="http://www.w3.org/2000/svg" xmlns:xlink="http://www.w3.org/1999/xlink" version="1.1" viewBox="-10 0 1010 1000">
   <path fill="currentColor"
d="M666 510c28 0 50 24 50 50c0 11 -4 22 -11 31c-51 65 -89 149 -115 221s-39 129 -41 138c-5 23 -25 40 -49 40s-44 -17 -49 -40c-2 -9 -15 -66 -41 -138s-64 -156 -115 -221c-7 -9 -11 -20 -11 -31c0 -26 22 -50 50 -50c15 0 29 6 39 19c57 74 99 163 127 238
c28 -75 70 -164 127 -238c10 -13 24 -19 39 -19z" />
</svg>
