<?xml version="1.0" standalone="no"?>
<!DOCTYPE svg PUBLIC "-//W3C//DTD SVG 1.1//EN" "http://www.w3.org/Graphics/SVG/1.1/DTD/svg11.dtd" >
<svg xmlns="http://www.w3.org/2000/svg" xmlns:xlink="http://www.w3.org/1999/xlink" version="1.1" viewBox="-10 0 1010 1000">
   <path fill="currentColor"
d="M500 300c-110 0 -200 90 -200 200s90 200 200 200s200 -90 200 -200s-90 -200 -200 -200zM450 100c0 -28 22 -50 50 -50s50 22 50 50v104c126 21 225 120 246 246h104c28 0 50 22 50 50s-22 50 -50 50h-104c-21 126 -120 225 -246 246v104c0 28 -22 50 -50 50
s-50 -22 -50 -50v-104c-126 -21 -225 -120 -246 -246h-104c-28 0 -50 -22 -50 -50s22 -50 50 -50h104c21 -126 120 -225 246 -246v-104z" />
</svg>
