<?xml version="1.0" standalone="no"?>
<!DOCTYPE svg PUBLIC "-//W3C//DTD SVG 1.1//EN" "http://www.w3.org/Graphics/SVG/1.1/DTD/svg11.dtd" >
<svg xmlns="http://www.w3.org/2000/svg" xmlns:xlink="http://www.w3.org/1999/xlink" version="1.1" viewBox="-10 0 1010 1000">
   <path fill="currentColor"
d="M500 250c-138 0 -250 112 -250 250s112 250 250 250s250 -112 250 -250s-112 -250 -250 -250zM450 60c0 -28 22 -50 50 -50s50 22 50 50v94c153 22 274 143 296 296h94c28 0 50 22 50 50s-22 50 -50 50h-94c-22 153 -143 274 -296 296v94c0 28 -22 50 -50 50
s-50 -22 -50 -50v-94c-153 -22 -274 -143 -296 -296h-94c-28 0 -50 -22 -50 -50s22 -50 50 -50h94c22 -153 143 -274 296 -296v-94z" />
</svg>
