<?xml version="1.0" standalone="no"?>
<!DOCTYPE svg PUBLIC "-//W3C//DTD SVG 1.1//EN" "http://www.w3.org/Graphics/SVG/1.1/DTD/svg11.dtd" >
<svg xmlns="http://www.w3.org/2000/svg" xmlns:xlink="http://www.w3.org/1999/xlink" version="1.1" viewBox="-10 0 1010 1000">
   <path fill="currentColor"
d="M550 272v50c0 28 -22 50 -50 50s-50 -22 -50 -50v-50c0 -28 22 -50 50 -50s50 22 50 50zM345 272c8 -5 17 -7 25 -7c17 0 33 9 42 25l24 44c4 8 7 16 7 24c0 18 -9 35 -25 45c-8 5 -17 7 -25 7c-17 0 -34 -9 -43 -25l-24 -44c-4 -8 -6 -17 -6 -25c0 -18 9 -34 25 -44z
M673 341l-24 44c-9 16 -25 25 -42 25c-8 0 -17 -2 -25 -7c-16 -10 -25 -27 -25 -45c0 -8 2 -16 6 -24l25 -44c9 -16 25 -25 42 -25c8 0 17 2 25 7c16 10 25 26 25 44c0 8 -3 17 -7 25zM150 150c0 -28 22 -50 50 -50h600c28 0 50 22 50 50v700c0 28 -22 50 -50 50h-154h-2
h-444c-28 0 -50 -22 -50 -50v-700zM250 392c269 60 382 173 436 408h64v-600h-500v192zM250 800h333c-44 -171 -122 -255 -333 -306v306z" />
</svg>
