<?xml version="1.0" standalone="no"?>
<!DOCTYPE svg PUBLIC "-//W3C//DTD SVG 1.1//EN" "http://www.w3.org/Graphics/SVG/1.1/DTD/svg11.dtd" >
<svg xmlns="http://www.w3.org/2000/svg" xmlns:xlink="http://www.w3.org/1999/xlink" version="1.1" viewBox="-10 0 1010 1000">
   <path fill="currentColor"
d="M250 494v306h333c-23 -88 -54 -149 -100 -194c-49 -49 -121 -85 -233 -112zM250 331c78 -53 162 -71 263 -71c81 0 162 14 237 31v-91h-500v131zM686 800h64v-407c-79 -19 -161 -33 -239 -33c-10 0 -19 1 -28 1c-62 3 -119 17 -168 47c101 29 179 69 238 127
c69 68 108 155 133 265zM200 100h600c28 0 50 22 50 50v700c0 28 -22 50 -50 50h-600c-28 0 -50 -22 -50 -50v-700c0 -28 22 -50 50 -50z" />
</svg>
