<?xml version="1.0" standalone="no"?>
<!DOCTYPE svg PUBLIC "-//W3C//DTD SVG 1.1//EN" "http://www.w3.org/Graphics/SVG/1.1/DTD/svg11.dtd" >
<svg xmlns="http://www.w3.org/2000/svg" xmlns:xlink="http://www.w3.org/1999/xlink" version="1.1" viewBox="-10 0 1010 1000">
   <path fill="currentColor"
d="M250 390v410h60v-160c0 -28 22 -50 50 -50s50 22 50 50v160h60v-160c0 -28 22 -50 50 -50c55 0 100 -45 100 -100s-45 -100 -100 -100h-270zM667 354c33 36 53 83 53 136c0 93 -64 172 -150 194v116h180v-529zM679 200h-429v90h270c21 0 41 3 60 9zM800 100
c27 0 50 22 50 50v700c0 28 -22 50 -50 50h-600c-28 0 -50 -22 -50 -50v-700c0 -28 22 -50 50 -50h600zM450 488c0 28 -22 50 -50 50s-50 -22 -50 -50s22 -50 50 -50s50 22 50 50zM520 538c-28 0 -50 -22 -50 -50s22 -50 50 -50s50 22 50 50s-22 50 -50 50z" />
</svg>
