<?xml version="1.0" standalone="no"?>
<!DOCTYPE svg PUBLIC "-//W3C//DTD SVG 1.1//EN" "http://www.w3.org/Graphics/SVG/1.1/DTD/svg11.dtd" >
<svg xmlns="http://www.w3.org/2000/svg" xmlns:xlink="http://www.w3.org/1999/xlink" version="1.1" viewBox="-10 0 1010 1000">
   <path fill="currentColor"
d="M580 725c0 41 -34 75 -75 75s-75 -34 -75 -75s34 -75 75 -75s75 34 75 75zM600 450c-26 0 -50 -24 -50 -50c0 -12 5 -25 15 -35l150 -150c10 -10 23 -15 35 -15s25 5 35 15l150 150c10 10 15 23 15 35c0 26 -24 50 -50 50c-12 0 -25 -5 -35 -15l-115 -114l-115 114
c-10 10 -23 15 -35 15zM100 450c-26 0 -50 -24 -50 -50c0 -12 5 -25 15 -35l150 -150c10 -10 23 -15 35 -15s25 5 35 15l150 150c10 10 15 23 15 35c0 26 -24 50 -50 50c-12 0 -25 -5 -35 -15l-115 -114l-115 114c-10 10 -23 15 -35 15z" />
</svg>
