<?xml version="1.0" standalone="no"?>
<!DOCTYPE svg PUBLIC "-//W3C//DTD SVG 1.1//EN" "http://www.w3.org/Graphics/SVG/1.1/DTD/svg11.dtd" >
<svg xmlns="http://www.w3.org/2000/svg" xmlns:xlink="http://www.w3.org/1999/xlink" version="1.1" viewBox="-10 0 1010 1000">
   <path fill="currentColor"
d="M500 150c-193 0 -350 157 -350 350v47c0 41 34 75 75 75s75 -34 75 -75v-47c0 -110 90 -200 200 -200s200 90 200 200v47c0 41 34 75 75 75s75 -34 75 -75v-47c0 -193 -157 -350 -350 -350zM50 500c0 -249 201 -450 450 -450s450 201 450 450v47c0 97 -78 175 -175 175
s-175 -78 -175 -175v-47c0 -55 -45 -100 -100 -100s-100 45 -100 100v47c0 97 -78 175 -175 175s-175 -78 -175 -175v-47zM870 840c0 55 -45 100 -100 100s-100 -45 -100 -100s45 -100 100 -100s100 45 100 100zM330 840c0 55 -45 100 -100 100s-100 -45 -100 -100
s45 -100 100 -100s100 45 100 100z" />
</svg>
