<?xml version="1.0" standalone="no"?>
<!DOCTYPE svg PUBLIC "-//W3C//DTD SVG 1.1//EN" "http://www.w3.org/Graphics/SVG/1.1/DTD/svg11.dtd" >
<svg xmlns="http://www.w3.org/2000/svg" xmlns:xlink="http://www.w3.org/1999/xlink" version="1.1" viewBox="-10 0 1010 1000">
   <path fill="currentColor"
d="M872 991c-30 0 -50 -25 -50 -50c0 -4 1 -8 2 -12c5 -19 6 -39 6 -60c0 -143 -116 -259 -259 -259c-128 0 -234 93 -255 215l62 -53c9 -8 21 -11 32 -11c26 0 50 22 50 50c0 14 -5 28 -17 38l-155 130c-9 8 -21 11 -32 11c-14 0 -29 -6 -39 -18l-129 -154
c-8 -9 -12 -21 -12 -32c0 -26 22 -50 50 -50c14 0 28 6 38 18l52 61c26 -173 175 -305 355 -305c198 0 359 161 359 359c0 28 -3 56 -9 83c-5 23 -26 39 -49 39z" />
</svg>
