<?xml version="1.0" standalone="no"?>
<!DOCTYPE svg PUBLIC "-//W3C//DTD SVG 1.1//EN" "http://www.w3.org/Graphics/SVG/1.1/DTD/svg11.dtd" >
<svg xmlns="http://www.w3.org/2000/svg" xmlns:xlink="http://www.w3.org/1999/xlink" version="1.1" viewBox="-10 0 1010 1000">
   <path fill="currentColor"
d="M891 750c-30 0 -49 -24 -49 -50c0 -4 0 -7 1 -11c5 -20 7 -42 7 -64c0 -152 -123 -275 -275 -275c-138 0 -252 102 -272 235l71 -60c9 -8 21 -12 32 -12c26 0 50 23 50 50c0 14 -6 29 -18 39l-162 136c-9 8 -21 12 -32 12c-14 0 -29 -6 -39 -18l-136 -163
c-8 -9 -12 -21 -12 -32c0 -26 23 -50 50 -50c14 0 28 6 38 18l58 69c25 -183 182 -324 372 -324c207 0 375 168 375 375c0 30 -3 58 -10 86c-5 23 -26 39 -49 39z" />
</svg>
