<?xml version="1.0" standalone="no"?>
<!DOCTYPE svg PUBLIC "-//W3C//DTD SVG 1.1//EN" "http://www.w3.org/Graphics/SVG/1.1/DTD/svg11.dtd" >
<svg xmlns="http://www.w3.org/2000/svg" xmlns:xlink="http://www.w3.org/1999/xlink" version="1.1" viewBox="-10 0 1070 1000">
   <path fill="currentColor"
d="M400 100c22 0 40 13 47 33l309 867h244c28 0 50 22 50 50s-22 50 -50 50h-279c-21 0 -40 -13 -47 -33l-277 -777l-187 459c6 4 12 8 21 13c33 18 87 38 169 38c28 0 50 22 50 50s-22 50 -50 50c-99 0 -170 -24 -217 -50c-34 -19 -53 -33 -72 -57c-7 -9 -11 -20 -11 -31
c0 -6 2 -12 4 -18l250 -613c8 -19 26 -31 46 -31z" />
</svg>
