<?xml version="1.0" standalone="no"?>
<!DOCTYPE svg PUBLIC "-//W3C//DTD SVG 1.1//EN" "http://www.w3.org/Graphics/SVG/1.1/DTD/svg11.dtd" >
<svg xmlns="http://www.w3.org/2000/svg" xmlns:xlink="http://www.w3.org/1999/xlink" version="1.1" viewBox="-10 0 1010 1000">
   <path fill="currentColor"
d="M920 34c30 0 50 25 50 50c0 6 -1 13 -3 18c-10 36 -23 77 -48 113c-35 50 -106 95 -197 95c-97 0 -170 -60 -234 -111c-70 -55 -114 -89 -169 -89c-13 0 -26 2 -41 6c-43 11 -64 29 -77 47c-15 21 -22 47 -32 85c-6 23 -27 38 -49 38c-30 0 -50 -25 -50 -50
c0 -4 0 -8 1 -12c9 -38 22 -81 49 -119c36 -50 108 -95 199 -95c96 0 168 59 233 111c69 54 115 89 170 89c13 0 26 -2 40 -6c42 -11 62 -28 75 -46c15 -21 24 -48 35 -88c6 -22 26 -36 48 -36zM880 714c30 0 50 25 50 50c0 6 -1 13 -3 18c-10 36 -23 77 -48 113
c-35 50 -106 95 -197 95c-97 0 -170 -60 -234 -111c-70 -55 -114 -89 -169 -89c-13 0 -26 2 -41 6c-43 11 -64 29 -77 47c-15 21 -22 47 -32 85c-6 23 -27 38 -49 38c-30 0 -50 -25 -50 -50c0 -4 0 -8 1 -12c9 -38 22 -81 49 -119c36 -50 108 -95 199 -95
c96 0 168 59 233 111c69 54 115 89 170 89c13 0 26 -2 40 -6c42 -11 62 -28 75 -46c15 -21 24 -48 35 -88c6 -22 26 -36 48 -36z" />
</svg>
