<?xml version="1.0" standalone="no"?>
<!DOCTYPE svg PUBLIC "-//W3C//DTD SVG 1.1//EN" "http://www.w3.org/Graphics/SVG/1.1/DTD/svg11.dtd" >
<svg xmlns="http://www.w3.org/2000/svg" xmlns:xlink="http://www.w3.org/1999/xlink" version="1.1" viewBox="-10 0 1010 1000">
   <path fill="currentColor"
d="M899 174c31 0 51 24 51 49c0 5 -1 10 -2 15c0 1 -1 3 -1 4c-10 36 -23 77 -48 113c-35 50 -106 95 -198 95c-93 0 -163 -56 -226 -106c-3 -3 -4 -3 -7 -5c-69 -55 -114 -89 -169 -89c-13 0 -26 2 -41 6c-43 11 -64 29 -77 47c-15 21 -22 47 -32 85c-6 23 -27 39 -49 39
c-30 0 -51 -27 -51 -51c0 -4 1 -8 2 -12c9 -38 22 -81 49 -119c35 -50 108 -95 199 -95c93 0 162 55 226 106c3 3 4 3 7 5c68 55 114 89 170 89c13 0 26 -2 40 -6c42 -11 62 -28 75 -46c15 -21 24 -48 35 -88c7 -22 25 -36 47 -36zM899 574c31 0 51 24 51 49
c0 5 -1 10 -2 15c0 1 -1 3 -1 4c-10 36 -23 77 -48 113c-35 50 -106 95 -198 95c-93 0 -163 -56 -226 -106c-3 -3 -4 -3 -7 -5c-69 -55 -114 -89 -169 -89c-13 0 -26 2 -41 6c-43 11 -64 29 -77 47c-15 21 -22 47 -32 85c-6 23 -27 39 -49 39c-30 0 -51 -27 -51 -51
c0 -4 1 -8 2 -12c9 -38 22 -81 49 -119c35 -50 108 -95 199 -95c93 0 162 55 226 106c3 3 4 3 7 5c68 55 114 89 170 89c13 0 26 -2 40 -6c42 -11 62 -28 75 -46c15 -21 24 -48 35 -88c7 -22 25 -36 47 -36z" />
</svg>
