<?xml version="1.0" standalone="no"?>
<!DOCTYPE svg PUBLIC "-//W3C//DTD SVG 1.1//EN" "http://www.w3.org/Graphics/SVG/1.1/DTD/svg11.dtd" >
<svg xmlns="http://www.w3.org/2000/svg" xmlns:xlink="http://www.w3.org/1999/xlink" version="1.1" viewBox="-10 0 1010 1000">
   <path fill="currentColor"
d="M753 779c31 0 50 25 50 50c0 5 0 10 -2 16c-6 22 -15 52 -33 77c-26 37 -76 68 -141 68c-69 0 -118 -43 -159 -75c-45 -35 -68 -52 -95 -52c-7 0 -14 1 -22 3c-24 6 -33 15 -38 23c-7 10 -12 24 -18 48c-6 23 -26 38 -48 38c-30 0 -50 -25 -50 -50c0 -4 0 -8 1 -12
c6 -24 15 -55 34 -82c26 -37 77 -68 141 -68c68 0 118 42 159 75c44 35 68 52 96 52c7 0 14 -1 21 -3c23 -6 32 -14 37 -22c7 -10 11 -24 19 -50c6 -22 26 -36 48 -36zM753 525c31 0 50 26 50 51c0 5 0 10 -2 16c-6 22 -15 52 -33 77c-26 37 -76 68 -141 68
c-69 0 -118 -43 -159 -75c-45 -35 -68 -52 -95 -52c-7 0 -14 1 -22 3c-24 6 -33 15 -38 23c-7 10 -12 24 -18 48c-6 23 -26 37 -48 37c-30 0 -50 -24 -50 -49c0 -4 0 -9 1 -13c6 -24 15 -54 34 -81c26 -37 77 -68 141 -68c68 0 118 42 159 75c44 35 68 52 96 52
c7 0 14 -1 21 -3c23 -6 32 -15 37 -23c7 -10 11 -24 19 -50c6 -22 26 -36 48 -36z" />
</svg>
