<?xml version="1.0" standalone="no"?>
<!DOCTYPE svg PUBLIC "-//W3C//DTD SVG 1.1//EN" "http://www.w3.org/Graphics/SVG/1.1/DTD/svg11.dtd" >
<svg xmlns="http://www.w3.org/2000/svg" xmlns:xlink="http://www.w3.org/1999/xlink" version="1.1" viewBox="-10 0 1010 1000">
   <path fill="currentColor"
d="M149 620c0 -193 157 -350 350 -350s350 157 350 350s-157 350 -350 350s-350 -157 -350 -350zM499 370c-138 0 -250 112 -250 250s112 250 250 250s250 -112 250 -250s-112 -250 -250 -250zM750 97c29 0 50 25 50 50c0 8 -2 17 -7 25l-50 87c-9 16 -26 25 -43 25
c-29 0 -50 -25 -50 -50c0 -8 2 -17 7 -25l50 -87c9 -16 26 -25 43 -25zM200 147c0 -25 21 -50 50 -50c17 0 34 9 43 25l50 87c5 8 7 17 7 25c0 25 -21 50 -50 50c-17 0 -34 -9 -43 -25l-50 -87c-5 -8 -7 -17 -7 -25zM500 30c28 0 50 22 50 50v100c0 28 -22 50 -50 50
s-50 -22 -50 -50v-100c0 -28 22 -50 50 -50z" />
</svg>
