<?xml version="1.0" standalone="no"?>
<!DOCTYPE svg PUBLIC "-//W3C//DTD SVG 1.1//EN" "http://www.w3.org/Graphics/SVG/1.1/DTD/svg11.dtd" >
<svg xmlns="http://www.w3.org/2000/svg" xmlns:xlink="http://www.w3.org/1999/xlink" version="1.1" viewBox="-10 0 1010 1000">
   <path fill="currentColor"
d="M500 590c110 0 200 -90 200 -200c0 -36 -9 -70 -26 -99l-1 -1v-1c-35 -59 -100 -99 -173 -99s-137 40 -172 99l-2 2c-16 29 -26 63 -26 99c0 110 90 200 200 200zM50 159c0 -29 25 -50 50 -50c9 0 17 2 25 7l144 83c55 -66 138 -109 231 -109s176 43 231 109l144 -83
c8 -5 16 -7 25 -7c25 0 51 20 51 49c0 17 -10 35 -26 44l-144 83c12 33 19 68 19 105c0 149 -108 272 -250 296v166c0 28 -22 50 -50 50s-50 -22 -50 -50v-166c-142 -24 -250 -147 -250 -296c0 -37 7 -72 19 -105l-144 -83c-16 -9 -25 -26 -25 -43z" />
</svg>
