<?xml version="1.0" standalone="no"?>
<!DOCTYPE svg PUBLIC "-//W3C//DTD SVG 1.1//EN" "http://www.w3.org/Graphics/SVG/1.1/DTD/svg11.dtd" >
<svg xmlns="http://www.w3.org/2000/svg" xmlns:xlink="http://www.w3.org/1999/xlink" version="1.1" viewBox="-10 0 1010 1000">
   <path fill="currentColor"
d="M500 640c138 0 250 -112 250 -250s-112 -250 -250 -250s-250 112 -250 250s112 250 250 250zM940 88c25 0 50 21 50 50c0 17 -9 34 -25 43l-139 81c16 40 24 83 24 128c0 176 -130 322 -300 346v164c0 28 -22 50 -50 50s-50 -22 -50 -50v-164
c-170 -24 -300 -170 -300 -346c0 -45 8 -88 24 -128l-139 -81c-16 -9 -25 -26 -25 -43c0 -29 25 -50 50 -50c8 0 17 2 25 7l139 80c64 -82 164 -135 276 -135s212 53 276 135l139 -80c8 -5 17 -7 25 -7z" />
</svg>
