<?xml version="1.0" standalone="no"?>
<!DOCTYPE svg PUBLIC "-//W3C//DTD SVG 1.1//EN" "http://www.w3.org/Graphics/SVG/1.1/DTD/svg11.dtd" >
<svg xmlns="http://www.w3.org/2000/svg" xmlns:xlink="http://www.w3.org/1999/xlink" version="1.1" viewBox="-10 0 1010 1000">
   <path fill="currentColor"
d="M235 570c0 -29 25 -50 50 -50c8 0 17 2 25 7l62 35c33 -32 78 -52 128 -52s96 20 129 52l61 -35c8 -5 17 -7 25 -7c25 0 50 21 50 50c0 17 -9 34 -25 43l-61 36c4 14 5 29 5 45c0 84 -57 155 -134 177v71c0 28 -22 50 -50 50s-50 -22 -50 -50v-71
c-77 -22 -134 -93 -134 -177c0 -16 2 -31 6 -45l-62 -36c-16 -9 -25 -26 -25 -43zM500 610c-45 0 -84 35 -84 84c0 46 38 84 84 84s84 -38 84 -84c0 -49 -40 -84 -84 -84z" />
</svg>
