<?xml version="1.0" standalone="no"?>
<!DOCTYPE svg PUBLIC "-//W3C//DTD SVG 1.1//EN" "http://www.w3.org/Graphics/SVG/1.1/DTD/svg11.dtd" >
<svg xmlns="http://www.w3.org/2000/svg" xmlns:xlink="http://www.w3.org/1999/xlink" version="1.1" viewBox="-10 0 1010 1000">
   <path fill="currentColor"
d="M635 616c-43 6 -89 9 -135 9s-91 -3 -134 -9c-2 12 -3 23 -3 33c0 60 16 105 39 134c22 28 54 45 98 45s77 -17 99 -45c23 -29 39 -74 39 -134c0 -10 -1 -21 -3 -33zM568 236c56 74 106 167 139 263c18 -6 34 -12 45 -19c63 -36 89 -97 89 -150c0 -26 -6 -50 -17 -69
c-22 -38 -76 -70 -137 -70c-41 0 -90 19 -119 45zM500 313c-42 58 -82 136 -108 206c34 4 71 6 108 6s74 -2 108 -6c-26 -70 -66 -148 -108 -206zM433 236c-29 -26 -79 -45 -120 -45c-61 0 -114 32 -136 70c-11 19 -17 43 -17 69c0 53 26 114 89 150c11 7 26 13 44 19
c33 -95 84 -189 140 -263zM500 928c-73 0 -135 -29 -177 -82c-41 -51 -60 -121 -60 -197c0 -17 2 -34 5 -53c-25 -8 -49 -17 -69 -29c-96 -55 -139 -149 -139 -237c0 -43 10 -85 30 -119c41 -70 128 -120 224 -120c47 0 96 12 142 39c15 9 30 19 44 32c14 -13 29 -23 44 -32
c46 -27 95 -39 142 -39c96 0 183 50 224 120c20 34 30 77 30 120c0 87 -42 181 -138 236c-20 12 -44 21 -69 29c3 19 5 36 5 53c0 76 -20 146 -61 197c-42 53 -104 82 -177 82z" />
</svg>
