<?xml version="1.0" standalone="no"?>
<!DOCTYPE svg PUBLIC "-//W3C//DTD SVG 1.1//EN" "http://www.w3.org/Graphics/SVG/1.1/DTD/svg11.dtd" >
<svg xmlns="http://www.w3.org/2000/svg" xmlns:xlink="http://www.w3.org/1999/xlink" version="1.1" viewBox="-10 0 1010 1000">
   <path fill="currentColor"
d="M455 60c132 0 238 108 238 240c0 93 -53 174 -131 214l214 350c5 8 8 17 8 26c0 26 -21 50 -50 50h-468c-29 0 -50 -24 -50 -50c0 -9 3 -18 8 -26l200 -326c-33 -4 -65 -16 -92 -33c-16 -10 -24 -26 -24 -42c0 -20 12 -41 34 -48c46 -15 85 -41 85 -115
s-39 -100 -85 -115c-22 -7 -34 -28 -34 -48c0 -16 8 -32 24 -42c36 -22 78 -35 123 -35zM527 300c0 59 -17 104 -43 137c62 -14 109 -69 109 -137s-47 -123 -109 -137c26 33 43 78 43 137zM644 840l-144 -235l-144 235h288z" />
</svg>
