<?xml version="1.0" standalone="no"?>
<!DOCTYPE svg PUBLIC "-//W3C//DTD SVG 1.1//EN" "http://www.w3.org/Graphics/SVG/1.1/DTD/svg11.dtd" >
<svg xmlns="http://www.w3.org/2000/svg" xmlns:xlink="http://www.w3.org/1999/xlink" version="1.1" viewBox="-10 0 1010 1000">
   <path fill="currentColor"
d="M500 50c28 0 50 22 50 50v100c0 28 -22 50 -50 50s-50 -22 -50 -50v-100c0 -28 22 -50 50 -50zM225 124c8 -5 17 -7 25 -7c17 0 34 9 43 25l50 87c5 8 7 17 7 25c0 17 -9 34 -25 43c-8 5 -17 7 -25 7c-17 0 -34 -9 -43 -25l-50 -87c-5 -8 -7 -17 -7 -25
c0 -17 9 -34 25 -43zM775 124c16 9 25 26 25 43c0 8 -2 17 -7 25l-50 87c-9 16 -26 25 -43 25c-8 0 -17 -2 -25 -7c-16 -9 -25 -26 -25 -43c0 -8 2 -17 7 -25l50 -87c9 -16 26 -25 43 -25c8 0 17 2 25 7zM442 683c9 0 19 -6 19 -16c0 -3 -1 -6 -3 -10c-5 -8 -7 -17 -7 -26
c0 -17 9 -34 25 -43c8 -5 16 -7 25 -7c17 0 35 9 44 25c12 20 17 40 17 60c0 63 -54 117 -119 117c-16 0 -33 -4 -50 -11l-27 -15c-40 -30 -58 -73 -58 -118c0 -91 74 -187 190 -187c7 0 14 0 22 1c120 12 191 117 191 227c0 89 -45 182 -145 234c-18 9 -68 32 -132 32
c-47 0 -101 -13 -156 -50c-90 -61 -130 -155 -130 -251c0 -172 131 -351 347 -357h8c56 0 222 15 319 188c4 8 7 16 7 24c0 17 -10 35 -26 44c-8 4 -16 6 -24 6c-17 0 -35 -9 -44 -25c-47 -83 -131 -137 -229 -137h-8c-156 4 -251 134 -251 256c0 66 28 129 88 170
c33 23 67 32 100 32c96 0 178 -82 178 -168c0 -25 -7 -51 -23 -75c-24 -37 -54 -51 -83 -51c-53 0 -102 47 -102 87c0 15 7 30 24 40c5 3 9 3 13 4z" />
</svg>
