<?xml version="1.0" standalone="no"?>
<!DOCTYPE svg PUBLIC "-//W3C//DTD SVG 1.1//EN" "http://www.w3.org/Graphics/SVG/1.1/DTD/svg11.dtd" >
<svg xmlns="http://www.w3.org/2000/svg" xmlns:xlink="http://www.w3.org/1999/xlink" version="1.1" viewBox="-10 0 1010 1000">
   <path fill="currentColor"
d="M225 684c0 -29 25 -50 50 -50c8 0 17 2 25 7l72 41l85 -147c9 -15 25 -25 43 -25s34 10 43 25l85 147l72 -41c8 -5 17 -7 25 -7c25 0 50 21 50 50c0 17 -9 34 -25 43l-72 42l85 146c5 9 7 17 7 25c0 28 -27 50 -51 50h-438c-24 0 -51 -22 -51 -50c0 -8 2 -16 7 -25
l85 -146l-72 -42c-16 -9 -25 -26 -25 -43zM564 771l-64 -111l-65 112l-3 6l-65 112h266l-64 -111c-2 -3 -4 -5 -5 -8z" />
</svg>
