<?xml version="1.0" standalone="no"?>
<!DOCTYPE svg PUBLIC "-//W3C//DTD SVG 1.1//EN" "http://www.w3.org/Graphics/SVG/1.1/DTD/svg11.dtd" >
<svg xmlns="http://www.w3.org/2000/svg" xmlns:xlink="http://www.w3.org/1999/xlink" version="1.1" viewBox="-10 0 1010 1000">
   <path fill="currentColor"
d="M665 516l-166 -342l-168 344c-1 3 -2 6 -4 9l-177 363h698l-177 -361c-3 -4 -5 -9 -6 -13zM9 347c0 -29 25 -50 50 -50c10 0 19 3 28 9l177 121l190 -389c8 -17 26 -28 45 -28s37 11 45 28l189 389l177 -121c9 -6 18 -9 28 -9c25 0 51 21 51 50c0 16 -8 31 -22 41
l-190 129l195 401c3 7 6 15 6 22c0 29 -24 50 -50 50h-858c-26 0 -50 -21 -50 -50c0 -7 2 -15 5 -22l195 -400l-190 -130c-14 -10 -21 -25 -21 -41z" />
</svg>
