<?xml version="1.0" standalone="no"?>
<!DOCTYPE svg PUBLIC "-//W3C//DTD SVG 1.1//EN" "http://www.w3.org/Graphics/SVG/1.1/DTD/svg11.dtd" >
<svg xmlns="http://www.w3.org/2000/svg" xmlns:xlink="http://www.w3.org/1999/xlink" version="1.1" viewBox="-10 0 1010 1000">
   <path fill="currentColor"
d="M430 650c28 0 50 22 50 50v200c0 28 -22 50 -50 50s-50 -22 -50 -50v-200c0 -28 22 -50 50 -50zM110 650c28 0 50 22 50 50v200c0 28 -22 50 -50 50s-50 -22 -50 -50v-200c0 -28 22 -50 50 -50zM270 650c28 0 50 22 50 50v200c0 28 -22 50 -50 50s-50 -22 -50 -50v-200
c0 -28 22 -50 50 -50zM681 425c0 41 -34 75 -75 75s-75 -34 -75 -75s34 -75 75 -75s75 34 75 75zM501 425c0 41 -34 75 -75 75s-75 -34 -75 -75s34 -75 75 -75s75 34 75 75zM594 100h1c7 0 29 2 43 24l317 499c5 8 8 18 8 27c0 26 -21 50 -50 50h-274v200
c0 28 -22 50 -50 50s-50 -22 -50 -50v-250c0 -28 22 -50 50 -50h233l-255 -400h-367c-28 0 -50 -22 -50 -50s22 -50 50 -50h394z" />
</svg>
