<?xml version="1.0" standalone="no"?>
<!DOCTYPE svg PUBLIC "-//W3C//DTD SVG 1.1//EN" "http://www.w3.org/Graphics/SVG/1.1/DTD/svg11.dtd" >
<svg xmlns="http://www.w3.org/2000/svg" xmlns:xlink="http://www.w3.org/1999/xlink" version="1.1" viewBox="-10 0 1010 1000">
   <path fill="currentColor"
d="M378 495c0 41 -34 75 -75 75s-75 -34 -75 -75s34 -75 75 -75s75 34 75 75zM573 495c0 41 -34 75 -75 75s-75 -34 -75 -75s34 -75 75 -75s75 34 75 75zM373 100c0 -25 21 -50 50 -50c16 0 32 8 42 23l350 550c5 8 8 17 8 27c0 30 -25 50 -50 50h-450v200
c0 28 -22 50 -50 50s-50 -22 -50 -50v-250c0 -28 22 -50 50 -50h409l-301 -473c-5 -8 -8 -18 -8 -27z" />
</svg>
