<?xml version="1.0" standalone="no"?>
<!DOCTYPE svg PUBLIC "-//W3C//DTD SVG 1.1//EN" "http://www.w3.org/Graphics/SVG/1.1/DTD/svg11.dtd" >
<svg xmlns="http://www.w3.org/2000/svg" xmlns:xlink="http://www.w3.org/1999/xlink" version="1.1" viewBox="-10 0 1070 1000">
   <path fill="currentColor"
d="M500 100c28 0 50 22 50 50v450c0 28 -22 50 -50 50s-50 -22 -50 -50v-450c0 -28 22 -50 50 -50zM341 650c28 0 50 24 50 50c0 10 -3 21 -10 30c-24 32 -50 81 -50 148c0 40 8 73 21 94c11 18 25 28 50 28c21 0 46 -24 48 -45c2 -26 22 -45 50 -45s48 19 50 45
c2 21 27 45 48 45c25 0 39 -10 50 -28c13 -21 21 -54 21 -94c0 -67 -26 -116 -50 -148c-7 -9 -10 -20 -10 -30c0 -26 22 -50 50 -50c15 0 30 7 40 20c33 44 70 114 70 208c0 46 8 73 22 90c13 15 41 32 109 32h100c28 0 50 22 50 50s-22 50 -50 50h-100
c-78 0 -138 -18 -178 -59c-28 36 -70 59 -124 59c-36 0 -72 -16 -98 -39c-26 23 -62 39 -98 39c-118 0 -171 -106 -171 -222c0 -95 37 -164 70 -208c10 -13 25 -20 40 -20z" />
</svg>
