<?xml version="1.0" standalone="no"?>
<!DOCTYPE svg PUBLIC "-//W3C//DTD SVG 1.1//EN" "http://www.w3.org/Graphics/SVG/1.1/DTD/svg11.dtd" >
<svg xmlns="http://www.w3.org/2000/svg" xmlns:xlink="http://www.w3.org/1999/xlink" version="1.1" viewBox="-10 0 1010 1000">
   <path fill="currentColor"
d="M810 482c-25 -55 -72 -82 -120 -82c-59 0 -118 39 -142 115c-38 121 -140 185 -239 185c-84 0 -167 -46 -210 -141c-12 -27 -12 -26 -47 -159c-1 -5 -2 -9 -2 -14c0 -30 26 -48 52 -48c20 0 39 12 46 37c33 125 33 124 42 143c25 55 72 82 120 82c59 0 118 -40 142 -115
c38 -121 140 -185 239 -185c84 0 167 46 210 141c12 27 12 27 47 159c1 5 2 9 2 14c0 30 -26 48 -52 48c-20 0 -39 -12 -46 -37c-33 -125 -33 -124 -42 -143z" />
</svg>
