<?xml version="1.0" standalone="no"?>
<!DOCTYPE svg PUBLIC "-//W3C//DTD SVG 1.1//EN" "http://www.w3.org/Graphics/SVG/1.1/DTD/svg11.dtd" >
<svg xmlns="http://www.w3.org/2000/svg" xmlns:xlink="http://www.w3.org/1999/xlink" version="1.1" viewBox="-10 0 1010 1000">
   <path fill="currentColor"
d="M500 728c-45 0 -81 36 -81 81s36 81 81 81s81 -36 81 -81s-36 -81 -81 -81zM319 809c0 -100 81 -181 181 -181s181 81 181 181s-81 181 -181 181s-181 -81 -181 -181zM789 510c30 0 50 24 50 50v8l-57 343c-4 25 -25 42 -49 42c-30 0 -50 -24 -50 -50c0 -3 1 -5 1 -8
l56 -343c4 -25 25 -42 49 -42zM161 560c0 -26 20 -50 50 -50c24 0 45 17 49 42l56 343c0 3 1 5 1 8c0 26 -20 50 -50 50c-24 0 -45 -17 -49 -42l-57 -343v-8z" />
</svg>
