<?xml version="1.0" standalone="no"?>
<!DOCTYPE svg PUBLIC "-//W3C//DTD SVG 1.1//EN" "http://www.w3.org/Graphics/SVG/1.1/DTD/svg11.dtd" >
<svg xmlns="http://www.w3.org/2000/svg" xmlns:xlink="http://www.w3.org/1999/xlink" version="1.1" viewBox="-10 0 1010 1000">
   <path fill="currentColor"
d="M92 146c3 0 6 -1 8 -1c24 0 45 18 49 42l90 550c0 3 1 6 1 8c0 24 -18 45 -42 49c-3 0 -6 1 -8 1c-24 0 -45 -18 -49 -42l-90 -550c0 -3 -1 -6 -1 -8c0 -24 18 -45 42 -49zM908 146c24 4 42 25 42 49c0 2 -1 5 -1 8l-90 550c-4 24 -25 42 -49 42c-2 0 -5 -1 -8 -1
c-24 -4 -42 -25 -42 -49c0 -2 1 -5 1 -8l90 -550c4 -24 25 -42 49 -42c2 0 5 1 8 1zM240 595c0 -144 116 -260 260 -260s260 116 260 260s-116 260 -260 260s-260 -116 -260 -260zM500 435c-88 0 -160 72 -160 160s72 160 160 160s160 -72 160 -160s-72 -160 -160 -160z" />
</svg>
