<?xml version="1.0" standalone="no"?>
<!DOCTYPE svg PUBLIC "-//W3C//DTD SVG 1.1//EN" "http://www.w3.org/Graphics/SVG/1.1/DTD/svg11.dtd" >
<svg xmlns="http://www.w3.org/2000/svg" xmlns:xlink="http://www.w3.org/1999/xlink" version="1.1" viewBox="-10 0 1010 1000">
   <path fill="currentColor"
d="M673 670c10 -11 24 -16 37 -16c12 0 24 4 34 13l230 215c11 10 16 24 16 37c0 12 -4 24 -13 34c-10 11 -24 16 -37 16c-12 0 -24 -5 -34 -14l-230 -214c-11 -10 -16 -24 -16 -37c0 -12 4 -24 13 -34zM327 670c9 10 13 22 13 34c0 13 -5 26 -16 36l-230 215
c-10 9 -22 14 -34 14c-13 0 -27 -5 -37 -16c-9 -10 -13 -22 -13 -34c0 -13 5 -27 16 -37l230 -215c10 -9 22 -13 34 -13c13 0 27 5 37 16zM977 47c9 10 13 22 13 34c0 13 -5 27 -16 37l-230 214c-10 9 -22 14 -34 14c-13 0 -27 -5 -37 -16c-9 -10 -13 -22 -13 -34
c0 -13 5 -27 16 -37l230 -214c10 -9 22 -14 34 -14c13 0 27 5 37 16zM23 47c10 -11 24 -16 37 -16c12 0 24 5 34 14l230 214c11 10 16 24 16 37c0 12 -5 24 -14 34c-10 11 -23 16 -36 16c-12 0 -24 -5 -34 -14l-230 -214c-11 -10 -16 -24 -16 -37c0 -12 4 -24 13 -34z" />
</svg>
