<?xml version="1.0" standalone="no"?>
<!DOCTYPE svg PUBLIC "-//W3C//DTD SVG 1.1//EN" "http://www.w3.org/Graphics/SVG/1.1/DTD/svg11.dtd" >
<svg xmlns="http://www.w3.org/2000/svg" xmlns:xlink="http://www.w3.org/1999/xlink" version="1.1" viewBox="-10 0 1010 1000">
   <path fill="currentColor"
d="M115 115c10 -10 22 -15 35 -15s25 5 35 15l180 180c10 10 15 22 15 35s-5 25 -15 35s-22 15 -35 15s-25 -5 -35 -15l-180 -180c-10 -10 -15 -22 -15 -35s5 -25 15 -35zM885 115c10 10 15 22 15 35s-5 25 -15 35l-180 180c-10 10 -22 15 -35 15s-25 -5 -35 -15
s-15 -22 -15 -35s5 -25 15 -35l180 -180c10 -10 22 -15 35 -15s25 5 35 15zM359 798c14 -51 46 -190 87 -405c5 -26 27 -41 49 -41c17 0 34 9 44 26l220 392c4 8 6 14 6 22c0 53 -95 108 -210 108c-28 0 -50 -22 -50 -50s22 -50 50 -50c46 0 76 -11 95 -20l-132 -235
c-25 126 -56 267 -76 322c-7 20 -26 33 -47 33c-74 0 -133 -20 -186 -53c-15 -9 -24 -26 -24 -43c0 -9 2 -18 7 -26c9 -15 26 -24 43 -24c9 0 18 2 26 7c30 19 61 32 98 37z" />
</svg>
