<?xml version="1.0" standalone="no"?>
<!DOCTYPE svg PUBLIC "-//W3C//DTD SVG 1.1//EN" "http://www.w3.org/Graphics/SVG/1.1/DTD/svg11.dtd" >
<svg xmlns="http://www.w3.org/2000/svg" xmlns:xlink="http://www.w3.org/1999/xlink" version="1.1" viewBox="-10 0 1010 1000">
   <path fill="currentColor"
d="M115 115c10 -10 22 -15 35 -15s25 5 35 15l180 180c10 10 15 22 15 35s-5 25 -15 35s-22 15 -35 15s-25 -5 -35 -15l-180 -180c-10 -10 -15 -22 -15 -35s5 -25 15 -35zM115 885c-10 -10 -15 -22 -15 -35s5 -25 15 -35l180 -180c10 -10 22 -15 35 -15s25 5 35 15
s15 22 15 35s-5 25 -15 35l-180 180c-10 10 -22 15 -35 15s-25 -5 -35 -15zM885 115c10 10 15 22 15 35s-5 25 -15 35l-180 180c-10 10 -22 15 -35 15s-25 -5 -35 -15s-15 -22 -15 -35s5 -25 15 -35l180 -180c10 -10 22 -15 35 -15s25 5 35 15zM885 885
c-10 10 -22 15 -35 15s-25 -5 -35 -15l-180 -180c-10 -10 -15 -22 -15 -35s5 -25 15 -35s22 -15 35 -15s25 5 35 15l180 180c10 10 15 22 15 35s-5 25 -15 35z" />
</svg>
