<?xml version="1.0" standalone="no"?>
<!DOCTYPE svg PUBLIC "-//W3C//DTD SVG 1.1//EN" "http://www.w3.org/Graphics/SVG/1.1/DTD/svg11.dtd" >
<svg xmlns="http://www.w3.org/2000/svg" xmlns:xlink="http://www.w3.org/1999/xlink" version="1.1" viewBox="-10 0 1070 1000">
   <path fill="currentColor"
d="M500 801c-43 51 -112 99 -200 99c-138 0 -250 -112 -250 -250c0 -65 32 -131 71 -190c71 -107 193 -222 284 -298c28 -23 42 -35 65 -52c9 -7 19 -10 30 -10c21 0 34 13 48 24c110 86 247 210 331 336c39 59 71 125 71 190c0 67 -14 151 -14 221c0 44 7 88 19 107
c8 13 19 22 45 22c28 0 50 22 50 50s-22 50 -50 50c-59 0 -103 -26 -130 -69c-29 -47 -34 -100 -34 -160v-11c-39 25 -86 40 -136 40c-88 0 -157 -48 -200 -99zM500 213c-95 76 -224 194 -296 302c-36 54 -54 100 -54 135c0 83 67 150 150 150c40 0 75 -18 104 -44
c30 -27 45 -55 47 -66c5 -23 25 -40 49 -40s44 17 49 40c2 11 17 39 47 66c29 26 64 44 104 44c83 0 150 -67 150 -150c0 -35 -18 -81 -54 -135c-72 -109 -200 -225 -296 -302z" />
</svg>
