<?xml version="1.0" standalone="no"?>
<!DOCTYPE svg PUBLIC "-//W3C//DTD SVG 1.1//EN" "http://www.w3.org/Graphics/SVG/1.1/DTD/svg11.dtd" >
<svg xmlns="http://www.w3.org/2000/svg" xmlns:xlink="http://www.w3.org/1999/xlink" version="1.1" viewBox="-10 0 1010 1000">
   <path fill="currentColor"
d="M300 800c40 0 75 -18 104 -44c30 -27 45 -55 47 -66c5 -23 25 -40 49 -40s44 17 49 40c2 11 17 39 47 66c29 26 64 44 104 44c83 0 150 -67 150 -150c0 -35 -18 -81 -54 -135c-35 -52 -82 -106 -131 -155s-98 -91 -135 -122c-12 -10 -21 -18 -30 -25c-9 7 -18 15 -30 25
c-37 31 -86 73 -135 122s-96 103 -131 155c-36 54 -54 100 -54 135c0 83 67 150 150 150zM500 801c-45 50 -109 99 -200 99c-138 0 -250 -112 -250 -250c0 -65 32 -131 71 -190c85 -128 221 -246 331 -336c9 -6 13 -9 18 -14c9 -6 20 -10 30 -10c9 0 24 4 31 11
c5 5 9 8 17 13c108 89 247 209 331 336c39 59 71 125 71 190c0 138 -112 250 -250 250c-90 0 -155 -49 -200 -99z" />
</svg>
