<?xml version="1.0" standalone="no"?>
<!DOCTYPE svg PUBLIC "-//W3C//DTD SVG 1.1//EN" "http://www.w3.org/Graphics/SVG/1.1/DTD/svg11.dtd" >
<svg xmlns="http://www.w3.org/2000/svg" xmlns:xlink="http://www.w3.org/1999/xlink" version="1.1" viewBox="-10 0 1010 1000">
   <path fill="currentColor"
d="M210 125c28 0 50 24 50 50c0 10 -3 21 -10 30c-48 64 -100 161 -100 296c0 78 14 146 43 193c27 44 68 71 129 71c24 0 55 -12 81 -34s43 -51 47 -85c2 -26 22 -46 50 -46s48 20 50 46c4 34 21 63 47 85s57 34 81 34c61 0 102 -27 129 -71c29 -47 43 -115 43 -193
c0 -135 -52 -232 -100 -296c-7 -9 -10 -20 -10 -30c0 -26 22 -50 50 -50c15 0 30 7 40 20c57 76 120 194 120 356c0 189 -81 364 -272 364c-69 0 -139 -43 -178 -91c-39 48 -109 91 -178 91c-191 0 -272 -175 -272 -364c0 -162 63 -280 120 -356c10 -13 25 -20 40 -20z" />
</svg>
