<?xml version="1.0" standalone="no"?>
<!DOCTYPE svg PUBLIC "-//W3C//DTD SVG 1.1//EN" "http://www.w3.org/Graphics/SVG/1.1/DTD/svg11.dtd" >
<svg xmlns="http://www.w3.org/2000/svg" xmlns:xlink="http://www.w3.org/1999/xlink" version="1.1" viewBox="-10 0 1010 1000">
   <path fill="currentColor"
d="M624 560c0 -26 22 -50 50 -50c15 0 30 7 40 20c36 47 76 121 76 223c0 54 -10 112 -38 157c-30 48 -78 80 -145 80c-39 0 -79 -19 -107 -45c-28 26 -68 45 -107 45c-126 0 -183 -113 -183 -237c0 -102 40 -176 76 -223c10 -13 25 -20 40 -20c28 0 50 24 50 50
c0 11 -3 21 -10 30c-27 36 -56 89 -56 163c0 44 8 80 23 104c13 21 31 33 60 33c25 0 54 -27 57 -52c2 -26 22 -46 50 -46s48 20 50 46c3 25 32 52 57 52c29 0 47 -12 60 -33c15 -24 23 -60 23 -104c0 -74 -29 -127 -56 -163c-7 -9 -10 -19 -10 -30z" />
</svg>
