<?xml version="1.0" standalone="no"?>
<!DOCTYPE svg PUBLIC "-//W3C//DTD SVG 1.1//EN" "http://www.w3.org/Graphics/SVG/1.1/DTD/svg11.dtd" >
<svg xmlns="http://www.w3.org/2000/svg" xmlns:xlink="http://www.w3.org/1999/xlink" version="1.1" viewBox="-10 0 1010 1000">
   <path fill="currentColor"
d="M210 125c28 0 50 24 50 50c0 10 -3 21 -10 30c-48 64 -100 161 -100 296c0 78 14 146 43 193c27 44 68 71 129 71c24 0 55 -12 81 -34s43 -51 47 -85c0 -4 2 -7 3 -11c6 -19 22 -35 47 -35c26 0 40 16 47 35c1 4 3 7 3 11c4 34 21 63 47 85s57 34 81 34
c132 0 172 -127 172 -264c0 -135 -52 -232 -100 -296c-7 -9 -10 -20 -10 -30c0 -26 22 -50 50 -50c15 0 30 7 40 20c57 76 120 194 120 356c0 88 -16 176 -58 245c-44 72 -115 119 -214 119c-51 0 -104 -22 -146 -57c-12 -10 -22 -22 -32 -34c-10 12 -20 24 -32 34
c-42 35 -95 57 -146 57c-99 0 -170 -47 -214 -119c-42 -69 -58 -157 -58 -245c0 -162 63 -280 120 -356c10 -13 25 -20 40 -20z" />
</svg>
