<?xml version="1.0" standalone="no"?>
<!DOCTYPE svg PUBLIC "-//W3C//DTD SVG 1.1//EN" "http://www.w3.org/Graphics/SVG/1.1/DTD/svg11.dtd" >
<svg xmlns="http://www.w3.org/2000/svg" xmlns:xlink="http://www.w3.org/1999/xlink" version="1.1" viewBox="-10 0 1010 1000">
   <path fill="currentColor"
d="M65 65c10 -10 22 -15 35 -15s25 5 35 15l190 189l140 -139c10 -10 22 -15 35 -15s25 5 35 15l140 139l190 -189c10 -10 22 -15 35 -15s25 5 35 15s15 22 15 35s-5 25 -15 35l-189 190l139 140c10 10 15 22 15 35s-5 25 -15 35l-139 140l189 191c10 10 15 22 15 35
s-5 26 -15 36s-22 15 -35 15s-25 -5 -35 -15l-190 -191l-140 139c-10 10 -22 15 -35 15s-25 -5 -35 -15l-140 -139l-190 191c-10 10 -22 15 -35 15s-25 -5 -35 -15s-15 -23 -15 -36s5 -25 15 -35l189 -191l-139 -140c-10 -10 -15 -22 -15 -35s5 -25 15 -35l139 -140
l-189 -190c-10 -10 -15 -22 -15 -35s5 -25 15 -35zM500 221l-279 279l279 279l279 -279z" />
</svg>
