<?xml version="1.0" standalone="no"?>
<!DOCTYPE svg PUBLIC "-//W3C//DTD SVG 1.1//EN" "http://www.w3.org/Graphics/SVG/1.1/DTD/svg11.dtd" >
<svg xmlns="http://www.w3.org/2000/svg" xmlns:xlink="http://www.w3.org/1999/xlink" version="1.1" viewBox="-10 0 1010 1000">
   <path fill="currentColor"
d="M583 778c0 8 4 29 51 29c76 0 96 -67 96 -114c0 -20 -22 -27 -51 -27c-39 0 -91 12 -118 19c-74 110 -171 225 -358 235h-15c-56 0 -84 -20 -84 -46c0 -18 13 -39 38 -59c69 -55 251 -135 388 -173c16 -26 33 -53 50 -84c-22 13 -48 21 -79 21c-12 0 -55 -4 -55 -65
c0 -87 91 -262 133 -332c8 -13 11 -22 11 -29c0 -12 -10 -16 -29 -16h-2c-40 1 -103 26 -153 83c-38 44 -77 100 -94 143c0 0 -9 23 -9 36c0 5 0 11 17 11c6 0 74 -1 92 -46c4 -11 14 -16 23 -16c13 0 26 10 26 24c0 3 -1 6 -2 9c0 6 -31 79 -139 79c-33 0 -67 -16 -67 -61
c0 -23 11 -91 115 -211c57 -66 134 -101 192 -101c60 0 80 37 80 64c0 18 -8 38 -19 57c-2 3 -124 211 -125 305c0 15 2 16 4 16h1c57 0 92 -44 124 -88c16 -22 32 -40 36 -46c54 -115 55 -118 92 -217c35 -93 41 -109 70 -121c7 -3 13 -4 20 -4c27 0 51 24 51 57
c0 13 -4 26 -11 41c-20 39 -128 201 -179 269c-38 80 -63 135 -105 205c24 -5 51 -8 77 -8c55 0 104 16 104 76c0 88 -50 164 -146 164c-70 0 -101 -37 -101 -78c0 -53 57 -103 107 -103c34 0 60 22 60 50c0 39 -52 69 -66 69s-24 -13 -24 -26c0 -24 29 -23 39 -42
c-2 -1 -5 -1 -8 -1c-22 0 -58 27 -58 52zM483 708c-3 1 -267 92 -324 159c1 0 10 3 29 3c24 0 64 -3 116 -20c63 -20 120 -66 179 -142zM804 186c28 -43 40 -64 40 -76c0 -2 0 -5 -1 -7c-9 3 -13 15 -39 83z" />
</svg>
